<?xml version="1.0" encoding="utf-8"?>
<!-- Generator: Adobe Illustrator 24.3.0, SVG Export Plug-In . SVG Version: 6.00 Build 0)  -->
<svg version="1.1" id="Layer_5" xmlns="http://www.w3.org/2000/svg" xmlns:xlink="http://www.w3.org/1999/xlink" x="0px" y="0px"
	 viewBox="0 0 100.6 100.6" style="enable-background:new 0 0 100.6 100.6;" xml:space="preserve">
<style type="text/css">
	.st0{clip-path:url(#SVGID_2_);}
	.st1{fill:url(#SVGID_3_);}
	.st2{fill:url(#SVGID_4_);}
	.st3{fill:url(#SVGID_5_);}
	.st4{fill:url(#SVGID_6_);}
	.st5{fill:url(#SVGID_7_);}
	.st6{fill:url(#SVGID_8_);}
	.st7{fill:url(#SVGID_9_);}
	.st8{fill:url(#SVGID_10_);}
	.st9{fill:url(#SVGID_11_);}
	.st10{fill:url(#SVGID_12_);}
	.st11{fill:url(#SVGID_13_);}
	.st12{fill:url(#SVGID_14_);}
	.st13{fill:url(#SVGID_15_);}
	.st14{fill:url(#SVGID_16_);}
	.st15{fill:url(#SVGID_17_);}
	.st16{fill:url(#SVGID_18_);}
	.st17{fill:url(#SVGID_19_);}
	.st18{fill:url(#SVGID_20_);}
	.st19{fill:url(#SVGID_21_);}
	.st20{fill:url(#SVGID_22_);}
	.st21{fill:url(#SVGID_23_);}
	.st22{fill:url(#SVGID_24_);}
	.st23{fill:url(#SVGID_25_);}
	.st24{fill:url(#SVGID_26_);}
	.st25{fill:url(#SVGID_27_);}
	.st26{fill:url(#SVGID_28_);}
	.st27{fill:url(#SVGID_29_);}
	.st28{fill:url(#SVGID_30_);}
	.st29{fill:url(#SVGID_31_);}
	.st30{fill:url(#SVGID_32_);}
	.st31{fill:url(#SVGID_33_);}
	.st32{fill:url(#SVGID_34_);}
	.st33{fill:url(#SVGID_35_);}
	.st34{fill:url(#SVGID_36_);}
	.st35{fill:url(#SVGID_37_);}
	.st36{fill:url(#SVGID_38_);}
	.st37{fill:url(#SVGID_39_);}
	.st38{fill:url(#SVGID_40_);}
	.st39{fill:url(#SVGID_41_);}
	.st40{fill:url(#SVGID_42_);}
	.st41{fill:url(#SVGID_43_);}
	.st42{fill:url(#SVGID_44_);}
	.st43{fill:url(#SVGID_45_);}
	.st44{fill:url(#SVGID_46_);}
	.st45{fill:url(#SVGID_47_);}
	.st46{fill:url(#SVGID_48_);}
	.st47{fill:url(#SVGID_49_);}
	.st48{fill:url(#SVGID_50_);}
	.st49{fill:url(#SVGID_51_);}
	.st50{fill:url(#SVGID_52_);}
	.st51{fill:url(#SVGID_53_);}
	.st52{fill:url(#SVGID_54_);}
	.st53{fill:url(#SVGID_55_);}
	.st54{fill:url(#SVGID_56_);}
	.st55{fill:url(#SVGID_57_);}
	.st56{fill:url(#SVGID_58_);}
	.st57{fill:url(#SVGID_59_);}
	.st58{fill:url(#SVGID_60_);}
	.st59{fill:url(#SVGID_61_);}
	.st60{fill:url(#SVGID_62_);}
	.st61{fill:url(#SVGID_63_);}
	.st62{fill:url(#SVGID_64_);}
	.st63{fill:url(#SVGID_65_);}
	.st64{fill:url(#SVGID_66_);}
	.st65{fill:url(#SVGID_67_);}
	.st66{fill:url(#SVGID_68_);}
	.st67{fill:url(#SVGID_69_);}
	.st68{fill:url(#SVGID_70_);}
	.st69{fill:url(#SVGID_71_);}
	.st70{fill:url(#SVGID_72_);}
	.st71{fill:url(#SVGID_73_);}
	.st72{fill:url(#SVGID_74_);}
	.st73{fill:url(#SVGID_75_);}
	.st74{fill:url(#SVGID_76_);}
	.st75{fill:url(#SVGID_77_);}
	.st76{fill:url(#SVGID_78_);}
	.st77{fill:url(#SVGID_79_);}
	.st78{fill:url(#SVGID_80_);}
	.st79{fill:url(#SVGID_81_);}
	.st80{fill:url(#SVGID_82_);}
	.st81{fill:url(#SVGID_83_);}
	.st82{fill:url(#SVGID_84_);}
	.st83{fill:url(#SVGID_85_);}
	.st84{fill:url(#SVGID_86_);}
	.st85{fill:url(#SVGID_87_);}
	.st86{fill:url(#SVGID_88_);}
	.st87{fill:url(#SVGID_89_);}
	.st88{fill:url(#SVGID_90_);}
	.st89{fill:url(#SVGID_91_);}
	.st90{fill:url(#SVGID_92_);}
	.st91{fill:url(#SVGID_93_);}
	.st92{fill:url(#SVGID_94_);}
	.st93{fill:url(#SVGID_95_);}
	.st94{fill:url(#SVGID_96_);}
	.st95{fill:url(#SVGID_97_);}
	.st96{fill:url(#SVGID_98_);}
	.st97{fill:url(#SVGID_99_);}
	.st98{fill:url(#SVGID_100_);}
	.st99{fill:url(#SVGID_101_);}
	.st100{fill:url(#SVGID_102_);}
	.st101{fill:url(#SVGID_103_);}
	.st102{fill:url(#SVGID_104_);}
	.st103{fill:url(#SVGID_105_);}
	.st104{fill:url(#SVGID_106_);}
	.st105{fill:url(#SVGID_107_);}
	.st106{fill:url(#SVGID_108_);}
	.st107{fill:url(#SVGID_109_);}
	.st108{fill:url(#SVGID_110_);}
	.st109{fill:url(#SVGID_111_);}
	.st110{fill:url(#SVGID_112_);}
	.st111{fill:url(#SVGID_113_);}
</style>
<g>
	<defs>
		<circle id="SVGID_1_" cx="50.3" cy="50.3" r="50.3"/>
	</defs>
	<clipPath id="SVGID_2_">
		<use xlink:href="#SVGID_1_"  style="overflow:visible;"/>
	</clipPath>
	<g class="st0">
		<linearGradient id="SVGID_3_" gradientUnits="userSpaceOnUse" x1="-79.0109" y1="26.0892" x2="233.7671" y2="26.0892">
			<stop  offset="0" style="stop-color:#FFFFFF"/>
			<stop  offset="1" style="stop-color:#FDB6C8"/>
		</linearGradient>
		<path class="st1" d="M134.3,24c-1.4,0-2,1-2,2.1c0,0.3,0.1,0.7,0.2,1c0.1,0.2,0.2,0.3,0.3,0.5c0.3,0.4,0.9,0.7,1.5,0.6
			c0.2,0,0.3,0,0.5,0c0.2,0,0.5-0.1,0.6-0.3c0.3-0.2,0.5-0.5,0.7-0.8c0.2-0.4,0.3-0.9,0.2-1.4C136.2,24.8,135.5,24,134.3,24z"/>
		<linearGradient id="SVGID_4_" gradientUnits="userSpaceOnUse" x1="-79.0109" y1="5.0743" x2="233.7671" y2="5.0743">
			<stop  offset="0" style="stop-color:#FFFFFF"/>
			<stop  offset="1" style="stop-color:#FDB6C8"/>
		</linearGradient>
		<path class="st2" d="M134.3,7.2c2.7,0,2.7-4.2,0-4.2C131.6,2.9,131.6,7.2,134.3,7.2z"/>
		<linearGradient id="SVGID_5_" gradientUnits="userSpaceOnUse" x1="-79.0109" y1="5.0743" x2="233.7671" y2="5.0743">
			<stop  offset="0" style="stop-color:#FFFFFF"/>
			<stop  offset="1" style="stop-color:#FDB6C8"/>
		</linearGradient>
		<path class="st3" d="M113.3,7.2c2.7,0,2.7-4.2,0-4.2C110.6,2.9,110.6,7.2,113.3,7.2z"/>
		<linearGradient id="SVGID_6_" gradientUnits="userSpaceOnUse" x1="-79.0109" y1="15.581" x2="233.7671" y2="15.581">
			<stop  offset="0" style="stop-color:#FFFFFF"/>
			<stop  offset="1" style="stop-color:#FDB6C8"/>
		</linearGradient>
		<path class="st4" d="M102.8,13.5c-2.7,0-2.7,4.2,0,4.2C105.5,17.7,105.5,13.4,102.8,13.5z"/>
		<linearGradient id="SVGID_7_" gradientUnits="userSpaceOnUse" x1="-79.0109" y1="15.581" x2="233.7671" y2="15.581">
			<stop  offset="0" style="stop-color:#FFFFFF"/>
			<stop  offset="1" style="stop-color:#FDB6C8"/>
		</linearGradient>
		<path class="st5" d="M123.8,13.5c-2.7,0-2.7,4.2,0,4.2C126.6,17.7,126.6,13.4,123.8,13.5z"/>
		<linearGradient id="SVGID_8_" gradientUnits="userSpaceOnUse" x1="-79.0109" y1="-5.4355" x2="233.7671" y2="-5.4355">
			<stop  offset="0" style="stop-color:#FFFFFF"/>
			<stop  offset="1" style="stop-color:#FDB6C8"/>
		</linearGradient>
		<path class="st6" d="M102.8-7.5c-2.7,0-2.7,4.2,0,4.2C105.5-3.3,105.5-7.6,102.8-7.5z"/>
		<linearGradient id="SVGID_9_" gradientUnits="userSpaceOnUse" x1="-79.0109" y1="-5.4355" x2="233.7671" y2="-5.4355">
			<stop  offset="0" style="stop-color:#FFFFFF"/>
			<stop  offset="1" style="stop-color:#FDB6C8"/>
		</linearGradient>
		<path class="st7" d="M123.8-7.5c-2.7,0-2.7,4.2,0,4.2C126.6-3.3,126.6-7.6,123.8-7.5z"/>
		<linearGradient id="SVGID_10_" gradientUnits="userSpaceOnUse" x1="-79.0109" y1="-15.9435" x2="233.7671" y2="-15.9435">
			<stop  offset="0" style="stop-color:#FFFFFF"/>
			<stop  offset="1" style="stop-color:#FDB6C8"/>
		</linearGradient>
		<path class="st8" d="M134.3-13.8c2.7,0,2.7-4.2,0-4.2C131.6-18.1,131.6-13.8,134.3-13.8z"/>
		<linearGradient id="SVGID_11_" gradientUnits="userSpaceOnUse" x1="-79.0109" y1="-15.9435" x2="233.7671" y2="-15.9435">
			<stop  offset="0" style="stop-color:#FFFFFF"/>
			<stop  offset="1" style="stop-color:#FDB6C8"/>
		</linearGradient>
		<path class="st9" d="M113.3-13.8c2.7,0,2.7-4.2,0-4.2C110.6-18.1,110.6-13.8,113.3-13.8z"/>
		<linearGradient id="SVGID_12_" gradientUnits="userSpaceOnUse" x1="-79.0109" y1="-15.9435" x2="233.7671" y2="-15.9435">
			<stop  offset="0" style="stop-color:#FFFFFF"/>
			<stop  offset="1" style="stop-color:#FDB6C8"/>
		</linearGradient>
		<path class="st10" d="M92.3-13.8C92.3-13.8,92.3-13.8,92.3-13.8c2.7,0,2.7-4.2,0-4.2c0,0,0,0,0,0C89.6-18.1,89.6-13.8,92.3-13.8z"
			/>
		<linearGradient id="SVGID_13_" gradientUnits="userSpaceOnUse" x1="-79.0109" y1="47.107" x2="233.7671" y2="47.107">
			<stop  offset="0" style="stop-color:#FFFFFF"/>
			<stop  offset="1" style="stop-color:#FDB6C8"/>
		</linearGradient>
		<path class="st11" d="M134.3,45c-2.7,0-2.7,4.2,0,4.2C137.1,49.2,137.1,45,134.3,45z"/>
		<linearGradient id="SVGID_14_" gradientUnits="userSpaceOnUse" x1="-79.0109" y1="47.107" x2="233.7671" y2="47.107">
			<stop  offset="0" style="stop-color:#FFFFFF"/>
			<stop  offset="1" style="stop-color:#FDB6C8"/>
		</linearGradient>
		<path class="st12" d="M113.3,49.2c2.7,0,2.7-4.2,0-4.2C110.6,45,110.6,49.2,113.3,49.2z"/>
		<linearGradient id="SVGID_15_" gradientUnits="userSpaceOnUse" x1="-79.0109" y1="57.6138" x2="233.7671" y2="57.6138">
			<stop  offset="0" style="stop-color:#FFFFFF"/>
			<stop  offset="1" style="stop-color:#FDB6C8"/>
		</linearGradient>
		<path class="st13" d="M102.8,55.5c-2.7,0-2.7,4.2,0,4.2C105.5,59.8,105.5,55.5,102.8,55.5z"/>
		<linearGradient id="SVGID_16_" gradientUnits="userSpaceOnUse" x1="-79.0109" y1="57.6138" x2="233.7671" y2="57.6138">
			<stop  offset="0" style="stop-color:#FFFFFF"/>
			<stop  offset="1" style="stop-color:#FDB6C8"/>
		</linearGradient>
		<path class="st14" d="M123.8,55.5c-2.7,0-2.7,4.2,0,4.2C126.6,59.8,126.6,55.5,123.8,55.5z"/>
		<linearGradient id="SVGID_17_" gradientUnits="userSpaceOnUse" x1="-79.0109" y1="36.5972" x2="233.7671" y2="36.5972">
			<stop  offset="0" style="stop-color:#FFFFFF"/>
			<stop  offset="1" style="stop-color:#FDB6C8"/>
		</linearGradient>
		<path class="st15" d="M102.8,34.5c-2.7,0-2.7,4.2,0,4.2C105.5,38.7,105.5,34.5,102.8,34.5z"/>
		<linearGradient id="SVGID_18_" gradientUnits="userSpaceOnUse" x1="-79.0109" y1="36.5972" x2="233.7671" y2="36.5972">
			<stop  offset="0" style="stop-color:#FFFFFF"/>
			<stop  offset="1" style="stop-color:#FDB6C8"/>
		</linearGradient>
		<path class="st16" d="M123.8,34.5c-2.7,0-2.7,4.2,0,4.2C126.6,38.7,126.6,34.5,123.8,34.5z"/>
		<linearGradient id="SVGID_19_" gradientUnits="userSpaceOnUse" x1="-79.0109" y1="26.0892" x2="233.7671" y2="26.0892">
			<stop  offset="0" style="stop-color:#FFFFFF"/>
			<stop  offset="1" style="stop-color:#FDB6C8"/>
		</linearGradient>
		<path class="st17" d="M113.3,24c-1,0-1.7,0.6-1.9,1.3c-0.1,0.2-0.1,0.5-0.1,0.7c0,0,0,0,0,0.1c0,0.3,0.1,0.7,0.2,1
			c0.1,0.2,0.2,0.3,0.3,0.5c0.2,0.2,0.4,0.4,0.6,0.5s0.6,0.2,0.9,0.2c0.2,0,0.4,0,0.6-0.1c0.2-0.1,0.4-0.1,0.5-0.2
			c0.1-0.1,0.3-0.2,0.4-0.3c0,0,0,0,0,0c0,0,0-0.1,0.1-0.1c0.1-0.2,0.2-0.3,0.3-0.5c0-0.1,0.1-0.2,0.1-0.3c0-0.2,0.1-0.4,0.1-0.6
			C115.4,25,114.7,24,113.3,24z"/>
		<linearGradient id="SVGID_20_" gradientUnits="userSpaceOnUse" x1="-79.0109" y1="26.0892" x2="233.7671" y2="26.0892">
			<stop  offset="0" style="stop-color:#FFFFFF"/>
			<stop  offset="1" style="stop-color:#FDB6C8"/>
		</linearGradient>
		<path class="st18" d="M92.3,28.2C92.3,28.2,92.3,28.2,92.3,28.2c0.2,0,0.3,0,0.5,0c0.2,0,0.4-0.1,0.6-0.2c0.2-0.1,0.3-0.2,0.4-0.4
			c0,0,0-0.1,0.1-0.1c0.3-0.4,0.4-0.9,0.4-1.4c0,0,0,0,0-0.1c0-0.2,0-0.5-0.1-0.7C94,24.6,93.3,24,92.3,24c0,0,0,0,0,0
			c-1.4,0-2,1-2,2.1c0,0.3,0.1,0.7,0.2,1c0.1,0.2,0.2,0.3,0.3,0.5C91.1,27.9,91.6,28.2,92.3,28.2z"/>
		<linearGradient id="SVGID_21_" gradientUnits="userSpaceOnUse" x1="-79.0109" y1="110.1549" x2="233.7671" y2="110.1549">
			<stop  offset="0" style="stop-color:#FFFFFF"/>
			<stop  offset="1" style="stop-color:#FDB6C8"/>
		</linearGradient>
		<path class="st19" d="M134.3,108.1c-2.7,0-2.7,4.2,0,4.2C137.1,112.3,137.1,108,134.3,108.1z"/>
		<linearGradient id="SVGID_22_" gradientUnits="userSpaceOnUse" x1="-79.0109" y1="110.1549" x2="233.7671" y2="110.1549">
			<stop  offset="0" style="stop-color:#FFFFFF"/>
			<stop  offset="1" style="stop-color:#FDB6C8"/>
		</linearGradient>
		<path class="st20" d="M113.3,108.1c-2.7,0-2.7,4.2,0,4.2C116.1,112.3,116.1,108,113.3,108.1z"/>
		<linearGradient id="SVGID_23_" gradientUnits="userSpaceOnUse" x1="-79.0109" y1="89.1397" x2="233.7671" y2="89.1397">
			<stop  offset="0" style="stop-color:#FFFFFF"/>
			<stop  offset="1" style="stop-color:#FDB6C8"/>
		</linearGradient>
		<path class="st21" d="M134.3,87c-2.7,0-2.7,4.2,0,4.2C137.1,91.3,137.1,87,134.3,87z"/>
		<linearGradient id="SVGID_24_" gradientUnits="userSpaceOnUse" x1="-79.0109" y1="89.1397" x2="233.7671" y2="89.1397">
			<stop  offset="0" style="stop-color:#FFFFFF"/>
			<stop  offset="1" style="stop-color:#FDB6C8"/>
		</linearGradient>
		<path class="st22" d="M113.3,91.2c2.7,0,2.7-4.2,0-4.2C110.6,87,110.6,91.3,113.3,91.2z"/>
		<linearGradient id="SVGID_25_" gradientUnits="userSpaceOnUse" x1="-79.0109" y1="99.6465" x2="233.7671" y2="99.6465">
			<stop  offset="0" style="stop-color:#FFFFFF"/>
			<stop  offset="1" style="stop-color:#FDB6C8"/>
		</linearGradient>
		<path class="st23" d="M102.8,97.5c-2.7,0-2.7,4.2,0,4.2C105.5,101.8,105.5,97.5,102.8,97.5z"/>
		<linearGradient id="SVGID_26_" gradientUnits="userSpaceOnUse" x1="-79.0109" y1="99.6465" x2="233.7671" y2="99.6465">
			<stop  offset="0" style="stop-color:#FFFFFF"/>
			<stop  offset="1" style="stop-color:#FDB6C8"/>
		</linearGradient>
		<path class="st24" d="M123.8,97.5c-2.7,0-2.7,4.2,0,4.2C126.6,101.8,126.6,97.5,123.8,97.5z"/>
		<linearGradient id="SVGID_27_" gradientUnits="userSpaceOnUse" x1="-79.0109" y1="78.6301" x2="233.7671" y2="78.6301">
			<stop  offset="0" style="stop-color:#FFFFFF"/>
			<stop  offset="1" style="stop-color:#FDB6C8"/>
		</linearGradient>
		<path class="st25" d="M102.8,76.5c-2.7,0-2.7,4.2,0,4.2C105.5,80.8,105.5,76.5,102.8,76.5z"/>
		<linearGradient id="SVGID_28_" gradientUnits="userSpaceOnUse" x1="-79.0109" y1="78.6301" x2="233.7671" y2="78.6301">
			<stop  offset="0" style="stop-color:#FFFFFF"/>
			<stop  offset="1" style="stop-color:#FDB6C8"/>
		</linearGradient>
		<path class="st26" d="M123.8,76.5c-2.7,0-2.7,4.2,0,4.2C126.6,80.8,126.6,76.5,123.8,76.5z"/>
		<linearGradient id="SVGID_29_" gradientUnits="userSpaceOnUse" x1="-79.0109" y1="110.1549" x2="233.7671" y2="110.1549">
			<stop  offset="0" style="stop-color:#FFFFFF"/>
			<stop  offset="1" style="stop-color:#FDB6C8"/>
		</linearGradient>
		<path class="st27" d="M92.3,108.1L92.3,108.1c-2.7,0-2.7,4.2,0,4.2c0,0,0,0,0,0C95,112.3,95,108,92.3,108.1z"/>
		<linearGradient id="SVGID_30_" gradientUnits="userSpaceOnUse" x1="-79.0109" y1="68.1219" x2="233.7671" y2="68.1219">
			<stop  offset="0" style="stop-color:#FFFFFF"/>
			<stop  offset="1" style="stop-color:#FDB6C8"/>
		</linearGradient>
		<path class="st28" d="M132.8,69.6c0.2,0.2,0.4,0.3,0.6,0.5c0.3,0.1,0.6,0.2,0.9,0.2c0.2,0,0.3,0,0.5,0c0.4-0.1,0.8-0.3,1.1-0.6
			c0.1-0.1,0.2-0.3,0.3-0.5c0.2-0.4,0.3-0.9,0.2-1.4c-0.1-0.9-0.8-1.7-2-1.7c-1.4,0-2,1-2,2.1c0,0.3,0.1,0.7,0.2,1
			C132.6,69.3,132.7,69.4,132.8,69.6C132.8,69.6,132.8,69.6,132.8,69.6z"/>
		<linearGradient id="SVGID_31_" gradientUnits="userSpaceOnUse" x1="-79.0109" y1="68.1219" x2="233.7671" y2="68.1219">
			<stop  offset="0" style="stop-color:#FFFFFF"/>
			<stop  offset="1" style="stop-color:#FDB6C8"/>
		</linearGradient>
		<path class="st29" d="M113.3,66c-1,0-1.7,0.6-1.9,1.3c-0.1,0.2-0.1,0.4-0.1,0.7c0,0,0,0.1,0,0.1c0,0.3,0.1,0.7,0.2,1
			c0.1,0.2,0.2,0.3,0.3,0.5c0.2,0.2,0.4,0.4,0.6,0.5c0.3,0.1,0.6,0.2,0.9,0.2c0.3,0,0.6-0.1,0.9-0.2c0.3-0.1,0.5-0.3,0.6-0.5
			c0,0,0-0.1,0.1-0.1c0.1-0.2,0.2-0.3,0.3-0.5c0-0.1,0.1-0.2,0.1-0.3c0-0.2,0.1-0.4,0.1-0.6C115.4,67.1,114.7,66,113.3,66z"/>
		<linearGradient id="SVGID_32_" gradientUnits="userSpaceOnUse" x1="-79.0109" y1="68.1219" x2="233.7671" y2="68.1219">
			<stop  offset="0" style="stop-color:#FFFFFF"/>
			<stop  offset="1" style="stop-color:#FDB6C8"/>
		</linearGradient>
		<path class="st30" d="M90.8,69.6c0.2,0.2,0.4,0.3,0.6,0.5c0.3,0.1,0.6,0.2,0.9,0.2c0,0,0,0,0,0c0.2,0,0.3,0,0.5,0
			c0.2,0,0.4-0.1,0.6-0.2c0.2-0.1,0.3-0.2,0.4-0.4c0,0,0-0.1,0.1-0.1c0.3-0.4,0.4-0.9,0.4-1.4c0,0,0-0.1,0-0.1c0-0.1,0-0.2,0-0.3
			c-0.1-0.9-0.8-1.7-2-1.7c0,0,0,0,0,0c-1.4,0-2,1-2,2.1c0,0.3,0.1,0.7,0.2,1C90.6,69.3,90.7,69.4,90.8,69.6
			C90.8,69.6,90.8,69.6,90.8,69.6z"/>
		<linearGradient id="SVGID_33_" gradientUnits="userSpaceOnUse" x1="-79.0109" y1="5.0743" x2="233.7671" y2="5.0743">
			<stop  offset="0" style="stop-color:#FFFFFF"/>
			<stop  offset="1" style="stop-color:#FDB6C8"/>
		</linearGradient>
		<path class="st31" d="M92.3,3L92.3,3c-2.7,0-2.7,4.2,0,4.2c0,0,0,0,0,0C95,7.2,95,2.9,92.3,3z"/>
		<linearGradient id="SVGID_34_" gradientUnits="userSpaceOnUse" x1="-79.0109" y1="5.0743" x2="233.7671" y2="5.0743">
			<stop  offset="0" style="stop-color:#FFFFFF"/>
			<stop  offset="1" style="stop-color:#FDB6C8"/>
		</linearGradient>
		<path class="st32" d="M71.3,3c-2.7,0-2.7,4.2,0,4.2C74,7.2,74,2.9,71.3,3z"/>
		<linearGradient id="SVGID_35_" gradientUnits="userSpaceOnUse" x1="-79.0109" y1="15.581" x2="233.7671" y2="15.581">
			<stop  offset="0" style="stop-color:#FFFFFF"/>
			<stop  offset="1" style="stop-color:#FDB6C8"/>
		</linearGradient>
		<path class="st33" d="M60.8,13.5c-2.7,0-2.7,4.2,0,4.2C63.5,17.7,63.5,13.4,60.8,13.5z"/>
		<linearGradient id="SVGID_36_" gradientUnits="userSpaceOnUse" x1="-79.0109" y1="15.581" x2="233.7671" y2="15.581">
			<stop  offset="0" style="stop-color:#FFFFFF"/>
			<stop  offset="1" style="stop-color:#FDB6C8"/>
		</linearGradient>
		<path class="st34" d="M81.8,13.5c-2.7,0-2.7,4.2,0,4.2C84.5,17.7,84.5,13.4,81.8,13.5z"/>
		<linearGradient id="SVGID_37_" gradientUnits="userSpaceOnUse" x1="-79.0109" y1="-5.4355" x2="233.7671" y2="-5.4355">
			<stop  offset="0" style="stop-color:#FFFFFF"/>
			<stop  offset="1" style="stop-color:#FDB6C8"/>
		</linearGradient>
		<path class="st35" d="M60.8-7.5c-2.7,0-2.7,4.2,0,4.2C63.5-3.3,63.5-7.6,60.8-7.5z"/>
		<linearGradient id="SVGID_38_" gradientUnits="userSpaceOnUse" x1="-79.0109" y1="-5.4355" x2="233.7671" y2="-5.4355">
			<stop  offset="0" style="stop-color:#FFFFFF"/>
			<stop  offset="1" style="stop-color:#FDB6C8"/>
		</linearGradient>
		<path class="st36" d="M81.8-7.5c-2.7,0-2.7,4.2,0,4.2C84.5-3.3,84.5-7.6,81.8-7.5z"/>
		<linearGradient id="SVGID_39_" gradientUnits="userSpaceOnUse" x1="-79.0109" y1="-15.9435" x2="233.7671" y2="-15.9435">
			<stop  offset="0" style="stop-color:#FFFFFF"/>
			<stop  offset="1" style="stop-color:#FDB6C8"/>
		</linearGradient>
		<path class="st37" d="M71.3-13.8c2.7,0,2.7-4.2,0-4.2C68.6-18.1,68.6-13.8,71.3-13.8z"/>
		<linearGradient id="SVGID_40_" gradientUnits="userSpaceOnUse" x1="-79.0109" y1="47.107" x2="233.7671" y2="47.107">
			<stop  offset="0" style="stop-color:#FFFFFF"/>
			<stop  offset="1" style="stop-color:#FDB6C8"/>
		</linearGradient>
		<path class="st38" d="M92.3,45L92.3,45c-2.7,0-2.7,4.2,0,4.2c0,0,0,0,0,0C95,49.2,95,45,92.3,45z"/>
		<linearGradient id="SVGID_41_" gradientUnits="userSpaceOnUse" x1="-79.0109" y1="47.107" x2="233.7671" y2="47.107">
			<stop  offset="0" style="stop-color:#FFFFFF"/>
			<stop  offset="1" style="stop-color:#FDB6C8"/>
		</linearGradient>
		<path class="st39" d="M71.3,45c-2.7,0-2.7,4.2,0,4.2C74,49.2,74,45,71.3,45z"/>
		<linearGradient id="SVGID_42_" gradientUnits="userSpaceOnUse" x1="-79.0109" y1="57.6138" x2="233.7671" y2="57.6138">
			<stop  offset="0" style="stop-color:#FFFFFF"/>
			<stop  offset="1" style="stop-color:#FDB6C8"/>
		</linearGradient>
		<path class="st40" d="M60.8,55.5c-2.7,0-2.7,4.2,0,4.2C63.5,59.8,63.5,55.5,60.8,55.5z"/>
		<linearGradient id="SVGID_43_" gradientUnits="userSpaceOnUse" x1="-79.0109" y1="57.6138" x2="233.7671" y2="57.6138">
			<stop  offset="0" style="stop-color:#FFFFFF"/>
			<stop  offset="1" style="stop-color:#FDB6C8"/>
		</linearGradient>
		<path class="st41" d="M81.8,55.5c-2.7,0-2.7,4.2,0,4.2C84.5,59.8,84.5,55.5,81.8,55.5z"/>
		<linearGradient id="SVGID_44_" gradientUnits="userSpaceOnUse" x1="-79.0109" y1="36.5972" x2="233.7671" y2="36.5972">
			<stop  offset="0" style="stop-color:#FFFFFF"/>
			<stop  offset="1" style="stop-color:#FDB6C8"/>
		</linearGradient>
		<path class="st42" d="M60.8,34.5c-2.7,0-2.7,4.2,0,4.2C63.5,38.7,63.5,34.5,60.8,34.5z"/>
		<linearGradient id="SVGID_45_" gradientUnits="userSpaceOnUse" x1="-79.0109" y1="36.5972" x2="233.7671" y2="36.5972">
			<stop  offset="0" style="stop-color:#FFFFFF"/>
			<stop  offset="1" style="stop-color:#FDB6C8"/>
		</linearGradient>
		<path class="st43" d="M81.8,34.5c-2.7,0-2.7,4.2,0,4.2C84.5,38.7,84.5,34.5,81.8,34.5z"/>
		<linearGradient id="SVGID_46_" gradientUnits="userSpaceOnUse" x1="-79.0109" y1="26.0892" x2="233.7671" y2="26.0892">
			<stop  offset="0" style="stop-color:#FFFFFF"/>
			<stop  offset="1" style="stop-color:#FDB6C8"/>
		</linearGradient>
		<path class="st44" d="M70.8,28.1c0.1,0,0.3,0,0.5,0c0.2,0,0.4,0,0.6-0.1c0.2-0.1,0.4-0.1,0.5-0.2c0.1-0.1,0.3-0.2,0.4-0.3
			c0,0,0,0,0,0c0,0,0-0.1,0.1-0.1c0.1-0.2,0.2-0.3,0.3-0.5c0-0.1,0.1-0.2,0.1-0.3c0-0.2,0.1-0.4,0.1-0.6c0-1.1-0.7-2.1-2-2.1
			c-1.2,0-1.9,0.8-2,1.8c-0.1,0.5,0,1,0.2,1.4c0,0,0,0,0,0C69.8,27.7,70.2,28,70.8,28.1z"/>
		<linearGradient id="SVGID_47_" gradientUnits="userSpaceOnUse" x1="-79.0109" y1="110.1549" x2="233.7671" y2="110.1549">
			<stop  offset="0" style="stop-color:#FFFFFF"/>
			<stop  offset="1" style="stop-color:#FDB6C8"/>
		</linearGradient>
		<path class="st45" d="M71.3,108.1c-2.7,0-2.7,4.2,0,4.2C74,112.3,74,108,71.3,108.1z"/>
		<linearGradient id="SVGID_48_" gradientUnits="userSpaceOnUse" x1="-79.0109" y1="89.1397" x2="233.7671" y2="89.1397">
			<stop  offset="0" style="stop-color:#FFFFFF"/>
			<stop  offset="1" style="stop-color:#FDB6C8"/>
		</linearGradient>
		<path class="st46" d="M92.3,87L92.3,87c-2.7,0-2.7,4.2,0,4.2c0,0,0,0,0,0C95,91.3,95,87,92.3,87z"/>
		<linearGradient id="SVGID_49_" gradientUnits="userSpaceOnUse" x1="-79.0109" y1="89.1397" x2="233.7671" y2="89.1397">
			<stop  offset="0" style="stop-color:#FFFFFF"/>
			<stop  offset="1" style="stop-color:#FDB6C8"/>
		</linearGradient>
		<path class="st47" d="M71.3,87c-2.7,0-2.7,4.2,0,4.2C74,91.3,74,87,71.3,87z"/>
		<linearGradient id="SVGID_50_" gradientUnits="userSpaceOnUse" x1="-79.0109" y1="99.6465" x2="233.7671" y2="99.6465">
			<stop  offset="0" style="stop-color:#FFFFFF"/>
			<stop  offset="1" style="stop-color:#FDB6C8"/>
		</linearGradient>
		<path class="st48" d="M60.8,97.5c-2.7,0-2.7,4.2,0,4.2C63.5,101.8,63.5,97.5,60.8,97.5z"/>
		<linearGradient id="SVGID_51_" gradientUnits="userSpaceOnUse" x1="-79.0109" y1="99.6465" x2="233.7671" y2="99.6465">
			<stop  offset="0" style="stop-color:#FFFFFF"/>
			<stop  offset="1" style="stop-color:#FDB6C8"/>
		</linearGradient>
		<path class="st49" d="M81.8,97.5c-2.7,0-2.7,4.2,0,4.2C84.5,101.8,84.5,97.5,81.8,97.5z"/>
		<linearGradient id="SVGID_52_" gradientUnits="userSpaceOnUse" x1="-79.0109" y1="78.6301" x2="233.7671" y2="78.6301">
			<stop  offset="0" style="stop-color:#FFFFFF"/>
			<stop  offset="1" style="stop-color:#FDB6C8"/>
		</linearGradient>
		<path class="st50" d="M60.8,76.5c-2.7,0-2.7,4.2,0,4.2C63.5,80.8,63.5,76.5,60.8,76.5z"/>
		<linearGradient id="SVGID_53_" gradientUnits="userSpaceOnUse" x1="-79.0109" y1="78.6301" x2="233.7671" y2="78.6301">
			<stop  offset="0" style="stop-color:#FFFFFF"/>
			<stop  offset="1" style="stop-color:#FDB6C8"/>
		</linearGradient>
		<path class="st51" d="M81.8,76.5c-2.7,0-2.7,4.2,0,4.2C84.5,80.8,84.5,76.5,81.8,76.5z"/>
		<linearGradient id="SVGID_54_" gradientUnits="userSpaceOnUse" x1="-79.0109" y1="68.1219" x2="233.7671" y2="68.1219">
			<stop  offset="0" style="stop-color:#FFFFFF"/>
			<stop  offset="1" style="stop-color:#FDB6C8"/>
		</linearGradient>
		<path class="st52" d="M70.2,69.9c0.2,0.1,0.4,0.2,0.6,0.2c0.1,0,0.3,0,0.5,0c0.3,0,0.6-0.1,0.9-0.2c0.3-0.1,0.5-0.3,0.6-0.5
			c0,0,0-0.1,0.1-0.1c0.1-0.2,0.2-0.3,0.3-0.5c0-0.1,0.1-0.2,0.1-0.3c0-0.2,0.1-0.4,0.1-0.6c0-1.1-0.7-2.1-2-2.1
			c-1.2,0-1.9,0.9-2,1.8c-0.1,0.4,0,0.9,0.2,1.3c0.1,0.2,0.2,0.3,0.3,0.5C69.9,69.7,70,69.8,70.2,69.9z"/>
		<linearGradient id="SVGID_55_" gradientUnits="userSpaceOnUse" x1="-79.0109" y1="5.0743" x2="233.7671" y2="5.0743">
			<stop  offset="0" style="stop-color:#FFFFFF"/>
			<stop  offset="1" style="stop-color:#FDB6C8"/>
		</linearGradient>
		<path class="st53" d="M50.3,7.2c2.5,0,2.7-3.5,0.7-4.1C50.7,3,50.5,3,50.3,3C47.6,2.9,47.6,7.2,50.3,7.2z"/>
		<linearGradient id="SVGID_56_" gradientUnits="userSpaceOnUse" x1="-79.0109" y1="5.0743" x2="233.7671" y2="5.0743">
			<stop  offset="0" style="stop-color:#FFFFFF"/>
			<stop  offset="1" style="stop-color:#FDB6C8"/>
		</linearGradient>
		<path class="st54" d="M29.3,7.2c2.7,0,2.7-4.2,0-4.2C26.5,2.9,26.5,7.2,29.3,7.2z"/>
		<linearGradient id="SVGID_57_" gradientUnits="userSpaceOnUse" x1="-79.0109" y1="15.581" x2="233.7671" y2="15.581">
			<stop  offset="0" style="stop-color:#FFFFFF"/>
			<stop  offset="1" style="stop-color:#FDB6C8"/>
		</linearGradient>
		<path class="st55" d="M18.8,13.5c-2.7,0-2.7,4.2,0,4.2C21.5,17.7,21.5,13.4,18.8,13.5z"/>
		<linearGradient id="SVGID_58_" gradientUnits="userSpaceOnUse" x1="-79.0109" y1="15.581" x2="233.7671" y2="15.581">
			<stop  offset="0" style="stop-color:#FFFFFF"/>
			<stop  offset="1" style="stop-color:#FDB6C8"/>
		</linearGradient>
		<path class="st56" d="M39.8,13.5c-2.7,0-2.7,4.2,0,4.2C42.5,17.7,42.5,13.4,39.8,13.5z"/>
		<linearGradient id="SVGID_59_" gradientUnits="userSpaceOnUse" x1="-79.0109" y1="-5.4355" x2="233.7671" y2="-5.4355">
			<stop  offset="0" style="stop-color:#FFFFFF"/>
			<stop  offset="1" style="stop-color:#FDB6C8"/>
		</linearGradient>
		<path class="st57" d="M18.8-7.5c-2.7,0-2.7,4.2,0,4.2C21.5-3.3,21.5-7.6,18.8-7.5z"/>
		<linearGradient id="SVGID_60_" gradientUnits="userSpaceOnUse" x1="-79.0109" y1="-5.4355" x2="233.7671" y2="-5.4355">
			<stop  offset="0" style="stop-color:#FFFFFF"/>
			<stop  offset="1" style="stop-color:#FDB6C8"/>
		</linearGradient>
		<path class="st58" d="M39.8-7.5c-2.7,0-2.7,4.2,0,4.2C42.5-3.3,42.5-7.6,39.8-7.5z"/>
		<linearGradient id="SVGID_61_" gradientUnits="userSpaceOnUse" x1="-79.0109" y1="-15.9435" x2="233.7671" y2="-15.9435">
			<stop  offset="0" style="stop-color:#FFFFFF"/>
			<stop  offset="1" style="stop-color:#FDB6C8"/>
		</linearGradient>
		<path class="st59" d="M50.3-13.8c0.3,0,0.6-0.1,0.9-0.2c0,0,0,0,0,0c1.8-0.8,1.5-4.1-0.9-4C47.6-18.1,47.6-13.8,50.3-13.8z"/>
		<linearGradient id="SVGID_62_" gradientUnits="userSpaceOnUse" x1="-79.0109" y1="-15.9435" x2="233.7671" y2="-15.9435">
			<stop  offset="0" style="stop-color:#FFFFFF"/>
			<stop  offset="1" style="stop-color:#FDB6C8"/>
		</linearGradient>
		<path class="st60" d="M29.3-18c-2.7,0-2.7,4.2,0,4.2C32-13.8,32-18.1,29.3-18z"/>
		<linearGradient id="SVGID_63_" gradientUnits="userSpaceOnUse" x1="-79.0109" y1="47.107" x2="233.7671" y2="47.107">
			<stop  offset="0" style="stop-color:#FFFFFF"/>
			<stop  offset="1" style="stop-color:#FDB6C8"/>
		</linearGradient>
		<path class="st61" d="M50.3,49.2c2.5,0,2.7-3.5,0.7-4.1C50.7,45,50.5,45,50.3,45C47.6,45,47.6,49.2,50.3,49.2z"/>
		<linearGradient id="SVGID_64_" gradientUnits="userSpaceOnUse" x1="-79.0109" y1="47.107" x2="233.7671" y2="47.107">
			<stop  offset="0" style="stop-color:#FFFFFF"/>
			<stop  offset="1" style="stop-color:#FDB6C8"/>
		</linearGradient>
		<path class="st62" d="M29.3,49.2c2.7,0,2.7-4.2,0-4.2C26.5,45,26.5,49.2,29.3,49.2z"/>
		<linearGradient id="SVGID_65_" gradientUnits="userSpaceOnUse" x1="-79.0109" y1="57.6138" x2="233.7671" y2="57.6138">
			<stop  offset="0" style="stop-color:#FFFFFF"/>
			<stop  offset="1" style="stop-color:#FDB6C8"/>
		</linearGradient>
		<path class="st63" d="M18.8,55.5c-2.7,0-2.7,4.2,0,4.2C21.5,59.8,21.5,55.5,18.8,55.5z"/>
		<linearGradient id="SVGID_66_" gradientUnits="userSpaceOnUse" x1="-79.0109" y1="57.6138" x2="233.7671" y2="57.6138">
			<stop  offset="0" style="stop-color:#FFFFFF"/>
			<stop  offset="1" style="stop-color:#FDB6C8"/>
		</linearGradient>
		<path class="st64" d="M39.8,55.5c-2.7,0-2.7,4.2,0,4.2C42.5,59.8,42.5,55.5,39.8,55.5z"/>
		<linearGradient id="SVGID_67_" gradientUnits="userSpaceOnUse" x1="-79.0109" y1="36.5972" x2="233.7671" y2="36.5972">
			<stop  offset="0" style="stop-color:#FFFFFF"/>
			<stop  offset="1" style="stop-color:#FDB6C8"/>
		</linearGradient>
		<path class="st65" d="M18.8,34.5c-2.7,0-2.7,4.2,0,4.2C21.5,38.7,21.5,34.5,18.8,34.5z"/>
		<linearGradient id="SVGID_68_" gradientUnits="userSpaceOnUse" x1="-79.0109" y1="36.5972" x2="233.7671" y2="36.5972">
			<stop  offset="0" style="stop-color:#FFFFFF"/>
			<stop  offset="1" style="stop-color:#FDB6C8"/>
		</linearGradient>
		<path class="st66" d="M39.8,34.5c-2.7,0-2.7,4.2,0,4.2C42.5,38.7,42.5,34.5,39.8,34.5z"/>
		<linearGradient id="SVGID_69_" gradientUnits="userSpaceOnUse" x1="-79.0109" y1="26.0892" x2="233.7671" y2="26.0892">
			<stop  offset="0" style="stop-color:#FFFFFF"/>
			<stop  offset="1" style="stop-color:#FDB6C8"/>
		</linearGradient>
		<path class="st67" d="M51.2,24.2C51.2,24.2,51.1,24.2,51.2,24.2C50.9,24,50.6,24,50.3,24c-1.1,0-1.8,0.7-2,1.5
			c-0.1,0.5-0.1,1.1,0.1,1.6c0.1,0.2,0.2,0.3,0.3,0.5c0.3,0.4,0.9,0.7,1.5,0.6c0.2,0,0.3,0,0.5,0c0.4-0.1,0.8-0.3,1-0.6c0,0,0,0,0,0
			c0.2-0.2,0.4-0.5,0.4-0.9c0-0.2,0.1-0.4,0.1-0.6C52.3,25.3,51.9,24.5,51.2,24.2z"/>
		<linearGradient id="SVGID_70_" gradientUnits="userSpaceOnUse" x1="-79.0109" y1="26.0892" x2="233.7671" y2="26.0892">
			<stop  offset="0" style="stop-color:#FFFFFF"/>
			<stop  offset="1" style="stop-color:#FDB6C8"/>
		</linearGradient>
		<path class="st68" d="M29.3,24c-1.4,0-2,1-2,2.1c0,0.4,0.1,0.8,0.3,1.1c0,0,0,0,0,0c0.3,0.5,0.7,0.8,1.3,0.9c0.1,0,0.3,0,0.5,0
			c0.2,0,0.4,0,0.6-0.1c0.2,0,0.3-0.1,0.4-0.2c0.1-0.1,0.2-0.2,0.3-0.3c0.1-0.1,0.2-0.2,0.3-0.4c0-0.1,0.1-0.2,0.1-0.2
			c0.1-0.3,0.2-0.7,0.2-1C31.3,25,30.6,24,29.3,24z"/>
		<linearGradient id="SVGID_71_" gradientUnits="userSpaceOnUse" x1="-79.0109" y1="110.1549" x2="233.7671" y2="110.1549">
			<stop  offset="0" style="stop-color:#FFFFFF"/>
			<stop  offset="1" style="stop-color:#FDB6C8"/>
		</linearGradient>
		<path class="st69" d="M50.9,108.2c-0.2-0.1-0.4-0.1-0.7-0.1c-2.7,0-2.7,4.2,0,4.2C52.8,112.3,53,108.8,50.9,108.2z"/>
		<linearGradient id="SVGID_72_" gradientUnits="userSpaceOnUse" x1="-79.0109" y1="110.1549" x2="233.7671" y2="110.1549">
			<stop  offset="0" style="stop-color:#FFFFFF"/>
			<stop  offset="1" style="stop-color:#FDB6C8"/>
		</linearGradient>
		<path class="st70" d="M29.3,108.1c-2.7,0-2.7,4.2,0,4.2C32,112.3,32,108,29.3,108.1z"/>
		<linearGradient id="SVGID_73_" gradientUnits="userSpaceOnUse" x1="-79.0109" y1="89.1397" x2="233.7671" y2="89.1397">
			<stop  offset="0" style="stop-color:#FFFFFF"/>
			<stop  offset="1" style="stop-color:#FDB6C8"/>
		</linearGradient>
		<path class="st71" d="M50.3,87c-2.7,0-2.7,4.2,0,4.2C53,91.3,53,87,50.3,87z"/>
		<linearGradient id="SVGID_74_" gradientUnits="userSpaceOnUse" x1="-79.0109" y1="89.1397" x2="233.7671" y2="89.1397">
			<stop  offset="0" style="stop-color:#FFFFFF"/>
			<stop  offset="1" style="stop-color:#FDB6C8"/>
		</linearGradient>
		<path class="st72" d="M29.3,91.2c2.7,0,2.7-4.2,0-4.2C26.5,87,26.5,91.3,29.3,91.2z"/>
		<linearGradient id="SVGID_75_" gradientUnits="userSpaceOnUse" x1="-79.0109" y1="99.6465" x2="233.7671" y2="99.6465">
			<stop  offset="0" style="stop-color:#FFFFFF"/>
			<stop  offset="1" style="stop-color:#FDB6C8"/>
		</linearGradient>
		<path class="st73" d="M18.8,97.5c-2.7,0-2.7,4.2,0,4.2C21.5,101.8,21.5,97.5,18.8,97.5z"/>
		<linearGradient id="SVGID_76_" gradientUnits="userSpaceOnUse" x1="-79.0109" y1="99.6465" x2="233.7671" y2="99.6465">
			<stop  offset="0" style="stop-color:#FFFFFF"/>
			<stop  offset="1" style="stop-color:#FDB6C8"/>
		</linearGradient>
		<path class="st74" d="M39.8,97.5c-2.7,0-2.7,4.2,0,4.2C42.5,101.8,42.5,97.5,39.8,97.5z"/>
		<linearGradient id="SVGID_77_" gradientUnits="userSpaceOnUse" x1="-79.0109" y1="78.6301" x2="233.7671" y2="78.6301">
			<stop  offset="0" style="stop-color:#FFFFFF"/>
			<stop  offset="1" style="stop-color:#FDB6C8"/>
		</linearGradient>
		<path class="st75" d="M18.8,76.5c-2.7,0-2.7,4.2,0,4.2C21.5,80.8,21.5,76.5,18.8,76.5z"/>
		<linearGradient id="SVGID_78_" gradientUnits="userSpaceOnUse" x1="-79.0109" y1="78.6301" x2="233.7671" y2="78.6301">
			<stop  offset="0" style="stop-color:#FFFFFF"/>
			<stop  offset="1" style="stop-color:#FDB6C8"/>
		</linearGradient>
		<path class="st76" d="M39.8,76.5c-2.7,0-2.7,4.2,0,4.2C42.5,80.8,42.5,76.5,39.8,76.5z"/>
		<linearGradient id="SVGID_79_" gradientUnits="userSpaceOnUse" x1="-79.0109" y1="68.1219" x2="233.7671" y2="68.1219">
			<stop  offset="0" style="stop-color:#FFFFFF"/>
			<stop  offset="1" style="stop-color:#FDB6C8"/>
		</linearGradient>
		<path class="st77" d="M51.2,66.2C51.2,66.2,51.1,66.2,51.2,66.2c-0.3-0.1-0.6-0.2-0.9-0.2c-1,0-1.7,0.6-1.9,1.3
			c-0.2,0.6-0.2,1.2,0.1,1.8c0.1,0.2,0.2,0.3,0.3,0.5c0,0,0,0,0,0c0.3,0.4,0.8,0.6,1.5,0.6c0.2,0,0.3,0,0.5,0
			c0.4-0.1,0.8-0.3,1.1-0.6c0.2-0.3,0.4-0.6,0.4-0.9c0-0.2,0.1-0.4,0.1-0.5C52.3,67.3,51.9,66.5,51.2,66.2z"/>
		<linearGradient id="SVGID_80_" gradientUnits="userSpaceOnUse" x1="-79.0109" y1="68.1219" x2="233.7671" y2="68.1219">
			<stop  offset="0" style="stop-color:#FFFFFF"/>
			<stop  offset="1" style="stop-color:#FDB6C8"/>
		</linearGradient>
		<path class="st78" d="M29.3,66c-1.4,0-2,1-2,2.1c0,0.3,0.1,0.7,0.2,1c0.1,0.2,0.2,0.3,0.3,0.5c0.1,0.1,0.3,0.3,0.4,0.4
			c0.2,0.1,0.4,0.2,0.6,0.2c0.1,0,0.3,0,0.5,0c0.2,0,0.4,0,0.6-0.1c0.2,0,0.3-0.1,0.4-0.2c0.4-0.2,0.6-0.5,0.8-0.9
			c0.1-0.3,0.2-0.6,0.2-0.9C31.3,67.1,30.6,66,29.3,66z"/>
		<linearGradient id="SVGID_81_" gradientUnits="userSpaceOnUse" x1="-79.0109" y1="5.0743" x2="233.7671" y2="5.0743">
			<stop  offset="0" style="stop-color:#FFFFFF"/>
			<stop  offset="1" style="stop-color:#FDB6C8"/>
		</linearGradient>
		<path class="st79" d="M8.2,7.2c2.5,0,2.7-3.6,0.6-4.1C8.7,3,8.5,3,8.2,3C5.5,2.9,5.5,7.2,8.2,7.2z"/>
		<linearGradient id="SVGID_82_" gradientUnits="userSpaceOnUse" x1="-79.0109" y1="5.0743" x2="233.7671" y2="5.0743">
			<stop  offset="0" style="stop-color:#FFFFFF"/>
			<stop  offset="1" style="stop-color:#FDB6C8"/>
		</linearGradient>
		<path class="st80" d="M-12.8,7.2c2.7,0,2.7-4.2,0-4.2C-15.5,2.9-15.5,7.2-12.8,7.2z"/>
		<linearGradient id="SVGID_83_" gradientUnits="userSpaceOnUse" x1="-79.0109" y1="15.581" x2="233.7671" y2="15.581">
			<stop  offset="0" style="stop-color:#FFFFFF"/>
			<stop  offset="1" style="stop-color:#FDB6C8"/>
		</linearGradient>
		<path class="st81" d="M-23.3,13.5c-2.7,0-2.7,4.2,0,4.2C-20.5,17.7-20.5,13.4-23.3,13.5z"/>
		<linearGradient id="SVGID_84_" gradientUnits="userSpaceOnUse" x1="-79.0109" y1="15.581" x2="233.7671" y2="15.581">
			<stop  offset="0" style="stop-color:#FFFFFF"/>
			<stop  offset="1" style="stop-color:#FDB6C8"/>
		</linearGradient>
		<path class="st82" d="M-2.3,13.5c-2.7,0-2.7,4.2,0,4.2C0.5,17.7,0.5,13.4-2.3,13.5z"/>
		<linearGradient id="SVGID_85_" gradientUnits="userSpaceOnUse" x1="-79.0109" y1="-5.4355" x2="233.7671" y2="-5.4355">
			<stop  offset="0" style="stop-color:#FFFFFF"/>
			<stop  offset="1" style="stop-color:#FDB6C8"/>
		</linearGradient>
		<path class="st83" d="M-23.3-7.5c-2.7,0-2.7,4.2,0,4.2C-20.5-3.3-20.5-7.6-23.3-7.5z"/>
		<linearGradient id="SVGID_86_" gradientUnits="userSpaceOnUse" x1="-79.0109" y1="-5.4355" x2="233.7671" y2="-5.4355">
			<stop  offset="0" style="stop-color:#FFFFFF"/>
			<stop  offset="1" style="stop-color:#FDB6C8"/>
		</linearGradient>
		<path class="st84" d="M-2.3-7.5c-2.7,0-2.7,4.2,0,4.2C0.5-3.3,0.5-7.6-2.3-7.5z"/>
		<linearGradient id="SVGID_87_" gradientUnits="userSpaceOnUse" x1="-79.0109" y1="5.0743" x2="233.7671" y2="5.0743">
			<stop  offset="0" style="stop-color:#FFFFFF"/>
			<stop  offset="1" style="stop-color:#FDB6C8"/>
		</linearGradient>
		<path class="st85" d="M-33.8,7.2c2.7,0,2.7-4.2,0-4.2C-36.5,2.9-36.5,7.2-33.8,7.2z"/>
		<linearGradient id="SVGID_88_" gradientUnits="userSpaceOnUse" x1="-79.0109" y1="-15.9435" x2="233.7671" y2="-15.9435">
			<stop  offset="0" style="stop-color:#FFFFFF"/>
			<stop  offset="1" style="stop-color:#FDB6C8"/>
		</linearGradient>
		<path class="st86" d="M8.2-13.8c0.3,0,0.6-0.1,0.8-0.1c0,0,0,0,0.1,0c1.5-0.7,1.5-3.2,0-3.9c0,0,0,0,0,0C8.9-18,8.6-18,8.2-18
			C5.5-18.1,5.5-13.8,8.2-13.8z"/>
		<linearGradient id="SVGID_89_" gradientUnits="userSpaceOnUse" x1="-79.0109" y1="-15.9435" x2="233.7671" y2="-15.9435">
			<stop  offset="0" style="stop-color:#FFFFFF"/>
			<stop  offset="1" style="stop-color:#FDB6C8"/>
		</linearGradient>
		<path class="st87" d="M-12.8-13.8c2.7,0,2.7-4.2,0-4.2C-15.5-18.1-15.5-13.8-12.8-13.8z"/>
		<linearGradient id="SVGID_90_" gradientUnits="userSpaceOnUse" x1="-79.0109" y1="-15.9435" x2="233.7671" y2="-15.9435">
			<stop  offset="0" style="stop-color:#FFFFFF"/>
			<stop  offset="1" style="stop-color:#FDB6C8"/>
		</linearGradient>
		<path class="st88" d="M-33.8-18c-2.7,0-2.7,4.2,0,4.2C-31.1-13.8-31.1-18.1-33.8-18z"/>
		<linearGradient id="SVGID_91_" gradientUnits="userSpaceOnUse" x1="-79.0109" y1="47.107" x2="233.7671" y2="47.107">
			<stop  offset="0" style="stop-color:#FFFFFF"/>
			<stop  offset="1" style="stop-color:#FDB6C8"/>
		</linearGradient>
		<path class="st89" d="M8.2,49.2c0.3,0,0.6-0.1,0.8-0.2c0,0,0,0,0.1,0c1.6-0.7,1.5-3.5-0.3-4C8.7,45,8.5,45,8.2,45
			C5.5,45,5.5,49.2,8.2,49.2z"/>
		<linearGradient id="SVGID_92_" gradientUnits="userSpaceOnUse" x1="-79.0109" y1="47.107" x2="233.7671" y2="47.107">
			<stop  offset="0" style="stop-color:#FFFFFF"/>
			<stop  offset="1" style="stop-color:#FDB6C8"/>
		</linearGradient>
		<path class="st90" d="M-12.8,49.2c2.7,0,2.7-4.2,0-4.2C-15.5,45-15.5,49.2-12.8,49.2z"/>
		<linearGradient id="SVGID_93_" gradientUnits="userSpaceOnUse" x1="-79.0109" y1="57.6138" x2="233.7671" y2="57.6138">
			<stop  offset="0" style="stop-color:#FFFFFF"/>
			<stop  offset="1" style="stop-color:#FDB6C8"/>
		</linearGradient>
		<path class="st91" d="M-23.3,55.5c-2.7,0-2.7,4.2,0,4.2C-20.5,59.8-20.5,55.5-23.3,55.5z"/>
		<linearGradient id="SVGID_94_" gradientUnits="userSpaceOnUse" x1="-79.0109" y1="57.6138" x2="233.7671" y2="57.6138">
			<stop  offset="0" style="stop-color:#FFFFFF"/>
			<stop  offset="1" style="stop-color:#FDB6C8"/>
		</linearGradient>
		<path class="st92" d="M-2.3,55.5c-2.7,0-2.7,4.2,0,4.2C0.5,59.8,0.5,55.5-2.3,55.5z"/>
		<linearGradient id="SVGID_95_" gradientUnits="userSpaceOnUse" x1="-79.0109" y1="36.5972" x2="233.7671" y2="36.5972">
			<stop  offset="0" style="stop-color:#FFFFFF"/>
			<stop  offset="1" style="stop-color:#FDB6C8"/>
		</linearGradient>
		<path class="st93" d="M-23.3,34.5c-2.7,0-2.7,4.2,0,4.2C-20.5,38.7-20.5,34.5-23.3,34.5z"/>
		<linearGradient id="SVGID_96_" gradientUnits="userSpaceOnUse" x1="-79.0109" y1="36.5972" x2="233.7671" y2="36.5972">
			<stop  offset="0" style="stop-color:#FFFFFF"/>
			<stop  offset="1" style="stop-color:#FDB6C8"/>
		</linearGradient>
		<path class="st94" d="M-2.3,34.5c-2.7,0-2.7,4.2,0,4.2C0.5,38.7,0.5,34.5-2.3,34.5z"/>
		<linearGradient id="SVGID_97_" gradientUnits="userSpaceOnUse" x1="-79.0109" y1="47.107" x2="233.7671" y2="47.107">
			<stop  offset="0" style="stop-color:#FFFFFF"/>
			<stop  offset="1" style="stop-color:#FDB6C8"/>
		</linearGradient>
		<path class="st95" d="M-33.8,49.2c2.7,0,2.7-4.2,0-4.2C-36.5,45-36.5,49.2-33.8,49.2z"/>
		<linearGradient id="SVGID_98_" gradientUnits="userSpaceOnUse" x1="-79.0109" y1="26.0892" x2="233.7671" y2="26.0892">
			<stop  offset="0" style="stop-color:#FFFFFF"/>
			<stop  offset="1" style="stop-color:#FDB6C8"/>
		</linearGradient>
		<path class="st96" d="M10.3,25.7c-0.1-0.7-0.5-1.3-1.1-1.5c0,0,0,0,0,0C8.9,24,8.6,24,8.2,24c-1.4,0-2,1-2,2.1
			c0,0.2,0,0.4,0.1,0.6c0.1,0.3,0.2,0.6,0.4,0.9c0.1,0.1,0.3,0.3,0.4,0.4C7.3,28,7.4,28,7.5,28.1c0.2,0.1,0.5,0.1,0.8,0.1
			c0.2,0,0.3,0,0.5,0c0.2,0,0.5-0.1,0.6-0.3c0.3-0.2,0.5-0.5,0.7-0.8c0.1-0.3,0.2-0.7,0.2-1c0,0,0-0.1,0-0.1
			C10.3,25.9,10.3,25.8,10.3,25.7z"/>
		<linearGradient id="SVGID_99_" gradientUnits="userSpaceOnUse" x1="-79.0109" y1="26.0892" x2="233.7671" y2="26.0892">
			<stop  offset="0" style="stop-color:#FFFFFF"/>
			<stop  offset="1" style="stop-color:#FDB6C8"/>
		</linearGradient>
		<path class="st97" d="M-12.8,24c-1.4,0-2,1-2,2.1c0,0.3,0.1,0.7,0.2,1c0.1,0.2,0.2,0.3,0.3,0.5c0.2,0.2,0.4,0.4,0.6,0.5
			c0.3,0.1,0.6,0.2,0.9,0.2c0.2,0,0.4,0,0.6-0.1c0.2-0.1,0.4-0.1,0.5-0.2c0.1-0.1,0.2-0.1,0.3-0.2c0.5-0.5,0.7-1.3,0.6-2
			C-10.9,24.8-11.6,24-12.8,24z"/>
		<linearGradient id="SVGID_100_" gradientUnits="userSpaceOnUse" x1="-79.0109" y1="26.0892" x2="233.7671" y2="26.0892">
			<stop  offset="0" style="stop-color:#FFFFFF"/>
			<stop  offset="1" style="stop-color:#FDB6C8"/>
		</linearGradient>
		<path class="st98" d="M-33.8,24c-1.4,0-2,1-2,2.1c0,0.3,0.1,0.7,0.2,1c0.1,0.2,0.2,0.3,0.3,0.5c0.3,0.4,0.9,0.7,1.5,0.6
			c0.3,0,0.6-0.1,0.9-0.2c0.3-0.1,0.5-0.3,0.6-0.5c0.2-0.3,0.4-0.6,0.4-0.9c0-0.2,0.1-0.4,0.1-0.5C-31.7,25-32.4,24-33.8,24z"/>
		<linearGradient id="SVGID_101_" gradientUnits="userSpaceOnUse" x1="-79.0109" y1="110.1549" x2="233.7671" y2="110.1549">
			<stop  offset="0" style="stop-color:#FFFFFF"/>
			<stop  offset="1" style="stop-color:#FDB6C8"/>
		</linearGradient>
		<path class="st99" d="M8.9,108.2c-0.2-0.1-0.4-0.1-0.7-0.1c-2.7,0-2.7,4.2,0,4.2C10.7,112.3,10.9,108.8,8.9,108.2z"/>
		<linearGradient id="SVGID_102_" gradientUnits="userSpaceOnUse" x1="-79.0109" y1="110.1549" x2="233.7671" y2="110.1549">
			<stop  offset="0" style="stop-color:#FFFFFF"/>
			<stop  offset="1" style="stop-color:#FDB6C8"/>
		</linearGradient>
		<path class="st100" d="M-12.8,108.1c-2.7,0-2.7,4.2,0,4.2C-10,112.3-10,108-12.8,108.1z"/>
		<linearGradient id="SVGID_103_" gradientUnits="userSpaceOnUse" x1="-79.0109" y1="89.1397" x2="233.7671" y2="89.1397">
			<stop  offset="0" style="stop-color:#FFFFFF"/>
			<stop  offset="1" style="stop-color:#FDB6C8"/>
		</linearGradient>
		<path class="st101" d="M8.2,91.2c2.5,0,2.7-3.6,0.6-4.1c-0.2,0-0.4-0.1-0.6-0.1C5.5,87,5.5,91.3,8.2,91.2z"/>
		<linearGradient id="SVGID_104_" gradientUnits="userSpaceOnUse" x1="-79.0109" y1="89.1397" x2="233.7671" y2="89.1397">
			<stop  offset="0" style="stop-color:#FFFFFF"/>
			<stop  offset="1" style="stop-color:#FDB6C8"/>
		</linearGradient>
		<path class="st102" d="M-12.8,91.2c2.7,0,2.7-4.2,0-4.2C-15.5,87-15.5,91.3-12.8,91.2z"/>
		<linearGradient id="SVGID_105_" gradientUnits="userSpaceOnUse" x1="-79.0109" y1="99.6465" x2="233.7671" y2="99.6465">
			<stop  offset="0" style="stop-color:#FFFFFF"/>
			<stop  offset="1" style="stop-color:#FDB6C8"/>
		</linearGradient>
		<path class="st103" d="M-23.3,97.5c-2.7,0-2.7,4.2,0,4.2C-20.5,101.8-20.5,97.5-23.3,97.5z"/>
		<linearGradient id="SVGID_106_" gradientUnits="userSpaceOnUse" x1="-79.0109" y1="99.6465" x2="233.7671" y2="99.6465">
			<stop  offset="0" style="stop-color:#FFFFFF"/>
			<stop  offset="1" style="stop-color:#FDB6C8"/>
		</linearGradient>
		<path class="st104" d="M-2.3,97.5c-2.7,0-2.7,4.2,0,4.2C0.5,101.8,0.5,97.5-2.3,97.5z"/>
		<linearGradient id="SVGID_107_" gradientUnits="userSpaceOnUse" x1="-79.0109" y1="78.6301" x2="233.7671" y2="78.6301">
			<stop  offset="0" style="stop-color:#FFFFFF"/>
			<stop  offset="1" style="stop-color:#FDB6C8"/>
		</linearGradient>
		<path class="st105" d="M-23.3,76.5c-2.7,0-2.7,4.2,0,4.2C-20.5,80.8-20.5,76.5-23.3,76.5z"/>
		<linearGradient id="SVGID_108_" gradientUnits="userSpaceOnUse" x1="-79.0109" y1="78.6301" x2="233.7671" y2="78.6301">
			<stop  offset="0" style="stop-color:#FFFFFF"/>
			<stop  offset="1" style="stop-color:#FDB6C8"/>
		</linearGradient>
		<path class="st106" d="M-2.3,76.5c-2.7,0-2.7,4.2,0,4.2C0.5,80.8,0.5,76.5-2.3,76.5z"/>
		<linearGradient id="SVGID_109_" gradientUnits="userSpaceOnUse" x1="-79.0109" y1="110.1549" x2="233.7671" y2="110.1549">
			<stop  offset="0" style="stop-color:#FFFFFF"/>
			<stop  offset="1" style="stop-color:#FDB6C8"/>
		</linearGradient>
		<path class="st107" d="M-33.8,108.1c-2.7,0-2.7,4.2,0,4.2C-31.1,112.3-31.1,108-33.8,108.1z"/>
		<linearGradient id="SVGID_110_" gradientUnits="userSpaceOnUse" x1="-79.0109" y1="89.1397" x2="233.7671" y2="89.1397">
			<stop  offset="0" style="stop-color:#FFFFFF"/>
			<stop  offset="1" style="stop-color:#FDB6C8"/>
		</linearGradient>
		<path class="st108" d="M-33.8,87c-2.7,0-2.7,4.2,0,4.2C-31.1,91.3-31.1,87-33.8,87z"/>
		<linearGradient id="SVGID_111_" gradientUnits="userSpaceOnUse" x1="-79.0109" y1="68.1219" x2="233.7671" y2="68.1219">
			<stop  offset="0" style="stop-color:#FFFFFF"/>
			<stop  offset="1" style="stop-color:#FDB6C8"/>
		</linearGradient>
		<path class="st109" d="M10.3,67.7c-0.1-0.7-0.5-1.3-1.1-1.5c0,0,0,0,0,0C8.9,66.1,8.6,66,8.2,66c-1.4,0-2,1-2,2.1
			c0,0.2,0,0.4,0.1,0.6c0.1,0.3,0.2,0.6,0.4,0.9c0,0,0,0,0,0c0.3,0.4,0.8,0.6,1.5,0.6c0.2,0,0.3,0,0.5,0c0.4-0.1,0.8-0.3,1.1-0.6
			c0.1-0.1,0.2-0.3,0.3-0.5c0.1-0.3,0.2-0.7,0.2-1c0,0,0-0.1,0-0.1C10.3,67.9,10.3,67.8,10.3,67.7z"/>
		<linearGradient id="SVGID_112_" gradientUnits="userSpaceOnUse" x1="-79.0109" y1="68.1219" x2="233.7671" y2="68.1219">
			<stop  offset="0" style="stop-color:#FFFFFF"/>
			<stop  offset="1" style="stop-color:#FDB6C8"/>
		</linearGradient>
		<path class="st110" d="M-12.8,66c-1.4,0-2,1-2,2.1c0,0.3,0.1,0.7,0.2,1c0.1,0.2,0.2,0.3,0.3,0.5c0.2,0.2,0.4,0.4,0.6,0.5
			c0.3,0.1,0.6,0.2,0.9,0.2c0.3,0,0.6-0.1,0.9-0.2c1-0.5,1.4-1.7,1-2.7C-11.1,66.6-11.7,66-12.8,66z"/>
		<linearGradient id="SVGID_113_" gradientUnits="userSpaceOnUse" x1="-79.0109" y1="68.1219" x2="233.7671" y2="68.1219">
			<stop  offset="0" style="stop-color:#FFFFFF"/>
			<stop  offset="1" style="stop-color:#FDB6C8"/>
		</linearGradient>
		<path class="st111" d="M-33.8,66c-1.4,0-2,1-2,2.1c0,0.3,0.1,0.7,0.2,1c0.1,0.2,0.2,0.3,0.3,0.5c0,0,0,0,0,0
			c0.2,0.2,0.4,0.3,0.6,0.5c0.3,0.1,0.6,0.2,0.9,0.2c0.3,0,0.6-0.1,0.9-0.2c0.3-0.1,0.5-0.3,0.6-0.5c0.2-0.2,0.4-0.5,0.4-0.9
			c0-0.2,0.1-0.4,0.1-0.6C-31.7,67.1-32.4,66-33.8,66z"/>
	</g>
</g>
</svg>
