<?xml version="1.0" encoding="utf-8"?>
<!-- Generator: Adobe Illustrator 24.3.0, SVG Export Plug-In . SVG Version: 6.00 Build 0)  -->
<svg version="1.1" id="栝鍣_1" xmlns="http://www.w3.org/2000/svg" xmlns:xlink="http://www.w3.org/1999/xlink" x="0px" y="0px"
	 viewBox="0 0 319.3 276.4" style="enable-background:new 0 0 319.3 276.4;" xml:space="preserve">
<style type="text/css">
	.st0{fill-rule:evenodd;clip-rule:evenodd;fill:#ADBEE3;}
	.st1{fill-rule:evenodd;clip-rule:evenodd;fill:#CAD5EE;}
	.st2{fill-rule:evenodd;clip-rule:evenodd;fill:#9CB1DC;}
	.st3{fill-rule:evenodd;clip-rule:evenodd;fill:#FEFEFE;}
	.st4{fill-rule:evenodd;clip-rule:evenodd;fill:#E97975;}
	.st5{fill-rule:evenodd;clip-rule:evenodd;fill:#393185;}
	.st6{fill-rule:evenodd;clip-rule:evenodd;fill:#F7BF4F;}
	.st7{fill-rule:evenodd;clip-rule:evenodd;fill:#A8CFF0;}
	.st8{fill:#FEFEFE;}
	.st9{fill-rule:evenodd;clip-rule:evenodd;fill:#ECF6FF;}
	.st10{fill-rule:evenodd;clip-rule:evenodd;fill:#6CA1FF;}
	.st11{fill:#6CA1FF;}
	.st12{fill-rule:evenodd;clip-rule:evenodd;fill:#E51A4B;}
	.st13{fill-rule:evenodd;clip-rule:evenodd;fill:#434242;}
	.st14{fill:#434242;}
</style>
<g>
	<g>
		<g>
			<path class="st0" d="M212.9,126.5c0,0,13.8-1.1,28.9-7.2c15.1-6.1,20.9-10.5,20.9-10.5l-4.4-23.5c0,0-5.8,4.4-20.9,10.5
				c-15.1,6.1-28.9,7.2-28.9,7.2L212.9,126.5z"/>
			<path class="st1" d="M240.8,116.8c11.7-4.8,16.3-8.2,16.3-8.2l-3.4-18.3c0,0-4.5,3.4-16.3,8.2c-11.7,4.8-22.5,5.6-22.5,5.6
				l3.4,18.3C218.2,122.4,228.9,121.6,240.8,116.8z"/>
			<path class="st2" d="M238.1,113.8c3.4-0.6,5.7-3.9,5-7.3c-0.6-3.4-3.9-5.7-7.3-5c-3.4,0.6-5.7,3.9-5,7.3
				C231.4,112.2,234.8,114.5,238.1,113.8z"/>
			<path class="st2" d="M251.2,96.3c0.8-0.2,1.4-0.9,1.2-1.7c-0.2-0.8-0.9-1.3-1.7-1.2c-0.8,0.2-1.4,0.9-1.2,1.7
				C249.6,95.9,250.4,96.4,251.2,96.3z"/>
			<path class="st3" d="M237.8,110.4c0.3-0.1,0.5-0.2,0.6-0.3c0.3-0.3,0.4-0.6,0.3-0.9c-0.1-0.3-0.3-0.6-0.6-0.7
				c-0.1-0.1-0.4-0.1-0.8-0.2L237.8,110.4L237.8,110.4z M236.1,104.8c-0.6,0.3-0.9,0.6-0.8,1.1c0.1,0.3,0.2,0.5,0.5,0.6
				c0.1,0,0.3,0.1,0.6,0.1L236.1,104.8L236.1,104.8L236.1,104.8z M236.8,104.6l0.4,2c0.7,0.1,1.2,0.2,1.6,0.3
				c0.9,0.3,1.4,0.9,1.5,1.7c0.1,0.6,0,1.1-0.3,1.7c-0.4,0.6-1,1-1.9,1.3l0.2,1.1l-0.7,0.1l-0.2-1.1c-0.7,0.1-1.3,0-1.8-0.2
				c-0.4-0.2-0.6-0.4-0.9-0.7c-0.2-0.3-0.4-0.7-0.5-1.2c0,0,0-0.1,0-0.2l1.4-0.3c0.1,0.5,0.3,0.8,0.5,1s0.5,0.3,0.9,0.3l-0.4-2.3
				c-0.8-0.1-1.3-0.2-1.6-0.3c-0.7-0.3-1.2-0.8-1.3-1.6c-0.1-0.6,0-1.2,0.3-1.7c0.4-0.5,0.9-0.9,1.7-1.1l-0.2-0.9l0.7-0.1l0.2,0.9
				c0.9,0,1.5,0.2,2.1,0.6c0.4,0.3,0.6,0.8,0.7,1.4l-1.4,0.3c-0.1-0.3-0.2-0.6-0.4-0.7C237.4,104.8,237.1,104.7,236.8,104.6
				L236.8,104.6z"/>
		</g>
		<g>
			<path class="st0" d="M42,22.2c0,0,12.2,6.5,28.3,9.4c16,2.9,23.3,2.3,23.3,2.3l8.9-22.2c0,0-7.3,0.6-23.3-2.3S50.9,0,50.9,0
				L42,22.2z"/>
			<path class="st1" d="M70.6,28.9c12.4,2.3,18.1,1.8,18.1,1.8l6.9-17.3c0,0-5.7,0.5-18.1-1.8s-22-7.3-22-7.3l-6.9,17.3
				C48.6,21.6,58.2,26.7,70.6,28.9z"/>
			<path class="st2" d="M70.1,25c3.2,1.3,6.9-0.3,8.2-3.5c1.3-3.2-0.3-6.9-3.5-8.2c-3.2-1.3-6.9,0.3-8.2,3.5
				C65.2,20.1,66.8,23.7,70.1,25z"/>
			<path class="st2" d="M90.6,17.2c0.8,0.3,1.6-0.1,2-0.8c0.3-0.8-0.1-1.6-0.8-1.9c-0.8-0.3-1.6,0.1-2,0.8
				C89.4,16.1,89.8,16.9,90.6,17.2z"/>
			<path class="st3" d="M71.7,22c0.3,0.1,0.5,0.1,0.7,0.1c0.4-0.1,0.6-0.3,0.8-0.6c0.1-0.3,0.1-0.6-0.1-0.9
				c-0.1-0.1-0.3-0.3-0.6-0.5L71.7,22L71.7,22z M73.2,16.3c-0.7-0.1-1.1,0-1.3,0.5c-0.1,0.3-0.1,0.5,0.1,0.8
				c0.1,0.1,0.2,0.3,0.5,0.4L73.2,16.3L73.2,16.3L73.2,16.3z M73.9,16.6l-0.8,1.9c0.6,0.5,0.9,0.8,1.2,1.1c0.6,0.7,0.7,1.5,0.4,2.3
				c-0.2,0.6-0.6,1-1.1,1.2c-0.6,0.3-1.4,0.3-2.3,0.1l-0.4,1l-0.7-0.3l0.4-1c-0.6-0.3-1.1-0.7-1.3-1.1c-0.2-0.3-0.3-0.7-0.3-1.1
				s0.1-0.8,0.2-1.2c0,0,0-0.1,0.1-0.1l1.4,0.5c-0.2,0.5-0.2,0.9-0.1,1.1c0.1,0.3,0.3,0.5,0.6,0.7l0.9-2.2c-0.6-0.5-1-0.9-1.2-1.1
				c-0.5-0.6-0.6-1.3-0.2-2.1c0.2-0.6,0.6-1,1.2-1.2s1.3-0.2,2,0l0.4-0.8l0.7,0.3l-0.4,0.9c0.8,0.4,1.2,1,1.4,1.7
				c0.1,0.5,0.1,1-0.1,1.5L74.4,18c0.1-0.3,0.1-0.6,0-0.8C74.2,17,74.2,16.8,73.9,16.6L73.9,16.6z"/>
		</g>
		<g>
			<path class="st0" d="M52.4,89c0,0,13.9,0.3,29.5-4.4c15.6-4.6,21.8-8.4,21.8-8.4l-2.1-23.8c0,0-6.2,3.8-21.8,8.4
				s-29.5,4.4-29.5,4.4L52.4,89z"/>
			<path class="st1" d="M81,82.1c12.1-3.6,17-6.6,17-6.6L96.4,57c0,0-4.8,3-17,6.6C67.2,67.2,56.5,67,56.5,67l1.6,18.5
				C58.1,85.5,68.9,85.7,81,82.1z"/>
			<path class="st2" d="M78.8,78.9c3.5-0.3,6-3.4,5.7-6.8c-0.3-3.5-3.4-6-6.8-5.7c-3.5,0.3-6,3.4-5.7,6.8
				C72.2,76.6,75.2,79.2,78.8,78.9z"/>
			<path class="st2" d="M93.5,62.6c0.8-0.1,1.4-0.8,1.4-1.6c-0.1-0.8-0.8-1.4-1.6-1.4c-0.8,0.1-1.4,0.8-1.4,1.6
				C92,62.1,92.7,62.7,93.5,62.6z"/>
			<path class="st3" d="M78.8,75.4c0.3-0.1,0.5-0.1,0.6-0.2c0.3-0.2,0.5-0.5,0.4-0.9c0-0.3-0.2-0.6-0.5-0.8
				c-0.1-0.1-0.4-0.1-0.7-0.2L78.8,75.4L78.8,75.4z M77.6,69.6c-0.7,0.2-1,0.5-0.9,1c0,0.3,0.2,0.5,0.5,0.7c0.1,0.1,0.3,0.1,0.6,0.2
				L77.6,69.6L77.6,69.6L77.6,69.6z M78.4,69.6l0.2,2.1c0.7,0.2,1.2,0.3,1.5,0.4c0.8,0.4,1.3,1,1.3,1.9c0,0.6-0.1,1.1-0.5,1.6
				c-0.4,0.6-1.1,0.9-2,1.1l0.1,1.1l-0.7,0.1l-0.1-1.1c-0.7,0-1.3-0.1-1.7-0.4c-0.3-0.2-0.6-0.5-0.8-0.8c-0.2-0.4-0.3-0.8-0.4-1.2
				c0,0,0-0.1,0-0.2l1.5-0.1c0.1,0.5,0.2,0.9,0.4,1.1c0.2,0.2,0.5,0.3,0.9,0.4l-0.2-2.4c-0.8-0.2-1.3-0.3-1.5-0.4
				c-0.7-0.3-1.1-0.9-1.1-1.7c0-0.6,0.1-1.2,0.5-1.6c0.4-0.5,1-0.8,1.8-0.9l-0.1-0.9l0.7-0.1l0.1,0.9c0.9,0,1.5,0.3,2,0.8
				c0.3,0.4,0.5,0.8,0.6,1.4l-1.4,0.1c-0.1-0.3-0.2-0.6-0.3-0.7C78.9,69.8,78.7,69.6,78.4,69.6L78.4,69.6z"/>
		</g>
		<g>
			<path class="st0" d="M215.6,50.6c0,0,13.9,0.3,29.5-4.4c15.6-4.6,21.8-8.4,21.8-8.4l-2-23.8c0,0-6.2,3.8-21.8,8.4
				s-29.5,4.4-29.5,4.4L215.6,50.6z"/>
			<path class="st1" d="M244.1,43.7c12.1-3.6,17-6.6,17-6.6l-1.6-18.5c0,0-4.8,3-17,6.6c-12.1,3.6-22.9,3.4-22.9,3.4l1.6,18.5
				C221.2,47.1,232.1,47.3,244.1,43.7z"/>
			<path class="st2" d="M241.9,40.5c3.5-0.3,6-3.4,5.7-6.8c-0.3-3.5-3.4-6-6.8-5.7c-3.5,0.3-6,3.4-5.7,6.8
				C235.3,38.2,238.4,40.8,241.9,40.5z"/>
			<path class="st2" d="M256.6,24.3c0.8-0.1,1.4-0.8,1.4-1.6c-0.1-0.8-0.8-1.4-1.6-1.4c-0.8,0.1-1.4,0.8-1.4,1.6
				C255.1,23.7,255.8,24.3,256.6,24.3z"/>
			<path class="st3" d="M241.9,37c0.3-0.1,0.5-0.1,0.6-0.2c0.3-0.2,0.5-0.5,0.4-0.9c0-0.3-0.2-0.6-0.5-0.8c-0.1-0.1-0.4-0.1-0.7-0.2
				L241.9,37L241.9,37z M240.8,31.3c-0.7,0.2-1,0.5-0.9,1c0,0.3,0.2,0.5,0.5,0.7c0.1,0.1,0.3,0.1,0.6,0.2L240.8,31.3L240.8,31.3
				L240.8,31.3z M241.6,31.2l0.2,2.1c0.7,0.2,1.2,0.3,1.5,0.4c0.8,0.4,1.3,1,1.3,1.9c0,0.6-0.1,1.1-0.5,1.6c-0.4,0.6-1.1,0.9-2,1.1
				l0.1,1.1l-0.7,0.1l-0.1-1.1c-0.7,0-1.3-0.1-1.7-0.4c-0.3-0.2-0.6-0.5-0.8-0.8c-0.2-0.4-0.3-0.8-0.4-1.2c0,0,0-0.1,0-0.2l1.5-0.1
				c0.1,0.5,0.2,0.9,0.4,1.1c0.2,0.2,0.5,0.3,0.9,0.4l-0.2-2.4c-0.8-0.2-1.3-0.3-1.5-0.4c-0.7-0.3-1.1-0.9-1.1-1.7
				c0-0.6,0.1-1.2,0.5-1.6c0.4-0.5,1-0.8,1.8-0.9l-0.1-0.9l0.7-0.1l0.1,0.9c0.9,0,1.5,0.3,2,0.8c0.3,0.4,0.5,0.8,0.6,1.4l-1.4,0.1
				c-0.1-0.3-0.2-0.6-0.3-0.7C242.1,31.4,241.8,31.3,241.6,31.2L241.6,31.2z"/>
		</g>
		<g>
			<path class="st0" d="M84.2,45.9c0,0,13.9,0.3,29.5-4.4c15.6-4.6,21.8-8.4,21.8-8.4l-2.1-23.9c0,0-6.2,3.8-21.8,8.4
				S82.1,22,82.1,22L84.2,45.9z"/>
			<path class="st1" d="M112.7,39c12.1-3.6,17-6.6,17-6.6l-1.6-18.5c0,0-4.8,3-17,6.6C99,24,88.2,23.8,88.2,23.8l1.6,18.5
				C89.8,42.4,100.6,42.6,112.7,39z"/>
			<path class="st2" d="M110.5,35.7c3.5-0.3,6-3.4,5.7-6.8c-0.3-3.5-3.4-6-6.8-5.7c-3.5,0.3-6,3.4-5.7,6.8
				C104,33.5,107,36,110.5,35.7z"/>
			<path class="st2" d="M125.2,19.5c0.8-0.1,1.4-0.8,1.4-1.6c-0.1-0.8-0.8-1.4-1.6-1.4c-0.8,0.1-1.4,0.8-1.4,1.6
				C123.7,19,124.4,19.6,125.2,19.5z"/>
			<path class="st3" d="M110.5,32.3c0.3-0.1,0.5-0.1,0.6-0.2c0.3-0.2,0.5-0.5,0.4-0.9c0-0.3-0.2-0.6-0.5-0.8
				c-0.1-0.1-0.4-0.1-0.7-0.2L110.5,32.3L110.5,32.3z M109.4,26.5c-0.7,0.2-1,0.5-0.9,1c0,0.3,0.2,0.5,0.5,0.7
				c0.1,0.1,0.3,0.1,0.6,0.2L109.4,26.5L109.4,26.5L109.4,26.5z M110.1,26.5l0.2,2.1c0.7,0.2,1.2,0.3,1.5,0.4c0.8,0.4,1.3,1,1.3,1.9
				c0,0.6-0.1,1.1-0.5,1.6c-0.4,0.6-1.1,0.9-2,1.1l0.1,1.1l-0.7,0l-0.1-1.1c-0.7,0-1.3-0.1-1.7-0.4c-0.3-0.2-0.6-0.5-0.8-0.8
				c-0.2-0.4-0.4-0.8-0.4-1.2c0,0,0-0.1,0-0.2l1.5-0.1c0.1,0.5,0.2,0.9,0.4,1.1c0.2,0.2,0.5,0.3,0.9,0.4l-0.2-2.4
				c-0.8-0.2-1.3-0.3-1.5-0.4c-0.7-0.3-1.1-0.9-1.1-1.7c0-0.6,0.1-1.2,0.5-1.6c0.4-0.5,1-0.8,1.8-0.9l-0.1-0.9l0.7-0.1l0.1,0.9
				c0.9,0,1.5,0.3,2,0.8c0.3,0.4,0.5,0.8,0.6,1.4l-1.4,0.1c-0.1-0.3-0.2-0.6-0.3-0.7C110.6,26.6,110.4,26.5,110.1,26.5L110.1,26.5z"
				/>
		</g>
		<g>
			<path class="st0" d="M220.6,136.9c0,0,13.4,3.6,29.6,2.9c16.3-0.7,23.2-2.9,23.2-2.9l3.8-23.6c0,0-7,2.2-23.2,2.9
				c-16.3,0.7-29.6-2.9-29.6-2.9L220.6,136.9z"/>
			<path class="st1" d="M250.1,137.2c12.6-0.5,18.1-2.2,18.1-2.2l3-18.4c0,0-5.4,1.7-18.1,2.2c-12.6,0.5-23-2.3-23-2.3l-3,18.4
				C227.1,134.9,237.3,137.7,250.1,137.2z"/>
			<path class="st2" d="M248.6,133.5c3.4,0.6,6.7-1.8,7.2-5.2c0.6-3.4-1.8-6.7-5.2-7.2c-3.4-0.6-6.7,1.8-7.2,5.2
				C242.8,129.7,245.2,132.9,248.6,133.5z"/>
			<path class="st2" d="M267,121.3c0.8,0.1,1.6-0.4,1.7-1.2c0.1-0.8-0.4-1.6-1.2-1.7c-0.8-0.1-1.6,0.4-1.7,1.2
				C265.6,120.4,266.1,121.2,267,121.3z"/>
			<path class="st3" d="M249.6,130.1c0.3,0,0.5,0,0.7-0.1c0.4-0.1,0.6-0.4,0.6-0.8c0.1-0.3,0-0.6-0.3-0.9c-0.1-0.1-0.3-0.2-0.7-0.4
				L249.6,130.1L249.6,130.1z M249.8,124.3c-0.7,0-1.1,0.3-1.1,0.7c0,0.3,0,0.5,0.3,0.7c0.1,0.1,0.3,0.2,0.5,0.3L249.8,124.3
				L249.8,124.3L249.8,124.3z M250.6,124.4l-0.3,2c0.7,0.3,1.1,0.6,1.4,0.8c0.7,0.6,1,1.3,0.9,2.1c-0.1,0.6-0.4,1.1-0.8,1.5
				c-0.6,0.5-1.3,0.6-2.2,0.6l-0.2,1.1l-0.7-0.1l0.2-1.1c-0.7-0.2-1.2-0.5-1.6-0.8c-0.3-0.3-0.5-0.6-0.6-1s-0.1-0.8-0.1-1.3
				c0,0,0-0.1,0-0.2l1.4,0.2c0,0.5,0,0.9,0.2,1.1c0.2,0.3,0.4,0.5,0.8,0.6l0.4-2.3c-0.7-0.4-1.1-0.6-1.4-0.8c-0.6-0.5-0.8-1.1-0.7-2
				c0.1-0.6,0.4-1.1,0.9-1.5s1.2-0.5,2-0.5l0.2-0.9l0.7,0.1l-0.2,0.9c0.8,0.2,1.4,0.7,1.7,1.3c0.2,0.4,0.3,0.9,0.2,1.5l-1.4-0.2
				c0-0.3,0-0.6-0.2-0.8C251.1,124.7,250.8,124.5,250.6,124.4L250.6,124.4z"/>
		</g>
	</g>
	<g>
		<path class="st4" d="M132.4,85.6c1.9,0.6-7.6,32.8-7.6,32.8c6.9,8.7,20.3,6,20.3,6l1.4-14.5c2.3,1.2,3.6,1.1,3.6,1.1
			c9.3,0.3,10.2-39.3,10.2-39.3s-12.5,9.2-25,7.8C128.9,78.6,128.9,84.6,132.4,85.6z"/>
		<path class="st4" d="M197.6,29.3c2.3,0.1,5.8,0.4,8.1,1.3c0,0,3.8-12.1,2.1-14s-5.7-2-5.7-2S201.6-1,200.1,1.7
			C198.8,4.4,197.6,29.3,197.6,29.3z"/>
		<path class="st5" d="M124.9,118.5c0,0,9.5-32.3,7.6-32.8c-3.6-1.1-3.6-7,2.8-6c12.6,1.4,25-7.8,25-7.8s-0.9,39.6-10.2,39.3
			c0,0-1.3,0.1-3.6-1.1l-1.4,14.5l4.8,1.2c0,0,10.2-12.3,19.5-23.3c-1-5.3-0.1-28.8-1.5-33.5c-1.5-4.8-7.5-4-7.5-4s-7.5-6.1-18-5.8
			c-16.2,0.5-22.3,15.5-27.6,28.5c-6,14.7-25.5,20.3-32.2,28.4c-5,6.1-4.6,16.3-0.9,23.4c8.1-8.5,15.7-15.4,19.9-17.4
			C106.7,119.5,124.9,118.5,124.9,118.5z"/>
		<path class="st6" d="M101.8,190.7c12.7,6.3,38.7,5.2,38.7,5.2c2.3-2.5,8.7-20.5,8.7-20.5s9.6-9.5,9.7-14
			c0.1-3.1-1.6-10.3-2.7-14.4c11.1-8.5,40.7-43.6,43.5-49.3c2.7-5.7,7-66.6,7-66.6c-0.3-0.2-0.7-0.3-1-0.5c-2.3-0.9-5.8-1.2-8.1-1.3
			c-1.4-0.1-2.4,0-2.4,0s-12.3,47.8-12.2,57.3c-2.7,2.9-8,9.1-13.6,15.7c-9.4,11.1-19.5,23.3-19.5,23.3l-4.8-1.2
			c0,0-13.4,2.7-20.3-6c0,0-18.2,1-23.2,3.4c-4.2,2-11.9,8.9-19.9,17.4c-14.6,15.4-30.4,36.2-29.3,43.3c0.8,5.2,6.5,15.7,35.3,27.7
			c6.7,2.8,14.7,5.7,24.2,8.6c2.6-3.5,3.2-8.6,3.2-8.6c-2.8-2.9-10-9.3-17.4-15.7c-6.9-6-14-12-17.9-15.3c7-7.4,16.2-18.4,20.6-23.7
			C100.2,165.2,101.8,190.7,101.8,190.7z"/>
		<path class="st7" d="M121.5,266c10,0.3,20.1,0.3,30.1,0c-2.9-20-11-70.1-11-70.1s-26,1.1-38.7-5.2c0,0-1.6,1.1-4,3.8
			c7.4,6.4,14.6,12.8,17.4,15.7c0,0,13.4-1.9,16.3-0.9c2.9,1,11,6.7,11.1,8.6c0.1,1.9-7.4,6-10.1,6.2s-7.4-2.9-7.4-2.9l-13.2-2.4
			c-9.5-2.9-17.4-5.8-24.2-8.6c-5,10.9-9.7,27.4-10.9,51.4c10.1,1.9,21.1,3.2,32.4,3.9l6.2-18L121.5,266z"/>
		<g>
			<path class="st3" d="M150.6,127.9c0.3,1.7,0.7,3.5,1.1,5.2c0.2,0.8,0.4,1.7,0.6,2.5c0.2,0.6,0.4,1.3,0.6,1.9c0,0.1,0,0.2-0.1,0.2
				c-0.1,0-0.2,0-0.2-0.1c-0.3-0.6-0.5-1.3-0.7-1.9c-0.2-0.8-0.4-1.7-0.6-2.5c-0.4-1.7-0.8-3.5-1.1-5.2c0-0.1,0-0.2,0.1-0.2
				C150.6,127.7,150.6,127.8,150.6,127.9z"/>
			<path class="st8" d="M152.9,137.8C152.8,137.8,152.8,137.8,152.9,137.8c-0.1,0-0.2-0.1-0.2-0.1c-0.3-0.6-0.5-1.3-0.7-1.9
				c-0.2-0.7-0.4-1.5-0.6-2.5c-0.4-1.7-0.8-3.5-1.1-5.2c0-0.1,0-0.1,0-0.2c0-0.1,0.1-0.1,0.2-0.1c0.1,0,0.1,0,0.2,0
				c0.1,0,0.1,0.1,0.1,0.2l0,0c0.3,1.8,0.7,3.5,1.1,5.2c0.2,1,0.4,1.8,0.6,2.5c0.2,0.6,0.4,1.3,0.6,1.9c0,0.1,0,0.1,0,0.2
				C153.1,137.7,152.9,137.7,152.9,137.8L152.9,137.8z M150.4,127.8L150.4,127.8C150.4,127.8,150.4,127.8,150.4,127.8l-0.1,0.2
				c0.3,1.8,0.7,3.5,1.1,5.2c0.2,1,0.4,1.8,0.6,2.5c0.2,0.6,0.4,1.3,0.6,1.9c0,0,0,0.1,0.1,0.1h0.1c0,0,0.1,0,0.1-0.1v-0.1
				c-0.3-0.6-0.5-1.2-0.6-1.9c-0.2-0.7-0.4-1.5-0.6-2.5c-0.4-1.7-0.8-3.5-1.1-5.2C150.6,127.9,150.6,127.8,150.4,127.8L150.4,127.8z
				"/>
		</g>
		<g>
			<path class="st3" d="M124.9,236.1l-9.3,11.6c-0.1,0.1-0.2,0.1-0.3,0c-0.1-0.1-0.1-0.2,0-0.3l9.3-11.6c0.1-0.1,0.2-0.1,0.3,0
				C125,235.9,125,236,124.9,236.1z"/>
			<path class="st8" d="M115.5,247.7c-0.1,0-0.1,0-0.1-0.1c0,0-0.1-0.1-0.1-0.2c0-0.1,0-0.1,0.1-0.2l9.3-11.6c0,0,0.1-0.1,0.2-0.1
				s0.1,0,0.2,0.1c0,0,0.1,0.1,0.1,0.2c0,0.1,0,0.1-0.1,0.2l0,0l-9.3,11.6C115.6,247.7,115.6,247.7,115.5,247.7z M124.8,235.8
				L124.8,235.8C124.7,235.8,124.7,235.8,124.8,235.8l-9.4,11.6v0.1v0.1c0.1,0,0.1,0,0.2,0l9.3-11.6l0,0v-0.1
				C124.9,235.9,124.9,235.9,124.8,235.8L124.8,235.8z"/>
		</g>
		<g>
			<path class="st3" d="M149.9,125.5c6.5-7.8,12.9-15.5,19.5-23.3c0.1-0.1,0.2-0.1,0.3,0c0.1,0.1,0.1,0.2,0,0.3
				c-6.5,7.7-13.1,15.5-19.5,23.3c0,0.1-0.1,0.1-0.2,0.1l-4.8-1.2c-0.1,0-0.2-0.1-0.1-0.2c0-0.1,0.1-0.2,0.2-0.1L149.9,125.5z"/>
			<path class="st8" d="M149.9,125.9L149.9,125.9l-4.8-1.2c-0.1,0-0.1-0.1-0.1-0.1c0-0.1,0-0.1,0-0.2s0.1-0.1,0.1-0.1
				c0.1,0,0.1,0,0.2,0l4.6,1.2c6.9-8.3,13.2-15.9,19.4-23.2c0.1-0.1,0.2-0.1,0.3,0c0.1,0.1,0.1,0.2,0,0.3
				c-6.2,7.4-12.6,15-19.5,23.3C150.1,125.9,149.9,125.9,149.9,125.9z M145.1,124.3C145.1,124.3,145.1,124.3,145.1,124.3
				C145.1,124.3,145.1,124.4,145.1,124.3l-0.1,0.2c0,0,0,0,0.1,0.1l4.8,1.2h0.1c6.9-8.3,13.3-16,19.5-23.3c0-0.1,0-0.1,0-0.2
				c-0.1,0-0.1,0-0.2,0c-6.2,7.4-12.6,15-19.5,23.3l0,0l0,0L145.1,124.3L145.1,124.3z"/>
		</g>
		<g>
			<path class="st3" d="M155.6,143.8c0.3,1,0.6,2.1,0.8,3.1c0,0.1,0,0.2-0.1,0.2c-0.1,0-0.2,0-0.2-0.1c-0.3-1-0.5-2.1-0.8-3.1
				c0-0.1,0-0.2,0.1-0.2C155.4,143.6,155.6,143.7,155.6,143.8z"/>
			<path class="st8" d="M156.2,147.2c-0.1,0-0.2-0.1-0.2-0.2c-0.2-0.9-0.5-2-0.8-3.1c0-0.1,0-0.1,0-0.2c0-0.1,0.1-0.1,0.1-0.1
				c0.1,0,0.1,0,0.2,0c0.1,0,0.1,0.1,0.1,0.1l0,0c0.3,1.1,0.6,2.2,0.8,3.1c0,0.1,0,0.1,0,0.2C156.4,147.1,156.4,147.1,156.2,147.2
				L156.2,147.2z M155.4,143.7C155.4,143.7,155.4,143.7,155.4,143.7c-0.1,0-0.1,0-0.1,0.1v0.1c0.3,1.1,0.6,2.2,0.8,3.1
				c0,0.1,0.1,0.1,0.2,0.1c0,0,0.1,0,0.1-0.1v-0.1c-0.2-0.9-0.5-2-0.8-3.1l0,0C155.6,143.8,155.6,143.7,155.4,143.7L155.4,143.7z"/>
		</g>
		<g>
			<path class="st3" d="M146.4,110.1c-3.1-1.6-5.9-4.4-8.1-7c-0.1-0.1-0.1-0.2,0-0.3c0.1-0.1,0.2-0.1,0.3,0c2.2,2.5,5,5.3,8,6.9
				c0.1,0,0.1,0.2,0.1,0.2C146.6,110.1,146.6,110.2,146.4,110.1z"/>
			<path class="st8" d="M146.6,110.2h-0.1l0,0c-2.5-1.4-5.3-3.7-8.2-7c-0.1-0.1-0.1-0.2,0-0.3c0.1-0.1,0.2-0.1,0.3,0
				c2.8,3.2,5.5,5.5,8,6.9c0.1,0,0.1,0.1,0.1,0.1c0,0.1,0,0.1,0,0.2C146.6,110.2,146.6,110.2,146.6,110.2z M146.4,110.1
				c0.1,0,0.1,0,0.2-0.1v-0.1c0,0,0-0.1-0.1-0.1c-2.5-1.3-5.2-3.6-8.1-6.9c0-0.1-0.1-0.1-0.2,0c-0.1,0-0.1,0.1,0,0.2
				C141.2,106.4,143.9,108.7,146.4,110.1L146.4,110.1z"/>
		</g>
		<g>
			<path class="st3" d="M135.2,79.4c3.1,0.3,6.1,0,9.1-0.6c2.7-0.6,5.4-1.6,8-2.7c1.9-0.9,3.8-1.9,5.6-3c0.7-0.4,1.5-0.9,2.2-1.4
				c0.1-0.1,0.2,0,0.3,0c0.1,0.1,0,0.2,0,0.3c-0.7,0.5-1.5,1-2.2,1.4c-1.8,1.1-3.7,2.1-5.7,3c-2.6,1.2-5.3,2.1-8,2.7
				c-3,0.7-6.2,1-9.3,0.6l0,0c-1.2-0.2-2.6-0.2-3.7,0.4c-0.7,0.4-1.2,1.1-1.3,1.9c-0.2,1.5,0.8,2.9,2.3,3.3c0.5,0.1,0.4,1.4,0.4,1.8
				c-0.1,1.3-0.4,2.6-0.6,3.8c-0.4,1.8-0.8,3.5-1.2,5.3c-0.5,2-1,4-1.5,6c-1,3.7-2,7.4-3.1,11.1c-0.5,1.7-1,3.4-1.5,5.1
				c0,0.1-0.1,0.1-0.2,0.1s-0.1-0.1-0.1-0.2c0.5-1.7,1-3.4,1.5-5.1c1.1-3.7,2.1-7.4,3.1-11.1c0.5-2,1-4,1.5-6
				c0.4-1.7,0.8-3.5,1.2-5.3c0.2-1.2,0.5-2.5,0.6-3.8c0-0.3,0.1-0.7,0-1.1l-0.1-0.3c-1.6-0.5-2.7-2-2.5-3.7c0.1-0.9,0.7-1.7,1.5-2.2
				C132.6,79.3,134.1,79.2,135.2,79.4z"/>
			<path class="st8" d="M124.9,118.7C124.9,118.7,124.8,118.7,124.9,118.7c-0.1,0-0.2-0.1-0.2-0.1c0-0.1,0-0.1,0-0.2
				c0.5-1.8,1-3.6,1.5-5.1c1.2-4.1,2.2-7.7,3.1-11.1c0.6-2.2,1.1-4.2,1.5-6c0.5-2.1,0.9-3.7,1.2-5.3c0.3-1.3,0.5-2.5,0.6-3.8
				c0-0.4,0-0.7,0-1.1c0-0.1-0.1-0.2-0.1-0.3c-1.7-0.5-2.8-2.1-2.5-3.8c0.1-0.9,0.7-1.7,1.5-2.2c1.2-0.7,2.8-0.7,3.9-0.5
				c2.8,0.3,5.9,0.1,9.1-0.6c2.6-0.6,5.3-1.5,7.9-2.7c1.9-0.9,3.8-1.9,5.6-3c0.7-0.4,1.5-0.9,2.2-1.4c0.1-0.1,0.3-0.1,0.3,0
				c0.1,0.1,0.1,0.3,0,0.3c-0.7,0.5-1.5,1-2.2,1.4c-1.8,1.1-3.7,2.1-5.7,3c-2.7,1.2-5.4,2.2-8,2.7c-3.3,0.7-6.4,1-9.3,0.6
				c-1.1-0.2-2.5-0.2-3.7,0.4c-0.7,0.4-1.2,1.1-1.3,1.9c-0.2,1.4,0.8,2.8,2.2,3.2c0.5,0.2,0.4,1.3,0.4,1.8l0,0
				c-0.1,1.2-0.3,2.5-0.6,3.8c-0.3,1.5-0.7,3.1-1.2,5.3c-0.4,1.8-0.9,3.8-1.5,6c-0.9,3.4-1.9,7.1-3.1,11.1c-0.4,1.5-0.9,3.3-1.5,5.1
				C125.1,118.6,125,118.7,124.9,118.7z M133.9,79.4c-0.8,0-1.7,0.1-2.5,0.6s-1.4,1.2-1.5,2.1c-0.2,1.6,0.8,3.2,2.5,3.6
				c0.1,0,0.1,0.3,0.1,0.4c0,0.3,0,0.7,0,1.1c-0.1,1.2-0.3,2.5-0.6,3.8c-0.3,1.5-0.7,3.1-1.2,5.3c-0.4,1.8-0.9,3.8-1.5,6
				c-0.9,3.4-1.9,7.1-3.1,11.1c-0.4,1.5-0.9,3.3-1.5,5.1v0.1c0,0,0,0.1,0.1,0.1s0.1,0,0.2-0.1c0.5-1.8,1-3.6,1.5-5.1
				c1.2-4.1,2.2-7.7,3.1-11.1c0.6-2.2,1.1-4.2,1.5-6c0.5-2.1,0.9-3.7,1.2-5.3c0.3-1.3,0.5-2.6,0.6-3.8l0,0c0-0.4,0.1-1.5-0.3-1.7
				c-1.5-0.4-2.5-1.9-2.3-3.4c0.1-0.8,0.6-1.5,1.4-2c1.1-0.7,2.7-0.6,3.7-0.4c2.9,0.3,6,0.1,9.2-0.6c2.6-0.6,5.3-1.5,8-2.7
				c1.9-0.9,3.9-1.9,5.7-3c0.7-0.4,1.5-0.9,2.2-1.4c0.1,0,0.1-0.1,0-0.2c0-0.1-0.1-0.1-0.2,0c-0.7,0.5-1.5,1-2.2,1.4
				c-1.8,1.1-3.7,2.1-5.6,3c-2.7,1.2-5.4,2.1-8,2.7c-3.2,0.7-6.3,0.9-9.2,0.6l0,0C134.9,79.4,134.4,79.4,133.9,79.4z"/>
		</g>
		<g>
			<path class="st3" d="M100.2,155.4v-0.1c0.9-1.1,1.8-2.1,2.7-3.2c0.1-0.1,0.2-0.1,0.3,0s0.1,0.2,0,0.3c-0.9,1.1-1.7,2.1-2.6,3.2
				c0,2.3,0,4.6,0,7c0.1,2.9,0.2,5.8,0.3,8.7c0.3,6.5,0.6,12.9,1,19.4c2.2,1.1,4.5,1.8,6.9,2.5c2.6,0.7,5.3,1.2,8.1,1.6
				c5.3,0.8,10.8,1.1,16.1,1.2c1.8,0,3.6,0,5.4,0c0.7,0,1.4,0,2.1-0.1c0.1,0,0.2,0.1,0.2,0.2c0,0.1-0.1,0.2-0.2,0.2
				c-0.7,0-1.4,0-2.1,0.1c-1.8,0-3.6,0-5.4,0c-5.4-0.1-10.8-0.4-16.2-1.2c-2.7-0.4-5.4-0.9-8.1-1.6c-2.4-0.6-4.8-1.4-7-2.5
				c-0.1,0-0.1-0.1-0.1-0.1c-0.4-6.5-0.7-13-1-19.5c-0.1-2.9-0.2-5.8-0.3-8.7C100.2,160.1,100.2,157.8,100.2,155.4z"/>
			<path class="st8" d="M135.6,196.2c-0.9,0-1.8,0-2.7,0c-6-0.1-11.3-0.5-16.2-1.2c-3-0.4-5.7-0.9-8.1-1.6c-2.8-0.7-5.1-1.6-7-2.5
				c-0.1,0-0.1-0.1-0.1-0.2c-0.4-6.5-0.7-13.1-1-19.5c-0.1-3.4-0.2-6.2-0.3-8.7c0-2.1-0.1-4.6,0-7c0-0.1,0-0.1,0.1-0.1l0.1-0.1
				c0.9-1,1.7-2.1,2.6-3.1c0.1-0.1,0.2-0.1,0.3,0s0.1,0.2,0,0.3c-0.9,1.1-1.7,2.1-2.6,3.2l0,0c0,2.4,0,4.8,0.1,6.9
				c0.1,2.6,0.2,5.3,0.3,8.7c0.3,6.4,0.6,12.9,1,19.4c1.9,0.9,4.1,1.7,6.8,2.4c2.4,0.6,5,1.1,8,1.6c4.9,0.7,10.2,1.1,16.1,1.2
				c1.8,0,3.7,0,5.4,0c0.6,0,1.4,0,2.1-0.1c0.1,0,0.2,0.1,0.2,0.2c0,0.1-0.1,0.2-0.2,0.2c-0.7,0-1.5,0-2.1,0.1
				C137.4,196.2,136.6,196.2,135.6,196.2z M103.1,152.1L103.1,152.1c-1,1.1-1.8,2.2-2.7,3.2l-0.1,0.1c0,0,0,0,0,0.1l0,0
				c0,2.4,0,4.9,0,7c0.1,2.6,0.2,5.3,0.3,8.7c0.3,6.4,0.6,13,1,19.5c0,0,0,0.1,0.1,0.1c2,1,4.3,1.8,7,2.5c2.4,0.6,5.1,1.1,8.1,1.6
				c4.9,0.7,10.2,1.1,16.2,1.2c1.8,0,3.7,0,5.4,0c0.6,0,1.4,0,2.1-0.1c0.1,0,0.1-0.1,0.1-0.1c0-0.1-0.1-0.1-0.1-0.1
				c-0.7,0-1.5,0-2.1,0.1c-1.7,0-3.6,0-5.4,0c-6-0.1-11.2-0.5-16.1-1.2c-3-0.4-5.6-0.9-8.1-1.6c-2.7-0.7-5-1.5-6.9-2.5l0,0l0,0
				c-0.4-6.5-0.7-13-1-19.4c-0.1-3.4-0.2-6.2-0.3-8.7c0-2.1-0.1-4.6,0-7l0,0l0,0c0.9-1,1.7-2.1,2.6-3.2
				C103.2,152.2,103.2,152.2,103.1,152.1C103.2,152.1,103.2,152.1,103.1,152.1z"/>
		</g>
		<g>
			<path class="st3" d="M194.9,29.2L194.9,29.2C195.1,29.2,195.1,29.2,194.9,29.2c0.1-0.1,0.1-0.1,0.2-0.1c0.7,0,1.4,0,2.1,0
				c1.5,0.1,3.1,0.2,4.6,0.4c1.6,0.2,3.6,0.6,5,1.4c0.1,0,0.1,0.2,0.1,0.2c0,0.1-0.2,0.1-0.2,0.1c-1.3-0.8-3.3-1.2-4.8-1.4
				c-1.5-0.2-3-0.3-4.5-0.4c-0.7,0-1.3,0-2,0c-0.8,3-1.5,6-2.3,9c-1.7,6.7-3.3,13.3-4.8,20c-1.3,5.6-2.5,11.3-3.6,16.9
				c-0.4,2.2-0.8,4.4-1.1,6.7c-0.1,0.9-0.2,1.7-0.3,2.6c0,0.5-0.1,1-0.1,1.5c0.3-0.3,0.5-0.5,0.8-0.8c0.1-0.1,0.2-0.1,0.3,0
				s0.1,0.2,0,0.3c-0.4,0.4-0.7,0.8-1.1,1.1l0,0h-0.1c0,0,0,0-0.1,0c0,0,0,0-0.1,0c0,0,0,0,0-0.1c0,0,0,0,0-0.1c0-0.7,0-1.3,0.1-2
				c0.1-0.9,0.2-1.7,0.3-2.6c0.3-2.2,0.7-4.5,1.1-6.7c1.1-5.7,2.3-11.3,3.6-16.9c1.5-6.7,3.1-13.4,4.8-20
				C193.4,35.4,194.2,32.3,194.9,29.2z"/>
			<path class="st8" d="M182.9,86.8L182.9,86.8c-0.1,0-0.1,0-0.2-0.1l-0.1-0.1c0,0,0,0,0-0.1c0-0.7,0-1.4,0.1-2
				c0.1-0.8,0.2-1.6,0.3-2.6c0.3-2.4,0.8-4.9,1.1-6.7c1.1-6,2.4-11.9,3.6-16.9c1.4-6.1,3-12.7,4.8-20c0.7-2.7,1.5-5.9,2.3-9.2l0,0
				c0,0,0-0.1,0.1-0.1l0.1-0.1c0.8,0,1.5,0,2.1,0c1.7,0.1,3.2,0.2,4.6,0.4c2.3,0.3,3.9,0.8,5,1.4c0.1,0,0.1,0.1,0.1,0.1
				c0,0.1,0,0.1,0,0.2s-0.1,0.1-0.1,0.1c-0.1,0-0.1,0-0.2,0c-1-0.6-2.6-1-4.8-1.4c-1.4-0.2-2.8-0.3-4.5-0.4c-0.5,0-1.2,0-1.9,0
				c-0.8,3.2-1.6,6.3-2.3,9c-1.8,7.3-3.4,13.9-4.8,20c-1.1,5-2.5,10.9-3.6,16.9c-0.3,1.8-0.8,4.2-1.1,6.7c-0.1,1-0.2,1.8-0.3,2.6
				c0,0.5-0.1,0.9-0.1,1.3c0.3-0.3,0.5-0.5,0.7-0.7c0.1-0.1,0.2-0.1,0.3,0c0,0,0.1,0.1,0.1,0.2s0,0.1-0.1,0.2
				c-0.4,0.4-0.8,0.8-1.1,1.1c0,0,0,0-0.1,0C183.1,86.8,183.1,86.8,182.9,86.8L182.9,86.8z M195.6,29.2c-0.1,0-0.3,0-0.4,0h-0.1
				c0,0,0,0,0,0.1l0,0l0,0c-0.8,3.3-1.6,6.5-2.3,9.2c-1.8,7.3-3.4,13.9-4.8,20c-1.1,5-2.5,10.9-3.6,16.9c-0.3,1.8-0.8,4.3-1.1,6.7
				c-0.1,1-0.2,1.8-0.3,2.6c0,0.5-0.1,1.3-0.1,2l0,0c0,0,0,0,0,0.1l0,0c0,0,0,0,0.1,0c0,0,0,0,0.1,0l0,0c0.3-0.3,0.7-0.8,1.1-1.1
				v-0.1v-0.1c0,0-0.1,0-0.2,0c-0.2,0.2-0.5,0.5-0.8,0.8l-0.1,0.1v-0.1c0-0.4,0-0.9,0.1-1.5c0.1-0.8,0.2-1.6,0.3-2.6
				c0.3-2.4,0.8-4.8,1.1-6.7c1.1-6,2.4-11.9,3.6-16.9c1.4-6.1,3-12.7,4.8-20c0.7-2.7,1.5-5.8,2.3-9l0,0l0,0c0.7,0,1.4,0,2,0
				c1.7,0.1,3.2,0.2,4.5,0.4c2.2,0.3,3.8,0.8,4.9,1.4h0.1c0,0,0.1,0,0.1-0.1v-0.1c0,0,0-0.1-0.1-0.1c-1.1-0.6-2.7-1.1-4.9-1.4
				c-1.4-0.2-2.9-0.3-4.6-0.4C196.8,29.2,196.1,29.2,195.6,29.2z"/>
		</g>
		<g>
			<path class="st3" d="M101.7,122c-1.3,0.6-2.6,1.5-3.7,2.3c-1.6,1.2-3.2,2.5-4.8,3.9c-1.9,1.6-3.7,3.4-5.5,5.1c-2,2-4,4-5.9,6
				c-0.1,0.1-0.2,0.1-0.3,0s-0.1-0.2,0-0.3c1.9-2,3.9-4.1,5.9-6c1.8-1.7,3.6-3.5,5.5-5.1c1.5-1.4,3.1-2.7,4.8-3.9
				c1.2-0.9,2.5-1.8,3.8-2.4l0,0c0,0,0,0,0.1,0c0.3,0,0.7,0.1,0.9,0.3c0.7,0.4,1.3,1.1,1.7,1.9c0.8,1.5,1.2,3.3,1.4,5
				c0.2,1.4,0.2,2.7,0.2,4.1c0,1.8-0.1,3.7-0.2,5.5c0,0.1-0.1,0.2-0.2,0.2s-0.2-0.1-0.2-0.2c0.1-1.8,0.2-3.6,0.2-5.4
				c0-1.4-0.1-2.7-0.2-4.1c-0.2-1.6-0.6-3.4-1.4-4.8c-0.4-0.7-0.9-1.3-1.6-1.7C102.2,122.2,101.9,122.1,101.7,122z"/>
			<path class="st8" d="M81.7,139.5c-0.1,0-0.1,0-0.2-0.1c0,0-0.1-0.1-0.1-0.2c0-0.1,0-0.1,0.1-0.2c2-2.2,4-4.1,5.9-6
				c2-1.9,3.8-3.6,5.5-5.1c1.8-1.6,3.3-2.8,4.8-3.9c1-0.8,2.4-1.7,3.8-2.4h0.1c0.3,0,0.7,0.1,0.9,0.3c0.7,0.4,1.2,1,1.7,1.9
				c0.7,1.2,1.1,2.9,1.4,5c0.2,1.2,0.2,2.6,0.2,4.1c0,1.7-0.1,3.5-0.2,5.5c0,0.1-0.1,0.2-0.3,0.2c-0.1,0-0.1,0-0.2-0.1
				c0,0-0.1-0.1-0.1-0.2c0.2-2,0.2-3.8,0.2-5.4c0-1.5-0.1-2.8-0.2-4.1c-0.3-2.1-0.7-3.6-1.3-4.8c-0.4-0.8-1-1.4-1.5-1.7
				c-0.2-0.1-0.5-0.2-0.7-0.2c-1.3,0.6-2.7,1.6-3.7,2.3c-1.4,1.1-3,2.3-4.8,3.9c-1.7,1.5-3.5,3.2-5.5,5.1
				C85.6,135.3,83.6,137.3,81.7,139.5C81.9,139.5,81.8,139.5,81.7,139.5L81.7,139.5z M101.7,121.7L101.7,121.7
				C101.7,121.7,101.6,121.7,101.7,121.7c-1.4,0.7-2.8,1.6-3.8,2.4c-1.5,1.1-3,2.3-4.8,3.9c-1.7,1.5-3.5,3.2-5.5,5.1
				c-1.9,1.9-3.9,3.9-5.9,6v0.1v0.1h0.1h0.1c2-2.2,4-4.1,5.9-6c2-1.9,3.8-3.6,5.5-5.1c1.8-1.6,3.3-2.8,4.8-3.9
				c1-0.7,2.4-1.7,3.7-2.3l0,0l0,0c0.2,0,0.5,0.1,0.7,0.2c0.6,0.3,1.1,0.9,1.6,1.7c0.7,1.2,1.1,2.8,1.4,4.8c0.2,1.2,0.2,2.6,0.2,4.1
				c0,1.7-0.1,3.4-0.2,5.4v0.1h0.1c0.1,0,0.1,0,0.1-0.1c0.2-2,0.2-3.8,0.2-5.5c0-1.5-0.1-2.9-0.2-4.1c-0.3-2.1-0.7-3.7-1.4-4.9
				c-0.5-0.9-1-1.5-1.7-1.8C102.2,121.9,102,121.7,101.7,121.7z"/>
		</g>
		<g>
			<g>
				<path class="st9" d="M128.8,179.7V255c0,0,66.1,5,113.7-27.6v-75.3C194.9,184.7,128.8,179.7,128.8,179.7z"/>
				<path class="st10" d="M190.2,186c-13.9,3.3-28.4,5.1-42.7,5.7c-0.9,0-1.7,0.8-1.6,1.8c0,0.9,0.8,1.7,1.8,1.6
					c14.5-0.6,29.2-2.5,43.4-5.8c0.9-0.2,1.5-1.1,1.3-2.1C192.1,186.4,191.1,185.8,190.2,186z"/>
				<path class="st10" d="M190.2,196.5c-13.9,3.3-28.4,5.1-42.7,5.7c-0.9,0-1.7,0.8-1.6,1.8c0,0.9,0.8,1.7,1.8,1.6
					c14.5-0.6,29.2-2.5,43.4-5.8c0.9-0.2,1.5-1.1,1.3-2.1C192.1,196.8,191.1,196.2,190.2,196.5z"/>
				<path class="st10" d="M159.9,215.5l-1.6,0.1c-0.5,0.9-1.3,1.9-2.4,2.9c-1.1,1-2.3,1.9-3.8,2.7l-0.1,2.4c0.8-0.3,1.7-0.8,2.7-1.5
					c1-0.6,1.8-1.3,2.4-1.9l-0.8,15.7l2.5-0.2L159.9,215.5z"/>
				<path class="st10" d="M171.9,214.1c-1.5,0.2-2.7,0.7-3.7,1.6c-1,0.9-1.7,2.1-2.2,3.6s-0.7,3.4-0.7,5.8c0,3.7,0.7,6.4,2,7.9
					c1.1,1.2,2.7,1.7,4.6,1.4c1.5-0.2,2.7-0.8,3.7-1.7s1.7-2.1,2.2-3.6s0.7-3.4,0.7-5.8c0-2-0.2-3.5-0.5-4.7
					c-0.3-1.1-0.7-2.1-1.3-2.8c-0.5-0.7-1.2-1.3-2-1.6C173.9,214.1,173.1,214,171.9,214.1L171.9,214.1z M169.1,218
					c0.7-1,1.6-1.6,2.7-1.8c1.2-0.2,2.1,0.3,2.9,1.2c0.8,1,1.2,3.1,1.2,6.4c0,3.3-0.4,5.5-1.2,6.7s-1.7,1.9-2.9,2
					c-1.1,0.2-2.1-0.3-2.9-1.2c-0.8-1-1.2-3.1-1.2-6.4C167.9,221.6,168.4,219.3,169.1,218z"/>
				<path class="st10" d="M185.9,211.7c-1.5,0.3-2.7,1-3.6,1.9c-0.9,1-1.5,2.2-1.9,3.8c-0.4,1.5-0.4,3.5-0.2,5.8
					c0.3,3.7,1.2,6.2,2.7,7.6c1.2,1.1,2.8,1.5,4.8,1c1.5-0.3,2.7-1,3.6-1.9c0.9-1,1.5-2.2,1.9-3.8c0.4-1.5,0.4-3.4,0.2-5.7
					c-0.2-1.9-0.5-3.5-0.9-4.5c-0.4-1.1-0.9-2-1.5-2.6c-0.6-0.7-1.3-1.2-2.2-1.4C188.1,211.4,187.1,211.4,185.9,211.7L185.9,211.7z
					 M183.6,215.7c0.6-1.1,1.5-1.8,2.6-2c1.2-0.3,2.2,0.1,3,1c0.9,0.9,1.4,3,1.7,6.2s0.1,5.5-0.6,6.7c-0.7,1.2-1.6,2-2.7,2.2
					c-1.1,0.2-2.1-0.1-3-1s-1.4-3-1.7-6.2S182.8,217.1,183.6,215.7z"/>
				<path class="st10" d="M200.3,208.1c-1.5,0.4-2.6,1.1-3.5,2.1s-1.4,2.3-1.7,3.8s-0.3,3.4,0,5.7c0.5,3.6,1.5,6.1,3.1,7.4
					c1.3,1,2.9,1.3,4.9,0.8c1.5-0.4,2.6-1.1,3.5-2.1s1.4-2.3,1.7-3.8s0.3-3.4,0-5.7c-0.3-1.9-0.6-3.4-1.1-4.5s-1-1.9-1.6-2.6
					c-0.6-0.7-1.4-1.1-2.3-1.3C202.4,207.8,201.4,207.8,200.3,208.1L200.3,208.1z M198.1,212.2c0.6-1.1,1.4-1.8,2.5-2.1
					c1.2-0.3,2.2,0,3.1,0.8c0.9,0.8,1.6,2.9,2,6c0.4,3.2,0.3,5.4-0.3,6.6c-0.6,1.3-1.5,2-2.7,2.3c-1.1,0.3-2.2,0-3.1-0.8
					c-0.9-0.8-1.6-2.9-2-6C197.2,215.8,197.4,213.6,198.1,212.2z"/>
				<path class="st10" d="M211.1,205.5c-0.8,1-1.4,2.3-1.6,3.8c-0.2,1.5-0.2,3.4,0.2,5.6c0.6,3.6,1.8,6,3.4,7.2c1.3,1,3,1.2,4.9,0.7
					c1.5-0.4,2.6-1.1,3.5-2.2c0.8-1,1.4-2.3,1.6-3.8c0.2-1.5,0.2-3.4-0.2-5.6c-0.3-1.9-0.8-3.3-1.3-4.4c-0.5-1-1.1-1.9-1.7-2.5
					c-0.7-0.6-1.4-1-2.3-1.2c-0.9-0.2-1.9-0.1-3,0.2C213.1,203.7,211.9,204.5,211.1,205.5L211.1,205.5z M212.2,214.2
					c-0.6-3.1-0.5-5.4,0.1-6.8c0.5-1.1,1.4-1.8,2.5-2.1c1.2-0.3,2.2-0.1,3.2,0.7s1.7,2.8,2.3,5.9c0.6,3.1,0.5,5.3-0.1,6.6
					s-1.5,2-2.6,2.4c-1.1,0.3-2.2,0.1-3.2-0.7C213.6,219.3,212.8,217.3,212.2,214.2z"/>
				<path class="st10" d="M235.8,221.3c-6.5,3.9-13.3,7.2-20.3,10c-0.9,0.4-1.3,1.4-0.9,2.2c0.4,0.9,1.4,1.3,2.2,0.9
					c7.2-2.9,14.1-6.3,20.8-10.3c0.8-0.5,1.1-1.5,0.6-2.4C237.6,221.1,236.6,220.8,235.8,221.3z"/>
			</g>
			<g>
				<path class="st10" d="M128.9,254.8c1.2,0.1,2.4,0.1,3.5,0.2c3.3,0.1,6.6,0.1,9.9,0.1c11.1-0.2,22.3-1.2,33.2-3
					c0.1,0,0.2,0.1,0.2,0.1c0,0.1-0.1,0.2-0.1,0.2c-11,1.8-22.2,2.8-33.3,3c-3.3,0.1-6.6,0-9.9-0.1c-1.2,0-2.5-0.1-3.7-0.2
					c-0.1,0-0.2-0.1-0.2-0.2V228c0-0.1,0.1-0.2,0.2-0.2c0.1,0,0.2,0.1,0.2,0.2V254.8L128.9,254.8z M242.3,227.3
					c-0.3,0.2-0.7,0.4-1,0.7c-0.1,0.1-0.1,0.2,0,0.2c0.1,0.1,0.2,0.1,0.2,0c0.4-0.2,0.7-0.5,1.1-0.7c0.1,0,0.1-0.1,0.1-0.1v-75.3
					c0-0.1,0-0.1-0.1-0.2c-0.1,0-0.1,0-0.2,0c-19.7,13.5-43.4,21.1-66.8,24.9c-0.1,0-0.2,0.1-0.1,0.2c0,0.1,0.1,0.2,0.2,0.1
					c23.4-3.8,47-11.4,66.6-24.8V227.3z"/>
				<path class="st11" d="M138.6,255.5c-2.1,0-4.1,0-6.1-0.1c-1.2,0-2.4-0.1-3.7-0.2c-0.1,0-0.2-0.1-0.2-0.2v-26.9
					c0-0.1,0.1-0.2,0.2-0.2c0.1,0,0.2,0.1,0.2,0.2v26.7c1.2,0.1,2.4,0.1,3.5,0.2c3.1,0.1,6.4,0.1,9.9,0.1c11.1-0.2,22.3-1.2,33.2-3
					c0.1,0,0.1,0,0.1,0l0.1,0.1c0,0.1,0,0.1,0,0.1l-0.1,0.1c-11,1.8-22.2,2.8-33.3,3C141.1,255.4,139.9,255.5,138.6,255.5z
					 M128.8,227.9c-0.1,0-0.2,0.1-0.2,0.2V255c0,0.1,0.1,0.2,0.1,0.2c1.3,0.1,2.5,0.1,3.7,0.2c3.1,0.1,6.4,0.1,9.9,0.1
					c11.1-0.2,22.3-1.2,33.3-3c0,0,0.1,0,0.1-0.1v-0.1c0,0,0-0.1-0.1-0.1h-0.1c-10.9,1.8-22.1,2.8-33.2,3c-3.5,0.1-6.8,0-9.9-0.1
					c-1.1,0-2.3-0.1-3.5-0.2l0,0v-26.8C128.9,228,128.9,227.9,128.8,227.9z M241.4,228.3C241.4,228.3,241.3,228.3,241.4,228.3
					c-0.1,0-0.1,0-0.2-0.1c-0.1-0.1,0-0.2,0.1-0.3c0.3-0.2,0.6-0.4,1-0.7v-74.8c-9.3,6.4-20.1,11.7-31.9,16
					c-10.7,3.8-22.3,6.8-34.7,8.8c-0.1,0-0.2-0.1-0.2-0.2c0-0.1,0-0.1,0-0.1l0.1-0.1c26.4-4.3,48.9-12.6,66.8-24.9
					c0.1,0,0.1,0,0.2,0c0.1,0,0.1,0.1,0.1,0.2v75.3c0,0.1,0,0.1-0.1,0.2c-0.4,0.2-0.7,0.5-1.1,0.7
					C241.4,228.3,241.4,228.3,241.4,228.3z M242.3,152.4v74.9l0,0c-0.3,0.2-0.7,0.5-1,0.7c-0.1,0-0.1,0.1,0,0.2l0.1,0.1h0.1
					c0.4-0.2,0.7-0.5,1.1-0.7l0.1-0.1v-75.3c0-0.1,0-0.1-0.1-0.1s-0.1,0-0.2,0c-9.3,6.4-20.1,11.8-32,16.1
					c-10.7,3.8-22.4,6.8-34.8,8.8c0,0-0.1,0-0.1,0.1v0.1c0,0.1,0.1,0.1,0.2,0.1C202.1,172.9,224.4,164.6,242.3,152.4L242.3,152.4z"
					/>
			</g>
		</g>
		<path class="st4" d="M132.4,224.2c2.7-0.2,10.2-4.3,10.1-6.2c-0.1-1.9-8.2-7.6-11.1-8.6c-2.9-1-16.3,0.9-16.3,0.9
			s-0.6,5.2-3.2,8.6l13.1,2.4C125.1,221.2,129.8,224.4,132.4,224.2z"/>
		<g>
			<path class="st3" d="M131.1,211.9c-0.6,1.4-2.7,5.7-4.1,6.2c-0.1,0-0.2,0-0.2-0.1s0-0.2,0.1-0.2c1.2-0.5,3.3-4.8,3.9-6
				c0-0.1,0.1-0.1,0.2-0.1C131.1,211.7,131.1,211.8,131.1,211.9z"/>
			<path class="st8" d="M126.9,218.2c-0.1,0-0.2-0.1-0.2-0.2c0-0.1,0-0.3,0.1-0.3c1.1-0.4,3.2-4.5,3.8-6c0-0.1,0.1-0.1,0.1-0.1
				c0.1,0,0.1,0,0.2,0c0.1,0.1,0.2,0.2,0.1,0.3l0,0C130.9,212.5,128.4,217.6,126.9,218.2C127,218.2,127,218.2,126.9,218.2z
				 M130.9,211.7L130.9,211.7c-0.1,0-0.1,0-0.1,0.1s-2.5,5.5-3.9,6c-0.1,0-0.1,0.1-0.1,0.2c0,0.1,0.1,0.1,0.2,0.1
				c1.2-0.5,3.1-4.1,4-6.2l0,0C130.9,211.8,130.9,211.7,130.9,211.7L130.9,211.7z"/>
		</g>
		<g>
			<path class="st3" d="M115.3,210.1C115.3,210.2,115.3,210.2,115.3,210.1c-0.1,1-0.3,2-0.5,2.8c-0.5,1.8-1.2,3.7-2.2,5.3
				c-0.1,0.2-0.3,0.4-0.4,0.6c-0.1,0.1-0.2,0.1-0.3,0c-0.1-0.1-0.1-0.2,0-0.3c0.2-0.2,0.3-0.4,0.4-0.6c1-1.6,1.7-3.4,2.2-5.2
				c0.2-0.8,0.4-1.8,0.5-2.6c-0.9-0.9-1.9-1.8-2.8-2.7c-1.4-1.3-2.7-2.5-4.1-3.8c-3.4-3.1-6.9-6.1-10.4-9.1c-0.1-0.1-0.1-0.2,0-0.3
				s0.2-0.1,0.3,0c3.5,3,7,6.1,10.4,9.1c1.4,1.2,2.8,2.5,4.1,3.8C113.4,208.2,114.4,209.1,115.3,210.1L115.3,210.1z"/>
			<path class="st8" d="M112,219L112,219c-0.2-0.1-0.2-0.2-0.1-0.3c0.1-0.2,0.3-0.4,0.4-0.6c0.9-1.4,1.6-3.1,2.2-5.2
				c0.3-1,0.4-1.8,0.5-2.6c-0.9-1-1.9-1.9-2.8-2.7c-1.2-1.1-2.5-2.3-4.1-3.8c-3.7-3.3-7.5-6.6-10.4-9.1c-0.1-0.1-0.1-0.2,0-0.3
				s0.2-0.1,0.3,0c2.9,2.5,6.7,5.8,10.4,9.2c1.7,1.5,2.9,2.7,4.1,3.8c0.9,0.9,1.9,1.8,2.9,2.8c0,0,0,0.1,0.1,0.1l0,0v0.1
				c-0.1,0.8-0.3,1.7-0.5,2.8c-0.5,2.1-1.3,3.9-2.2,5.3c-0.1,0.2-0.3,0.4-0.4,0.6C112.1,219,112.1,219,112,219z M97.7,194.4
				L97.7,194.4c-0.1,0.1-0.1,0.2-0.1,0.2c2.9,2.5,6.7,5.8,10.4,9.1c1.7,1.5,2.9,2.7,4.1,3.8c0.9,0.9,1.9,1.8,2.8,2.7l0,0l0,0
				c-0.1,0.7-0.3,1.6-0.5,2.6c-0.5,2.1-1.3,3.8-2.2,5.2c-0.1,0.2-0.3,0.4-0.4,0.6c0,0.1,0,0.1,0,0.2c0.1,0,0.1,0,0.2,0
				c0.2-0.2,0.3-0.4,0.4-0.6c0.9-1.4,1.7-3.2,2.2-5.3c0.3-1,0.5-2,0.5-2.7c0,0,0,0,0-0.1l0,0l0,0c-1-1-1.9-1.9-2.9-2.8
				c-1.2-1.1-2.5-2.3-4.1-3.8C104.5,200.2,100.7,196.9,97.7,194.4C97.8,194.4,97.8,194.4,97.7,194.4z"/>
		</g>
		<path class="st12" d="M145.9,95.5c0,0,4.6,2,7.1,2.4c0,0-1.3,1.8-3.7,1.2C146.9,98.5,145.9,95.5,145.9,95.5z"/>
		<path class="st13" d="M146.1,83.1c-0.7,0.1-1.4,0.6-1.3,1.4c0.1,0.8,0.9,1.2,1.6,1.2c0.7-0.1,1.4-0.6,1.3-1.4
			C147.6,83.5,146.9,83.1,146.1,83.1z"/>
		<path class="st13" d="M157.1,83.7c-0.7-0.2-1.5,0.2-1.7,1s0.4,1.5,1.1,1.6c0.7,0.2,1.5-0.2,1.7-1
			C158.4,84.5,157.8,83.9,157.1,83.7z"/>
		<path class="st13" d="M154.4,80.1c0.5-0.3,1.3-0.6,1.9-0.7c1.3-0.2,2.3,0.3,2.9,1.5c0,0.1,0.2,0.1,0.2,0.1c0.1,0,0.1-0.2,0.1-0.2
			c-0.6-1.4-1.8-2-3.3-1.7c-0.7,0.1-1.5,0.4-2,0.8c-0.1,0.1-0.1,0.2-0.1,0.3C154.2,80.1,154.4,80.2,154.4,80.1z"/>
		<path class="st13" d="M152.6,84.2c0.2,1.5,0.4,3,0.6,4.5c0.1,1,0.3,1.9,0.4,2.9c0,0.3,0.1,0.7,0.1,1c0,0.2,0,0.4,0,0.5
			c-0.1,0.2-1.2,0.3-1.4,0.3c-0.5,0-1.1,0-1.6-0.1c-0.1,0-0.2,0.1-0.2,0.2s0.1,0.2,0.2,0.2c0.6,0.1,3.4,0.3,3.5-0.5
			c0-0.2,0-0.4,0-0.6c0-0.3-0.1-0.7-0.1-1c-0.1-1-0.3-1.9-0.4-2.9c-0.2-1.5-0.4-3-0.6-4.5c0-0.1-0.1-0.2-0.2-0.2
			C152.6,84,152.6,84,152.6,84.2z"/>
		<path class="st13" d="M143.1,80.8c0.4-0.4,1.1-0.9,1.7-1.1c1.2-0.5,2.6-0.3,3.4,0.8c0.1,0.1,0.2,0.1,0.3,0s0.1-0.2,0-0.3
			c-0.9-1.2-2.5-1.5-3.9-0.9c-0.6,0.3-1.3,0.7-1.8,1.2c-0.1,0.1-0.1,0.2,0,0.3C142.9,80.9,142.9,80.9,143.1,80.8z"/>
		<path class="st13" d="M144.9,76.4c4.2,0.3,7.1,4.1,6.8,8.3c0,0.2,0,0.5-0.1,0.7c0.5-0.1,1.1-0.1,1.6,0.1c0-0.1,0-0.3,0-0.4
			c0.2-2.8,1.9-5.5,4.6-6.5c0.7-0.3,1.5-0.4,2.3-0.3s1.6,0.3,2.3,0.6c2.6,1.3,3.9,4.2,3.7,7.1c-0.2,2.8-1.9,5.5-4.6,6.5
			c-0.7,0.3-1.5,0.4-2.3,0.3s-1.6-0.3-2.3-0.6c-2.2-1.1-3.5-3.5-3.7-5.9c-0.5-0.2-1.2-0.2-1.8,0c-0.9,3.4-3.9,6.1-7.6,5.8
			c-4.2-0.3-7.1-4.1-6.8-8.3C137.2,79.6,140.6,76.1,144.9,76.4L144.9,76.4z M158.1,79.1c-2.5,0.9-3.9,3.4-4.1,5.9s1,5.2,3.3,6.4
			c0.6,0.3,1.3,0.5,2,0.5s1.4-0.1,2-0.3c2.5-0.9,3.9-3.4,4.1-5.9s-1-5.2-3.3-6.4c-0.6-0.3-1.3-0.5-2-0.5
			C159.4,78.8,158.8,78.9,158.1,79.1L158.1,79.1z M143.9,91.2c3.8,0.3,6.9-2.9,7.1-6.6s-2.4-7.3-6.2-7.5c-3.8-0.3-6.9,2.9-7.1,6.6
			C137.4,87.5,140.1,91,143.9,91.2z"/>
		<g>
			<path class="st13" d="M132.8,79.2l5.2,2.1c0.1,0,0.2,0.2,0.1,0.3c0,0.1-0.2,0.2-0.3,0.1l-5.2-2.1c-0.1,0-0.2-0.2-0.1-0.3
				C132.6,79.3,132.6,79.2,132.8,79.2z"/>
			<path class="st14" d="M137.9,81.9h-0.1l-5.2-2.1c-0.2-0.1-0.3-0.3-0.2-0.4c0-0.1,0.1-0.2,0.2-0.2c0.1,0,0.2,0,0.3,0l0,0l5.2,2.1
				c0.1,0,0.2,0.1,0.2,0.2s0,0.2,0,0.3c0,0.1-0.1,0.2-0.2,0.2C137.9,81.9,137.9,81.9,137.9,81.9z M132.6,79.4L132.6,79.4L132.6,79.4
				C132.6,79.5,132.6,79.5,132.6,79.4l5.2,2.2c0,0,0,0,0.1,0l0,0c0,0,0,0,0-0.1l0,0L132.6,79.4C132.8,79.4,132.8,79.4,132.6,79.4z"
				/>
		</g>
	</g>
</g>
</svg>
