<?xml version="1.0" encoding="utf-8"?>
<!-- Generator: Adobe Illustrator 24.3.0, SVG Export Plug-In . SVG Version: 6.00 Build 0)  -->
<svg version="1.1" id="栝鍣_1" xmlns="http://www.w3.org/2000/svg" xmlns:xlink="http://www.w3.org/1999/xlink" x="0px" y="0px"
	 viewBox="0 0 319.3 276.4" style="enable-background:new 0 0 319.3 276.4;" xml:space="preserve">
<style type="text/css">
	.st0{fill-rule:evenodd;clip-rule:evenodd;fill:#ECF6FF;}
	.st1{fill:#6CA1FF;}
	.st2{fill-rule:evenodd;clip-rule:evenodd;fill:#F8F8F8;}
	.st3{fill-rule:evenodd;clip-rule:evenodd;fill:#B5D1FF;}
	.st4{fill-rule:evenodd;clip-rule:evenodd;fill:#6CA1FF;}
	.st5{fill-rule:evenodd;clip-rule:evenodd;fill:#CAD8F1;}
	.st6{fill-rule:evenodd;clip-rule:evenodd;fill:#B5C9EB;}
	.st7{fill-rule:evenodd;clip-rule:evenodd;fill:#E0F0FF;}
	.st8{fill-rule:evenodd;clip-rule:evenodd;fill:#E97975;}
	.st9{fill-rule:evenodd;clip-rule:evenodd;fill:#393185;}
	.st10{fill-rule:evenodd;clip-rule:evenodd;fill:#FCD485;}
	.st11{fill-rule:evenodd;clip-rule:evenodd;fill:#EBA71E;}
	.st12{fill-rule:evenodd;clip-rule:evenodd;fill:#FEFEFE;}
	.st13{fill:#FEFEFE;}
	.st14{fill-rule:evenodd;clip-rule:evenodd;fill:#FFFFFF;}
	.st15{fill-rule:evenodd;clip-rule:evenodd;fill:#EDB126;}
	.st16{fill:#F9C549;}
	.st17{fill-rule:evenodd;clip-rule:evenodd;fill:#F9C549;}
	.st18{fill-rule:evenodd;clip-rule:evenodd;fill:#DBA333;}
</style>
<g>
	<g>
		<g>
			<g>
				<g>
					<path class="st0" d="M55,143.9c-1.9-0.4-3.8-0.7-5.8-0.9c-18.8-2.3-43.5,0.5-48.7,7.2c2.2,10.9,36.9,31.2,55.1,32.2
						c11.5,0.6,18.9-6,20.8-13.9c0.3-1.3,0.5-2.7,0.5-4.1c0-6.8-4-13.9-12.8-17.7C61.5,145.5,58.4,144.6,55,143.9z"/>
					<path class="st1" d="M57.1,182.8c-0.5,0-1,0-1.5,0c-18.5-1-53.2-21.4-55.5-32.5l0-0.2l0.1-0.2c2.5-3.2,9.5-5.7,19.6-7.1
						c9.5-1.3,20.2-1.4,29.5-0.2c2.1,0.3,4,0.6,5.9,0.9l0,0c3.6,0.7,6.6,1.6,9.1,2.7c8.2,3.6,13,10.3,13.1,18.1
						c0,1.4-0.2,2.8-0.5,4.2c-1,4.2-3.5,7.9-7,10.4C66.3,181.4,62,182.8,57.1,182.8z M0.9,150.2c1.2,4.9,9.3,12.3,21.3,19.3
						c12.2,7.1,25,11.9,33.4,12.3c11.7,0.7,18.7-6.4,20.4-13.6c0.3-1.3,0.5-2.6,0.5-4c0-7.4-4.7-13.9-12.6-17.4
						c-2.4-1.1-5.5-2-9-2.7c-1.8-0.4-3.8-0.7-5.8-0.9C31.2,141.1,6.4,143.7,0.9,150.2z"/>
				</g>
				<g>
					
						<rect x="38" y="120.2" transform="matrix(0.2339 -0.9723 0.9723 0.2339 -125.4026 159.3489)" class="st1" width="0.8" height="78.1"/>
				</g>
				<g>
					<path class="st1" d="M16.7,166.8l-0.5-0.7c5.1-3.7,12.9-9.3,13-9.4l0.5,0.7C29.5,157.5,21.8,163,16.7,166.8z"/>
				</g>
				<g>
					
						<rect x="18.4" y="163.1" transform="matrix(0.7671 -0.6416 0.6416 0.7671 -98.6322 55.3859)" class="st1" width="17" height="0.8"/>
				</g>
				<g>
					
						<rect x="44.3" y="140.8" transform="matrix(0.8763 -0.4818 0.4818 0.8763 -67.767 40.3406)" class="st1" width="0.8" height="22.7"/>
				</g>
				<g>
					
						<rect x="43.9" y="172.6" transform="matrix(0.7196 -0.6944 0.6944 0.7196 -104.6802 86.7818)" class="st1" width="22.5" height="0.8"/>
				</g>
				<g>
					
						<rect x="55.5" y="142.7" transform="matrix(0.9395 -0.3425 0.3425 0.9395 -49.3124 28.4382)" class="st1" width="0.8" height="22.4"/>
				</g>
				<g>
					<path class="st1" d="M21.3,155.5c-1.5-1.6-5.3-5.9-9.8-10.6l0.6-0.6c4.4,4.7,8.3,9,9.8,10.6L21.3,155.5z"/>
				</g>
			</g>
			<g>
				<g>
					<path class="st0" d="M67.4,124.5c-0.9-0.9-1.9-1.8-3-2.7c-10-8.4-25.3-16.1-30.8-14.2c-2.8,7.1,9.5,31.8,19.7,39.3
						c6.4,4.7,13.2,3.7,17.3-0.2c0.7-0.6,1.3-1.4,1.8-2.2c2.6-3.9,2.9-9.5-0.7-15C70.6,127.9,69.1,126.2,67.4,124.5z"/>
					<path class="st1" d="M62.1,150.4c-2.9,0-6-0.9-9.1-3.2c-10.3-7.6-22.7-32.5-19.8-39.8l0.1-0.2l0.2-0.1
						c5.9-2,21.3,5.9,31.2,14.3c1.1,0.9,2.1,1.9,3,2.8c1.8,1.8,3.2,3.5,4.3,5c3.4,5.2,3.7,11,0.7,15.5c-0.5,0.8-1.2,1.6-1.9,2.2
						C68.7,149,65.6,150.4,62.1,150.4z M33.9,107.9c-1.1,3.2,0.9,10.6,5,19c4.4,8.7,9.9,16.2,14.6,19.6c6.4,4.7,13,3.3,16.7-0.2
						c0.7-0.6,1.2-1.3,1.7-2.1c2.8-4.2,2.5-9.7-0.7-14.6c-1-1.5-2.4-3.2-4.2-4.9c-0.9-0.9-1.9-1.8-3-2.7
						C54.7,114.1,39.6,106.3,33.9,107.9z"/>
				</g>
				<g>
					
						<rect x="51.7" y="100.2" transform="matrix(0.7269 -0.6867 0.6867 0.7269 -73.0867 70.4811)" class="st1" width="0.8" height="53.8"/>
				</g>
				<g>
					<path class="st1" d="M36.7,123.4l0-0.8c4.4-0.2,10.9-0.5,11-0.5l0,0.8C47.6,122.9,41.1,123.2,36.7,123.4z"/>
				</g>
				<g>
					
						<rect x="38" y="124.9" transform="matrix(0.9929 -0.1186 0.1186 0.9929 -14.5528 6.0871)" class="st1" width="11.7" height="0.8"/>
				</g>
				<g>
					
						<rect x="50.6" y="125" transform="matrix(7.487968e-02 -0.9972 0.9972 7.487968e-02 -71.0412 174.1874)" class="st1" width="15.6" height="0.8"/>
				</g>
				<g>
					
						<rect x="48.8" y="140.9" transform="matrix(0.982 -0.1887 0.1887 0.982 -25.6549 13.2055)" class="st1" width="15.5" height="0.8"/>
				</g>
				<g>
					
						<rect x="56.5" y="130.2" transform="matrix(0.2262 -0.9741 0.9741 0.2262 -77.5519 163.5528)" class="st1" width="15.4" height="0.8"/>
				</g>
				<g>
					<path class="st1" d="M43.5,118.6c-0.2-1.5-0.9-5.4-1.6-9.8l0.8-0.1c0.8,4.4,1.4,8.3,1.7,9.8L43.5,118.6z"/>
				</g>
			</g>
		</g>
		<g>
			<g>
				<g>
					<path class="st0" d="M183.7,67.7c1.5-2.9,3.2-5.9,5-8.9c16.9-28,47.1-58.3,61.8-58.3c12.4,14.6,2.8,83.2-15.3,109.1
						c-11.5,16.3-28.4,19.3-41.1,13.3c-2.1-1-4.2-2.2-6-3.7c-9.3-7.3-14.5-20.3-10.3-36.3C178.9,78.2,181,73,183.7,67.7z"/>
					<path class="st1" d="M206.8,126.1c-4.4,0-8.9-1-12.9-2.8c-2.2-1-4.2-2.3-6.1-3.8c-10.4-8.2-14.3-22-10.5-36.7
						c1.2-4.5,3.2-9.6,6.1-15.2c1.5-2.9,3.1-5.9,5-8.9c8.4-13.8,20-28.3,31.8-39.7C232.8,6.7,243.5,0,250.5,0l0.2,0l0.1,0.1
						c3,3.5,4.9,10.4,5.5,19.8c0.6,8.8,0,19.4-1.6,30.8c-3.4,24.4-10.8,46.9-19.2,58.9c-5.4,7.7-12.4,13-20.3,15.2
						C212.5,125.7,209.7,126.1,206.8,126.1z M250.3,0.8c-6.7,0.1-17.5,6.9-29.6,18.6C209,30.8,197.4,45.2,189.1,59
						c-1.8,3-3.5,6-5,8.9c-2.8,5.5-4.8,10.6-6,15.1c-3.8,14.4,0,27.9,10.2,35.9c1.8,1.4,3.8,2.7,5.9,3.7
						c11.8,5.5,28.9,3.5,40.6-13.2c8.4-11.9,15.6-34.3,19-58.5C257.3,26.7,255.9,7.7,250.3,0.8z"/>
				</g>
				<g>
					
						<rect x="154.9" y="61.2" transform="matrix(0.4187 -0.9081 0.9081 0.4187 73.2674 237.7048)" class="st1" width="134.8" height="0.8"/>
				</g>
				<g>
					<path class="st1" d="M229.2,47.4l-0.2-0.8c0.2,0,16-4.6,26.5-7.5l0.2,0.8C245.1,42.8,229.3,47.4,229.2,47.4z"/>
				</g>
				<g>
					
						<rect x="225.7" y="50.3" transform="matrix(0.9789 -0.2046 0.2046 0.9789 -5.2837 50.2375)" class="st1" width="29.4" height="0.8"/>
				</g>
				<g>
					
						<rect x="205.6" y="42.9" transform="matrix(0.9211 -0.3894 0.3894 0.9211 -8.0765 85.1345)" class="st1" width="0.8" height="39.1"/>
				</g>
				<g>
					
						<rect x="203.7" y="98.6" transform="matrix(0.9909 -0.1347 0.1347 0.9909 -11.2983 30.9546)" class="st1" width="38.8" height="0.8"/>
				</g>
				<g>
					
						<rect x="195.9" y="60.2" transform="matrix(0.8509 -0.5253 0.5253 0.8509 -12.4966 114.9971)" class="st1" width="0.8" height="38.6"/>
				</g>
				<g>
					<path class="st1" d="M234.4,34.7c-0.6-3.7-2.3-13.6-3.9-24.6l0.8-0.1c1.6,11,3.3,20.8,3.9,24.6L234.4,34.7z"/>
				</g>
			</g>
			<g>
				<g>
					<path class="st0" d="M242.8,117c2.6-0.6,5.3-1,8.1-1.4c26.1-3.7,60.4-0.4,67.9,8.8c-2.8,15.2-50.5,44.2-75.9,46.1
						c-16,1.2-26.5-7.9-29.3-18.8c-0.5-1.8-0.7-3.7-0.8-5.7c-0.2-9.5,5.2-19.4,17.4-25C233.8,119.3,238,118,242.8,117z"/>
					<path class="st1" d="M240.2,170.9c-6.5,0-12.4-1.7-17.1-5c-4.9-3.4-8.4-8.5-9.9-14.2c-0.5-1.9-0.7-3.8-0.8-5.8
						c-0.2-10.7,6.4-20.2,17.6-25.4c3.4-1.6,7.7-2.9,12.6-4l0,0c2.5-0.6,5.3-1,8.1-1.4c12.9-1.8,27.9-2,41-0.4
						c14,1.7,23.7,5,27.3,9.4l0.1,0.1l0,0.2c-1.6,8.5-16.4,20.2-29.7,28.3C272.6,163,254.8,170,243,170.8
						C242,170.9,241.1,170.9,240.2,170.9z M273.1,114.4c-7.6,0-15.1,0.5-22.1,1.5c-2.8,0.4-5.5,0.9-8.1,1.4
						c-4.9,1.1-9.1,2.4-12.4,3.9c-10.9,5-17.3,14.2-17.1,24.6c0,1.9,0.3,3.7,0.7,5.6c2.4,9.5,11.4,18.6,26.2,18.6
						c0.9,0,1.8,0,2.7-0.1c11.7-0.9,29.4-7.7,46.2-18c16.6-10.1,27.8-20.7,29.3-27.6c-3.5-4.1-13.2-7.3-26.6-8.9
						C285.8,114.8,279.4,114.4,273.1,114.4z"/>
				</g>
				<g>
					
						<rect x="211.9" y="137.5" transform="matrix(0.9681 -0.2507 0.2507 0.9681 -26.0795 71.1493)" class="st1" width="108.7" height="0.8"/>
				</g>
				<g>
					<path class="st1" d="M296.8,147.7c-7.2-5.1-18.1-12.6-18.2-12.7l0.5-0.7c0.1,0.1,11,7.6,18.2,12.7L296.8,147.7z"/>
				</g>
				<g>
					
						<rect x="281.9" y="131.8" transform="matrix(0.6282 -0.778 0.778 0.6282 -6.7925 273.007)" class="st1" width="0.8" height="23.7"/>
				</g>
				<g>
					
						<rect x="241.6" y="127.8" transform="matrix(0.4665 -0.8845 0.8845 0.4665 23.9144 296.0391)" class="st1" width="31.5" height="0.8"/>
				</g>
				<g>
					
						<rect x="242.9" y="141.9" transform="matrix(0.6818 -0.7316 0.7316 0.6818 -37.7725 228.138)" class="st1" width="0.8" height="31.2"/>
				</g>
				<g>
					
						<rect x="226.3" y="130.5" transform="matrix(0.3261 -0.9453 0.9453 0.3261 39.2399 316.7845)" class="st1" width="31.1" height="0.8"/>
				</g>
				<g>
					<path class="st1" d="M289.8,132.2l-0.6-0.5c2-2.3,7.3-8.4,13.3-15l0.6,0.6C297.1,123.8,291.8,129.9,289.8,132.2z"/>
				</g>
			</g>
		</g>
		<path class="st2" d="M262.3,216.7c45.4-56.4-54.2-112.6-85.7-141.3C141.1,43.1,95.4,21.7,76.7,62c-18.7,40.3-2.4,56.2-16.9,91.6
			c-14.4,35.4-1.2,83.6,47.6,94C156.2,258,225.6,264.4,262.3,216.7z"/>
	</g>
	<g>
		<g>
			<path class="st0" d="M116.2,32.5h51c1.7,0,3,1.4,3,3v31.6c0,1.7-1.4,3-3,3h-51c-1.7,0-3-1.4-3-3V35.5
				C113.1,33.8,114.5,32.5,116.2,32.5z"/>
			<path class="st3" d="M117.8,38.2h32.1c0.3,0,0.6,0.3,0.6,0.6v3.3c0,0.3-0.3,0.6-0.6,0.6h-32.1c-0.3,0-0.6-0.3-0.6-0.6v-3.3
				C117.2,38.5,117.5,38.2,117.8,38.2z"/>
			<path class="st3" d="M117.8,45.4h40.8c0.3,0,0.6,0.3,0.6,0.6v3.3c0,0.3-0.3,0.6-0.6,0.6h-40.8c-0.3,0-0.6-0.3-0.6-0.6V46
				C117.2,45.7,117.5,45.4,117.8,45.4z"/>
			<path class="st3" d="M117.8,52.2h27.5c0.3,0,0.6,0.3,0.6,0.6V56c0,0.3-0.3,0.6-0.6,0.6h-27.5c-0.3,0-0.6-0.3-0.6-0.6v-3.3
				C117.2,52.4,117.5,52.2,117.8,52.2z"/>
			<polygon class="st4" points="118.8,70.1 118.8,76.9 129.5,70.1 			"/>
		</g>
		<g>
			<g>
				<path class="st5" d="M112.8,151.3l38-3.3c0.5,0,1-0.3,1.3-0.6c0.4-0.4,0.5-1,0.4-1.7l-15.7-63.5c-0.3-1.2-1.5-2-2.7-1.9l-38,3.3
					c-0.6,0.1-1.1,0.4-1.4,0.8c-0.3,0.4-0.3,0.9-0.2,1.5l15.7,63.5C110.4,150.5,111.6,151.4,112.8,151.3L112.8,151.3z M148.5,144.6
					l-35.1,3l-15-60.8l35.1-3L148.5,144.6z"/>
				<path class="st6" d="M112.8,151.3c-1.2,0.1-2.4-0.8-2.7-1.9L94.5,85.8c-0.1-0.6,0-1.1,0.2-1.5c0,0-2.4,2-2.7,4
					c0,0.1,0,0.2,0.1,0.3l15.7,63.5c0.3,1.2,1.5,2,2.7,1.9l38-3.3c0.5,0,1-0.3,1.3-0.6c1.4-1.2,2.4-2.8,2.4-2.8
					c-0.3,0.3-0.7,0.6-1.3,0.6L112.8,151.3z"/>
				<polygon class="st7" points="133.5,83.8 98.4,86.9 113.4,147.6 148.5,144.6 				"/>
				<polygon class="st0" points="145,130.5 142.4,120.1 131.9,146 138.9,145.4 				"/>
				<polygon class="st0" points="139.7,109 124.3,146.7 127.8,146.4 141,114.2 				"/>
				<polygon class="st0" points="119.8,85 112.8,85.6 103.6,108.1 106.2,118.4 				"/>
				<polygon class="st0" points="108.7,86 105.2,86.3 100.9,96.9 102.2,102.1 				"/>
			</g>
			<g>
				<path class="st8" d="M173.3,113.6l-0.2,16.2c0,0,17.4,2.6,27.3-2.4l-5.1-25.6c-15.1,5.3-19.9-13.5-19.9-13.5
					c1.9-0.1,4.9-4.4,3.6-6.4c-1.4-2-5.4-0.8-5.4-0.8s-1.9-13.3,0.2-15.4c0,0-9.4,3.3-12.8,2.9C161,68.7,156.8,112.2,173.3,113.6z"
					/>
				<path class="st9" d="M194,63.1c-0.4-3.9-2.6-5.1-5.7-6c-3.1-0.9-23.2-4.2-27.8-0.8c-4.5,3.3-3,12.1,0.5,12.5
					c3.4,0.4,12.8-2.9,12.8-2.9C175.9,63.8,194,63.1,194,63.1z"/>
				<path class="st9" d="M175.4,88.4c0,0,4.8,18.8,19.9,13.5c0,0,6.1-34.3-1.3-38.8c0,0-18,0.7-20.2,2.7c-2.1,2-0.2,15.4-0.2,15.4
					s4-1.1,5.4,0.8C180.3,83.9,177.3,88.3,175.4,88.4z"/>
				<path class="st10" d="M103.5,164.7c0,0,3.8,107.2,31.3,111.5c9.8,1.5,18-8.3,24.5-21.5c25.7,1.2,52.2-1.8,74.3-13.7
					c1.5-29.5,5.7-74.9-4.9-92.4c-10.9-18-28.4-21.1-28.4-21.1c-9.8,5-27.3,2.4-27.3,2.4c-3.9,1.6-7.5,3.5-10.7,5.7
					c-2.8,1.9-5.3,3.9-7.6,6.2C140,156,134,177.7,130.7,200c0,0-11.5-36.5-15.8-36.9c-2.9-0.3-7.2,0.6-9.6,1.2
					C104.2,164.5,103.5,164.7,103.5,164.7z"/>
				<path class="st11" d="M162.5,148.2c-1.4,4.5-2.8,9.1-4.3,13.5c-0.2,0.5-0.7,0.8-1.2,0.6c-0.5-0.2-0.8-0.7-0.6-1.2
					c1.5-4.5,2.9-9,4.3-13.5c0.2-0.5,0.7-0.8,1.2-0.6C162.4,147.1,162.6,147.7,162.5,148.2L162.5,148.2z M177,148.3l0.5,14.2
					c0,0.5-0.4,1-0.9,1c-0.5,0-1-0.4-1-0.9l-0.5-14.2c0-0.5,0.4-1,0.9-1C176.5,147.4,177,147.8,177,148.3L177,148.3z M193.8,147.4
					l3.3,12.3c0.1,0.5-0.2,1-0.7,1.2c-0.5,0.1-1-0.2-1.2-0.7l-3.3-12.3c-0.1-0.5,0.2-1,0.7-1.2S193.7,146.9,193.8,147.4L193.8,147.4
					z M211.2,142.1c0.7,0.8,1.4,1.7,2.1,2.6c1.5,1.9,2.9,3.8,4.2,5.8c1.2,1.9,2.5,4,3.3,6.1c0.2,0.5-0.1,1-0.5,1.2
					c-0.5,0.2-1-0.1-1.2-0.5c-0.7-2-2-4-3.1-5.8c-1.3-2-2.7-3.8-4.1-5.7c-0.7-0.8-1.4-1.7-2.1-2.5c-0.3-0.4-0.3-1,0.1-1.3
					C210.2,141.6,210.8,141.7,211.2,142.1L211.2,142.1z M222.8,175.4c0.1,3.1,0.2,6.1,0.3,9.2c0,1.7,0.1,3.4,0.1,5.2
					c0,1.2,0.1,2.3,0.1,3.5c0,0.5-0.4,0.9-0.9,0.9c-0.5,0-0.9-0.4-0.9-0.9c0-1.1,0-2.3-0.1-3.4c0-1.7-0.1-3.4-0.1-5.2
					c-0.1-3.1-0.2-6.1-0.3-9.2c0-0.5,0.4-1,0.9-1C222.3,174.4,222.8,174.9,222.8,175.4L222.8,175.4z M204,180.8l0.5,18.5
					c0,0.5-0.4,0.9-0.9,1c-0.5,0-0.9-0.4-1-0.9l-0.5-18.5c0-0.5,0.4-0.9,0.9-1C203.6,179.9,204,180.3,204,180.8L204,180.8z
					 M185.1,180.3l0.9,17.8c0,0.5-0.4,1-0.9,1c-0.5,0-1-0.4-1-0.9l-0.9-17.8c0-0.5,0.4-1,0.9-1C184.6,179.4,185,179.8,185.1,180.3
					L185.1,180.3z M168.7,177.8c-0.9,3.1-1.7,6.4-2.5,9.5c-0.4,1.6-0.8,3.3-1.1,4.9c-0.2,1.1-0.4,2.4-0.4,3.6c0,0.5-0.4,0.9-0.9,0.9
					c-0.5,0-0.9-0.4-0.9-0.9c0-1.3,0.2-2.7,0.5-3.9c0.3-1.7,0.7-3.4,1.1-5c0.8-3.2,1.6-6.4,2.5-9.6c0.1-0.5,0.7-0.8,1.2-0.6
					C168.5,176.8,168.8,177.3,168.7,177.8L168.7,177.8z M150.4,173.2c-0.8,3.2-1.5,6.3-2.1,9.5c-0.4,1.7-0.7,3.5-1,5.2
					c-0.1,0.7-0.2,1.4-0.3,2.1c-0.1,0.5-0.1,1-0.1,1.4c0,0.5-0.4,0.9-0.9,0.9c-0.5,0-0.9-0.4-0.9-0.9c0-0.5,0.1-1.1,0.1-1.6
					c0.1-0.7,0.2-1.5,0.3-2.2c0.3-1.8,0.6-3.6,1-5.3c0.7-3.2,1.4-6.4,2.1-9.6c0.1-0.5,0.6-0.8,1.1-0.7
					C150.2,172.2,150.5,172.7,150.4,173.2L150.4,173.2z M143.5,206.6l-2.4,13.2c-0.1,0.5-0.6,0.8-1.1,0.8c-0.5-0.1-0.8-0.6-0.8-1.1
					l2.4-13.2c0.1-0.5,0.6-0.8,1.1-0.8C143.3,205.7,143.6,206.1,143.5,206.6L143.5,206.6z M154.2,212.6c-0.7,2.7-1.4,5.4-2,8.1
					c-0.5,2.1-1,4.2-1.5,6.3c-0.1,0.5-0.6,0.8-1.1,0.7c-0.5-0.1-0.8-0.6-0.7-1.1c0.5-2.1,1-4.2,1.5-6.4c0.7-2.7,1.4-5.4,2-8.1
					c0.1-0.5,0.6-0.8,1.1-0.7C154,211.6,154.3,212.1,154.2,212.6L154.2,212.6z M167,218c-1.2,3-2.3,6-3.5,9
					c-0.6,1.5-1.2,3.1-1.7,4.7c-0.4,1.1-0.8,2.3-1.2,3.4c-0.2,0.5-0.7,0.8-1.2,0.6c-0.5-0.2-0.8-0.7-0.6-1.2
					c0.4-1.2,0.8-2.3,1.2-3.5c0.6-1.6,1.2-3.1,1.7-4.7c1.1-3,2.3-6,3.5-9c0.2-0.5,0.7-0.7,1.2-0.5C166.9,216.9,167.2,217.5,167,218
					L167,218z M187,218.9l-1.4,13.5c-0.1,0.5-0.5,0.9-1,0.8c-0.5-0.1-0.9-0.5-0.8-1l1.4-13.5c0.1-0.5,0.5-0.9,1-0.8
					C186.6,217.9,187,218.4,187,218.9L187,218.9z M206.9,213.4l-0.7,14.5c0,0.5-0.5,0.9-1,0.9c-0.5,0-0.9-0.5-0.9-1l0.7-14.5
					c0-0.5,0.5-0.9,1-0.9C206.5,212.5,206.9,212.9,206.9,213.4L206.9,213.4z M227.3,205.8v18c0,0.5-0.4,0.9-0.9,0.9
					c-0.5,0-0.9-0.4-0.9-0.9v-18c0-0.5,0.4-0.9,0.9-0.9C226.9,204.8,227.3,205.3,227.3,205.8L227.3,205.8z M148.3,249
					c-0.7,1-1.6,2-2.4,3c-1.8,2-3.8,4-6,5.6c-3.2,2.4-7.4,4.5-11.4,3.2c-0.5-0.2-0.8-0.7-0.6-1.2c0.2-0.5,0.7-0.8,1.2-0.6
					c0.5,0.2,1,0.3,1.5,0.3c2.9,0.2,6-1.5,8.2-3.2c2.1-1.5,4-3.4,5.7-5.3c0.8-0.9,1.6-1.9,2.3-2.8c0.3-0.4,0.9-0.5,1.3-0.2
					C148.6,248,148.7,248.6,148.3,249L148.3,249z M137.3,236.8c-0.7,1.3-1.8,2.8-2.8,3.9c-2,2.1-4.6,3.9-7.6,3.8
					c-0.5,0-0.9-0.5-0.9-1c0-0.5,0.5-0.9,1-0.9c2.4,0.1,4.6-1.4,6.1-3.2c0.9-1,1.9-2.3,2.5-3.5c0.2-0.5,0.8-0.6,1.3-0.4
					C137.3,235.8,137.5,236.3,137.3,236.8L137.3,236.8z M115.2,213.8c0.8,3,1.6,6,2.6,8.9c0.5,1.6,1.1,3.1,1.7,4.6
					c0.4,0.9,1,2.2,1.6,2.9c0.3,0.4,0.3,1-0.1,1.3c-0.4,0.3-1,0.3-1.3-0.1c-0.8-0.9-1.5-2.3-1.9-3.4c-0.7-1.6-1.3-3.2-1.8-4.8
					c-1-3-1.9-6-2.6-9c-0.1-0.5,0.2-1,0.7-1.1C114.6,213,115.1,213.3,115.2,213.8L115.2,213.8z M123.8,209.1l2.1,10
					c0.1,0.5-0.2,1-0.7,1.1s-1-0.2-1.1-0.7l-2.1-10c-0.1-0.5,0.2-1,0.7-1.1C123.2,208.3,123.7,208.6,123.8,209.1L123.8,209.1z
					 M111,185.9l3.3,17.1c0.1,0.5-0.2,1-0.7,1.1c-0.5,0.1-1-0.2-1.1-0.7l-3.3-17.1c-0.1-0.5,0.2-1,0.7-1.1
					C110.4,185.1,110.9,185.4,111,185.9L111,185.9z M118.6,183.1l1.9,10c0.1,0.5-0.2,1-0.7,1.1c-0.5,0.1-1-0.2-1.1-0.7l-1.9-10
					c-0.1-0.5,0.2-1,0.7-1.1C118,182.2,118.5,182.6,118.6,183.1z"/>
				<path class="st8" d="M154.8,141.7c2.3-2.2,4.8-4.3,7.6-6.2c-0.9-5-6.2-31.6-20.3-32.1l4.7,18.9c-1.6-1.3-7.1-5.7-8.6-4
					c-1.8,2,9.3,14.4,10.1,15.4C149,134.8,154.8,141.7,154.8,141.7z"/>
				<path class="st8" d="M105.3,164.2c2.4-0.6,6.7-1.5,9.6-1.2c0,0,7.7-36.4,5-37.8c-2.7-1.5-5.3,15.6-5.3,15.6s-9.4,0.5-10.9,2.7
					C102.3,145.6,102.6,157.5,105.3,164.2z"/>
				<g>
					<path class="st12" d="M177.2,196.1c-0.2,1.3-0.5,2.6-0.8,4c-0.7,3.4-1.4,6.8-2.2,10.1c-1.1,4.7-2.3,9.4-3.6,14.1
						c-1.5,5.3-3.2,10.6-5,15.8c-1.8,5-3.8,10-6.2,14.8c0,0.1-0.1,0.1-0.2,0.1c-0.1,0-0.1-0.1-0.1-0.2c2.3-4.8,4.3-9.8,6.1-14.8
						c1.9-5.2,3.5-10.5,5-15.8c1.3-4.7,2.5-9.3,3.6-14c0.8-3.4,1.5-6.7,2.2-10.1c0.3-1.3,0.5-2.6,0.8-4c0-0.1,0.1-0.1,0.2-0.1
						C177.1,195.9,177.2,196,177.2,196.1z"/>
					<path class="st13" d="M159.3,254.9C159.3,254.9,159.2,254.9,159.3,254.9c-0.2-0.1-0.2-0.2-0.2-0.3c2.1-4.4,4.1-9.2,6.1-14.8
						c1.8-4.9,3.4-10,5-15.8c1.3-4.5,2.5-9.2,3.6-14c0.8-3.4,1.5-6.8,2.2-10.1c0.2-1.2,0.5-2.6,0.8-4c0-0.1,0-0.1,0.1-0.1
						c0,0,0.1,0,0.2,0c0.1,0,0.2,0.1,0.2,0.3v0c-0.2,1.4-0.5,2.8-0.8,4c-0.6,3.3-1.4,6.7-2.2,10.1c-1.1,4.8-2.3,9.5-3.6,14.1
						c-1.6,5.7-3.3,10.9-5,15.8c-2,5.6-4,10.4-6.2,14.8C159.4,254.9,159.4,254.9,159.3,254.9z M177,195.9
						C177,195.9,177,195.9,177,195.9c-0.1,0-0.1,0.1-0.1,0.1c-0.2,1.4-0.5,2.8-0.8,4c-0.6,3.3-1.4,6.7-2.2,10.1
						c-1.1,4.8-2.3,9.5-3.6,14c-1.6,5.7-3.3,10.9-5,15.8c-2,5.6-4,10.4-6.1,14.8c0,0.1,0,0.1,0.1,0.1c0.1,0,0.1,0,0.1-0.1
						c2.1-4.4,4.2-9.2,6.2-14.8c1.8-4.9,3.4-10.1,5-15.8c1.3-4.5,2.5-9.2,3.6-14.1c0.8-3.5,1.5-6.9,2.2-10.1c0.2-1.2,0.5-2.6,0.8-4
						l0,0C177.1,196,177.1,195.9,177,195.9C177,195.9,177,195.9,177,195.9z"/>
				</g>
				<g>
					<path class="st12" d="M200.2,127.5l-5.1-25.6c0-0.1,0-0.2,0.1-0.2c0.1,0,0.2,0,0.2,0.1l5.1,25.6c0,0.1,0,0.2-0.1,0.2
						C200.3,127.7,200.2,127.6,200.2,127.5z"/>
					<path class="st13" d="M200.4,127.7c0,0-0.1,0-0.1,0c0,0-0.1-0.1-0.1-0.1l-5.1-25.6c0-0.1,0-0.1,0-0.2c0,0,0.1-0.1,0.1-0.1
						c0.1,0,0.2,0.1,0.3,0.2l5.1,25.6c0,0.1,0,0.1,0,0.2C200.5,127.7,200.5,127.7,200.4,127.7C200.4,127.7,200.4,127.7,200.4,127.7z
						 M195.3,101.8C195.3,101.8,195.3,101.8,195.3,101.8C195.2,101.8,195.2,101.8,195.3,101.8c-0.1,0.1-0.1,0.1-0.1,0.1l5.1,25.6
						c0,0,0,0.1,0,0.1c0,0,0.1,0,0.1,0c0,0,0.1,0,0.1,0c0,0,0-0.1,0-0.1l-5.1-25.6C195.4,101.8,195.3,101.8,195.3,101.8z"/>
				</g>
				<g>
					<path class="st12" d="M173.5,106l-0.1,7.6c0,0.1-0.1,0.2-0.2,0.2c-0.1,0-0.2-0.1-0.2-0.2l0.1-7.6c0-0.1,0.1-0.2,0.2-0.2
						C173.4,105.8,173.5,105.9,173.5,106z"/>
					<path class="st13" d="M173.3,113.9C173.2,113.9,173.2,113.9,173.3,113.9c-0.1,0-0.2-0.1-0.2-0.2l0.1-7.6c0-0.1,0.1-0.2,0.2-0.2
						c0,0,0,0,0,0c0.1,0,0.2,0.1,0.2,0.2l-0.1,7.6C173.5,113.8,173.4,113.9,173.3,113.9z M173.3,105.9c-0.1,0-0.1,0-0.1,0.1
						l-0.1,7.6c0,0.1,0,0.1,0.1,0.1c0.1,0,0.1,0,0.1-0.1l0.1-7.6C173.4,106,173.4,105.9,173.3,105.9
						C173.3,105.9,173.3,105.9,173.3,105.9z"/>
				</g>
				<g>
					<path class="st12" d="M173.7,81c0.9-0.2,2.1-0.3,3-0.3c0.9,0.1,1.9,0.4,2.4,1.2c0,0.1,0.1,0.1,0.1,0.2c0.6,1.2-0.1,2.9-0.7,3.9
						c-0.6,0.9-1.9,2.4-3.1,2.5c-0.1,0-0.2-0.1-0.2-0.2c0-0.1,0.1-0.2,0.2-0.2c1.1-0.1,2.3-1.5,2.8-2.3c0.6-0.9,1.3-2.5,0.7-3.6
						c0-0.1-0.1-0.1-0.1-0.2c-0.1-0.2-0.3-0.3-0.5-0.5c-0.5-0.4-1.1-0.5-1.7-0.6c-0.9-0.1-2.1,0-3,0.3c0,0,0,0-0.1,0c0,0,0,0-0.1,0
						c0,0-0.1-0.1-0.1-0.1c0,0,0,0,0,0c-0.1-0.8-0.2-1.6-0.3-2.4c-0.2-1.8-0.3-3.5-0.4-5.3c-0.1-1.7-0.3-6.5,1-7.7
						c2-1.9,17-2.6,20.3-2.8c0.1,0,0.2,0.1,0.2,0.2c0,0.1-0.1,0.2-0.2,0.2c-3.2,0.1-18.2,0.9-20.1,2.7c-1.2,1.1-1,6-0.9,7.5
						c0.1,1.8,0.2,3.5,0.4,5.3C173.5,79.5,173.6,80.2,173.7,81z"/>
					<path class="st13" d="M175.4,88.6c-0.1,0-0.2-0.1-0.2-0.2c0-0.1,0.1-0.2,0.2-0.2c1.1-0.1,2.3-1.5,2.8-2.3
						c0.7-1.1,1.2-2.6,0.7-3.6c0-0.1-0.1-0.1-0.1-0.2c-0.1-0.2-0.3-0.3-0.5-0.5c-0.4-0.3-1-0.5-1.7-0.6c-0.9-0.1-2.1,0-3,0.3
						c0,0,0,0-0.1,0c0,0-0.1,0-0.1,0c-0.1,0-0.1-0.1-0.1-0.1c0,0,0,0,0,0c-0.1-0.9-0.2-1.7-0.3-2.4c-0.2-2-0.4-3.7-0.4-5.3
						c-0.2-4.3,0.2-6.9,1-7.8c2.2-2,19.6-2.8,20.3-2.8c0.1,0,0.2,0.1,0.2,0.2c0,0.1-0.1,0.2-0.2,0.2c-0.2,0-18,0.7-20,2.7
						c-0.5,0.5-1.1,2.2-0.9,7.4c0.1,1.6,0.2,3.4,0.4,5.3c0.1,0.6,0.2,1.4,0.3,2.2c0.9-0.2,2.1-0.3,2.9-0.2c1.2,0.1,2,0.5,2.5,1.2
						c0.1,0.1,0.1,0.1,0.1,0.2c0.7,1.4-0.4,3.4-0.7,4C178,87,176.7,88.5,175.4,88.6C175.4,88.6,175.4,88.6,175.4,88.6z M176,80.9
						c0.2,0,0.4,0,0.6,0c0.7,0.1,1.3,0.3,1.8,0.6c0.2,0.1,0.3,0.3,0.5,0.5c0,0.1,0.1,0.1,0.1,0.2c0.7,1.3-0.4,3.1-0.7,3.7
						c-0.5,0.8-1.7,2.3-2.9,2.4c-0.1,0-0.1,0.1-0.1,0.1c0,0.1,0.1,0.1,0.1,0.1c1.2-0.1,2.5-1.6,3-2.5c0.4-0.6,1.5-2.5,0.7-3.9
						c0-0.1-0.1-0.1-0.1-0.2c-0.5-0.7-1.3-1.1-2.4-1.2c-0.9-0.1-2,0-2.9,0.3l-0.1,0l0-0.1c-0.1-0.8-0.2-1.6-0.3-2.3
						c-0.2-1.9-0.4-3.7-0.4-5.3c-0.2-4.2,0.1-6.8,0.9-7.5c2.1-2,19.9-2.7,20.1-2.7c0.1,0,0.1-0.1,0.1-0.1c0-0.1-0.1-0.1-0.1-0.1
						c-0.7,0-18.1,0.7-20.2,2.8c-0.9,0.8-1.2,3.4-1,7.7c0.1,1.6,0.2,3.4,0.4,5.3c0.1,0.7,0.2,1.6,0.3,2.4c0,0,0,0,0,0
						c0,0,0,0.1,0.1,0.1c0,0,0,0,0,0c0,0,0,0,0,0C174.3,81.1,175.2,80.9,176,80.9z"/>
				</g>
				<g>
					<path class="st12" d="M130.5,200c-0.6-2-1.3-4-2-6c-1.5-4.3-3-8.7-4.6-13c-0.8-2.2-1.7-4.4-2.6-6.5c-0.8-1.9-1.6-3.8-2.5-5.7
						c-0.5-1.1-2.7-5.5-4-5.6c-1.4-0.2-2.9,0-4.3,0.2c-1.7,0.2-3.5,0.6-5.2,1c-0.1,0-0.2,0-0.2-0.1c0-0.1,0-0.2,0.1-0.2
						c1.7-0.4,3.5-0.8,5.2-1c1.4-0.2,3-0.3,4.4-0.2c0.8,0.1,1.6,1.1,2,1.7c0.9,1.2,1.6,2.7,2.3,4.1c0.9,1.9,1.7,3.8,2.5,5.7
						c0.9,2.2,1.7,4.3,2.6,6.5c1.6,4.3,3.1,8.6,4.6,13c0.7,2,1.3,4,2,6c0,0,0,0.1,0,0.1c-1.8,11.8-2.7,23.6-3.9,35.4
						c0,0.1-0.1,0.2-0.2,0.1c-0.1,0-0.2-0.1-0.1-0.2C127.7,223.6,128.7,211.8,130.5,200z"/>
					<path class="st13" d="M126.7,235.6C126.7,235.6,126.7,235.6,126.7,235.6c-0.1,0-0.2-0.1-0.2-0.2c0.3-2.6,0.5-5.2,0.8-7.8
						c0.9-9.1,1.8-18.4,3.2-27.6c-0.7-2.2-1.4-4.3-2-6c-1.6-4.8-3.1-9-4.6-13c-0.9-2.4-1.8-4.6-2.6-6.5c-0.9-2.3-1.7-4.1-2.5-5.7
						c-2.2-4.5-3.4-5.5-4-5.6c-1.2-0.1-2.5-0.1-4.3,0.2c-1.6,0.2-3.3,0.5-5.2,1c-0.1,0-0.1,0-0.2,0c-0.1,0-0.1-0.1-0.1-0.1
						c0-0.1,0-0.2,0.2-0.3c1.9-0.5,3.6-0.8,5.2-1c1.8-0.2,3.2-0.3,4.4-0.2c0.8,0.1,1.7,1.3,2,1.7c0.9,1.3,1.6,2.7,2.3,4.1
						c0.8,1.6,1.6,3.4,2.5,5.7c0.8,2,1.7,4.1,2.6,6.5c1.5,3.9,3,8.2,4.6,13c0.6,1.7,1.3,3.8,2,6c0,0,0,0.1,0,0.1
						c-1.4,9.2-2.3,18.6-3.2,27.7c-0.2,2.5-0.5,5.2-0.8,7.8C126.9,235.6,126.8,235.6,126.7,235.6z M113.5,163.1c0.5,0,0.9,0,1.4,0.1
						c0.9,0.1,2.3,2,4.1,5.6c0.8,1.6,1.6,3.4,2.5,5.7c0.8,2,1.7,4.1,2.6,6.5c1.5,3.9,3,8.2,4.6,13c0.6,1.6,1.3,3.8,2,6l0,0l0,0
						c-1.4,9.2-2.3,18.6-3.2,27.6c-0.2,2.5-0.5,5.2-0.8,7.8c0,0.1,0,0.1,0.1,0.1c0.1,0,0.1,0,0.1-0.1c0.3-2.6,0.5-5.2,0.8-7.8
						c0.9-9.1,1.8-18.5,3.2-27.7c0,0,0,0,0-0.1c-0.7-2.2-1.4-4.4-2-6c-1.6-4.8-3.1-9-4.6-13c-0.9-2.4-1.8-4.6-2.6-6.5
						c-0.9-2.3-1.7-4.1-2.5-5.7c-0.7-1.4-1.4-2.8-2.3-4.1c-0.3-0.4-1.1-1.6-1.9-1.7c-1.2-0.1-2.6-0.1-4.4,0.2
						c-1.6,0.2-3.3,0.5-5.2,1c-0.1,0-0.1,0.1-0.1,0.1c0,0,0,0.1,0.1,0.1c0,0,0.1,0,0.1,0c1.9-0.5,3.6-0.8,5.2-1
						C111.6,163.2,112.6,163.1,113.5,163.1z"/>
				</g>
			</g>
		</g>
		<g>
			<g>
				<g>
					<path class="st14" d="M84.7,63.8H30.2c-1.8,0-3.2,1.5-3.2,3.2v33.8c0,1.8,1.5,3.2,3.2,3.2h54.5c1.8,0,3.2-1.5,3.2-3.2V67
						C87.9,65.3,86.5,63.8,84.7,63.8z"/>
					<path class="st1" d="M84.7,104.3H30.2c-1.9,0-3.5-1.6-3.5-3.5V67c0-1.9,1.6-3.5,3.5-3.5h54.5c1.9,0,3.5,1.6,3.5,3.5v33.8
						C88.2,102.8,86.6,104.3,84.7,104.3z M30.2,64.1c-1.6,0-3,1.3-3,3v33.8c0,1.6,1.3,3,3,3h54.5c1.6,0,3-1.3,3-3V67
						c0-1.6-1.3-3-3-3H30.2z"/>
				</g>
				<g>
					<polygon class="st1" points="85,115.6 67.1,104.3 67.4,103.8 84.4,114.6 84.4,104.1 85,104.1 					"/>
				</g>
			</g>
			<polygon class="st4" points="67.2,104.1 84.7,115.1 84.7,104.1 			"/>
			<g>
				<g>
					<path class="st15" d="M66.5,66.2v16.6l0,0c4.1,0,7.4,3.3,7.4,7.4c0,1.1-0.3,2.2-0.7,3.1c0.2,0,0.5,0,0.7,0
						c4.1,0,7.4-0.9,7.4-2.1l0-25c0,1.2-3.3,2.1-7.4,2.1C69.8,68.3,66.5,67.3,66.5,66.2z"/>
					<path class="st16" d="M73.9,93.8c-0.3,0-0.5,0-0.8,0l-0.8,0l0.4-0.8c0.4-0.9,0.6-1.9,0.6-2.9c0-3.8-3.1-6.8-6.8-6.8l-0.6,0
						V66.2H67c0,0.5,2.3,1.6,6.9,1.6c4.5,0,6.9-1.1,6.9-1.6h1.1l0,25C81.9,93,77.7,93.8,73.9,93.8z M67,82.2
						c4.1,0.3,7.4,3.7,7.4,7.9c0,0.9-0.1,1.8-0.4,2.6c4.5,0,6.8-1.1,6.8-1.6l0-23.6c-1.5,0.8-4.2,1.2-6.9,1.2
						c-2.6,0-5.4-0.4-6.9-1.2V82.2z"/>
				</g>
				<g>
					<path class="st15" d="M64,83.2l0-23.9c0,1.2-3.3,2.1-7.4,2.1c-4.1,0-7.4-0.9-7.4-2.1v19.5c0.7,0.3,1.2,0.7,1.2,1.1
						c0,1.2-3.3,2.1-7.4,2.1s-7.4-0.9-7.4-2.1V95c0,1.2,3.3,2.1,7.4,2.1c0.1,0,0.2,0,0.3,0l0,0C43.1,96.4,43,95.7,43,95
						c0-4.1,3.3-7.4,7.4-7.4c3.5,0,6.4,2.4,7.2,5.6c0.8,0,1.5-0.1,2.2-0.2c-0.4-0.9-0.6-1.9-0.6-3C59.1,86.9,61.1,84.2,64,83.2z"/>
					<path class="st16" d="M42.9,97.7c-3.8,0-8-0.8-8-2.7V79.9h1.1c0,0.5,2.3,1.6,6.9,1.6c4.5,0,6.9-1.1,6.9-1.6
						c0-0.1-0.2-0.3-0.8-0.6l-0.3-0.1V59.3h1.1c0,0.5,2.3,1.6,6.9,1.6c4.5,0,6.9-1.1,6.9-1.6h1.1l0,24.3l-0.4,0.1
						c-2.7,1-4.5,3.6-4.5,6.4c0,0.9,0.2,1.9,0.6,2.7l0.3,0.7l-0.7,0.1c-0.7,0.1-1.5,0.2-2.3,0.2l-0.4,0L57,93.4
						c-0.7-3.1-3.5-5.2-6.6-5.2c-3.8,0-6.8,3.1-6.8,6.8c0,0.7,0.1,1.3,0.3,1.9l0.2,0.7l-0.7,0C43.2,97.7,43,97.7,42.9,97.7z
						 M36.1,81.3V95c0,0.5,2.2,1.5,6.5,1.6c-0.1-0.5-0.2-1-0.2-1.6c0-4.4,3.6-7.9,7.9-7.9c3.5,0,6.6,2.3,7.6,5.6c0.4,0,0.7,0,1-0.1
						c-0.3-0.8-0.4-1.6-0.4-2.5c0-3.2,1.9-6.1,4.9-7.3l0-22.1c-1.5,0.8-4.2,1.2-6.9,1.2c-2.6,0-5.4-0.4-6.9-1.2v17.7
						c0.8,0.4,1.2,0.9,1.2,1.5c0,1.8-4.1,2.7-8,2.7C40.3,82.5,37.6,82.1,36.1,81.3z"/>
				</g>
				<g>
					<path class="st17" d="M73.9,90.1c0-4.1-3.3-7.4-7.4-7.4l0,0c-0.9,0-1.7,0.2-2.5,0.4c-2.8,1-4.9,3.7-4.9,6.9c0,1,0.2,2,0.6,3
						l0,0c1.1,2.6,3.7,4.4,6.8,4.4c2.9,0,5.5-1.7,6.7-4.2C73.6,92.3,73.9,91.3,73.9,90.1z"/>
					<path class="st16" d="M66.5,98.1c-3.1,0-6-1.9-7.3-4.7l0,0c-0.4-1-0.7-2.1-0.7-3.2c0-3.3,2.1-6.3,5.2-7.5
						c0.9-0.3,1.8-0.5,2.7-0.5l0,0c4.4,0,7.9,3.6,7.9,7.9c0,1.2-0.3,2.3-0.8,3.4C72.3,96.3,69.5,98.1,66.5,98.1z M60.2,92.9
						L60.2,92.9c1.1,2.5,3.5,4.1,6.3,4.1c2.6,0,5.1-1.5,6.2-3.9c0.4-0.9,0.6-1.9,0.6-2.9c0-3.8-3.1-6.8-6.8-6.8l0,0
						c-0.8,0-1.6,0.1-2.3,0.4c-2.7,1-4.5,3.6-4.5,6.4C59.7,91.1,59.9,92,60.2,92.9z"/>
				</g>
				<g>
					<path class="st17" d="M50.3,102.4c4.1,0,7.4-3.3,7.4-7.4c0-0.6-0.1-1.2-0.2-1.7c-0.8-3.2-3.7-5.6-7.2-5.6h0
						c-4.1,0-7.4,3.3-7.4,7.4c0,0.7,0.1,1.4,0.3,2.1l0,0C44.2,100.2,47,102.4,50.3,102.4z"/>
					<path class="st16" d="M50.3,102.9c-3.5,0-6.6-2.3-7.6-5.7c-0.2-0.7-0.3-1.5-0.3-2.3c0-4.4,3.6-7.9,7.9-7.9
						c3.7,0,6.8,2.5,7.7,6.1c0.1,0.6,0.2,1.2,0.2,1.9C58.3,99.4,54.7,102.9,50.3,102.9z M50.3,88.2c-3.8,0-6.8,3.1-6.8,6.8
						c0,0.7,0.1,1.3,0.3,1.9c0.9,2.9,3.5,4.9,6.5,4.9c3.8,0,6.8-3.1,6.8-6.8c0-0.5-0.1-1.1-0.2-1.6C56.2,90.3,53.5,88.2,50.3,88.2z"
						/>
				</g>
				<g>
					<ellipse class="st17" cx="73.9" cy="66.2" rx="7.4" ry="2.1"/>
					<path class="st16" d="M73.9,68.8c-3.8,0-8-0.8-8-2.7c0-1.8,4.1-2.7,8-2.7c3.8,0,8,0.8,8,2.7C81.9,68,77.7,68.8,73.9,68.8z
						 M73.9,64.6c-4.5,0-6.9,1.1-6.9,1.6s2.3,1.6,6.9,1.6c4.5,0,6.9-1.1,6.9-1.6S78.4,64.6,73.9,64.6z"/>
				</g>
				<g>
					<ellipse class="st17" cx="56.6" cy="59.3" rx="7.4" ry="2.1"/>
					<path class="st16" d="M56.6,61.9c-3.8,0-8-0.8-8-2.7c0-1.8,4.1-2.7,8-2.7c3.8,0,8,0.8,8,2.7C64.5,61.1,60.4,61.9,56.6,61.9z
						 M56.6,57.7c-4.5,0-6.9,1.1-6.9,1.6c0,0.5,2.3,1.6,6.9,1.6c4.5,0,6.9-1.1,6.9-1.6C63.4,58.8,61.1,57.7,56.6,57.7z"/>
				</g>
				<g>
					<path class="st17" d="M49.2,78.7c-1.3-0.6-3.6-1-6.2-1c-4.1,0-7.4,0.9-7.4,2.1c0,1.2,3.3,2.1,7.4,2.1s7.4-0.9,7.4-2.1
						C50.3,79.5,49.9,79.1,49.2,78.7z"/>
					<path class="st16" d="M42.9,82.5c-3.8,0-8-0.8-8-2.7c0-1.8,4.1-2.7,8-2.7c2.6,0,5,0.4,6.5,1h0c1,0.4,1.5,1,1.5,1.6
						C50.9,81.7,46.8,82.5,42.9,82.5z M42.9,78.3c-4.5,0-6.9,1.1-6.9,1.6c0,0.5,2.3,1.6,6.9,1.6c4.5,0,6.9-1.1,6.9-1.6
						c0-0.1-0.2-0.3-0.8-0.6l0,0C47.7,78.7,45.4,78.3,42.9,78.3z"/>
				</g>
				<path class="st18" d="M53.5,96.7c0-0.9-0.4-1.6-1.2-2c-0.3-0.2-0.8-0.4-1.5-0.6v-2.1c0.3,0.1,0.5,0.2,0.7,0.4
					c0.1,0.2,0.2,0.4,0.3,0.8h1.5c0-0.6-0.2-1.1-0.5-1.5c-0.4-0.6-1.1-0.9-2-1v-1H50v0.9c-0.8,0.1-1.5,0.3-1.9,0.8
					c-0.4,0.4-0.7,1-0.7,1.6c0,0.8,0.3,1.5,1,1.9c0.3,0.1,0.8,0.3,1.5,0.6v2.4c-0.4-0.1-0.7-0.2-0.9-0.5c-0.2-0.2-0.3-0.6-0.4-1.1
					h-1.5c0,0.1,0,0.1,0,0.2c0,0.5,0.1,0.9,0.3,1.3c0.2,0.4,0.4,0.7,0.8,0.9c0.4,0.3,1,0.5,1.7,0.6v1.1h0.8v-1.1
					c1-0.1,1.7-0.4,2.2-0.9C53.3,97.9,53.5,97.3,53.5,96.7L53.5,96.7z M50,91.9v1.9c-0.3-0.1-0.5-0.2-0.6-0.3
					c-0.3-0.2-0.4-0.4-0.4-0.7C48.9,92.4,49.3,92.1,50,91.9L50,91.9z M51.9,96.9c0,0.4-0.2,0.7-0.5,0.9c-0.2,0.1-0.4,0.2-0.7,0.2
					v-2.2c0.4,0.1,0.6,0.2,0.7,0.3C51.8,96.2,51.9,96.5,51.9,96.9z"/>
				<path class="st18" d="M69,93.5c0.4-0.5,0.6-1,0.6-1.6c0-0.9-0.4-1.6-1.2-2c-0.3-0.2-0.8-0.4-1.5-0.6v-2.1
					c0.3,0.1,0.5,0.2,0.7,0.4c0.1,0.2,0.2,0.4,0.3,0.8h1.5c0-0.6-0.2-1.1-0.5-1.5c-0.4-0.6-1.1-0.9-2-1v-1h-0.8v0.9
					c-0.8,0.1-1.5,0.3-1.9,0.8c-0.4,0.4-0.7,1-0.7,1.6c0,0.8,0.3,1.5,1,1.9c0.3,0.1,0.8,0.3,1.5,0.6V93c-0.4-0.1-0.7-0.2-0.9-0.5
					c-0.2-0.2-0.3-0.6-0.4-1.1h-1.5c0,0.1,0,0.1,0,0.2c0,0.5,0.1,0.9,0.3,1.3c0.2,0.4,0.4,0.7,0.8,0.9c0.4,0.3,1,0.5,1.7,0.6v1.1
					h0.8v-1.1C67.8,94.3,68.6,94,69,93.5L69,93.5z M66.1,87.1V89c-0.3-0.1-0.5-0.2-0.6-0.3c-0.3-0.2-0.4-0.4-0.4-0.7
					C65.1,87.5,65.4,87.2,66.1,87.1L66.1,87.1z M68.1,92c0,0.4-0.2,0.7-0.5,0.9c-0.2,0.1-0.4,0.2-0.7,0.2v-2.2
					c0.4,0.1,0.6,0.2,0.7,0.3C67.9,91.4,68.1,91.6,68.1,92z"/>
				<g>
					<path class="st17" d="M50.1,83.5c0.4,0.2,0.7,0.3,1.1,0.4c0.5,0.1,1,0.3,1.5,0.3c1.3,0.2,2.6,0.3,3.8,0.3c1,0,1.9-0.1,2.9-0.2
						c0.8-0.1,1.6-0.2,2.4-0.5c0.6-0.2,2.1-0.7,2.1-1.5c0,0,0,0,0,0c0,0,0,0,0,0c0,0.8-1.6,1.3-2.2,1.5c-0.8,0.2-1.6,0.4-2.4,0.5
						c-1,0.1-1.9,0.2-2.9,0.2c-1.3,0-2.6-0.1-3.9-0.3c-0.5-0.1-1-0.2-1.5-0.4C50.8,83.8,50.4,83.7,50.1,83.5
						c-0.5,0.5-1.5,0.8-1.9,0.9c-0.8,0.2-1.6,0.4-2.4,0.5c-1,0.1-1.9,0.2-2.9,0.2C42,85,41,85,40,84.9c-0.8-0.1-1.6-0.2-2.4-0.5
						c-0.6-0.2-2.2-0.7-2.2-1.5c0,0,0,0,0,0c0,0,0,0,0,0c0,0.8,1.6,1.3,2.1,1.5c0.8,0.2,1.6,0.4,2.4,0.5c1,0.1,1.9,0.2,2.9,0.2
						c1,0,1.9-0.1,2.9-0.2c0.8-0.1,1.6-0.2,2.4-0.5C48.6,84.2,49.5,83.9,50.1,83.5C50,83.5,50,83.5,50.1,83.5
						c0.1-0.2,0.2-0.4,0.2-0.6c0,0,0,0,0,0c0,0,0,0,0,0C50.4,83.1,50.3,83.3,50.1,83.5L50.1,83.5z M50.2,86.4
						c0.4,0.2,0.7,0.3,1.1,0.4c0.5,0.1,1,0.3,1.5,0.3c1.2,0.2,2.5,0.3,3.8,0.3c1,0,2.1-0.1,3.1-0.2c0,0,0,0,0,0c0,0,0,0,0,0
						c-1,0.1-2.1,0.2-3.1,0.2c-1.3,0-2.5-0.1-3.8-0.3c-0.5-0.1-1-0.2-1.5-0.3C50.9,86.8,50.5,86.6,50.2,86.4c-0.5,0.6-1.5,0.9-2,1
						c-0.8,0.2-1.6,0.4-2.4,0.5c-1,0.1-1.9,0.2-2.9,0.2c-1,0-1.9-0.1-2.9-0.2c-0.8-0.1-1.6-0.2-2.4-0.5c-0.6-0.2-2.2-0.7-2.2-1.5
						c0,0,0,0,0,0c0,0,0,0,0,0c0,0.8,1.6,1.3,2.1,1.5c0.8,0.2,1.6,0.4,2.4,0.5C41,88,42,88,42.9,88c1,0,1.9-0.1,2.9-0.2
						c0.8-0.1,1.6-0.2,2.4-0.5C48.6,87.3,49.7,86.9,50.2,86.4C50.1,86.4,50.1,86.4,50.2,86.4C50.1,86.4,50.1,86.4,50.2,86.4
						c0.1-0.2,0.1-0.3,0.1-0.5c0,0,0,0,0,0c0,0,0,0,0,0C50.4,86.1,50.3,86.3,50.2,86.4L50.2,86.4z M44.1,91.1c-0.4,0-0.8,0-1.2,0
						c-1,0-1.9-0.1-2.9-0.2c-0.8-0.1-1.6-0.2-2.4-0.5c-0.6-0.2-2.2-0.7-2.2-1.5c0,0,0,0,0,0c0,0,0,0,0,0c0,0.8,1.6,1.3,2.1,1.5
						c0.8,0.2,1.6,0.4,2.4,0.5C41,91,42,91,42.9,91C43.3,91,43.7,91,44.1,91.1C44.1,91,44.2,91,44.1,91.1
						C44.2,91,44.1,91.1,44.1,91.1L44.1,91.1z M43,94.1C43,94.1,43,94.1,43,94.1c-1.1,0-2-0.1-3-0.2c-0.8-0.1-1.6-0.2-2.4-0.5
						c-0.6-0.2-2.2-0.7-2.2-1.5c0,0,0,0,0,0c0,0,0,0,0,0c0,0.8,1.6,1.3,2.1,1.5c0.8,0.2,1.6,0.4,2.4,0.5C41,94,42,94.1,43,94.1
						C43,94.1,43,94.1,43,94.1C43,94.1,43.1,94.1,43,94.1C43.1,94.1,43,94.1,43,94.1L43,94.1z M81.3,88.4c0,0.8-1.6,1.3-2.2,1.5
						c-0.8,0.2-1.6,0.4-2.4,0.5c-1,0.1-1.9,0.2-2.9,0.2c0,0,0,0,0,0c0,0,0,0,0,0c0,0,0,0,0,0c0,0,0,0,0,0c1,0,1.9-0.1,2.9-0.2
						c0.8-0.1,1.6-0.2,2.4-0.5C79.7,89.7,81.3,89.2,81.3,88.4C81.3,88.4,81.3,88.4,81.3,88.4C81.3,88.4,81.3,88.4,81.3,88.4
						L81.3,88.4z M81.3,85.6c0,0.8-1.6,1.3-2.2,1.5c-0.8,0.2-1.6,0.4-2.4,0.5c-1,0.1-1.9,0.2-2.9,0.2c-0.1,0-0.3,0-0.4,0
						c0,0,0,0,0,0c0,0,0,0,0,0c0.1,0,0.3,0,0.4,0c1,0,1.9-0.1,2.9-0.2c0.8-0.1,1.6-0.2,2.4-0.5C79.7,86.9,81.3,86.4,81.3,85.6
						C81.3,85.6,81.3,85.6,81.3,85.6C81.3,85.6,81.3,85.6,81.3,85.6L81.3,85.6z M81.3,82.8c0,0.8-1.6,1.3-2.2,1.5
						c-0.8,0.2-1.6,0.4-2.4,0.5c-1,0.1-1.9,0.2-2.9,0.2c-0.8,0-1.5,0-2.3-0.1c0,0,0,0,0,0c0,0,0,0,0,0c0.8,0.1,1.5,0.1,2.3,0.1
						c1,0,1.9-0.1,2.9-0.2c0.8-0.1,1.6-0.2,2.4-0.5C79.7,84.1,81.3,83.6,81.3,82.8C81.3,82.8,81.3,82.8,81.3,82.8
						C81.3,82.8,81.3,82.8,81.3,82.8L81.3,82.8z M81.3,80.1c0,0.8-1.6,1.3-2.2,1.5c-0.8,0.2-1.6,0.4-2.4,0.5c-1,0.1-1.9,0.2-2.9,0.2
						c-1,0-1.9-0.1-2.9-0.2c-0.8-0.1-1.6-0.2-2.4-0.5c-0.6-0.2-2.2-0.7-2.2-1.5c0,0,0,0,0,0c0,0,0,0,0,0c0,0.8,1.6,1.3,2.1,1.5
						c0.8,0.2,1.6,0.4,2.4,0.5c1,0.1,1.9,0.2,2.9,0.2c1,0,1.9-0.1,2.9-0.2c0.8-0.1,1.6-0.2,2.4-0.5C79.7,81.4,81.3,80.9,81.3,80.1
						C81.3,80.1,81.3,80,81.3,80.1C81.3,80,81.3,80.1,81.3,80.1L81.3,80.1z M81.3,77.3c0,0.8-1.6,1.3-2.2,1.5
						c-0.8,0.2-1.6,0.4-2.4,0.5c-1,0.1-1.9,0.2-2.9,0.2c-1,0-1.9-0.1-2.9-0.2c-0.8-0.1-1.6-0.2-2.4-0.5c-0.6-0.2-2.2-0.7-2.2-1.5
						c0,0,0,0,0,0c0,0,0,0,0,0c0,0.8,1.6,1.3,2.1,1.5c0.8,0.2,1.6,0.4,2.4,0.5c1,0.1,1.9,0.2,2.9,0.2c1,0,1.9-0.1,2.9-0.2
						c0.8-0.1,1.6-0.2,2.4-0.5C79.7,78.6,81.3,78.1,81.3,77.3C81.3,77.3,81.3,77.3,81.3,77.3C81.3,77.3,81.3,77.3,81.3,77.3
						L81.3,77.3z M81.3,74.5c0,0.8-1.6,1.3-2.2,1.5c-0.8,0.2-1.6,0.4-2.4,0.5c-1,0.1-1.9,0.2-2.9,0.2c-1,0-1.9-0.1-2.9-0.2
						c-0.8-0.1-1.6-0.2-2.4-0.5c-0.6-0.2-2.2-0.7-2.2-1.5c0,0,0,0,0,0c0,0,0,0,0,0c0,0.8,1.6,1.3,2.1,1.5c0.8,0.2,1.6,0.4,2.4,0.5
						c1,0.1,1.9,0.2,2.9,0.2c1,0,1.9-0.1,2.9-0.2c0.8-0.1,1.6-0.2,2.4-0.5C79.7,75.8,81.3,75.3,81.3,74.5
						C81.3,74.5,81.3,74.5,81.3,74.5C81.3,74.5,81.3,74.5,81.3,74.5L81.3,74.5z M81.3,71.7c0,0.8-1.6,1.3-2.2,1.5
						c-0.8,0.2-1.6,0.4-2.4,0.5c-1,0.1-1.9,0.2-2.9,0.2c-1,0-1.9-0.1-2.9-0.2c-0.8-0.1-1.6-0.2-2.4-0.5c-0.6-0.2-2.2-0.7-2.2-1.5
						c0,0,0,0,0,0c0,0,0,0,0,0c0,0.8,1.6,1.3,2.1,1.5c0.8,0.2,1.6,0.4,2.4,0.5c1,0.1,1.9,0.2,2.9,0.2c1,0,1.9-0.1,2.9-0.2
						c0.8-0.1,1.6-0.2,2.4-0.5C79.7,73,81.3,72.5,81.3,71.7C81.3,71.7,81.3,71.7,81.3,71.7C81.3,71.7,81.3,71.7,81.3,71.7L81.3,71.7
						z M81.3,69c0,0.8-1.6,1.3-2.2,1.5c-0.8,0.2-1.6,0.4-2.4,0.5c-1,0.1-1.9,0.2-2.9,0.2c-1,0-1.9-0.1-2.9-0.2
						c-0.8-0.1-1.6-0.2-2.4-0.5c-0.6-0.2-2.2-0.7-2.2-1.5c0,0,0,0,0,0c0,0,0,0,0,0c0,0.8,1.6,1.3,2.1,1.5c0.8,0.2,1.6,0.4,2.4,0.5
						c1,0.1,1.9,0.2,2.9,0.2c1,0,1.9-0.1,2.9-0.2c0.8-0.1,1.6-0.2,2.4-0.5C79.7,70.3,81.3,69.8,81.3,69C81.3,68.9,81.3,68.9,81.3,69
						C81.3,68.9,81.3,68.9,81.3,69L81.3,69z M59.1,90.3c-0.8,0.1-1.7,0.1-2.5,0.1c-0.2,0-0.3,0-0.5,0c0,0,0,0,0,0c0,0,0,0,0,0
						c0.2,0,0.3,0,0.5,0C57.4,90.4,58.3,90.3,59.1,90.3C59.1,90.2,59.1,90.2,59.1,90.3C59.1,90.3,59.1,90.3,59.1,90.3L59.1,90.3z
						 M64,79.6c0,0.8-1.6,1.3-2.2,1.5c-0.8,0.2-1.6,0.4-2.4,0.5c-1,0.1-1.9,0.2-2.9,0.2c-1.3,0-2.6-0.1-3.9-0.3
						c-0.5-0.1-1-0.2-1.5-0.4c-0.4-0.1-0.8-0.3-1.1-0.5c0,0,0,0,0,0c0,0,0,0,0,0c0.4,0.2,0.8,0.3,1.1,0.5c0.5,0.2,1,0.3,1.5,0.4
						c1.3,0.2,2.6,0.3,3.9,0.3c1,0,1.9-0.1,2.9-0.2c0.8-0.1,1.6-0.2,2.4-0.5C62.4,80.9,64,80.4,64,79.6C64,79.6,64,79.6,64,79.6
						C64,79.6,64,79.6,64,79.6L64,79.6z M64,76.7c0,0.8-1.6,1.3-2.2,1.5c-0.8,0.2-1.6,0.4-2.4,0.5c-1,0.1-1.9,0.2-2.9,0.2
						c-1,0-1.9-0.1-2.9-0.2c-0.8-0.1-1.6-0.2-2.4-0.5c-0.6-0.2-2.2-0.7-2.2-1.5c0,0,0,0,0,0c0,0,0,0,0,0c0,0.8,1.6,1.3,2.1,1.5
						c0.8,0.2,1.6,0.4,2.4,0.5c1,0.1,1.9,0.2,2.9,0.2c1,0,1.9-0.1,2.9-0.2c0.8-0.1,1.6-0.2,2.4-0.5C62.4,78,64,77.5,64,76.7
						C64,76.7,64,76.7,64,76.7C64,76.7,64,76.7,64,76.7L64,76.7z M64,73.8c0,0.8-1.6,1.3-2.2,1.5c-0.8,0.2-1.6,0.4-2.4,0.5
						c-1,0.1-1.9,0.2-2.9,0.2c-1,0-1.9-0.1-2.9-0.2c-0.8-0.1-1.6-0.2-2.4-0.5c-0.6-0.2-2.2-0.7-2.2-1.5c0,0,0,0,0,0c0,0,0,0,0,0
						c0,0.8,1.6,1.3,2.1,1.5c0.8,0.2,1.6,0.4,2.4,0.5c1,0.1,1.9,0.2,2.9,0.2c1,0,1.9-0.1,2.9-0.2c0.8-0.1,1.6-0.2,2.4-0.5
						C62.4,75.1,64,74.6,64,73.8C64,73.8,64,73.8,64,73.8C64,73.8,64,73.8,64,73.8L64,73.8z M64,70.9c0,0.8-1.6,1.3-2.2,1.5
						c-0.8,0.2-1.6,0.4-2.4,0.5c-1,0.1-1.9,0.2-2.9,0.2c-1,0-1.9-0.1-2.9-0.2c-0.8-0.1-1.6-0.2-2.4-0.5c-0.6-0.2-2.2-0.7-2.2-1.5
						c0,0,0,0,0,0c0,0,0,0,0,0c0,0.8,1.6,1.3,2.1,1.5c0.8,0.2,1.6,0.4,2.4,0.5c1,0.1,1.9,0.2,2.9,0.2c1,0,1.9-0.1,2.9-0.2
						c0.8-0.1,1.6-0.2,2.4-0.5C62.4,72.2,64,71.7,64,70.9C64,70.9,64,70.9,64,70.9C64,70.9,64,70.9,64,70.9L64,70.9z M64,68
						c0,0.8-1.6,1.3-2.2,1.5c-0.8,0.2-1.6,0.4-2.4,0.5c-1,0.1-1.9,0.2-2.9,0.2c-1,0-1.9-0.1-2.9-0.2c-0.8-0.1-1.6-0.2-2.4-0.5
						c-0.6-0.2-2.2-0.7-2.2-1.5c0,0,0,0,0,0c0,0,0,0,0,0c0,0.8,1.6,1.3,2.1,1.5c0.8,0.2,1.6,0.4,2.4,0.5c1,0.1,1.9,0.2,2.9,0.2
						c1,0,1.9-0.1,2.9-0.2c0.8-0.1,1.6-0.2,2.4-0.5C62.4,69.3,64,68.8,64,68C64,68,64,68,64,68C64,68,64,68,64,68L64,68z M64,65.1
						c0,0.8-1.6,1.3-2.2,1.5c-0.8,0.2-1.6,0.4-2.4,0.5c-1,0.1-1.9,0.2-2.9,0.2c-1,0-1.9-0.1-2.9-0.2c-0.8-0.1-1.6-0.2-2.4-0.5
						c-0.6-0.2-2.2-0.7-2.2-1.5c0,0,0,0,0,0c0,0,0,0,0,0c0,0.8,1.6,1.3,2.1,1.5c0.8,0.2,1.6,0.4,2.4,0.5c1,0.1,1.9,0.2,2.9,0.2
						c1,0,1.9-0.1,2.9-0.2c0.8-0.1,1.6-0.2,2.4-0.5C62.4,66.4,64,65.9,64,65.1C64,65.1,64,65.1,64,65.1C64,65.1,64,65.1,64,65.1
						L64,65.1z M64,62.2c0,0.8-1.6,1.3-2.2,1.5c-0.8,0.2-1.6,0.4-2.4,0.5c-1,0.1-1.9,0.2-2.9,0.2c-1,0-1.9-0.1-2.9-0.2
						c-0.8-0.1-1.6-0.2-2.4-0.5c-0.6-0.2-2.2-0.7-2.2-1.5c0,0,0,0,0,0c0,0,0,0,0,0c0,0.8,1.6,1.3,2.1,1.5c0.8,0.2,1.6,0.4,2.4,0.5
						c1,0.1,1.9,0.2,2.9,0.2c1,0,1.9-0.1,2.9-0.2c0.8-0.1,1.6-0.2,2.4-0.5C62.4,63.5,64,63,64,62.2C64,62.2,64,62.2,64,62.2
						C64,62.2,64,62.2,64,62.2z"/>
					<path class="st16" d="M42.9,94.4c-1,0-2-0.1-2.9-0.2c-0.9-0.1-1.7-0.3-2.4-0.5c-1.1-0.3-2.4-0.9-2.4-1.8c0-0.2,0.1-0.3,0.3-0.3
						s0.3,0.1,0.3,0.3c0,0.4,0.8,0.9,1.9,1.2c0.7,0.2,1.4,0.3,2.3,0.4c0.9,0.1,1.9,0.2,2.8,0.2l0.1,0c0.2,0,0.3,0.1,0.3,0.3
						C43.3,94.2,43.2,94.4,42.9,94.4L42.9,94.4z M43,93.8C43,93.8,43,93.8,43,93.8L43,93.8z M42.9,91.4c-1,0-2-0.1-2.9-0.2
						c-0.9-0.1-1.7-0.3-2.4-0.5c-1.1-0.3-2.4-0.9-2.4-1.8c0-0.2,0.1-0.3,0.3-0.3s0.3,0.1,0.3,0.3c0,0.4,0.8,0.9,1.9,1.2
						c0.7,0.2,1.4,0.3,2.3,0.4c1.3,0.2,2.6,0.2,4,0.1c0.2,0,0.3,0.1,0.3,0.3c0,0.2-0.1,0.3-0.3,0.3l0,0
						C43.7,91.3,43.3,91.4,42.9,91.4z M44.1,91.3C44.1,91.3,44.1,91.3,44.1,91.3C44.1,91.3,44.1,91.3,44.1,91.3z M44.1,90.8
						C44.1,90.8,44.1,90.8,44.1,90.8C44.1,90.8,44.1,90.8,44.1,90.8L44.1,90.8z M73.9,90.8L73.9,90.8c-0.2,0-0.4-0.1-0.4-0.3
						c0-0.2,0.1-0.3,0.3-0.3h0c1,0,1.9-0.1,2.8-0.2c0.9-0.1,1.6-0.3,2.3-0.4c1.2-0.3,1.9-0.8,1.9-1.2c0-0.2,0.1-0.3,0.3-0.3
						c0.2,0,0.3,0.1,0.3,0.3c0,0.9-1.3,1.5-2.4,1.8c-0.7,0.2-1.5,0.4-2.4,0.5C75.9,90.8,74.9,90.8,73.9,90.8z M56.6,90.7
						c-0.2,0-0.3,0-0.5,0c-0.2,0-0.3-0.1-0.3-0.3c0-0.2,0.1-0.3,0.3-0.3c1,0,2,0,3-0.1c0.2,0,0.3,0.1,0.3,0.3c0,0.1,0,0.2-0.1,0.2
						c-0.1,0.1-0.1,0.1-0.2,0.1l0,0C58.3,90.6,57.5,90.7,56.6,90.7z M42.9,88.3c-1,0-2-0.1-2.9-0.2c-0.9-0.1-1.7-0.3-2.4-0.5
						c-1.1-0.3-2.4-0.9-2.4-1.8c0-0.2,0.1-0.3,0.3-0.3s0.3,0.1,0.3,0.3c0,0.4,0.8,0.9,1.9,1.2c0.7,0.2,1.4,0.3,2.3,0.4
						c0.9,0.1,1.9,0.2,2.8,0.2c1,0,1.9-0.1,2.8-0.2c0.9-0.1,1.6-0.3,2.3-0.4c0.9-0.2,1.5-0.6,1.8-0.9l0,0l0,0C50,86.1,50,86,50,85.9
						c0-0.2,0.1-0.3,0.3-0.3c0.2,0,0.3,0.1,0.3,0.3c0,0.1,0,0.2-0.1,0.4c0.2,0.1,0.5,0.2,0.8,0.3c0.4,0.1,0.9,0.2,1.5,0.3
						c1.1,0.2,2.4,0.3,3.7,0.3c1.1,0,2.1-0.1,3.1-0.2c0.2,0,0.3,0.1,0.3,0.3c0,0.1,0,0.2-0.1,0.2c0,0.1-0.1,0.1-0.2,0.1
						c-1,0.1-2,0.2-3.1,0.2c-1.4,0-2.7-0.1-3.8-0.3c-0.6-0.1-1.1-0.2-1.5-0.3c-0.4-0.1-0.7-0.2-1-0.4c-0.5,0.4-1.3,0.7-1.9,0.9
						c-0.7,0.2-1.5,0.4-2.4,0.5C44.9,88.3,43.9,88.3,42.9,88.3z M59.6,87.1C59.6,87.1,59.6,87.1,59.6,87.1
						C59.6,87.1,59.6,87.1,59.6,87.1z M73.9,88c-0.1,0-0.3,0-0.4,0c-0.1,0-0.2,0-0.2-0.1c-0.1-0.1-0.1-0.1-0.1-0.2
						c0-0.2,0.1-0.3,0.3-0.3c1.1,0,2.2,0,3.3-0.2c0.9-0.1,1.6-0.3,2.3-0.4c1.2-0.3,1.9-0.8,1.9-1.2c0-0.2,0.1-0.3,0.3-0.3
						c0.2,0,0.3,0.1,0.3,0.3c0,0.9-1.3,1.5-2.4,1.8c-0.7,0.2-1.5,0.4-2.4,0.5C75.9,88,74.9,88,73.9,88z M73.5,87.5
						C73.5,87.5,73.5,87.5,73.5,87.5C73.5,87.5,73.5,87.5,73.5,87.5z M42.9,85.3c-1,0-2-0.1-2.9-0.2c-0.9-0.1-1.7-0.3-2.4-0.5
						c-1.1-0.3-2.4-0.9-2.4-1.8c0-0.2,0.1-0.3,0.3-0.3s0.3,0.1,0.3,0.3c0,0.4,0.8,0.9,1.9,1.2c0.7,0.2,1.4,0.3,2.3,0.4
						c0.9,0.1,1.9,0.2,2.8,0.2c1,0,1.9-0.1,2.8-0.2c0.9-0.1,1.6-0.3,2.3-0.4c0.8-0.2,1.4-0.5,1.7-0.8l0,0l0,0C50,83.1,50,83,50,82.9
						c0-0.2,0.1-0.3,0.3-0.3c0.2,0,0.3,0.1,0.3,0.3c0,0.2,0,0.3-0.1,0.5c0.2,0.1,0.5,0.2,0.8,0.3c0.4,0.1,0.9,0.2,1.5,0.3
						c1.2,0.2,2.4,0.3,3.8,0.3c1,0,1.9-0.1,2.8-0.2c0.9-0.1,1.6-0.3,2.3-0.4c1.2-0.3,1.9-0.8,1.9-1.2c0-0.2,0.1-0.3,0.3-0.3
						c0.2,0,0.3,0.1,0.3,0.3c0,0.9-1.3,1.5-2.4,1.8c-0.7,0.2-1.5,0.4-2.4,0.5c-0.9,0.1-1.9,0.2-2.9,0.2c-1.4,0-2.7-0.1-3.9-0.3
						c-0.6-0.1-1.1-0.2-1.6-0.4c-0.4-0.1-0.7-0.2-1-0.4c-0.5,0.4-1.3,0.7-1.8,0.8c-0.7,0.2-1.5,0.4-2.4,0.5
						C44.9,85.3,43.9,85.3,42.9,85.3z M73.9,85.3c-0.8,0-1.6,0-2.3-0.1c-0.2,0-0.3-0.2-0.3-0.3c0-0.2,0.2-0.3,0.3-0.3
						c0.7,0.1,1.5,0.1,2.2,0.1c1,0,1.9-0.1,2.8-0.2c0.9-0.1,1.6-0.3,2.3-0.4c1.2-0.3,1.9-0.8,1.9-1.2c0-0.2,0.1-0.3,0.3-0.3
						c0.2,0,0.3,0.1,0.3,0.3c0,0.9-1.3,1.5-2.4,1.8c-0.7,0.2-1.5,0.4-2.4,0.5C75.9,85.2,74.9,85.3,73.9,85.3z M73.9,82.5
						c-1,0-2-0.1-2.9-0.2c-0.9-0.1-1.7-0.3-2.4-0.5c-1.1-0.3-2.4-0.9-2.4-1.8c0-0.2,0.1-0.3,0.3-0.3c0.2,0,0.3,0.1,0.3,0.3
						c0,0.4,0.8,0.9,1.9,1.2c0.7,0.2,1.4,0.3,2.3,0.4c0.9,0.1,1.9,0.2,2.8,0.2c1,0,1.9-0.1,2.8-0.2c0.9-0.1,1.6-0.3,2.3-0.4
						c1.2-0.3,1.9-0.8,1.9-1.2c0-0.2,0.1-0.3,0.3-0.3c0.2,0,0.3,0.1,0.3,0.3c0,0.9-1.3,1.5-2.4,1.8c-0.7,0.2-1.5,0.4-2.4,0.5
						C75.9,82.4,74.9,82.5,73.9,82.5z M56.6,82c-1.4,0-2.8-0.1-4-0.3c-0.6-0.1-1.1-0.2-1.6-0.4c-0.5-0.1-0.9-0.3-1.2-0.5
						c-0.1-0.1-0.2-0.3-0.1-0.4c0-0.1,0.1-0.1,0.2-0.1c0.1,0,0.2,0,0.2,0c0.3,0.2,0.6,0.3,1.1,0.4c0.4,0.1,0.9,0.3,1.5,0.4
						c1.2,0.2,2.5,0.3,3.9,0.3c1,0,1.9-0.1,2.8-0.2c0.9-0.1,1.6-0.3,2.3-0.4c1.2-0.3,1.9-0.8,1.9-1.2c0-0.2,0.1-0.3,0.3-0.3
						c0.2,0,0.3,0.1,0.3,0.3c0,0.9-1.3,1.5-2.4,1.8c-0.7,0.2-1.5,0.4-2.4,0.5C58.6,81.9,57.6,82,56.6,82z M73.9,79.7
						c-1,0-2-0.1-2.9-0.2c-0.9-0.1-1.7-0.3-2.4-0.5c-1.1-0.3-2.4-0.9-2.4-1.8c0-0.2,0.1-0.3,0.3-0.3c0.2,0,0.3,0.1,0.3,0.3
						c0,0.4,0.8,0.9,1.9,1.2c0.7,0.2,1.4,0.3,2.3,0.4c0.9,0.1,1.9,0.2,2.8,0.2c1,0,1.9-0.1,2.8-0.2c0.9-0.1,1.6-0.2,2.3-0.4
						c1.2-0.3,1.9-0.8,1.9-1.2c0-0.2,0.1-0.3,0.3-0.3c0.2,0,0.3,0.1,0.3,0.3c0,0.9-1.3,1.5-2.4,1.8c-0.7,0.2-1.5,0.4-2.4,0.5
						C75.9,79.6,74.9,79.7,73.9,79.7z M56.6,79.1c-1,0-2-0.1-2.9-0.2c-0.9-0.1-1.7-0.3-2.4-0.5c-1.1-0.3-2.4-0.9-2.4-1.8
						c0-0.2,0.1-0.3,0.3-0.3c0.2,0,0.3,0.1,0.3,0.3c0,0.4,0.8,0.9,1.9,1.2c0.7,0.2,1.4,0.3,2.3,0.4c0.9,0.1,1.9,0.2,2.8,0.2
						c1,0,1.9-0.1,2.8-0.2c0.9-0.1,1.6-0.3,2.3-0.4c1.2-0.3,1.9-0.8,1.9-1.2c0-0.2,0.1-0.3,0.3-0.3c0.2,0,0.3,0.1,0.3,0.3
						c0,0.9-1.3,1.5-2.4,1.8c-0.7,0.2-1.5,0.4-2.4,0.5C58.6,79,57.6,79.1,56.6,79.1z M73.9,76.9c-1,0-2-0.1-2.9-0.2
						c-0.9-0.1-1.7-0.3-2.4-0.5c-1.1-0.3-2.4-0.9-2.4-1.8c0-0.2,0.1-0.3,0.3-0.3c0.2,0,0.3,0.1,0.3,0.3c0,0.4,0.8,0.9,1.9,1.2
						c0.7,0.2,1.4,0.3,2.3,0.4c0.9,0.1,1.9,0.2,2.8,0.2c1,0,1.9-0.1,2.8-0.2c0.9-0.1,1.6-0.3,2.3-0.4c1.2-0.3,1.9-0.8,1.9-1.2
						c0-0.2,0.1-0.3,0.3-0.3c0.2,0,0.3,0.1,0.3,0.3c0,0.9-1.3,1.5-2.4,1.8c-0.7,0.2-1.5,0.4-2.4,0.5C75.9,76.9,74.9,76.9,73.9,76.9z
						 M56.6,76.2c-1,0-2-0.1-2.9-0.2c-0.9-0.1-1.7-0.3-2.4-0.5c-1.1-0.3-2.4-0.9-2.4-1.8c0-0.2,0.1-0.3,0.3-0.3
						c0.2,0,0.3,0.1,0.3,0.3c0,0.4,0.8,0.9,1.9,1.2c0.7,0.2,1.4,0.3,2.3,0.4c0.9,0.1,1.9,0.2,2.8,0.2c1,0,1.9-0.1,2.8-0.2
						c0.9-0.1,1.6-0.3,2.3-0.4c1.2-0.3,1.9-0.8,1.9-1.2c0-0.2,0.1-0.3,0.3-0.3c0.2,0,0.3,0.1,0.3,0.3c0,0.9-1.3,1.5-2.4,1.8
						c-0.7,0.2-1.5,0.4-2.4,0.5C58.6,76.1,57.6,76.2,56.6,76.2z M73.9,74.1c-1,0-2-0.1-2.9-0.2c-0.9-0.1-1.7-0.3-2.4-0.5
						c-1.1-0.3-2.4-0.9-2.4-1.8c0-0.2,0.1-0.3,0.3-0.3c0.2,0,0.3,0.1,0.3,0.3c0,0.4,0.8,0.9,1.9,1.2c0.7,0.2,1.4,0.3,2.3,0.4
						c0.9,0.1,1.9,0.2,2.8,0.2c1,0,1.9-0.1,2.8-0.2c0.9-0.1,1.6-0.3,2.3-0.4c1.2-0.3,1.9-0.8,1.9-1.2c0-0.2,0.1-0.3,0.3-0.3
						c0.2,0,0.3,0.1,0.3,0.3c0,0.9-1.3,1.5-2.4,1.8c-0.7,0.2-1.5,0.4-2.4,0.5C75.9,74.1,74.9,74.1,73.9,74.1z M56.6,73.3
						c-1,0-2-0.1-2.9-0.2c-0.9-0.1-1.7-0.3-2.4-0.5c-1.1-0.3-2.4-0.9-2.4-1.8c0-0.2,0.1-0.3,0.3-0.3c0.2,0,0.3,0.1,0.3,0.3
						c0,0.4,0.8,0.9,1.9,1.2c0.7,0.2,1.4,0.3,2.3,0.4c0.9,0.1,1.9,0.2,2.8,0.2c1,0,1.9-0.1,2.8-0.2c0.9-0.1,1.6-0.3,2.3-0.4
						c1.2-0.3,1.9-0.8,1.9-1.2c0-0.2,0.1-0.3,0.3-0.3c0.2,0,0.3,0.1,0.3,0.3c0,0.9-1.3,1.5-2.4,1.8c-0.7,0.2-1.5,0.4-2.4,0.5
						C58.6,73.2,57.6,73.3,56.6,73.3z M73.9,71.4c-1,0-2-0.1-2.9-0.2c-0.9-0.1-1.7-0.3-2.4-0.5c-1.1-0.3-2.4-0.9-2.4-1.8
						c0-0.2,0.1-0.3,0.3-0.3c0.2,0,0.3,0.1,0.3,0.3c0,0.4,0.8,0.9,1.9,1.2c0.7,0.2,1.4,0.3,2.3,0.4c0.9,0.1,1.9,0.2,2.8,0.2
						c1,0,1.9-0.1,2.8-0.2c0.9-0.1,1.6-0.3,2.3-0.4c1.2-0.3,1.9-0.8,1.9-1.2c0-0.2,0.1-0.3,0.3-0.3c0.2,0,0.3,0.1,0.3,0.3
						c0,0.9-1.3,1.5-2.4,1.8c-0.7,0.2-1.5,0.4-2.4,0.5C75.9,71.3,74.9,71.4,73.9,71.4z M56.6,70.4c-1,0-2-0.1-2.9-0.2
						c-0.9-0.1-1.7-0.3-2.4-0.5c-1.1-0.3-2.4-0.9-2.4-1.8c0-0.2,0.1-0.3,0.3-0.3c0.2,0,0.3,0.1,0.3,0.3c0,0.4,0.8,0.9,1.9,1.2
						c0.7,0.2,1.4,0.3,2.3,0.4c0.9,0.1,1.9,0.2,2.8,0.2c1,0,1.9-0.1,2.8-0.2c0.9-0.1,1.6-0.3,2.3-0.4c1.2-0.3,1.9-0.8,1.9-1.2
						c0-0.2,0.1-0.3,0.3-0.3c0.2,0,0.3,0.1,0.3,0.3c0,0.9-1.3,1.5-2.4,1.8c-0.7,0.2-1.5,0.4-2.4,0.5C58.6,70.3,57.6,70.4,56.6,70.4z
						 M56.6,67.5c-1,0-2-0.1-2.9-0.2c-0.9-0.1-1.7-0.3-2.4-0.5c-1.1-0.3-2.4-0.9-2.4-1.8c0-0.2,0.1-0.3,0.3-0.3
						c0.2,0,0.3,0.1,0.3,0.3c0,0.4,0.8,0.9,1.9,1.2c0.7,0.2,1.4,0.3,2.3,0.4c0.9,0.1,1.9,0.2,2.8,0.2c1,0,1.9-0.1,2.8-0.2
						c0.9-0.1,1.6-0.3,2.3-0.4c1.2-0.3,1.9-0.8,1.9-1.2c0-0.2,0.1-0.3,0.3-0.3c0.2,0,0.3,0.1,0.3,0.3c0,0.9-1.3,1.5-2.4,1.8
						c-0.7,0.2-1.5,0.4-2.4,0.5C58.6,67.4,57.6,67.5,56.6,67.5z M56.6,64.6c-1,0-2-0.1-2.9-0.2c-0.9-0.1-1.7-0.3-2.4-0.5
						c-1.1-0.3-2.4-0.9-2.4-1.8c0-0.2,0.1-0.3,0.3-0.3c0.2,0,0.3,0.1,0.3,0.3c0,0.4,0.8,0.9,1.9,1.2c0.7,0.2,1.4,0.3,2.3,0.4
						c0.9,0.1,1.9,0.2,2.8,0.2c1,0,1.9-0.1,2.8-0.2c0.9-0.1,1.6-0.3,2.3-0.4c1.2-0.3,1.9-0.8,1.9-1.2c0-0.2,0.1-0.3,0.3-0.3
						c0.2,0,0.3,0.1,0.3,0.3c0,0.9-1.3,1.5-2.4,1.8c-0.7,0.2-1.5,0.4-2.4,0.5C58.6,64.5,57.6,64.6,56.6,64.6z"/>
				</g>
			</g>
		</g>
	</g>
</g>
</svg>
