<?xml version="1.0" encoding="utf-8"?>
<!-- Generator: Adobe Illustrator 24.3.0, SVG Export Plug-In . SVG Version: 6.00 Build 0)  -->
<svg version="1.1" id="Layer_2" xmlns="http://www.w3.org/2000/svg" xmlns:xlink="http://www.w3.org/1999/xlink" x="0px" y="0px"
	 viewBox="0 0 1022.9 714" style="enable-background:new 0 0 1022.9 714;" xml:space="preserve">
<style type="text/css">
	.st0{fill:url(#SVGID_1_);}
	.st1{fill:url(#SVGID_2_);}
	.st2{fill:url(#SVGID_3_);}
	.st3{fill:url(#SVGID_4_);}
	.st4{fill:url(#SVGID_5_);}
	.st5{fill:url(#SVGID_6_);}
	.st6{fill:url(#SVGID_7_);}
	.st7{fill:url(#SVGID_8_);}
	.st8{fill:url(#SVGID_9_);}
	.st9{fill:#FEE9EE;}
	.st10{fill:#313440;}
	.st11{fill:#FFCB87;}
	.st12{fill:#EEAD59;}
	.st13{fill:#A3AEBC;}
	.st14{fill:#FFFFFF;}
	.st15{fill:#F9E3D0;}
	.st16{fill:#FF9776;}
	.st17{fill:#EDD8C8;}
	.st18{fill:#E86F61;}
	.st19{fill:#4E7291;}
	.st20{fill:#365C7D;}
	.st21{fill:#EFD3BD;}
	.st22{fill:#955E5B;}
	.st23{fill:#7D4845;}
	.st24{fill:#8495AB;}
	.st25{fill:#7B92BF;}
	.st26{fill:#F2764D;}
	.st27{fill:#A3C0D9;}
	.st28{fill:#7B4946;}
	.st29{fill:#613022;}
	.st30{fill:#DC8A63;}
	.st31{fill:#C7744C;}
	.st32{fill:#414457;}
	.st33{fill:#E85F4D;}
	.st34{fill:#381E13;}
	.st35{fill:#CC4E3D;}
	.st36{fill:#4C4E61;}
</style>
<g>
	
		<linearGradient id="SVGID_1_" gradientUnits="userSpaceOnUse" x1="-168.5502" y1="-555.75" x2="689.8767" y2="-555.75" gradientTransform="matrix(1 0 0 1 0 640)">
		<stop  offset="0" style="stop-color:#FFFFFF"/>
		<stop  offset="0.9665" style="stop-color:#FDB6C8"/>
	</linearGradient>
	<path class="st0" d="M19.8,148.7L148.7,19.8C90.9,44.5,44.5,90.9,19.8,148.7z"/>
	
		<linearGradient id="SVGID_2_" gradientUnits="userSpaceOnUse" x1="-168.5502" y1="-514.1" x2="689.8767" y2="-514.1" gradientTransform="matrix(1 0 0 1 0 640)">
		<stop  offset="0" style="stop-color:#FFFFFF"/>
		<stop  offset="0.9665" style="stop-color:#FDB6C8"/>
	</linearGradient>
	<path class="st1" d="M245.2,0c-8.1,0-16,0.4-23.9,1.2L1.2,221.3C0.4,229.2,0,237.1,0,245.2c0,2.2,0.1,4.4,0.2,6.6L251.9,0.2
		C249.6,0.1,247.4,0,245.2,0z"/>
	
		<linearGradient id="SVGID_3_" gradientUnits="userSpaceOnUse" x1="-168.5502" y1="-475.4" x2="689.8767" y2="-475.4" gradientTransform="matrix(1 0 0 1 0 640)">
		<stop  offset="0" style="stop-color:#FFFFFF"/>
		<stop  offset="0.9665" style="stop-color:#FDB6C8"/>
	</linearGradient>
	<path class="st2" d="M322.9,12.7c-7.5-2.5-15.2-4.7-23.1-6.5L6.2,299.9c1.8,7.8,3.9,15.5,6.5,23.1L322.9,12.7z"/>
	
		<linearGradient id="SVGID_4_" gradientUnits="userSpaceOnUse" x1="-168.5502" y1="-435.95" x2="689.8767" y2="-435.95" gradientTransform="matrix(1 0 0 1 0 640)">
		<stop  offset="0" style="stop-color:#FFFFFF"/>
		<stop  offset="0.9665" style="stop-color:#FDB6C8"/>
	</linearGradient>
	<path class="st3" d="M379.3,39.9c-6-3.9-12.2-7.6-18.5-11L28.9,360.7c3.4,6.4,7.1,12.5,11,18.5L379.3,39.9z"/>
	
		<linearGradient id="SVGID_5_" gradientUnits="userSpaceOnUse" x1="-168.5502" y1="-396" x2="689.8767" y2="-396" gradientTransform="matrix(1 0 0 1 0 640)">
		<stop  offset="0" style="stop-color:#FFFFFF"/>
		<stop  offset="0.9665" style="stop-color:#FDB6C8"/>
	</linearGradient>
	<path class="st4" d="M409.8,63.4L63.4,409.8c4.7,5.2,9.6,10.1,14.7,14.8L424.6,78.1C419.9,73,414.9,68.1,409.8,63.4z"/>
	
		<linearGradient id="SVGID_6_" gradientUnits="userSpaceOnUse" x1="-168.5502" y1="-356" x2="689.8767" y2="-356" gradientTransform="matrix(1 0 0 1 0 640)">
		<stop  offset="0" style="stop-color:#FFFFFF"/>
		<stop  offset="0.9665" style="stop-color:#FDB6C8"/>
	</linearGradient>
	<path class="st5" d="M459.8,126.5c-3.5-6.3-7.2-12.4-11.2-18.3L108.2,448.6c5.9,4,12.1,7.7,18.4,11.2L459.8,126.5z"/>
	
		<linearGradient id="SVGID_7_" gradientUnits="userSpaceOnUse" x1="-168.5502" y1="-316.45" x2="689.8767" y2="-316.45" gradientTransform="matrix(1 0 0 1 0 640)">
		<stop  offset="0" style="stop-color:#FFFFFF"/>
		<stop  offset="0.9665" style="stop-color:#FDB6C8"/>
	</linearGradient>
	<path class="st6" d="M483.3,186.6c-1.9-7.7-4.2-15.3-6.8-22.8L163.8,476.5c7.4,2.6,15,4.9,22.8,6.8L483.3,186.6z"/>
	
		<linearGradient id="SVGID_8_" gradientUnits="userSpaceOnUse" x1="-168.5502" y1="-277.9" x2="689.8767" y2="-277.9" gradientTransform="matrix(1 0 0 1 0 640)">
		<stop  offset="0" style="stop-color:#FFFFFF"/>
		<stop  offset="0.9665" style="stop-color:#FDB6C8"/>
	</linearGradient>
	<path class="st7" d="M490.4,245.2c0-3.8-0.1-7.6-0.3-11.4L233.8,490.1c3.8,0.2,7.6,0.3,11.4,0.3c6.3,0,12.5-0.3,18.6-0.8
		l225.8-225.8C490.1,257.7,490.4,251.5,490.4,245.2z"/>
	
		<linearGradient id="SVGID_9_" gradientUnits="userSpaceOnUse" x1="-168.5502" y1="-236.25" x2="689.8767" y2="-236.25" gradientTransform="matrix(1 0 0 1 0 640)">
		<stop  offset="0" style="stop-color:#FFFFFF"/>
		<stop  offset="0.9665" style="stop-color:#FDB6C8"/>
	</linearGradient>
	<path class="st8" d="M421.5,415.6c22.6-23.4,40.5-51.2,52.5-82L333.6,473.9c30.8-11.9,58.7-29.9,82-52.5L421.5,415.6z"/>
</g>
<g>
	<g>
		<path class="st9" d="M1017.3,236.7c-10.9-27.8-37.3-45.9-64.8-55.2c-35.6-11.9-73.9-10.2-110.8-13.3c-38.1-3.2-75.9-10-112.5-21.1
			c-35.1-10.7-68-26-100.2-43.4c-29.7-16.1-59.1-33.3-90.7-45.4c-37.7-14.4-85.4-25-121.7-1.5c-13.2,8.5-25.4,21.6-31.7,36
			c-6.9,15.7-10.6,34.5-21.3,48.2c-10.7,13.6-29,19.8-44.6,25.7c-30.7,11.6-59.6,28.3-82.6,52c-59.1,60.8-55.9,173,9.5,228.3
			c11.5,9.7,25.5,15.6,40.1,18.6c33.3,6.8,68.5,0.7,101.8-3.8c78.3-10.5,156-25.9,232.5-46c38-10,76.3-24.1,116-24.9
			c35.7-0.7,70.3,11.1,101.1,28.4c1.2,0.7,2.4,1.3,3.6,2c-5.2,1-10.4,1.8-15.6,2.6c-0.3,0-0.2,0.5,0.1,0.4
			c5.4-0.7,10.8-1.6,16.1-2.7c13.7,8,26.8,17.1,39.3,26.9c0.2,0.2,0.6-0.1,0.3-0.3c-12.4-9.7-25.3-18.7-38.9-26.7
			c29.4-5.7,58-15.8,84.5-29.8c28.9-15.4,57.1-35.5,75.9-62.8C1020.8,302.6,1029.4,267.4,1017.3,236.7z"/>
	</g>
	<g>
		<g>
			
				<rect x="492" y="161.4" transform="matrix(0.2081 -0.9781 0.9781 0.2081 230.3907 611.2902)" class="st10" width="1.5" height="4"/>
		</g>
		<g>
			<path class="st11" d="M500.8,170.8l0.5-2.5l-8.1-1.7l0.4-2c0.3-1.4,1.7-2.3,3.1-2l14,3c1.4,0.3,2.3,1.7,2,3.1l-45.3,212.8
				l-19.1-4.1l44.3-208.3L500.8,170.8z"/>
		</g>
		<g>
			<path class="st11" d="M501,169.9l0.2-0.7c0.1-0.5-0.2-1-0.7-1.1l-7.5-1.6c-0.5-0.1-0.8-0.6-0.7-1.1l0,0c0.6-2.6,3.1-4.3,5.7-3.7
				l12,2.5c2.6,0.6,4.3,3.1,3.7,5.7l-17,79.8c-0.1,0.5-0.6,0.8-1.1,0.7l-19.7-4.2c-0.5-0.1-0.8-0.6-0.7-1.1l16.1-75.5
				c0.1-0.5,0.6-0.8,1.1-0.7l7.5,1.6C500.4,170.7,500.9,170.4,501,169.9z"/>
		</g>
		<g>
			<path class="st10" d="M476.7,229l0.3,0.1l14.2-66.7l-1-0.2c-0.6-0.1-1.1,0.2-1.2,0.8l-13.6,64C475.2,227.9,475.8,228.8,476.7,229
				z"/>
		</g>
		<g>
			<path class="st10" d="M478.3,224.4l-0.3-0.1l-1,4.8l0.3,0.1c0.7,0.2,1.4-0.3,1.6-1l0.5-2.1C479.5,225.2,479,224.5,478.3,224.4z"
				/>
		</g>
		<g>
			<path class="st12" d="M493.6,250.4h-0.1l-16.4-3.5c-0.2-0.1-0.4-0.3-0.3-0.5s0.3-0.4,0.5-0.3l16.4,3.5c0.2,0.1,0.4,0.3,0.3,0.5
				C494,250.3,493.8,250.4,493.6,250.4z"/>
		</g>
		<g>
			<path class="st12" d="M511.5,172.2h-0.1l-9-1.9c-0.2-0.1-0.4-0.3-0.4-0.5c0.1-0.2,0.3-0.4,0.5-0.4l9,1.9c0.2,0.1,0.4,0.3,0.4,0.5
				C511.9,172.1,511.7,172.2,511.5,172.2z"/>
		</g>
	</g>
	<g>
		<g>
			<path class="st13" d="M430.1,292l16.1-144.3c0.1-1.2,1.2-2,2.3-1.9l31.9,2.8c1.2,0.1,2.1,1.2,1.9,2.4l-15.1,143.7L430.1,292z"/>
		</g>
		<g>
			<path class="st14" d="M479.8,152.9C479.7,152.9,479.7,152.9,479.8,152.9l-7.4-0.7c-0.2,0-0.4-0.2-0.4-0.5c0-0.2,0.2-0.4,0.5-0.4
				l7.4,0.7c0.2,0,0.4,0.2,0.4,0.5C480.2,152.8,480,152.9,479.8,152.9z"/>
		</g>
		<g>
			<path class="st14" d="M478.9,161.9L478.9,161.9l-3.4-0.3c-0.2,0-0.4-0.2-0.4-0.5c0-0.2,0.2-0.4,0.5-0.4l3.4,0.3
				c0.2,0,0.4,0.2,0.4,0.5C479.3,161.7,479.1,161.9,478.9,161.9z"/>
		</g>
		<g>
			<path class="st14" d="M478.4,170.9L478.4,170.9l-7.4-0.7c-0.2,0-0.4-0.2-0.4-0.5c0-0.2,0.2-0.4,0.5-0.4l7.4,0.7
				c0.2,0,0.4,0.2,0.4,0.5C478.8,170.7,478.6,170.9,478.4,170.9z"/>
		</g>
		<g>
			<path class="st14" d="M477.5,179.9L477.5,179.9l-3.4-0.3c-0.2,0-0.4-0.2-0.4-0.5c0-0.2,0.2-0.4,0.5-0.4l3.4,0.3
				c0.2,0,0.4,0.2,0.4,0.5C478,179.7,477.8,179.9,477.5,179.9z"/>
		</g>
		<g>
			<path class="st14" d="M476.2,188.8L476.2,188.8l-7.4-0.7c-0.2,0-0.4-0.2-0.4-0.5c0-0.2,0.2-0.4,0.5-0.4l7.4,0.7
				c0.2,0,0.4,0.2,0.4,0.5C476.7,188.7,476.5,188.8,476.2,188.8z"/>
		</g>
		<g>
			<path class="st14" d="M475.4,197.8L475.4,197.8l-3.4-0.3c-0.2,0-0.4-0.2-0.4-0.5c0-0.2,0.2-0.4,0.5-0.4l3.4,0.3
				c0.2,0,0.4,0.2,0.4,0.5C475.8,197.6,475.6,197.8,475.4,197.8z"/>
		</g>
		<g>
			<path class="st14" d="M474.9,206.8C474.9,206.8,474.8,206.8,474.9,206.8l-7.4-0.7c-0.2,0-0.4-0.2-0.4-0.5c0-0.2,0.2-0.4,0.5-0.4
				l7.4,0.7c0.2,0,0.4,0.2,0.4,0.5C475.3,206.6,475.1,206.8,474.9,206.8z"/>
		</g>
		<g>
			<path class="st14" d="M474,215.8L474,215.8l-3.4-0.3c-0.2,0-0.4-0.2-0.4-0.5c0-0.2,0.3-0.4,0.5-0.4l3.4,0.3
				c0.2,0,0.4,0.2,0.4,0.5C474.5,215.6,474.3,215.8,474,215.8z"/>
		</g>
		<g>
			<path class="st14" d="M473.2,224.8L473.2,224.8l-7.4-0.7c-0.2,0-0.4-0.2-0.4-0.5c0-0.2,0.2-0.4,0.5-0.4l7.4,0.7
				c0.2,0,0.4,0.2,0.4,0.5C473.6,224.6,473.4,224.8,473.2,224.8z"/>
		</g>
		<g>
			<path class="st14" d="M472.4,233.7L472.4,233.7l-3.4-0.3c-0.2,0-0.4-0.2-0.4-0.5c0-0.2,0.2-0.4,0.5-0.4l3.4,0.3
				c0.2,0,0.4,0.2,0.4,0.5C472.8,233.6,472.6,233.7,472.4,233.7z"/>
		</g>
		<g>
			<path class="st14" d="M471.8,242.7L471.8,242.7l-7.4-0.7c-0.2,0-0.4-0.2-0.4-0.5c0-0.2,0.2-0.4,0.5-0.4l7.4,0.7
				c0.2,0,0.4,0.2,0.4,0.5S472.1,242.7,471.8,242.7z"/>
		</g>
		<g>
			<path class="st14" d="M471,251.7L471,251.7l-3.4-0.3c-0.2,0-0.4-0.2-0.4-0.5c0-0.2,0.3-0.4,0.5-0.4l3.4,0.3
				c0.2,0,0.4,0.2,0.4,0.5C471.4,251.5,471.2,251.7,471,251.7z"/>
		</g>
		<g>
			<path class="st14" d="M469.7,260.7L469.7,260.7l-7.4-0.7c-0.2,0-0.4-0.2-0.4-0.5c0-0.2,0.3-0.4,0.5-0.4l7.4,0.7
				c0.2,0,0.4,0.2,0.4,0.5C470.1,260.5,469.9,260.7,469.7,260.7z"/>
		</g>
		<g>
			<path class="st14" d="M468.9,269.6C468.9,269.6,468.8,269.6,468.9,269.6l-3.4-0.3c-0.2,0-0.4-0.2-0.4-0.5c0-0.2,0.2-0.4,0.5-0.4
				l3.4,0.3c0.2,0,0.4,0.2,0.4,0.5C469.3,269.5,469.1,269.6,468.9,269.6z"/>
		</g>
		<g>
			<path class="st14" d="M468.3,278.6L468.3,278.6l-7.4-0.6c-0.2,0-0.4-0.2-0.4-0.5c0-0.2,0.2-0.4,0.5-0.4l7.4,0.7
				c0.2,0,0.4,0.2,0.4,0.5C468.8,278.5,468.6,278.6,468.3,278.6z"/>
		</g>
	</g>
	<g>
		<g>
			<g>
				<path class="st14" d="M434.3,173.7l0.4,3.8l0.3,3.4l0.4,3.8l13,135.4l-14,1.3l-13-135.4l-0.4-3.7l-0.4-4.1l-0.3-3.1
					c-0.2-2,1.3-3.8,3.3-4l6.7-0.6C432.3,170.2,434.1,171.7,434.3,173.7z"/>
			</g>
		</g>
		<g>
			<path class="st15" d="M434.7,177.5l0.3,3.4l0.4,3.8l-14,1.3l-0.4-3.7l-0.4-4.1C425.6,177.8,431.6,177.6,434.7,177.5z"/>
		</g>
		<g>
			<path class="st16" d="M434.3,173.7l0.7,7.2c-4.6,0.5-9.9,1-14,1.4l-0.7-7.3c-0.2-2,1.3-3.8,3.3-4l6.7-0.6
				C432.3,170.2,434.1,171.7,434.3,173.7z"/>
		</g>
		<g>
			<path class="st17" d="M436.5,300.7c-0.2,0-0.4-0.2-0.5-0.4l-10.7-111.8c0-0.2,0.2-0.5,0.4-0.5c0.2,0,0.5,0.2,0.5,0.4l10.7,111.8
				C437,300.4,436.8,300.6,436.5,300.7C436.6,300.7,436.5,300.7,436.5,300.7z"/>
		</g>
		<g>
			<path class="st17" d="M441.9,300c-0.2,0-0.4-0.2-0.5-0.4l-10.7-111.8c0-0.2,0.2-0.5,0.4-0.5c0.3,0,0.5,0.2,0.5,0.4l10.7,111.8
				C442.3,299.8,442.2,300,441.9,300L441.9,300z"/>
		</g>
	</g>
	<g>
		<g>
			<polygon class="st14" points="367.9,370.4 357.4,428.6 403.9,430.3 404.9,370.4 			"/>
		</g>
		<g>
			<path class="st18" d="M423.4,373.1h-57.3c-1.6,0-2.9-1.3-2.9-2.9V369c0-1.6,1.3-2.9,2.9-2.9h57.3V373.1z"/>
		</g>
		<g>
			<path class="st18" d="M417.7,432.7h-63.1c-1.6,0-3-1.3-3-3v-1.2c0-1.6,1.3-3,3-3h63.1V432.7z"/>
		</g>
		<g>
			<path class="st17" d="M400.4,379.4h-31.7c-0.3,0-0.5-0.2-0.5-0.5s0.2-0.5,0.5-0.5h31.7c0.3,0,0.5,0.2,0.5,0.5
				C400.9,379.2,400.7,379.4,400.4,379.4z"/>
		</g>
		<g>
			<path class="st17" d="M399.9,385.2h-31.7c-0.3,0-0.5-0.2-0.5-0.5s0.2-0.5,0.5-0.5h31.7c0.3,0,0.5,0.2,0.5,0.5
				C400.3,385,400.1,385.2,399.9,385.2z"/>
		</g>
		<g>
			<path class="st17" d="M399.3,391.1h-31.7c-0.3,0-0.5-0.2-0.5-0.5s0.2-0.5,0.5-0.5h31.7c0.3,0,0.5,0.2,0.5,0.5
				S399.5,391.1,399.3,391.1z"/>
		</g>
		<g>
			<path class="st17" d="M398.7,397H367c-0.3,0-0.5-0.2-0.5-0.5s0.2-0.5,0.5-0.5h31.7c0.3,0,0.5,0.2,0.5,0.5S399,397,398.7,397z"/>
		</g>
		<g>
			<path class="st17" d="M397.7,402.8H366c-0.3,0-0.5-0.2-0.5-0.5s0.2-0.5,0.5-0.5h31.7c0.3,0,0.5,0.2,0.5,0.5
				S398,402.8,397.7,402.8z"/>
		</g>
		<g>
			<path class="st17" d="M396.7,408.7H365c-0.3,0-0.5-0.2-0.5-0.5s0.2-0.5,0.5-0.5h31.7c0.3,0,0.5,0.2,0.5,0.5
				C397.1,408.5,396.9,408.7,396.7,408.7z"/>
		</g>
		<g>
			<path class="st17" d="M396.1,414.6h-31.7c-0.3,0-0.5-0.2-0.5-0.5s0.2-0.5,0.5-0.5h31.7c0.3,0,0.5,0.2,0.5,0.5
				S396.4,414.6,396.1,414.6z"/>
		</g>
		<g>
			<path class="st17" d="M394.6,420.4h-31.7c-0.3,0-0.5-0.2-0.5-0.5s0.2-0.5,0.5-0.5h31.7c0.3,0,0.5,0.2,0.5,0.5
				S394.9,420.4,394.6,420.4z"/>
		</g>
	</g>
	<g>
		<g>
			<path class="st19" d="M876.1,194.7h89.2c1.7,0,2.9,1.5,2.7,3.1l-35.5,254.3c-0.2,1.3-1.3,2.3-2.7,2.3H762L876.1,194.7z"/>
		</g>
		<g>
			<path class="st20" d="M880.8,453.1L880.8,453.1c-0.3,0-0.5-0.3-0.4-0.5l37.3-254c0-0.2,0.3-0.4,0.5-0.4s0.4,0.3,0.4,0.5
				l-37.3,254C881.3,452.9,881.1,453.1,880.8,453.1z"/>
		</g>
		<g>
			<path class="st14" d="M958.6,213.6L957,224l-14.7,105c-0.2,1.2-1.2,2-2.3,2h-28.4c-1.5,0-2.6-1.3-2.3-2.7L923.6,224l1.6-11.1
				c0.2-1.2,1.2-2,2.3-2h28.6C957.7,210.8,958.8,212.1,958.6,213.6z"/>
		</g>
		<g>
			<path class="st15" d="M958.6,213.6L957,224h-33.4l1.6-11.1c0.2-1.2,1.2-2,2.3-2h28.6C957.7,210.8,958.8,212.1,958.6,213.6z"/>
		</g>
		<g>
			<path class="st17" d="M936.8,230.9h-9.3c-0.5,0-0.9-0.4-0.9-0.9s0.4-0.9,0.9-0.9h9.3c0.5,0,0.9,0.4,0.9,0.9
				S937.3,230.9,936.8,230.9z"/>
		</g>
		<g>
			<path class="st17" d="M952.8,230.9h-11.7c-0.5,0-0.9-0.4-0.9-0.9s0.4-0.9,0.9-0.9h11.7c0.5,0,0.9,0.4,0.9,0.9
				S953.3,230.9,952.8,230.9z"/>
		</g>
		<g>
			<path class="st17" d="M950.9,246.8h-25.5c-0.3,0-0.5-0.2-0.5-0.5s0.2-0.5,0.5-0.5h25.5c0.3,0,0.5,0.2,0.5,0.5
				S951.2,246.8,950.9,246.8z"/>
		</g>
		<g>
			<path class="st17" d="M950,252.7h-25.5c-0.3,0-0.5-0.2-0.5-0.5s0.2-0.5,0.5-0.5H950c0.3,0,0.5,0.2,0.5,0.5
				C950.5,252.4,950.3,252.7,950,252.7z"/>
		</g>
		<g>
			<path class="st17" d="M949.2,258.5h-25.5c-0.3,0-0.5-0.2-0.5-0.5s0.2-0.5,0.5-0.5h25.5c0.3,0,0.5,0.2,0.5,0.5
				C949.6,258.3,949.4,258.5,949.2,258.5z"/>
		</g>
		<g>
			<path class="st17" d="M948.3,264.4h-25.5c-0.3,0-0.5-0.2-0.5-0.5s0.2-0.5,0.5-0.5h25.5c0.3,0,0.5,0.2,0.5,0.5
				S948.6,264.4,948.3,264.4z"/>
		</g>
		<g>
			<path class="st17" d="M947.7,270h-25.5c-0.3,0-0.5-0.2-0.5-0.5s0.2-0.5,0.5-0.5h25.5c0.3,0,0.5,0.2,0.5,0.5S947.9,270,947.7,270z
				"/>
		</g>
		<g>
			<path class="st17" d="M936.8,275.3h-15.7c-0.3,0-0.5-0.2-0.5-0.5s0.2-0.5,0.5-0.5h15.7c0.3,0,0.5,0.2,0.5,0.5
				C937.3,275.1,937.1,275.3,936.8,275.3z"/>
		</g>
		<g>
			<path class="st17" d="M940.6,316.8h-25.5c-0.3,0-0.5-0.2-0.5-0.5s0.2-0.5,0.5-0.5h25.5c0.3,0,0.5,0.2,0.5,0.5
				C941.1,316.6,940.9,316.8,940.6,316.8z"/>
		</g>
		<g>
			<path class="st17" d="M940,323h-25.6c-0.3,0-0.5-0.2-0.5-0.5s0.2-0.5,0.5-0.5H940c0.3,0,0.5,0.2,0.5,0.5S940.3,323,940,323z"/>
		</g>
		<g>
			<g>
				
					<ellipse transform="matrix(0.1652 -0.9863 0.9863 0.1652 383.5645 1232.037)" class="st14" cx="919.6" cy="389.4" rx="19.8" ry="12.4"/>
			</g>
			<g>
				<path class="st21" d="M928.3,391c-1.4,8.5-6.6,14.8-11.5,14c-0.1,0-0.1,0-0.2,0c-0.1,0-0.3-0.1-0.4-0.1
					c-4.5-1.3-7.1-8.6-5.7-16.8c1.2-7.3,5.2-13,9.4-13.9c0.2,0,0.3-0.1,0.5-0.1c0.5-0.1,1.1-0.1,1.6,0
					C926.9,374.8,929.8,382.4,928.3,391z"/>
			</g>
			<g>
				<path class="st10" d="M925.6,390.9c-1.2,7.3-5.2,13-9.4,13.9c-4.5-1.3-7.1-8.6-5.7-16.8c1.2-7.3,5.2-13,9.4-13.9
					C924.5,375.4,927,382.7,925.6,390.9z"/>
			</g>
		</g>
	</g>
	<g>
		<g>
			<path class="st11" d="M813.5,183.8h93.3c1.7,0,2.9,1.5,2.7,3.1l-39.6,265.2c-0.2,1.3-1.3,2.3-2.7,2.3H699.4L813.5,183.8z"/>
		</g>
		<g>
			<path class="st12" d="M818.2,453.1L818.2,453.1c-0.3,0-0.5-0.3-0.4-0.5l41.4-264.9c0-0.2,0.3-0.4,0.5-0.4s0.4,0.3,0.4,0.5
				l-41.4,264.9C818.6,452.9,818.4,453.1,818.2,453.1z"/>
		</g>
		<g>
			
				<ellipse transform="matrix(0.1652 -0.9863 0.9863 0.1652 333.468 1168.647)" class="st14" cx="857.1" cy="387.3" rx="19.8" ry="12.4"/>
		</g>
		<g>
			<path class="st21" d="M865.9,388.9c-1.4,8.5-6.6,14.8-11.5,14c-0.1,0-0.1,0-0.2,0c-0.1,0-0.3-0.1-0.4-0.1
				c-4.5-1.3-7.1-8.6-5.7-16.8c1.2-7.3,5.2-13,9.4-13.9c0.2,0,0.3-0.1,0.5-0.1c0.5-0.1,1.1-0.1,1.6,0
				C864.5,372.8,867.4,380.4,865.9,388.9z"/>
		</g>
		<g>
			<path class="st10" d="M863.2,388.8c-1.2,7.3-5.2,13-9.4,13.9c-4.5-1.3-7.1-8.6-5.7-16.8c1.2-7.3,5.2-13,9.4-13.9
				C862.1,373.4,864.6,380.6,863.2,388.8z"/>
		</g>
		<g>
			<path class="st14" d="M899.6,202.7l-1.6,10.4l-16.5,110c-0.2,1.2-1.2,2-2.3,2h-28.4c-1.5,0-2.6-1.3-2.3-2.7l16.2-109.3l1.6-11.1
				c0.2-1.2,1.2-2,2.3-2h28.6C898.7,199.9,899.8,201.2,899.6,202.7z"/>
		</g>
		<g>
			<path class="st15" d="M899.6,202.7l-1.6,10.4h-33.4l1.6-11.1c0.2-1.2,1.2-2,2.3-2h28.6C898.7,199.9,899.8,201.2,899.6,202.7z"/>
		</g>
		<g>
			<path class="st17" d="M893,220h-24.5c-0.5,0-0.9-0.4-0.9-0.9s0.4-0.9,0.9-0.9H893c0.5,0,0.9,0.4,0.9,0.9S893.5,220,893,220z"/>
		</g>
		<g>
			<path class="st17" d="M891,235.9h-25.5c-0.3,0-0.5-0.2-0.5-0.5s0.2-0.5,0.5-0.5H891c0.3,0,0.5,0.2,0.5,0.5S891.2,235.9,891,235.9
				z"/>
		</g>
		<g>
			<path class="st17" d="M890.1,241.8h-25.5c-0.3,0-0.5-0.2-0.5-0.5s0.2-0.5,0.5-0.5h25.5c0.3,0,0.5,0.2,0.5,0.5
				S890.4,241.8,890.1,241.8z"/>
		</g>
		<g>
			<path class="st17" d="M889.3,247.7h-25.5c-0.3,0-0.5-0.2-0.5-0.5s0.2-0.5,0.5-0.5h25.5c0.3,0,0.5,0.2,0.5,0.5
				C889.7,247.5,889.5,247.7,889.3,247.7z"/>
		</g>
		<g>
			<path class="st17" d="M888.4,253.6h-25.5c-0.3,0-0.5-0.2-0.5-0.5s0.2-0.5,0.5-0.5h25.5c0.3,0,0.5,0.2,0.5,0.5
				C888.9,253.4,888.7,253.6,888.4,253.6z"/>
		</g>
		<g>
			<path class="st17" d="M879.8,310.9h-25.5c-0.3,0-0.5-0.2-0.5-0.5s0.2-0.5,0.5-0.5h25.5c0.3,0,0.5,0.2,0.5,0.5
				S880.1,310.9,879.8,310.9z"/>
		</g>
		<g>
			<path class="st17" d="M873.2,317.1h-19.6c-0.3,0-0.5-0.2-0.5-0.5s0.2-0.5,0.5-0.5h19.6c0.3,0,0.5,0.2,0.5,0.5
				S873.5,317.1,873.2,317.1z"/>
		</g>
	</g>
	<g>
		<g>
			<path class="st22" d="M506.5,267.4c0,0-3.6,10.9-9,27l-0.3,1c-1.2,3.5-2.4,7.2-3.7,11.2c-0.1,0.3-0.2,0.6-0.3,0.9
				c-1.3,3.9-2.7,8-4.1,12.1c-0.1,0.3-0.2,0.6-0.3,0.9c-1.6,4.8-3.3,9.7-5,14.7c-0.1,0.3-0.2,0.6-0.3,1c-1.8,5.4-3.7,10.9-5.5,16.3
				c-0.1,0.3-0.2,0.6-0.3,0.9c-12.7,37.4-25.2,73.1-26.9,74.7c-3.5,3.4-63,21.6-63,21.6l2.6-17.4l0.1-0.9l0.6-3.8l0.1-0.9l2.7-17.9
				l0.1-0.9l1-6.5l0.1-0.9l2-13.1l0.1-1l0.9-6.2l0.1-1l1.5-9.8l0.1-0.9l1.2-8.2l0.1-0.9l0.9-5.8l0.1-0.9l1-6.8l0.1-0.9l0.9-6.2
				l0.1-0.9l1.4-9.3l0.1-0.9l0.5-3.6l0.1-0.9l1.2-8.1l0.1-0.9l0.4-2.9l0.1-0.7l0.5-3.7l0.1-0.9l0.9-6.3l0.1-0.9l1.7-11.2l0.1-1
				l1.8-12.4l0.1-0.9l0.7-4.4c0.1-0.8,0.8-1.5,1.7-1.5L506.5,267.4L506.5,267.4z"/>
		</g>
		<g>
			<path class="st23" d="M496.3,283.3c-4.1-1.6-8.3-3.1-12.4-4.7c-4.7-1.7-8.8-2.2-13.8-1.3c-8.2,1.5-15.9,4.4-23.5,7.8
				c-3.5,1.5-7,3-10.8,3.5c-3.5,0.5-6.8-0.2-10.2-0.8c-4.6-0.8-9.2-0.9-13.8-0.3l0.1-1c3.8-0.5,7.6-0.5,11.4,0
				c4.6,0.6,9.1,1.8,13.8,0.9c4.2-0.8,8.1-2.8,12-4.5c7.2-3.2,14.8-5.7,22.6-6.8c8.7-1.2,16.9,3.3,24.8,6.3
				C497.1,282.7,496.9,283.5,496.3,283.3z"/>
		</g>
		<g>
			<path class="st23" d="M518.7,288.1c-6.5-1.5-12.9-2.8-19.6-1.9c-6.8,1-13.2,3.8-19.8,5.6c-13.8,3.8-28.5,3.2-42-1.4
				c-0.6-0.2-0.8,0.7-0.2,0.9c12.6,4.3,26.3,5.1,39.3,2.2c6.7-1.5,13.1-4.3,19.8-5.8c7.6-1.7,14.8-0.4,22.3,1.3
				C519.1,289.1,519.3,288.2,518.7,288.1z"/>
		</g>
		<g>
			<path class="st23" d="M486,281.3c-5.1-2.2-10.7-1.3-16-0.9c-2.6,0.2-5.3,0.4-7.7,1.5c-2.4,1-4.4,2.6-7,3.3
				c-0.6,0.2-0.3,1,0.2,0.9c1.9-0.5,3.5-1.4,5.2-2.4c2.7-1.5,5.4-2,8.4-2.3c5.4-0.4,11.3-1.5,16.4,0.7
				C486.1,282.4,486.6,281.6,486,281.3z"/>
		</g>
		<g>
			<path class="st23" d="M485.6,285.9c-11.7,4.4-24.3,5.2-36.5,2.3c-0.6-0.1-0.8,0.7-0.2,0.9c12.3,2.9,25.1,2.1,36.9-2.3
				C486.4,286.5,486.1,285.7,485.6,285.9z"/>
		</g>
		<g>
			<path class="st23" d="M478.5,284.1c-2.5,0.2-5.1,0.5-7.6,1c-0.6,0.1-0.3,1,0.2,0.9c2.4-0.4,4.9-0.7,7.3-0.9
				C479.1,285,479.1,284.1,478.5,284.1z"/>
		</g>
		<g>
			<path class="st23" d="M475.6,267.4c-2.9,0.6-5.8,1.4-8.5,2.5c-2.9,1.1-5.7,2.7-8.6,3.8c-3,1.1-6.1,1.6-9.2,1.9
				c-6.9,0.7-13.8,1.1-20.6,0.2c-5-0.7-9.8-1.2-14.8-1.5l0.1-0.9c4.2,0.2,8.5,0.6,12.7,1.3c7.3,1.1,14.4,0.8,21.7,0.2
				c3.6-0.3,7.2-0.9,10.6-2.2c2.9-1.2,5.7-2.7,8.7-3.8c1.4-0.5,2.8-0.9,4.2-1.3h3.7L475.6,267.4L475.6,267.4z"/>
		</g>
		<g>
			<path class="st23" d="M451.8,267.4c-9.1,1.9-18.6,2-27.8,0h5.3c5.7,0.7,11.4,0.7,17,0H451.8z"/>
		</g>
		<g>
			<path class="st23" d="M501.7,295.1c-1.5-0.1-3,0.1-4.5,0.3c-3,0.5-5.9,1.5-8.8,2.4c-3.8,1.3-7.5,2.6-11.1,4.1
				c-6.8,2.8-13.3,6-20.3,8.1c-6.4,2-13.1,3.2-19.8,3.7c-6.7,0.5-13.4,0.3-20.1-0.7c-3-0.4-5.9-1.2-8.8-1.9l0.1-0.7
				c3.6,0.9,7.2,1.6,10.8,2c14,1.7,28.5,0.1,41.7-4.7c6.9-2.5,13.5-5.8,20.4-8.4c5.1-1.9,10.6-4.3,16.1-5c1.4-0.2,2.8-0.3,4.2-0.2
				C502.2,294.2,502.2,295.1,501.7,295.1z"/>
		</g>
		<g>
			<path class="st23" d="M454.5,306c-8.7,3.5-18.1,4.4-27.5,3.7c-4.6-0.3-9.2-1-13.7-1.9c-1.4-0.3-2.9-0.6-4.3-0.9l0.1-0.9
				c1.7,0.4,3.5,0.7,5.3,1.1c4.4,0.9,8.9,1.5,13.5,1.8c8.5,0.6,17-0.2,25-3.2c-14-3.5-28.4-5.5-42.8-5.9l0.1-0.9
				c14.9,0.5,29.8,2.6,44.3,6.3C454.9,305.2,454.8,305.8,454.5,306z"/>
		</g>
		<g>
			<path class="st23" d="M405.7,328.5l0.1-0.9c1.4-0.1,2.9-0.1,4.3-0.1c7.1,0.2,14.1,1.5,21.1,2.1c7.8,0.6,15.2-0.2,22.3-3.7
				c6.2-3.1,12.1-5.8,19.1-6.8c5.4-0.7,10.9-0.6,16.3,0.5c1.4,0.3,2.8,0.6,4.2,1.1c0.6,0.2,0.3,1-0.2,0.9c-1.4-0.4-2.8-0.8-4.3-1.1
				c-6.7-1.3-13.5-1.3-20.2,0.3c-6.9,1.6-12.6,5.5-19.1,7.9c-6.3,2.3-13.1,2.3-19.8,1.7C421.9,329.7,413.6,328.1,405.7,328.5z"/>
		</g>
		<g>
			<path class="st23" d="M505.1,328.9c-6.7,3.7-14.1,6.2-21.7,7.3c-0.6,0.1-1.2,0.2-1.7,0.2c-3.9,0.5-7.8,0.6-11.7,0.3
				c-4-0.3-8-1.2-12-1.6c-8.8-0.9-17.3,1.4-25.7,3.6c-3.7,1-7.5,2.2-11.4,2.3c-3.9,0.1-7.9-0.7-11.7-1.3c-1.7-0.3-3.3-0.6-5-1
				l0.1-0.9c3.2,0.9,6.6,1.3,9.9,1.8c4.4,0.6,8.5,0.6,12.9-0.4c3.9-0.9,7.7-2.1,11.5-3c7.1-1.7,14.3-2.7,21.6-1.7
				c7.9,1.2,15.5,1.9,23.4,0.7h0.1c7.3-1.1,14.3-3.6,20.8-7.1C505.1,327.8,505.6,328.6,505.1,328.9z"/>
		</g>
		<g>
			<path class="st23" d="M492.7,327.2c-10.7,2-21.7,4-32.5,1.8c9.2-3.6,19.2-4.6,29-3c0.6,0.1,0.8-0.8,0.2-0.9
				c-10.5-1.7-21.1-0.5-30.9,3.6c-0.4,0.2-0.5,0.8,0,0.9c11.4,2.7,23.1,0.7,34.4-1.5C493.5,328,493.2,327.1,492.7,327.2z"/>
		</g>
		<g>
			<path class="st23" d="M497.1,307.4c-1.3,0-2.7,0.1-4,0.1c-7.4,0.3-14.8,0.7-22.2,1.9c-14.2,2.3-27.3,8.5-41.9,8.6
				c-6.9,0.1-13.8-0.9-20.4-2.7c-0.3-0.1-0.5-0.2-0.8-0.2l0.1-0.9c0.7,0.2,1.4,0.5,2.2,0.6c7.2,1.9,14.6,2.7,22,2.3
				c7.7-0.4,15-2.3,22.3-4.5c6.7-2,13.4-3.7,20.4-4.6c6.2-0.8,12.4-1.1,18.7-1.3c1.2,0,2.5-0.1,3.7-0.1
				C497.7,306.4,497.7,307.4,497.1,307.4z"/>
		</g>
		<g>
			<path class="st23" d="M450.1,323.8c-8,4.7-17.4,4.1-26.2,2.6c-5.5-0.9-10.9-2-16.5-2.3c-0.3,0-0.7,0-1,0l0.1-0.9
				c0.1,0,0.3,0,0.4,0c4.6,0.2,9.2,1,13.8,1.8c9.6,1.7,20,3.2,28.9-2C450.2,322.7,450.6,323.5,450.1,323.8z"/>
		</g>
		<g>
			<path class="st23" d="M429.2,333.6c-7.7,1.6-15.6,0-23.3-1.2c-0.6-0.1-0.8,0.8-0.2,0.9c7.9,1.2,15.9,2.9,23.8,1.2
				C430.1,334.4,429.8,333.5,429.2,333.6z"/>
		</g>
		<g>
			<path class="st23" d="M475.2,358.8c-9.1-2.2-16.6,4.6-23.6,9.3c-6.7,4.5-14.3,6.7-22.2,7.7c-10.1,1.4-21.4,1.3-31.4,4.4l0.1-1
				c0.3-0.1,0.5-0.2,0.8-0.2c13.5-3.9,28.1-2.1,41.5-6.4c6.9-2.2,12.2-6.6,18.2-10.5c5-3.2,10.7-5.5,16.7-4.1
				C476,358.1,475.7,358.9,475.2,358.8z"/>
		</g>
		<g>
			<path class="st23" d="M472.2,366.6c-7.4,3.1-14.8,6.2-22.3,9.3c-3.5,1.4-6.9,3-10.5,4.1s-7.3,1.7-10.9,2.2
				c-7.5,1.1-15,2.1-22.4,3.3c-3.1,0.5-6.2,1-9.2,2l0.1-1c2.2-0.6,4.4-1.1,6.6-1.5c7.6-1.3,15.3-2.3,22.9-3.4c3.7-0.5,7.4-1,11-2
				c3.9-1,7.6-2.7,11.3-4.2l23.1-9.6C472.5,365.5,472.8,366.4,472.2,366.6z"/>
		</g>
		<g>
			<path class="st23" d="M458.9,350.5c-3.6,0.9-7.3,1.8-10.8,3.2c-3.4,1.4-6.5,3.3-9.7,5c-6,3.1-12.4,5.5-18.9,7.3
				s-13.2,2.8-19.9,3.4l0.1-0.9c6.9-0.5,13.6-1.7,20.3-3.5c7-1.9,13.7-4.6,20-8.1c2.8-1.5,5.6-3.1,8.6-4.2c3.3-1.2,6.7-2.1,10-2.9
				C459.3,349.5,459.5,350.4,458.9,350.5z"/>
		</g>
		<g>
			<path class="st23" d="M479.1,354.5c-0.5-0.4-1-0.8-1.5-1.1c-3.1-2.2-6.6-3.8-10.4-4.5c-4.5-0.9-9-0.3-13.5,0.2
				c-4.7,0.6-9.4,1.2-14,2.7c-4.2,1.3-8.3,3.1-12.5,4.2c-8.5,2.2-17.3,2.9-25.9,4.2c-0.1,0-0.1,0-0.2,0l0.1-0.9
				c5.7-0.9,11.5-1.4,17.2-2.4c3.7-0.6,7.4-1.4,10.9-2.5c3.7-1.1,7.3-2.7,11-3.8c3.5-1.1,7.2-1.6,10.8-2.1c3.8-0.5,7.7-1.1,11.5-1
				c5.5,0.1,10.8,1.8,15.3,5c0.6,0.4,1.3,0.9,1.8,1.4C480.2,354.3,479.5,354.9,479.1,354.5z"/>
		</g>
		<g>
			<path class="st23" d="M419.7,360.3c-3.8,0.9-7.7,1.5-11.7,1.8c-0.6,0-0.6,0.9,0,0.9c4-0.3,8-0.9,11.9-1.8
				C420.5,361,420.3,360.2,419.7,360.3z"/>
		</g>
		<g>
			<path class="st23" d="M428,347.7c-7.5,2.3-15,4.5-22.8,5.5c-1.1,0.1-2.1,0.2-3.2,0.3l0.1-0.9c0.6,0,1.1-0.1,1.7-0.2
				c7.4-0.9,14.6-2.9,21.8-5c-7.5-0.8-15-1.6-22.5-1.6l0.1-0.9c8.2,0.1,16.4,1,24.6,1.9C428.4,346.8,428.5,347.5,428,347.7z"/>
		</g>
		<g>
			<path class="st23" d="M458.8,394.3c-4.8-3.6-10.8-5.4-16.8-5.1c-6.7,0.4-11.9,3.8-17.6,7c-9.1,5.1-19.4,6.1-29.6,5.2l0.1-0.9
				c5.3,0.5,10.7,0.5,15.9-0.5c6.7-1.2,12.1-4.2,18-7.5c5-2.8,10.2-4.6,15.9-4.3c5.2,0.3,10.3,2.1,14.5,5.2
				C459.7,393.8,459.3,394.6,458.8,394.3z"/>
		</g>
		<g>
			<path class="st23" d="M454.5,403.5c-8.4,2.8-17,5.6-25.9,3.7c-7.2-1.6-14.1-5.1-21.7-4.3c-0.6,0.1-0.6,1,0,0.9
				c8.3-0.9,15.7,3.6,23.7,4.7c8.3,1.2,16.4-1.5,24.1-4.1C455.3,404.2,455,403.3,454.5,403.5z"/>
		</g>
		<g>
			<path class="st23" d="M450.9,394c-2.8,0.1-5.5-0.9-8.3-0.7c-2.7,0.2-5.3,1.1-7.8,2c-3.9,1.4-7.8,2.9-10.3,6.3
				c-0.2,0.2,0,0.6,0.3,0.7c8.2,1.4,16.4,1.5,24.6,0.2c0.6-0.1,0.3-1-0.2-0.9c-7.8,1.2-15.6,1.2-23.4-0.1c2.7-3.2,7-4.6,10.9-5.9
				c2.4-0.8,4.8-1.5,7.3-1.4c2.4,0.1,4.7,0.8,7.1,0.7C451.5,394.9,451.5,394,450.9,394z"/>
		</g>
		<g>
			<path class="st23" d="M443.1,397.7c-2.8,0.3-5.6,0.5-8.4,0.8c-0.6,0.1-0.6,1,0,0.9c2.8-0.3,5.6-0.5,8.4-0.8
				C443.7,398.5,443.7,397.6,443.1,397.7z"/>
		</g>
		<g>
			<path class="st23" d="M436.9,412.3c-5,1.9-10.5,1.8-15.6,3.6c-5.1,1.9-9.7,5.1-14.7,7.3c-4.5,1.9-9.4,4-14.3,4.4
				c-0.5,0-0.9,0-1.4,0l0.1-0.9c0.3,0,0.6,0,0.8,0c5.6-0.3,11.5-3,16.6-5.3c4.5-2.1,8.7-5,13.4-6.6c4.8-1.6,10-1.6,14.8-3.4
				C437.2,411.2,437.5,412,436.9,412.3z"/>
		</g>
		<g>
			<path class="st23" d="M427.8,434.1c-12.5-1.3-25-1.9-37.6-1.8l0.1-0.9c12.5-0.1,25,0.5,37.4,1.8
				C428.3,433.2,428.4,434.2,427.8,434.1z"/>
		</g>
		<g>
			<path class="st23" d="M420.8,410.8c-7.9-3.2-16.5-3.1-24.9-2.2c-0.7,0.1-1.5,0.1-2.2,0.2l0.1-0.9c0.7-0.1,1.4-0.1,2.1-0.2
				c8.5-0.8,17.1-1,25.1,2.2C421.6,410.2,421.4,411,420.8,410.8z"/>
		</g>
	</g>
	<g>
		<g>
			<path class="st21" d="M898.8,45.6c0,0,23.4-0.1,39.4,30c14.1,26.4,4.2,57.7,1.6,64.9c-0.3,0.9-1.2,1.5-2.2,1.5H813.5l27.1-70.9
				l48.5-24.8L898.8,45.6z"/>
		</g>
		<g>
			<path class="st15" d="M898.9,45.6c0,0-58.1,5.5-77.1,103.1S796.9,347.5,762.2,404c-34.7,56.4-76.8,80.2-123.8,80.2
				c-46.9,0-359.7-14.3-359.7-14.3l-8.8-13.7c0,0,101.3,35.5,174.1-61.1s53.8-171.8,83.7-255.1c29.9-83.3,68.4-94.5,68.4-94.5
				L898.9,45.6L898.9,45.6z"/>
		</g>
		<g>
			<path class="st21" d="M638.4,484.3c0,0-24.4-1.5-42.8-6.7c-12.6-3.5-31.3-15.8-36.8-20.4c-4.1-3.5-3.6-3-8.2-2.9l-336.4-9
				c-1.2,0-1.8,1.5-0.8,2.3c6.6,5.2,23.8,17.5,44,22.9C296,480.9,638.4,484.3,638.4,484.3z"/>
		</g>
		<g>
			<g>
				<path class="st14" d="M777.8,194.5c1.1,0,2-0.7,2.2-1.8c2.6-11.9,6-27.5,8.7-38.7c5-20.8,12.6-40.7,15.7-47.9
					c0.7-1.7-0.5-3.6-2.4-3.6l-223.9-0.1c-2,0-4.2,0.5-5.4,2.1c-0.9,1.2-2.1,3.5-2.9,5.4c-3.6,8.3-8.7,19.6-13.9,34.9
					c-3.9,11.4-9.8,35.3-12,47.2c-0.3,1.4,0.8,2.7,2.2,2.7L777.8,194.5z"/>
			</g>
			<g>
				<path class="st14" d="M749.6,331.4c9.4-31.7,14.2-61.5,18.8-89.4c0.3-1.6,0.5-3.2,0.8-4.9H538.9c-1.5,0-2.8,1.1-3.1,2.6
					c-4.8,29.2-10.3,57.8-21.5,87.5c-0.8,2,0.7,4.2,2.9,4.2L749.6,331.4L749.6,331.4z"/>
			</g>
			<g>
				<path class="st14" d="M677.5,444.1c7.2,0,14.6,0.8,19.4-0.8c3.8-1.2,4.6-3.1,6.2-4.9c2.6-2.9,6.7-7.9,13.2-16.2
					c12.2-15.5,19.2-26.5,28.2-44.9c0.7-1.5-0.4-3.2-2.1-3.2H494.2c-1.5,0-2.8,0.8-3.6,2c-3.1,5.1-7,11.2-10.3,16.1
					c-18.4,27.3-33.7,40.9-45.9,48.6c-1.4,0.9-0.8,3.1,0.9,3.1L677.5,444.1z"/>
			</g>
			<g>
				<path class="st14" d="M863.9,45.6c-7.2,1.5-11.8,3.5-17.7,7.2c-5.7,3.6-10.3,7-15.8,12.6c-1.9,1.9-4.5,3-7.2,3H603
					c-1.8,0-2.9-2.1-1.9-3.6c5.6-8,10.8-14.7,17.7-19.3L863.9,45.6L863.9,45.6z"/>
			</g>
		</g>
		<g>
			<g>
				<path class="st10" d="M530.6,402.5c1.8-4.7,0.4-9.8-4.3-12.7c-2.8-1.7-5.3-1.7-8.4-0.8c-3.2,0.9-5.8,4.1-6.4,6.1
					c-0.1,0.3,0.5,0.8,0.7,0.5c0.2-0.3,0.4-0.5,0.6-0.8c1.3,1,1.8,0.6,3.2,1.4c1.9,1,3,2.3,4.5,3.9c1.4,1.5,3,2.8,4.5,4.1
					c0.1,0.1,0.2,0.2,0.4,0.3c-0.8,0.9-1.5,1.8-2.2,2.8c-0.5,0.6-1,1.3-1.4,1.9c-0.1,0-0.1,0-0.2,0c-0.2,0-0.2,0.3-0.1,0.4
					c-0.3,0.5-0.7,0.9-1,1.4c-0.7,1-1.5,2-1.3,3.3c0,0.2,0.2,0.3,0.4,0.2c1.9-0.8,3.3-2.3,4.7-3.7c1.9-1.9,4.2-4,5.5-6.4
					C530,403.9,530.3,403.2,530.6,402.5z"/>
			</g>
			<g>
				<path class="st22" d="M524.4,389.9c-7.5-2.4-11.9,3.6-14,8.6c-1.6,3.9-2.6,6.8-2.5,10.6c0.1,5.8,4.8,6.7,9.8,4.9
					c2.8-1,6-4.5,6-4.5s4.2-4.9,5.2-7.7C530.4,397.7,530.8,392,524.4,389.9z"/>
			</g>
			<g>
				<path class="st22" d="M510.9,404.5c0,0-4.3,9-5.3,10.9s-8,4-8,4l12,6.9l11.9-3c0,0-2.7-5.1-2-6.4s3.9-9.1,3.9-9.1L510.9,404.5z"
					/>
			</g>
			<g>
				<path class="st14" d="M523.4,435.8c3-3.4,6.6-8,5.3-9.2c-2.1-2-6-5.6-6-5.6l-3.2-4.1c0,0-9.5,3.8-9.9,3.8s-3.6-6.1-3.6-6.1
					l-4.4,3l-12.4,1.7L476,435.9L523.4,435.8L523.4,435.8z"/>
			</g>
			<g>
				<path class="st10" d="M529.2,392.9c-0.2-0.3-0.3-0.6-0.5-0.8c-0.9-1.2-2.2-2-3.6-2.6c-2.1-0.9-4.3-0.3-6.5,0
					c-2.1,0.3-3.2,1.4-4.7,2.8c-1.9,1.8-3.3,4.3-3.5,6.9c0.9-2.2,1.3-3.1,3.2-4.5c0.7-0.5,1-1.3,1.8-1.5c1.3-0.3,2.3-0.5,3.5,0.1
					c2.6,1.2,6.4,1.5,7.8,4.4c0.6,1.3,0.4,2.8,0.1,4.2c-0.4,1.4-0.9,2.7-1,4.1c0,0.2,0,0.5,0.1,0.7s0.3,0.4,0.6,0.4
					c0.2,0,0.3-0.1,0.4-0.2c1.4-1.1,2.3-2.7,2.8-4.4c0.5-1.7,0.7-3.5,0.6-5.2C530.1,395.7,529.8,394.1,529.2,392.9z"/>
			</g>
			<g>
				<path class="st19" d="M505.7,435.8c0.4-1.9,0.9-4.8,1-5.5c0.1-1,0.6-2.2,0.9-3.1c0.3-1,1.1-3.1,1.1-3.1s-0.9-1.9-1-1.8s-1,1-1,1
					s-3.1,3.3-4.9,5c-1.5,1.4-4.6,5.8-4.6,5.8s0.1,0.8,0.2,1.7H505.7z"/>
			</g>
			<g>
				<path class="st22" d="M524.2,404.5c0.3-0.4,0.6-0.8,0.9-1.2c0.5-0.5,1.1-1.2,1.9-1.3c0.9-0.1,1.4,1,1.5,1.7
					c0.1,0.9-0.1,1.7-0.4,2.5c-0.4,0.9-1.1,1.7-2,2.1c-1.4,0.5-3.2,0.7-3.2,0.7L524.2,404.5z"/>
			</g>
			<g>
				<path class="st23" d="M513.7,415.8c-0.4,0-0.9,0-1.3-0.1c-3.6-0.7-4.2-2.7-4.3-2.8c-0.1-0.3,0.1-0.5,0.3-0.6
					c0.3-0.1,0.5,0.1,0.6,0.3c0,0.1,0.5,1.5,3.5,2.1c2.8,0.6,7.4-1.4,7.4-1.5c0.2-0.1,0.5,0,0.6,0.2s0,0.5-0.2,0.6
					C520.2,414.2,516.7,415.8,513.7,415.8z"/>
			</g>
			<g>
				<path class="st10" d="M527.8,398.1c-0.4-1-1.1-1.7-2.1-2.1c-0.1-0.1-0.2,0-0.3,0.1c-0.3-0.5-0.5-1.1-1-1.3
					c-0.3-0.1-0.5,0.4-0.1,0.5c0.3,0.1,0.8,1.2,1,1.5c0.6,1,0.6,2,0.4,3.1c-0.3,1.6-1.2,3.2-2.1,4.5c-0.1,0.2,0,0.4,0.2,0.4
					c1.1-0.1,1.5-1.1,2.2-1.9c0.3-0.3,0.6-0.6,0.9-0.8c0.4-0.2,0.9-0.3,1.2-0.6c0.1-0.1,0.2-0.2,0.3-0.3
					C528.8,400.6,528.1,398.7,527.8,398.1z"/>
			</g>
			<g>
				<path class="st23" d="M510.6,407.3c0,0,1.2,0.8,2.9,1.2c1.8,0.3,3.6,0.5,3.6,0.5s-2.2,1.8-4,1.4
					C511.2,409.9,510.6,407.3,510.6,407.3z"/>
			</g>
			<g>
				<path class="st13" d="M527.7,435.8c1.3-2.4,3.6-4.3,5.4-6.2c-0.3-0.7-0.6-1.4-1-1.9c-2-2.5-5-3.9-7.4-5.9
					c-0.6-0.5-6.8,3.5-11.2,7c-2.4,1.9-6.6,4.7-9.9,6.9h24.1V435.8z"/>
				<path class="st13" d="M498.4,435.8c-0.1-2.2-0.3-5.2-0.5-7.4c-0.4-4.1,0.6-10.5,0.6-10.5s-16.5,2.4-20.7,6.3
					c-3.2,3-7.6,7.4-13.2,11.6H498.4z"/>
			</g>
			<g>
				<path class="st17" d="M499.3,418.1c-0.2,0-0.4-0.1-0.5-0.4s0.1-0.5,0.4-0.6c1.4-0.4,3-0.8,3.3-1l2.6-1.6l0.5,0.8l-2.6,1.6
					c-0.5,0.3-3.1,1-3.6,1.1C499.4,418.1,499.4,418.1,499.3,418.1z"/>
			</g>
			<g>
				<path class="st17" d="M523.4,422.1c-0.1,0-0.2,0-0.3-0.1c0,0-0.7-0.7-1.3-1.3c-0.5-0.7-2.2-3.1-2.3-3.2
					c-0.2-0.2-0.1-0.5,0.1-0.7s0.5-0.1,0.7,0.1c0,0,1.8,2.5,2.3,3.2c0.5,0.6,1.1,1.2,1.1,1.2c0.2,0.2,0.2,0.5,0,0.7
					C523.6,422,523.5,422.1,523.4,422.1z"/>
			</g>
			<g>
				<path class="st19" d="M509.4,420.8c0,0-2,0.4-2.3,0.5c-0.3,0.2-0.9,1.8-0.8,2c0.1,0.3,2.4,1.2,2.7,1.1c0.2,0,1.2-1.7,1.3-1.9
					C510.3,422.3,509.4,420.8,509.4,420.8z"/>
			</g>
			<g>
				<path class="st24" d="M480.9,431.8c-0.2,1.2-0.6,2.7-0.9,4h1c0.3-1.3,0.6-2.7,0.8-3.8c0.6-3-0.3-8.5-0.4-8.8
					c0-0.3-0.3-0.4-0.6-0.4c-0.3,0-0.4,0.3-0.4,0.6C480.6,423.4,481.5,429,480.9,431.8z"/>
			</g>
			<g>
				<path class="st17" d="M504.5,423.8c-0.2,0-0.3-0.1-0.4-0.3l-2.6-5.2c-0.1-0.2,0-0.5,0.2-0.7c0.2-0.1,0.5,0,0.7,0.2l2.6,5.2
					c0.1,0.2,0,0.5-0.2,0.7C504.6,423.8,504.5,423.8,504.5,423.8z"/>
			</g>
			<g>
				<path class="st17" d="M509.6,425.5c-0.2,0-0.4-0.1-0.5-0.3c-0.1-0.3,0.1-0.5,0.3-0.6l11.5-3.4c0.3-0.1,0.5,0.1,0.6,0.3
					c0.1,0.3-0.1,0.5-0.3,0.6l-11.5,3.4C509.7,425.5,509.7,425.5,509.6,425.5z"/>
			</g>
		</g>
		<g>
			<path class="st25" d="M784,135.5l-23.1,0.1c-0.5,0-0.8-0.4-0.7-0.9l0,0c0-0.1,3.2-10.7,5.7-16.3c0.8-1.8,1.6-3.4,2.3-4.8
				c0.1-0.3,0.5-1.1,0.9-1.7c0.3-0.6,0.9-0.9,1.5-0.9l24-0.6c0.5,0,0.9,0.6,0.6,1c-1.3,2.3-5.1,10.9-5.3,11.3
				c-1.1,2.3-3.8,9.5-4.7,11.9C785,135.2,784.5,135.5,784,135.5z M762.8,134.3l20.3-0.1c0.5,0,1-0.3,1.2-0.8c1-2.7,3.3-8.9,4.4-11.2
				c0.2-0.5,2.7-6.2,4.2-9.4c0.2-0.5-0.1-1.1-0.6-1l-21.1,0.7c-0.5,0-0.9,0.3-1.1,0.7c-0.2,0.4-0.4,0.7-0.6,1.1
				c-0.7,1.5-1.5,3-2.3,4.8c-1.8,4.2-4,11.1-5,14.4C762,133.9,762.3,134.3,762.8,134.3z"/>
		</g>
		<g>
			<path class="st25" d="M720.6,402.3l-26.7-0.5c-0.6,0-0.9-0.7-0.5-1.1l0,0c0,0,4.1-4.5,7.3-10.4c0.4-0.8,0.8-1.5,1.2-2.2
				c1.3-2.5,2.9-5.9,3.6-7.7c0.3-0.7,0.9-1.1,1.7-1.1l26.7,0.5c0.5,0,0.8,0.5,0.6,1l0,0c-4.9,10.3-11.1,18.7-12.7,21
				C721.5,402.1,721.1,402.4,720.6,402.3z M696.4,400.5l22.5,0.5c1.1,0,2.1-0.5,2.7-1.4c3.9-5.6,7.8-11.2,10.5-17.1
				c0.3-0.6-0.1-1.3-0.8-1.3l-23.3-0.4c-0.7,0-1.4,0.4-1.7,1.1c-1.1,2.7-1.8,4-3.4,6.9c-0.3,0.6-0.7,1.3-1.2,2.2
				c-2,3.7-4.3,6.8-5.8,8.7C695.7,400,696,400.5,696.4,400.5z"/>
		</g>
		<g>
			<g>
				<g>
					<path class="st22" d="M604.3,142.6c0.5-2.4,1.2-5,1.1-7.5c-0.1-1.2-0.5-2.3-0.7-3.5c-0.1-1.1-0.2-2.1-0.8-3.1
						c-1.2-2.1-3.7-3.3-5.9-4.1c-4.9-1.6-11.9-1-15.6,3c-0.7,0.8-1.3,1.7-1.7,2.8c-0.5,1.3-0.4,2.7-0.9,3.9c-0.4,1-1,1.8-1.4,2.8
						c-0.7,1.4-1.4,2.9-1.8,4.4c-0.4,1.4-0.5,2.9-0.3,4.4c0.2,1.8,0.6,3.5,0.4,5.3c-0.2,2-1.6,3.6-2.3,5.4c-0.7,1.6-1,3.2-0.6,4.9
						c0,0.1,0.1,0.1,0.2,0.1c4.7-0.4,9.3,0.3,13.9,0.9c2.3,0.3,4.6,0.6,7,0.7c2,0.1,4.6-0.4,6.4,0.8c0.1,0,0.2,0,0.2-0.1
						c0.1-0.3,0.3-0.6,0.4-0.9c0.1,0,0.1,0,0.2-0.1c1.5-2.2,2.9-4.7,1.8-7.4c-0.4-0.9-0.7-1.7-0.8-2.6c-0.1-1,0.2-1.9,0.6-2.7
						c0.2-0.5,0.4-1,0.5-1.5c0-0.9-0.1-1.7-0.1-2.6c0-0.4,0-0.9,0-1.3C604,144.1,604.2,143.3,604.3,142.6z"/>
				</g>
				<g>
					<path class="st16" d="M595,125.2c-6.9-0.5-9.9,5.7-11,11c-0.8,3.7-0.7,7.3,0.1,10.9c1.3,5.6,6.5,6.1,10.4,3.1
						c4.7-3.6,6.4-9.3,6.8-14.7C601.7,131.3,600.8,125.6,595,125.2z"/>
				</g>
				<g>
					<path class="st16" d="M585.7,148.2c0,0-0.5,7-0.9,9.2c-0.5,2.2-13.8,4.9-13.8,4.9l15.2,13.5l17.6-9.9c0,0-7-7.3-7.4-8.6
						s0.9-9.9,0.9-9.9L585.7,148.2z"/>
				</g>
				<g>
					<path class="st26" d="M589.5,152.7c-0.2,0-0.4,0-0.6-0.1c-2-0.5-3.2-1.9-3.3-1.9c-0.2-0.2-0.1-0.5,0-0.6c0.2-0.2,0.5-0.1,0.6,0
						c0,0,1.1,1.2,2.8,1.6c1.4,0.4,5-1.6,6.2-2.3c0.2-0.1,0.5-0.1,0.6,0.1c0.1,0.2,0.1,0.5-0.1,0.6
						C595.4,150.5,591.7,152.7,589.5,152.7z"/>
				</g>
				<g>
					<path class="st27" d="M607.6,181.7c0,0,1.1-4.4,1.6-7.5c0.2-1.5,0.2-3.7-0.3-5.1c-1.2-3.5-4.5-5.1-7.6-6.7
						c-0.1,0-2.2-1.6-2.2-1.5c0,0-3,4.3-4.3,5.1c-1.6,1.1-3.2,2.1-4.9,3.2c-0.8,0.5-1.6,1-2.4,1.6c-0.7,0.5-2.3,1.7-2.3,1.7
						s-1.7-2.1-2.5-2.9c-0.4-0.5-0.7-1.1-1.1-1.6c-0.5-0.6-0.9-1-1.1-1.7c-0.3-0.8-0.6-1.6-1-2.3c-0.7-1.6-1.4-3.1-2.2-4.7
						c0-0.1-0.1-0.1-0.2-0.1c-0.5,0.2-1,0.3-1.4,0.5c-0.2-0.3-0.3-0.5-0.5-0.8c-0.1-0.2-0.4-0.1-0.3,0.1c0.1,0.3,0.2,1.2,0.4,1.4
						c-2,0.7-4,1.4-6,2.3c-3.1,1.3-5.8,3.7-7,7c-1,3-3.3,9.9-3.6,11.9L607.6,181.7z"/>
				</g>
				<g>
					<path class="st14" d="M585.2,172.4c0,0,4.7-3.9,6.3-5.1c1.1-0.8,4.8-4.2,6-5.1c1.2-0.9,1.3-1.8,1.9-1.6
						c0.6,0.2,0.9,2.9,1.9,3.7s2,3.6,1.6,3.7c-0.5,0.2-1.9-0.6-5,0.3c-3.1,0.9-9.6,3.9-11.1,4.6c-1.5,0.6-2.6,2.6-2.6,2.6
						s0.1-2.1-0.5-2.9c-0.6-0.8-4-4.2-4-4.2l-3.7-6.5c0,0,3.8,1.7,4.1,2.3C580.3,164.9,585.2,172.4,585.2,172.4z"/>
				</g>
				<g>
					<path class="st26" d="M587.2,146l6.1,0.3c0,0-2.1,1.6-3.9,1.2S587.2,146,587.2,146z"/>
				</g>
				<g>
					<path class="st22" d="M602.9,134.3c-0.2-1-0.8-1.9-1-2.9c-0.2-1.1,0.1-2.2-0.2-3.3c-0.3-0.8-0.9-1.5-1.4-2.2
						c-1.2-1.3-3.3-1.9-5.1-1.8c0-0.1,0-0.2-0.1-0.2c-2.3-0.8-4.9,0.3-7,1c-1,0.3-1.9,0.7-2.5,1.5s-1,1.7-1.2,2.7
						c-0.1,0.5-0.1,1-0.1,1.6c0,0.3,0,0.7,0,1.1c-0.3,0.7-0.6,1.4-1,2c-0.2,0.1-0.3,0.2-0.4,0.3c-0.2,0.2-0.3,0.5-0.5,0.7
						c-0.4,0.5-0.9,0.9-1.2,1.4c-1.1,1.5-1.7,3.2-1.8,5.1c-0.1,1,0,2.1,0.1,3.1c0.1,1.1,0.3,2.2,0.1,3.3c-0.2,0.9-0.7,1.7-1,2.6
						c-0.4,1.1-0.6,2.2-0.9,3.3c-0.1,0.2,0.3,0.3,0.3,0.1c0.3-1.1,0.6-2.1,0.9-3.2c0.3-0.9,0.9-1.8,1.1-2.7c0.4-1.9-0.2-4-0.2-5.9
						c0-2.1,0.6-4,1.9-5.6c0,0,0,0,0.1,0c0.1-0.1,0.2-0.2,0.3-0.2c-0.8,2.2-1.2,4.6-1.5,6.9c0,0.2,0.3,0.3,0.3,0.1
						c0.4-2.4,0.8-4.7,1.6-7c0-0.1,0.1-0.2,0.1-0.4c0.9-0.6,1.8-1.1,2.5-1.9c0.9-1,1.5-2.3,2.6-3c0.3-0.2,0.6-0.4,1-0.5
						c0.3,0,0.5,0,0.7,0c1-0.1,2,0,3-0.1c1.5-0.1,2.7-1.1,3.8-2c-0.1,0.8,0,1.6,0.3,2.3c0.4,1.1,1.3,1.5,2.2,2.1
						c0.7,0.6,1.1,1.3,1.1,2.3c0,0.5,0,1,0.3,1.5c0.2,0.4,0.4,0.6,0.5,1s0.1,0.9,0.1,1.3c0.1,0.8,0.1,1.6,0.2,2.4v0.1
						c0,0.2,0.2,0.3,0.3,0.1c0.1-0.1,0.7-0.3,0.9-0.4c0.3-0.2,0.4-0.5,0.6-0.8c0.4-0.9,0.3-1.9,0.4-2.8
						C602.9,136.5,603.1,135.4,602.9,134.3z"/>
				</g>
				<g>
					<path class="st16" d="M598.5,141.1c0,0,1.7-2.5,2.6-1.9c1.5,0.9,0.6,4.2-1.1,4.8c-1.1,0.4-2.5,0.6-2.5,0.6L598.5,141.1z"/>
				</g>
				<g>
					<path class="st23" d="M596.4,128.4c-0.1,0-0.2,0-0.2-0.1c-0.2-0.1-0.3-0.4-0.1-0.6l1.7-2.7c0.1-0.2,0.4-0.3,0.6-0.1
						c0.2,0.1,0.3,0.4,0.1,0.6l-1.7,2.7C596.7,128.4,596.5,128.4,596.4,128.4z"/>
				</g>
				<g>
					<path class="st15" d="M586.1,168.6c-0.2,0-0.4,0-0.6-0.1c-3.7-0.9-3.3-9-3.3-9.3c0-0.1,0.1-0.2,0.2-0.2c0.1,0,0.2,0.1,0.2,0.2
						c0,0.1-0.4,8,2.9,8.8c3.4,0.9,12.4-8.6,12.5-8.7c0.1-0.1,0.2-0.1,0.3,0s0.1,0.2,0,0.3C598.1,160,590.1,168.6,586.1,168.6z"/>
				</g>
				<g>
					<path class="st15" d="M586.1,169.3c-0.1,0.5-0.4,0.9-0.7,0.9s-0.6-0.5-0.5-1s0.4-0.9,0.7-0.9
						C586,168.3,586.2,168.8,586.1,169.3z"/>
				</g>
				<g>
					<path class="st22" d="M583.8,153.5c-0.1-2.8-0.5-3.1-0.6-5.8c0-0.2-0.3-0.2-0.3,0c0.1,2.5,0.1,5,0.2,7.5c0,0.3,0,0.5,0,0.8
						c-0.4-0.4-0.8-0.6-1.5-0.5c-1,0.2-2,0.8-2.9,1.4c-0.9,0.6-4.1,0-2.6-1.1c0.2-0.1,0-0.4-0.2-0.3c-1.4,1.1-2.1,2.7-2.3,4.5
						c-0.1,0.7-0.1,1.5-0.1,2.2c-0.1,0.8-0.4,1.4-0.7,2.1c-0.5,1.2-1.2,2.2-2,3.1c-0.7,0.9-1.5,1.7-1.8,2.9
						c-0.1,0.5-0.2,1.4,0.3,1.7c0.6,0.3,1-0.3,1.3-0.7s0.5-0.7,0.8-1.1c0,0.3,0,0.6,0,1s0.1,0.8,0.3,1.1c0.3,0.5,0.9,0.8,1.2,1.3
						c0.7,1-0.5,2.4,0.4,3.3c0.5,0.6,1.5,0.4,2.2,0.1c0.5-0.2,0.8-0.5,1.1-0.9c0.5-0.6,0.8-1,1.4-1.4c0.9-0.8,1.6-2,2.1-3.1
						c0.7-1.4,1-3.1,0.8-4.6c0-0.8-0.3-1.6-0.4-2.4c-0.3-1.4,0-2.4,1.1-3.4c0.6-0.6,2.9-2.7,3-3.6
						C584.8,155.5,583.8,154.6,583.8,153.5z"/>
				</g>
			</g>
			<g>
				<path class="st17" d="M609,182.1h-51.7l0.1-0.5c3.7-19.9,14.5-51.1,14.9-52.2c1.5-4.2,3.2-8.4,5.5-13.2l0.1-0.3l50.5,0.3
					l-0.3,0.6c-1,2-7.2,20.3-11.3,34.5c-2.4,8.2-5.6,20.7-7.7,30.5L609,182.1z M558.4,181.2h49.9c0,0,5.3-22.1,7.7-30.2
					c4.2-14.3,11-33.9,11-33.9l-48.5-0.3c0,0-4,8.7-5.4,12.9C562,163.1,558.4,181.2,558.4,181.2z"/>
			</g>
		</g>
		<g>
			<g>
				<g>
					<path class="st17" d="M667.5,118.2h-29.4c-0.5,0-0.9-0.4-0.9-0.9s0.4-0.9,0.9-0.9h29.4c0.5,0,0.9,0.4,0.9,0.9
						C668.4,117.8,668,118.2,667.5,118.2z"/>
				</g>
				<g>
					<path class="st17" d="M713,118.2h-36.6c-0.5,0-0.9-0.4-0.9-0.9s0.4-0.9,0.9-0.9H713c0.5,0,0.9,0.4,0.9,0.9
						C713.9,117.8,713.5,118.2,713,118.2z"/>
				</g>
			</g>
			<g>
				<path class="st17" d="M674.6,128.8h-40.2c-0.3,0-0.5-0.2-0.5-0.5s0.2-0.5,0.5-0.5h40.2c0.3,0,0.5,0.2,0.5,0.5
					S674.9,128.8,674.6,128.8z"/>
			</g>
			<g>
				<path class="st17" d="M739,128.8h-56.9c-0.3,0-0.5-0.2-0.5-0.5s0.2-0.5,0.5-0.5H739c0.3,0,0.5,0.2,0.5,0.5
					C739.4,128.6,739.2,128.8,739,128.8z"/>
			</g>
			<g>
				<path class="st17" d="M655.5,136.3h-23.7c-0.3,0-0.5-0.2-0.5-0.5s0.2-0.5,0.5-0.5h23.7c0.3,0,0.5,0.2,0.5,0.5
					C655.9,136.1,655.7,136.3,655.5,136.3z"/>
			</g>
			<g>
				<path class="st17" d="M752.8,136.3h-28.6c-0.3,0-0.5-0.2-0.5-0.5s0.2-0.5,0.5-0.5h28.6c0.3,0,0.5,0.2,0.5,0.5
					C753.2,136.1,753,136.3,752.8,136.3z"/>
			</g>
			<g>
				<path class="st17" d="M751.4,143.8h-48.2c-0.3,0-0.5-0.2-0.5-0.5s0.2-0.5,0.5-0.5h48.2c0.3,0,0.5,0.2,0.5,0.5
					C751.8,143.6,751.6,143.8,751.4,143.8z"/>
			</g>
			<g>
				<path class="st17" d="M718.6,136.3h-55.8c-0.3,0-0.5-0.2-0.5-0.5s0.2-0.5,0.5-0.5h55.8c0.3,0,0.5,0.2,0.5,0.5
					C719,136.1,718.8,136.3,718.6,136.3z"/>
			</g>
			<g>
				<path class="st17" d="M695.5,143.8h-66.2c-0.3,0-0.5-0.2-0.5-0.5s0.2-0.5,0.5-0.5h66.2c0.3,0,0.5,0.2,0.5,0.5
					C695.9,143.6,695.7,143.8,695.5,143.8z"/>
			</g>
			<g>
				<path class="st17" d="M671.9,151.9h-44.6c-0.3,0-0.5-0.2-0.5-0.5s0.2-0.5,0.5-0.5h44.6c0.3,0,0.5,0.2,0.5,0.5
					C672.3,151.7,672.1,151.9,671.9,151.9z"/>
			</g>
			<g>
				<path class="st17" d="M750.2,151.9h-71.7c-0.3,0-0.5-0.2-0.5-0.5s0.2-0.5,0.5-0.5h71.7c0.3,0,0.5,0.2,0.5,0.5
					C750.6,151.7,750.4,151.9,750.2,151.9z"/>
			</g>
			<g>
				<path class="st17" d="M675.7,159.4h-50.3c-0.3,0-0.5-0.2-0.5-0.5s0.2-0.5,0.5-0.5h50.3c0.3,0,0.5,0.2,0.5,0.5
					S676,159.4,675.7,159.4z"/>
			</g>
			<g>
				<g>
					<path class="st17" d="M640,182.4h-15.5c-0.3,0-0.5-0.1-0.7-0.3s-0.2-0.5-0.2-0.7l2-8.2c0.1-0.4,0.4-0.7,0.8-0.7h15.5
						c0.3,0,0.5,0.1,0.7,0.3s0.2,0.5,0.2,0.7l-2,8.2C640.8,182.1,640.4,182.4,640,182.4z M640,181.5L640,181.5L640,181.5z
						 M624.5,181.5h15.4l2-8.1h-15.4L624.5,181.5z M626.5,173.4L626.5,173.4L626.5,173.4z"/>
				</g>
				<g>
					<path class="st17" d="M633.5,177.2c-0.1,0-0.3,0-0.4-0.1l-7.2-3.8c-0.2-0.1-0.3-0.4-0.2-0.6c0.1-0.2,0.4-0.3,0.6-0.2l7.2,3.8
						l8.8-3.8c0.2-0.1,0.5,0,0.6,0.2s0,0.5-0.2,0.6l-8.9,3.8C633.7,177.2,633.6,177.2,633.5,177.2z"/>
				</g>
			</g>
			<g>
				<path class="st17" d="M657.9,177.9c-5.6,0-9.9,0-10.2,0c-0.2,0-0.4-0.2-0.4-0.5c0-0.2,0.2-0.4,0.5-0.4c0.7,0,24.4,0,36.8,0l0,0
					c0.3,0,0.5,0.2,0.5,0.5s-0.2,0.5-0.5,0.5C682.2,177.9,667.9,177.9,657.9,177.9z"/>
			</g>
			<g>
				<path class="st17" d="M746.7,177.2h-36.6c-0.3,0-0.5-0.2-0.5-0.5s0.2-0.5,0.5-0.5h36.6c0.3,0,0.5,0.2,0.5,0.5
					C747.1,177,746.9,177.2,746.7,177.2z"/>
			</g>
			<g>
				<g>
					<path class="st17" d="M700.9,184.2h-7.2c-0.3,0-0.6-0.1-0.8-0.4c-0.2-0.2-0.3-0.5-0.2-0.8l1.8-11.4c0.1-0.5,0.5-0.9,1-0.9h7.2
						c0.3,0,0.6,0.1,0.8,0.4c0.2,0.2,0.3,0.5,0.2,0.8l-1.8,11.4C701.9,183.9,701.5,184.2,700.9,184.2z M695.6,171.6
						c-0.1,0-0.1,0.1-0.1,0.1l-1.8,11.4c0,0.1,0,0.1,0,0.1l0.1,0.1h7.2c0.1,0,0.1-0.1,0.1-0.1l1.8-11.4c0-0.1,0-0.1,0-0.1l-0.1-0.1
						H695.6z"/>
				</g>
				<g>
					<path class="st17" d="M698.3,182.8h-1.8c-0.3,0-0.5-0.2-0.5-0.5s0.2-0.5,0.5-0.5h1.8c0.3,0,0.5,0.2,0.5,0.5
						C698.7,182.5,698.5,182.8,698.3,182.8z"/>
				</g>
			</g>
		</g>
		<g>
			<g>
				<g>
					<path class="st17" d="M650.3,252.4h-39.9c-0.5,0-0.9-0.4-0.9-0.9s0.4-0.9,0.9-0.9h39.9c0.5,0,0.9,0.4,0.9,0.9
						S650.8,252.4,650.3,252.4z"/>
				</g>
				<g>
					<path class="st17" d="M685.5,252.4h-26.1c-0.5,0-0.9-0.4-0.9-0.9s0.4-0.9,0.9-0.9h26.1c0.5,0,0.9,0.4,0.9,0.9
						S686,252.4,685.5,252.4z"/>
				</g>
			</g>
			<g>
				<path class="st17" d="M672.5,263h-64.3c-0.3,0-0.5-0.2-0.5-0.5s0.2-0.5,0.5-0.5h64.3c0.3,0,0.5,0.2,0.5,0.5S672.7,263,672.5,263
					z"/>
			</g>
			<g>
				<path class="st17" d="M712.7,263h-32.9c-0.3,0-0.5-0.2-0.5-0.5s0.2-0.5,0.5-0.5h32.9c0.3,0,0.5,0.2,0.5,0.5S712.9,263,712.7,263
					z"/>
			</g>
			<g>
				<path class="st17" d="M630.6,270.5h-23.7c-0.3,0-0.5-0.2-0.5-0.5s0.2-0.5,0.5-0.5h23.7c0.3,0,0.5,0.2,0.5,0.5
					S630.9,270.5,630.6,270.5z"/>
			</g>
			<g>
				<path class="st17" d="M728,270.5h-28.6c-0.3,0-0.5-0.2-0.5-0.5s0.2-0.5,0.5-0.5H728c0.3,0,0.5,0.2,0.5,0.5
					S728.3,270.5,728,270.5z"/>
			</g>
			<g>
				<path class="st17" d="M726.6,278h-29.7c-0.3,0-0.5-0.2-0.5-0.5s0.2-0.5,0.5-0.5h29.8c0.3,0,0.5,0.2,0.5,0.5
					C727.1,277.8,726.9,278,726.6,278z"/>
			</g>
			<g>
				<path class="st17" d="M699.9,270.5h-62.4c-0.3,0-0.5-0.2-0.5-0.5s0.2-0.5,0.5-0.5h62.4c0.3,0,0.5,0.2,0.5,0.5
					S700.2,270.5,699.9,270.5z"/>
			</g>
			<g>
				<path class="st17" d="M691,278h-27c-0.3,0-0.5-0.2-0.5-0.5s0.2-0.5,0.5-0.5h27c0.3,0,0.5,0.2,0.5,0.5S691.3,278,691,278z"/>
			</g>
			<g>
				<path class="st17" d="M656.7,278h-51.2c-0.3,0-0.5-0.2-0.5-0.5s0.2-0.5,0.5-0.5h51.2c0.3,0,0.5,0.2,0.5,0.5
					C657.1,277.8,656.9,278,656.7,278z"/>
			</g>
			<g>
				<path class="st17" d="M673.5,286.1h-69.7c-0.3,0-0.5-0.2-0.5-0.5s0.2-0.5,0.5-0.5h69.7c0.3,0,0.5,0.2,0.5,0.5
					C673.9,285.9,673.7,286.1,673.5,286.1z"/>
			</g>
			<g>
				<path class="st17" d="M725.4,286.1h-46.6c-0.3,0-0.5-0.2-0.5-0.5s0.2-0.5,0.5-0.5h46.6c0.3,0,0.5,0.2,0.5,0.5
					S725.7,286.1,725.4,286.1z"/>
			</g>
			<g>
				<path class="st17" d="M690.5,293.6h-88.6c-0.3,0-0.5-0.2-0.5-0.5s0.2-0.5,0.5-0.5h88.7c0.3,0,0.5,0.2,0.5,0.5
					C691,293.4,690.8,293.6,690.5,293.6z"/>
			</g>
			<g>
				<g>
					<path class="st17" d="M614.8,316.6h-15.5c-0.3,0-0.5-0.1-0.7-0.3c-0.2-0.2-0.2-0.5-0.2-0.7l2.4-8.2c0.1-0.4,0.4-0.6,0.8-0.6
						h15.5c0.3,0,0.5,0.1,0.7,0.3c0.2,0.2,0.2,0.5,0.2,0.7l-2.4,8.2C615.5,316.3,615.2,316.6,614.8,316.6z M614.7,315.7L614.7,315.7
						L614.7,315.7z M601.7,307.6l-2.4,8.1h15.4l2.4-8.1H601.7z M601.7,307.6L601.7,307.6L601.7,307.6z"/>
				</g>
				<g>
					<path class="st17" d="M608.7,311.4c-0.1,0-0.3,0-0.4-0.1l-7.2-3.8c-0.2-0.1-0.3-0.4-0.2-0.6s0.4-0.3,0.6-0.2l7.2,3.8l8.8-3.8
						c0.2-0.1,0.5,0,0.6,0.2s0,0.5-0.2,0.6l-8.9,3.8C608.9,311.4,608.8,311.4,608.7,311.4z"/>
				</g>
			</g>
			<g>
				<path class="st17" d="M633.1,312.1c-5.6,0-9.9,0-10.2,0c-0.2,0-0.4-0.2-0.4-0.5c0-0.2,0.2-0.4,0.5-0.4c0.7,0,24.4,0,36.8,0l0,0
					c0.3,0,0.5,0.2,0.5,0.5s-0.2,0.5-0.5,0.5C657.4,312.1,643.2,312.1,633.1,312.1z"/>
			</g>
			<g>
				<path class="st17" d="M721.9,311.4h-36.6c-0.3,0-0.5-0.2-0.5-0.5s0.2-0.5,0.5-0.5h36.6c0.3,0,0.5,0.2,0.5,0.5
					S722.2,311.4,721.9,311.4z"/>
			</g>
			<g>
				<g>
					<path class="st17" d="M675.7,318.4h-7.2c-0.3,0-0.6-0.1-0.8-0.4c-0.2-0.2-0.3-0.5-0.2-0.8l2.3-11.4c0.1-0.5,0.5-0.9,1-0.9h7.2
						c0.3,0,0.6,0.1,0.8,0.4c0.2,0.2,0.3,0.5,0.2,0.8l-2.3,11.4C676.7,318.1,676.2,318.4,675.7,318.4z M670.8,305.8
						c-0.1,0-0.1,0.1-0.1,0.1l-2.3,11.4v0.1l0.1,0.1h7.2c0.1,0,0.1-0.1,0.1-0.1l2.3-11.4v-0.1l-0.1-0.1H670.8z"/>
				</g>
				<g>
					<path class="st17" d="M673,316.9h-1.8c-0.3,0-0.5-0.2-0.5-0.5s0.2-0.5,0.5-0.5h1.8c0.3,0,0.5,0.2,0.5,0.5
						C673.5,316.7,673.3,316.9,673,316.9z"/>
				</g>
			</g>
		</g>
		<g>
			<g>
				<g>
					<path class="st17" d="M606.4,388.3h-34.9c-0.5,0-0.9-0.4-0.9-0.9s0.4-0.9,0.9-0.9h34.9c0.5,0,0.9,0.4,0.9,0.9
						S606.9,388.3,606.4,388.3z"/>
				</g>
				<g>
					<path class="st17" d="M653.3,388.3h-37.9c-0.5,0-0.9-0.4-0.9-0.9s0.4-0.9,0.9-0.9h37.9c0.5,0,0.9,0.4,0.9,0.9
						S653.8,388.3,653.3,388.3z"/>
				</g>
			</g>
			<g>
				<path class="st17" d="M604.4,398.9h-38.8c-0.3,0-0.5-0.2-0.5-0.5s0.2-0.5,0.5-0.5h38.8c0.3,0,0.5,0.2,0.5,0.5
					S604.7,398.9,604.4,398.9z"/>
			</g>
			<g>
				<path class="st17" d="M668.7,398.9h-58.4c-0.3,0-0.5-0.2-0.5-0.5s0.2-0.5,0.5-0.5h58.4c0.3,0,0.5,0.2,0.5,0.5
					S669,398.9,668.7,398.9z"/>
			</g>
			<g>
				<path class="st17" d="M642.9,406h-80c-0.3,0-0.5-0.2-0.5-0.5s0.2-0.5,0.5-0.5h80c0.3,0,0.5,0.2,0.5,0.5
					C643.3,405.8,643.1,406,642.9,406z"/>
			</g>
			<g>
				<path class="st17" d="M682.6,406H654c-0.3,0-0.5-0.2-0.5-0.5s0.2-0.5,0.5-0.5h28.6c0.3,0,0.5,0.2,0.5,0.5S682.9,406,682.6,406z"
					/>
			</g>
			<g>
				<path class="st17" d="M655,406h-6.2c-0.3,0-0.5-0.2-0.5-0.5s0.2-0.5,0.5-0.5h6.2c0.3,0,0.5,0.2,0.5,0.5S655.3,406,655,406z"/>
			</g>
			<g>
				<path class="st17" d="M582.8,413.3h-24.3c-0.3,0-0.5-0.2-0.5-0.5s0.2-0.5,0.5-0.5h24.3c0.3,0,0.5,0.2,0.5,0.5
					C583.2,413.1,583,413.3,582.8,413.3z"/>
			</g>
			<g>
				<path class="st17" d="M627.7,413.3h-38.6c-0.3,0-0.5-0.2-0.5-0.5s0.2-0.5,0.5-0.5h38.6c0.3,0,0.5,0.2,0.5,0.5
					C628.2,413.1,628,413.3,627.7,413.3z"/>
			</g>
			<g>
				<path class="st17" d="M680.5,413.3h-46.6c-0.3,0-0.5-0.2-0.5-0.5s0.2-0.5,0.5-0.5h46.6c0.3,0,0.5,0.2,0.5,0.5
					C681,413.1,680.8,413.3,680.5,413.3z"/>
			</g>
			<g>
				<path class="st17" d="M605.7,420.1h-51.3c-0.3,0-0.5-0.2-0.5-0.5s0.2-0.5,0.5-0.5h51.3c0.3,0,0.5,0.2,0.5,0.5
					S605.9,420.1,605.7,420.1z"/>
			</g>
			<g>
				<g>
					<path class="st17" d="M563.7,437h-15.5c-0.3,0-0.5-0.1-0.7-0.3c-0.2-0.2-0.2-0.5-0.2-0.7v-0.1l4.7-6.4c0.1-0.3,0.4-0.6,0.8-0.6
						h15.5c0.3,0,0.5,0.1,0.7,0.3c0.2,0.2,0.2,0.5,0.2,0.7v0.1l-4.7,6.4C564.4,436.7,564.1,437,563.7,437z M548.3,436.1h15.4V436
						l4.6-6.2h-15.4v0.1L548.3,436.1z"/>
				</g>
				<g>
					<path class="st17" d="M558.5,432.7c-0.1,0-0.3,0-0.4-0.1l-5.8-2.9c-0.2-0.1-0.3-0.4-0.2-0.6s0.4-0.3,0.6-0.2l5.8,2.9l10.3-2.9
						c0.2-0.1,0.5,0.1,0.6,0.3c0.1,0.2-0.1,0.5-0.3,0.6l-10.2,2.9C558.7,432.7,558.6,432.7,558.5,432.7z"/>
				</g>
			</g>
			<g>
				<path class="st17" d="M581.6,434.3c-5.6,0-9.9,0-10.2,0c-0.2,0-0.4-0.2-0.4-0.5c0-0.2,0.2-0.4,0.5-0.4c0.7,0,24.4,0,36.8,0l0,0
					c0.3,0,0.5,0.2,0.5,0.5s-0.2,0.5-0.5,0.5C605.9,434.3,591.6,434.3,581.6,434.3z"/>
			</g>
			<g>
				<path class="st17" d="M670.6,434.3h-36.7c-0.3,0-0.5-0.2-0.5-0.5s0.2-0.5,0.5-0.5h36.6c0.3,0,0.5,0.2,0.5,0.5
					S670.8,434.3,670.6,434.3z"/>
			</g>
			<g>
				<g>
					<path class="st17" d="M625.6,438.6h-7.2c-0.3,0-0.6-0.1-0.8-0.4c-0.2-0.2-0.3-0.5-0.2-0.8v-0.1l4.1-9.1c0.1-0.5,0.5-0.8,1-0.8
						h7.2c0.3,0,0.6,0.1,0.8,0.4c0.2,0.2,0.3,0.5,0.2,0.8v0.1l-4.1,9.1C626.5,438.2,626.1,438.6,625.6,438.6z M618.3,437.5
						C618.3,437.6,618.3,437.6,618.3,437.5c0.1,0.1,0.1,0.1,0.1,0.1h7.2c0.1,0,0.1-0.1,0.1-0.1v-0.1l4-9.1v-0.1l-0.1-0.1h-7.2
						c-0.1,0-0.1,0.1-0.1,0.1v0.1L618.3,437.5z"/>
				</g>
				<g>
					<path class="st17" d="M622.9,437.1h-1.8c-0.3,0-0.5-0.2-0.5-0.5s0.2-0.5,0.5-0.5h1.8c0.3,0,0.5,0.2,0.5,0.5
						S623.2,437.1,622.9,437.1z"/>
				</g>
			</g>
		</g>
		<g>
			<g>
				<path class="st28" d="M582.4,264.7c0.3-0.6,0.5-1.3,0.2-2c-0.6-1.8-2.5-2.8-4.2-3.6c-1.8-0.8-3.2-2.3-5-3.1
					c-1.1-0.5-2.3-0.7-3.5-0.5c-2.1,0.2-4.4,1-6.2,2.1c-0.7,0.4-1.6,1-2,1.8c-0.3,0.7-0.3,1.6-0.3,2.4c-1,0.1-2.1,0.2-2.9,0.6
					c-0.7,0.4-0.7,1.4-0.8,2.1c-0.2,1.6-0.2,3.2-0.2,4.7c0,0.8,0.4,4.7,0.4,4.7s2.3-4.1,2.6-4.6c1.2-2.2,2-4.6,2.3-7.1
					c1.3,0.7,2.1,2,3,3.2s2,2.3,3.1,3.4c2.2,2.3,4.3,4.9,6.8,6.9c-0.4,1-0.8,2.1-1.2,3.1c-0.8,2.4-1.7,9.5-1.7,9.5s0.6-1.4,0.7-1.6
					c1.4-2.9,2.8-5.8,4.1-8.8c1-2.3,1.8-4.6,2.6-7c0.1-0.1,0.2-0.2,0.3-0.4c0.2-0.2,0.5-0.4,0.7-0.6c0.4-0.4,0.6-0.7,0.8-1.2
					C582.7,267.3,582.3,266,582.4,264.7z"/>
			</g>
			<g>
				<path class="st16" d="M571.2,257.9c-8.1-0.6-12.2,6.7-12.9,12.9c-0.6,4.9-0.8,8.5,0.2,12.8c1.5,6.6,7.6,7.1,12.2,3.7
					c2.5-1.9,4.8-6.9,4.8-6.9s3-6.8,3.2-10.3C579,265.1,578,258.5,571.2,257.9z"/>
			</g>
			<g>
				<path class="st16" d="M560.3,284.1c0,0-0.5,7.4-1.1,9.9s-16.2,9.6-16.2,9.6l17.8,12l20.7-11.6c0,0-8.2-8.6-8.7-10.1
					s1.1-10.7,1.1-10.7L560.3,284.1z"/>
			</g>
			<g>
				<path class="st16" d="M575.2,276.6c0.3-0.4,0.5-0.7,0.9-1.1c0.4-0.5,1-1.1,1.7-1.2c0.8-0.1,1.3,0.9,1.4,1.6
					c0.1,0.8-0.1,1.6-0.4,2.3c-0.4,0.8-1,1.5-1.8,1.9c-1.3,0.5-2.9,0.7-2.9,0.7L575.2,276.6z"/>
			</g>
			<g>
				<path class="st14" d="M540.7,318.3h36.8c3.8-6.1,9.1-14.8,9.1-14.8s-2.3-3.1-5.7-4.5s-5.5-3.5-5.5-3.5c-0.9-1.5-1.8-2.9-2.2-3.7
					c-0.7,1-1.5,1.9-2.6,2.6s-1.4,1.6-1.9,2.7c-0.4,0.9-1.1,1.7-1.7,2.5c-1.2,1.7-2.9,3.5-3.5,5.5c-0.4,1.3-0.2,2.9-1.2,4
					c-0.2,0.2-0.4,0-0.4-0.2c-0.2-1.8,0-2.5,0-4.3c0-1.4-1.3-4.2-1-5.6c0.6-3.1,0.1-4.9-1.3-7.4l-3,3.1c-4.1,1.2-14.9,6.4-14.9,6.4
					s-0.8,9.3-0.7,12.7C540.9,314.8,540.8,316.6,540.7,318.3z"/>
			</g>
			<g>
				<path class="st14" d="M561.8,280c0,0,2.6,0.8,3.9,0.8c1.3,0,4.1-0.2,4.1-0.2s-1.3,2-4.2,1.8C562.8,282.3,561.8,280,561.8,280z"
					/>
			</g>
			<g>
				<path class="st28" d="M578.8,262.6c-1.4-3.1-4.2-5-7.5-5.4c-5.7-0.7-10.6,4.4-12.4,9.4c-0.1,0.3-0.2,0.6-0.3,1
					c-0.1,0.5-0.2,1-0.2,1.4c0,0.1-0.5,3.5-0.4,3.6c0,0,0.5-2,0.6-2.1c0.5-2.1,0.7-3.3,2.3-4.9c1.1-1.2,2.3-1.2,3.5-0.6
					c0.6,0.3,1.2,0.7,1.7,1.1c0.8,0.6,1.7,0.8,2.7,0.7c2,0,4.1-0.8,6.1-0.3c2.1,0.5,2,2.8,2,3.1c0,0.6-0.6,3.2-0.6,3.2
					s0.5,0.2,0.5,1.4c0,0.2,0,0.9,0,0.9s0.5-0.7,1.5-0.6c0.1,0,0.4-0.5,0.5-0.7C579.6,270.4,580.3,265.9,578.8,262.6z"/>
			</g>
			<g>
				<path class="st28" d="M577.5,270.2c0-0.3,0.1-0.6,0.1-0.9s-0.7,1-0.7,1s-1.2,4.9-1.5,5.8c-0.2,0.8-0.4,1.6-0.6,2.4
					c-0.2,0.8-0.5,1.6-0.7,2.4c-0.1,0.4-0.3,0.8-0.4,1.2c-0.2,0.7-0.5,1.2-0.9,1.8c-0.4,0.5-0.9,1.1-1.4,1.5c-1,0.9-2.2,1.5-3.5,1.8
					c-0.7,0.2-1.4,0.2-2.1,0.2c-1.5-0.1-3.1,0-4.4-0.7c-1.4-0.8-3-3-3-3s0.2,1.6,0.2,1.7c1.6,5.9,8.7,5.9,12.4,3.5
					c1.4-0.9,2.6-2.9,3.1-4.7c0.6-1.6,1.1-3.1,1.5-4.8c0.6-2.2,1-5,2.2-7c0.1-0.2-0.1-0.4-0.2-0.4c0.1-0.6,0.2-1.1,0.4-1.7
					C578.1,270,577.6,269.9,577.5,270.2z"/>
			</g>
			<g>
				<path class="st28" d="M565.6,278.8c-0.2-0.3-0.6-0.3-0.9-0.3c-0.5,0-0.9,0.1-1.4,0.1c-0.6,0.1-1.2,0.2-1.7,0.5s-0.8,0.9-0.1,1.1
					c1,0.3,2.8,0.2,3.8-0.3c0.3-0.2,0.6-0.6,0.4-0.9C565.6,278.9,565.6,278.8,565.6,278.8z"/>
			</g>
			<g>
				<path class="st28" d="M565.5,278.9c-0.2,0.4,0,0.8,0.3,1c0.9,0.6,2.7,0.9,3.7,0.7c0.7-0.1,0.5-0.8,0.1-1.1
					c-0.5-0.4-1-0.6-1.6-0.7c-0.5-0.1-1.1-0.3-1.7-0.3C566,278.5,565.7,278.6,565.5,278.9z"/>
			</g>
			<g>
				<path class="st29" d="M561.9,264.4c-0.2,0-0.5-0.2-0.5-0.4l-0.3-1.7c0-0.3,0.1-0.5,0.4-0.6c0.3,0,0.5,0.1,0.6,0.4l0.3,1.7
					C562.4,264.1,562.2,264.4,561.9,264.4L561.9,264.4z"/>
			</g>
			<g>
				<path class="st29" d="M563.8,263.6c-0.1,0-0.1,0-0.2,0c-0.3-0.1-0.4-0.4-0.3-0.6c0-0.1,1.1-2.9,3.8-3.9c2.6-1,5.6-0.3,5.7-0.3
					c0.3,0.1,0.4,0.3,0.4,0.6c-0.1,0.3-0.3,0.4-0.6,0.4c0,0-2.8-0.6-5.1,0.2c-2.3,0.8-3.2,3.2-3.2,3.3
					C564.2,263.4,564,263.6,563.8,263.6z"/>
			</g>
			<g>
				<path class="st30" d="M556.5,294.6l-18.1,6.1c-0.6,1.7-1.3,3.4-1.9,5.1c0,0.1,0,0.2,0,0.3c-0.9,3-1.7,6.1-2.7,9.1
					c-0.3,1-0.7,2.1-1.1,3h21.9c-0.6-5-1.3-11.6-1.3-12.6C553.3,304.1,556.5,294.6,556.5,294.6z"/>
			</g>
			<g>
				<path class="st30" d="M584,318.3c0.6-2.4,1.2-4.8,1.9-7.2c0.8-2.6,2-5.4,2.1-8.1c-4.1-2.7-12.7-7.4-12.7-7.4s-1.1,6.7-2.2,9.7
					c-0.7,1.8-4.4,8.3-7.4,13.1H584V318.3z"/>
			</g>
			<g>
				<path class="st31" d="M537.6,302.7c-0.3,0.7-0.5,1.3-0.8,2c0.4,3.3,0.8,7.1,0.8,7.4s-0.6,3.2-1.2,6.2h1c0.6-2.8,1.1-5.9,1.1-6.2
					C538.7,311.7,537.8,304.2,537.6,302.7z"/>
			</g>
			<g>
				<path class="st31" d="M584,318.3c0.6-2.4,1.2-4.8,1.9-7.2c0-0.1,0.1-0.2,0.1-0.2c-0.7,1.2-1.2,2.1-1.2,2.4
					c0,0.4-0.6,2.7-1.3,5.1L584,318.3L584,318.3z"/>
			</g>
			<g>
				<path class="st31" d="M552.1,307.4C552,307.4,552,307.4,552.1,307.4c-1.3-0.2-4.4-0.7-4.9-1.1c-0.4-0.3-0.9-0.6,4.5-9.8
					c0.1-0.2,0.4-0.3,0.7-0.2c0.2,0.1,0.3,0.4,0.2,0.7c-2.1,3.5-4.2,7.4-4.6,8.5c0.7,0.2,2.6,0.6,4.2,0.8c0.3,0,0.5,0.3,0.4,0.6
					S552.3,307.4,552.1,307.4z"/>
			</g>
			<g>
				<path class="st31" d="M550.4,318.3c-1.2-3.6-2.5-7.4-2.5-7.9c0.1-0.4,1.2-1.9,2.2-3.2c0.2-0.2,0.1-0.5-0.1-0.7s-0.5-0.1-0.7,0.1
					c-0.9,1.1-2.4,3-2.5,3.7c0,0.5,1.3,4.5,2.5,8H550.4z"/>
			</g>
			<g>
				<path class="st31" d="M577.1,309.1c-0.9,0-2.4-0.1-5-0.5c-0.3,0-0.5-0.3-0.4-0.6c0-0.3,0.3-0.5,0.6-0.4c2.1,0.3,4.5,0.6,5.3,0.5
					c0-1.8,0-9.4,0-10.3c0-0.3,0.2-0.5,0.5-0.5l0,0c0.3,0,0.5,0.2,0.5,0.5c0,4,0,10.2,0,10.6c0,0.2,0,0.4-0.2,0.5
					C578.3,308.9,578.1,309.1,577.1,309.1z"/>
			</g>
			<g>
				<path class="st31" d="M576.1,312.8c-0.3,0.5-2.6,3-4.9,5.5h1.4c4.4-4.7,4.5-5.1,4.5-5.2c0.1-0.6-0.7-2.8-1.4-4.6
					c-0.1-0.3-0.4-0.4-0.6-0.3c-0.3,0.1-0.4,0.4-0.3,0.6C575.3,310.4,576,312.4,576.1,312.8z"/>
			</g>
			<g>
				<g>
					<g>
						<path class="st32" d="M561.6,276.1c-1.1,0-2.2-0.2-2.7-0.6c-0.1-0.1-0.4-0.3-0.5-3.5v-0.2l0.2-0.1c0.1,0,1.5-0.4,3.6-0.2
							c2.1,0.1,3.1,0.7,3.1,0.7l0.2,0.1l-0.1,0.2c-0.1,0.3-1,2.6-1.7,3.1C563.2,275.9,562.4,276.1,561.6,276.1z M558.9,272.2
							c0.1,1.3,0.2,2.7,0.3,2.9c0.5,0.4,3.2,0.7,4.2,0.1c0.4-0.3,1.1-1.7,1.4-2.6c-0.4-0.2-1.3-0.5-2.7-0.6
							C560.5,271.9,559.3,272.1,558.9,272.2z"/>
						<path class="st32" d="M561.6,276.2c-1.2,0-2.3-0.2-2.8-0.6c-0.1-0.1-0.4-0.3-0.6-3.6v-0.2c0-0.1,0-0.1,0.1-0.2l0.2-0.1
							c0.1,0,1.5-0.4,3.6-0.2c2.1,0.1,3.2,0.7,3.2,0.8l0.2,0.1c0.1,0,0.1,0.1,0.1,0.2l-0.1,0.2c-0.2,0.4-1,2.7-1.8,3.2
							C563.1,276.2,562.1,276.2,561.6,276.2z M558.5,271.9L558.5,271.9c0.1,2.9,0.4,3.4,0.5,3.4c0.4,0.3,1.5,0.5,2.6,0.5
							c0.9,0,1.6-0.1,2-0.4c0.6-0.4,1.3-2.1,1.6-3v-0.1h-0.1c0,0-1-0.6-3.1-0.7C560.1,271.5,558.7,271.9,558.5,271.9L558.5,271.9z
							 M561.6,275.7c-1,0-2.1-0.2-2.5-0.5l0,0c-0.2-0.4-0.4-2.9-0.4-3s0.1-0.1,0.1-0.2c0.4-0.1,1.7-0.3,3.2-0.2
							c1.5,0.1,2.4,0.4,2.8,0.6c0.1,0,0.1,0.1,0.1,0.2c-0.1,0.2-0.9,2.3-1.5,2.7C563.1,275.6,562.3,275.7,561.6,275.7z M559.4,275
							c0.6,0.4,3.1,0.6,3.9,0.1c0.3-0.2,0.9-1.3,1.3-2.4c-0.4-0.2-1.2-0.4-2.5-0.5c-1.4-0.1-2.5,0.1-3,0.1
							C559.1,273.7,559.3,274.8,559.4,275z"/>
					</g>
				</g>
				<g>
					<g>
						<path class="st32" d="M571.1,276.7c-1.1,0-2.5-0.3-3.1-0.8c-0.7-0.6-1.2-3-1.2-3.3v-0.2l0.2-0.1c0.1,0,1.5-0.4,3.5-0.2
							c2.1,0.2,3.5,0.9,3.5,0.9l0.2,0.1l-0.1,0.2c-0.5,1.3-1.1,3-1.4,3.2C572.4,276.7,571.8,276.7,571.1,276.7z M567.3,272.8
							c0.2,1,0.7,2.4,1,2.8c0.9,0.8,3.5,0.8,4.2,0.5c0.2-0.1,0.7-1.5,1.1-2.7c-0.4-0.2-1.6-0.6-3.2-0.8
							C568.9,272.5,567.7,272.7,567.3,272.8z"/>
						<path class="st32" d="M571.1,276.9c-1,0-2.5-0.2-3.2-0.8c-0.7-0.6-1.2-2.9-1.3-3.4v-0.2c0-0.1,0-0.2,0.1-0.2l0.2-0.1
							c0.1,0,1.5-0.4,3.6-0.2c2.1,0.2,3.5,0.9,3.6,0.9l0.2,0.1c0.1,0,0.1,0.1,0.1,0.2l-0.1,0.2c-1,3-1.4,3.2-1.5,3.2
							C572.4,276.8,571.8,276.9,571.1,276.9z M566.9,272.5L566.9,272.5c0.2,1.1,0.7,2.8,1.2,3.3c0.6,0.5,2,0.8,3,0.8
							c0.7,0,1.2-0.1,1.5-0.2c0.1,0,0.4-0.3,1.3-3.1v-0.1h-0.1c-0.1,0-1.4-0.7-3.5-0.9C568.4,272.1,567,272.5,566.9,272.5
							L566.9,272.5z M571.1,276.4c-1,0-2.3-0.2-2.9-0.7c-0.5-0.5-1-2.6-1.1-2.9v-0.1l0.1-0.1c0.4-0.1,1.6-0.3,3.2-0.2
							c1.6,0.1,2.8,0.6,3.2,0.8c0.1,0,0.1,0.1,0.1,0.2c-0.2,0.7-0.9,2.5-1.1,2.7l0,0C572.3,276.3,571.7,276.4,571.1,276.4z
							 M567.5,272.9c0.3,1.1,0.7,2.3,0.9,2.5c0.8,0.7,3.3,0.8,4,0.5c0.1-0.2,0.6-1.2,1-2.5c-0.5-0.2-1.6-0.6-3-0.7
							C569,272.7,568,272.8,567.5,272.9z"/>
					</g>
				</g>
				<g>
					<g>
						<path class="st32" d="M566.1,273L566.1,273c-0.5,0-1-0.3-1.1-0.3l0.2-0.5c0.1,0.1,0.6,0.2,0.8,0.3c0.2,0,0.7-0.1,0.9-0.1
							l0.1,0.5C567,272.9,566.5,273,566.1,273z"/>
						<path class="st32" d="M566.1,273.2L566.1,273.2c-0.5,0-1-0.2-1.1-0.3c0,0-0.1,0-0.1-0.1v-0.1l0.2-0.5c0,0,0-0.1,0.1-0.1h0.1
							c0.2,0.1,0.6,0.2,0.8,0.2s0.6-0.1,0.8-0.1c0.1,0,0.2,0,0.2,0.1l0.1,0.5c0,0.1,0,0.2-0.1,0.2C567,273,566.5,273.2,566.1,273.2z
							 M565.2,272.6c0.3,0.1,0.6,0.2,0.8,0.2c0.3,0,0.6-0.1,0.8-0.1v-0.2c-0.2,0-0.6,0.1-0.8,0.1s-0.5-0.1-0.7-0.2L565.2,272.6z"/>
					</g>
				</g>
				<g>
					<g>
						<path class="st32" d="M558.8,271.7c0,0-1.2,0.1-1.2,0.2s0,0.8,0.1,0.8s0.9,0.3,0.9,0.3L558.8,271.7z"/>
						<path class="st32" d="M558.7,273.2C558.7,273.2,558.6,273.2,558.7,273.2c-0.2-0.1-0.9-0.3-1-0.4c-0.2-0.1-0.2-1-0.2-1
							c0-0.1,0-0.2,1.3-0.3h0.1c0,0,0.1,0.1,0,0.1l-0.1,1.3C558.8,273.2,558.8,273.2,558.7,273.2L558.7,273.2z M557.9,272.6
							c0.1,0,0.4,0.2,0.7,0.2l0.1-0.9c-0.3,0-0.7,0.1-0.8,0.1C557.8,272.2,557.8,272.5,557.9,272.6z"/>
					</g>
				</g>
				<g>
					<g>
						<path class="st32" d="M573.8,272.9l1.1,0.4c0,0.1-0.2,0.8-0.3,0.8s-1,0.1-1,0.1L573.8,272.9z"/>
						<path class="st32" d="M573.6,274.4L573.6,274.4c-0.1,0-0.2-0.1-0.1-0.1l0.2-1.3c0,0,0-0.1,0.1-0.1h0.1
							c1.2,0.4,1.2,0.5,1.2,0.6c0,0-0.2,0.9-0.4,0.9C574.5,274.3,573.8,274.4,573.6,274.4L573.6,274.4z M573.9,273.2l-0.1,0.9
							c0.3,0,0.6-0.1,0.7-0.1c0.1-0.1,0.2-0.4,0.2-0.6C574.6,273.4,574.2,273.3,573.9,273.2z"/>
					</g>
				</g>
				<g>
					<g>
						<path class="st32" d="M559,273.5c0,0,0-1,0.2-1.3c0.3-0.2,1.9-0.3,1.9-0.3l-2.6,0.1L559,273.5z"/>
						<path class="st32" d="M559,273.7c-0.1,0-0.1,0-0.2-0.1l-0.5-1.5V272l0.1-0.1l2.6-0.1c0.1,0,0.2,0.1,0.2,0.2s-0.1,0.2-0.2,0.2
							c-0.8,0-1.7,0.1-1.8,0.3c-0.1,0.1-0.2,0.7-0.2,1.1C559.1,273.6,559.1,273.6,559,273.7L559,273.7z M558.7,272.1l0.1,0.5
							c0-0.2,0.1-0.4,0.2-0.5H558.7z"/>
					</g>
				</g>
				<g>
					<g>
						<path class="st32" d="M565.1,272.5l-1.5-0.3c0.1,0,0.6,0.1,0.8,0.5c0.2,0.5-0.1,1.3-0.1,1.3L565.1,272.5z"/>
						<path class="st32" d="M564.2,274.2L564.2,274.2c-0.1-0.1-0.2-0.1-0.1-0.2c0.1-0.2,0.3-0.8,0.2-1.2c-0.2-0.3-0.5-0.4-0.6-0.4
							h-0.1c-0.1,0-0.1-0.1-0.1-0.2s0.1-0.1,0.2-0.1l1.5,0.3c0.1,0,0.1,0,0.1,0.1v0.1l-0.8,1.6C564.3,274.2,564.3,274.2,564.2,274.2
							z M564.4,272.5c0,0,0.1,0.1,0.1,0.2s0.1,0.2,0.1,0.3l0.2-0.4L564.4,272.5z"/>
					</g>
				</g>
				<g>
					<g>
						<path class="st32" d="M573.1,274.6c0,0,0.4-1,0.2-1.2c-0.2-0.3-1.9-0.7-1.9-0.7s2.5,0.2,2.6,0.7
							C574.3,273.8,573.1,274.6,573.1,274.6z"/>
						<path class="st32" d="M573.1,274.8L573.1,274.8c-0.2,0-0.2-0.1-0.1-0.2c0.2-0.4,0.3-1,0.2-1.1s-1-0.4-1.8-0.6
							c-0.1,0-0.1-0.1-0.1-0.2s0.1-0.1,0.2-0.1c0.8,0.1,2.6,0.3,2.8,0.8C574.4,273.9,573.4,274.6,573.1,274.8
							C573.2,274.8,573.1,274.8,573.1,274.8z M573.2,273.1c0.1,0.1,0.2,0.1,0.3,0.2c0.1,0.2,0.1,0.5,0,0.9c0.3-0.3,0.5-0.6,0.5-0.7
							C573.9,273.3,573.6,273.2,573.2,273.1z"/>
					</g>
				</g>
				<g>
					<g>
						<path class="st32" d="M567,272.6l1.5-0.1c-0.1,0-0.6,0-0.8,0.4c-0.3,0.4,0,1.3,0,1.3L567,272.6z"/>
						<path class="st32" d="M567.6,274.4c-0.1,0-0.1,0-0.1-0.1l-0.6-1.7v-0.1l0.1-0.1l1.5-0.1c0.1,0,0.2,0.1,0.2,0.1
							c0,0.1,0,0.2-0.1,0.2c0,0,0,0-0.1,0s-0.5,0-0.7,0.4c-0.2,0.3-0.1,1,0,1.2C567.8,274.3,567.8,274.4,567.6,274.4
							C567.7,274.4,567.6,274.4,567.6,274.4z M567.2,272.8l0.2,0.4c0-0.1,0.1-0.2,0.1-0.3c0-0.1,0.1-0.1,0.1-0.1H567.2z"/>
					</g>
				</g>
				<g>
					<g>
						<path class="st32" d="M565,273.3c0,0,0.5-0.2,1-0.2c0.6,0,1,0.3,1,0.3v-0.7l-1.2,0.1l-0.8-0.2V273.3z"/>
						<path class="st32" d="M567,273.6L567,273.6c-0.1,0-0.5-0.3-1-0.3s-1,0.2-1,0.2c-0.1,0-0.1,0-0.2,0l-0.1-0.1l0.1-0.7
							c0,0,0-0.1,0.1-0.1h0.1l0.7,0.2l1.2-0.1h0.1l0.1,0.1L567,273.6C567.2,273.5,567.2,273.5,567,273.6
							C567.1,273.6,567.1,273.6,567,273.6z M566,272.9L566,272.9c0.4,0,0.7,0.1,0.9,0.2v-0.3L566,272.9L566,272.9l-0.7-0.1v0.3
							C565.4,273,565.6,272.9,566,272.9z"/>
					</g>
				</g>
			</g>
			<g>
				<g>
					<path class="st32" d="M577.2,274.7l-3.6-1l-0.2,0.8l3.3,0.7C576.9,274.8,577.1,274.7,577.2,274.7z"/>
				</g>
			</g>
			<g>
				<path class="st17" d="M561.3,309.9c-0.2,0-0.3-0.1-0.4-0.3c-0.1-0.1-1.7-3.1-2.1-4.7c-0.2-0.8-0.3-2-0.3-3.1s-0.1-2.2-0.3-2.8
					c-0.4-1.2-2.1-4.2-2.1-4.2l-0.2-0.3l2.7-2.9c0.2-0.2,0.5-0.2,0.7,0s0.2,0.5,0,0.7l-2.2,2.3c0.5,0.8,1.7,3,2,4.1
					c0.2,0.7,0.3,1.8,0.3,3c0,1.1,0.1,2.2,0.3,2.9c0.4,1.5,2,4.5,2,4.5c0.1,0.2,0,0.5-0.2,0.7C561.5,309.9,561.4,309.9,561.3,309.9z
					"/>
			</g>
			<g>
				<path class="st17" d="M562.8,310.1c-0.1,0-0.3-0.1-0.4-0.2c-0.2-0.2-0.1-0.5,0.1-0.7c0,0,3.6-3,4.9-4.8c0.6-0.8,0.8-1.4,1-2
					c0.2-0.7,0.5-1.4,1.3-2.4c1.5-1.7,4.8-4.5,4.9-4.6c0.2-0.2,0.5-0.2,0.7,0.1c0.2,0.2,0.2,0.5-0.1,0.7c0,0-3.4,2.9-4.8,4.5
					c-0.7,0.8-0.9,1.4-1.1,2.1c-0.2,0.6-0.4,1.3-1.1,2.2c-1.3,1.8-4.9,4.8-5,5C563,310.1,562.9,310.1,562.8,310.1z"/>
			</g>
			<g>
				<path class="st17" d="M574.9,296.3c-0.2,0-0.4-0.1-0.4-0.3l-1.8-3.5c-0.1-0.2,0-0.5,0.2-0.7c0.2-0.1,0.5,0,0.7,0.2l1.8,3.5
					c0.1,0.2,0,0.5-0.2,0.7C575,296.3,575,296.3,574.9,296.3z"/>
			</g>
			<g>
				<path class="st17" d="M560.7,318.3c0.2-1.3,0.4-2.8,0.4-3.9c0-2.2,1.1-3.9,1.1-3.9c0.1-0.2,0.1-0.5-0.1-0.7
					c-0.2-0.1-0.5-0.1-0.7,0.1c0,0.1-1.2,1.9-1.2,4.4c0,1.1-0.2,2.7-0.5,3.9h1V318.3z"/>
			</g>
			<g>
				<path class="st15" d="M574.3,316.8c0,0,7.6,0.7,7.6,0.1c-0.1-0.6-1.7-3.1-2.1-3.4S574.3,316.8,574.3,316.8z"/>
			</g>
		</g>
		<g>
			<path class="st17" d="M584,318.9h-52.5l0.2-0.6c9.2-23.3,13.3-45.5,17-68.2l0.1-0.4h50.4l-0.7,4c-3.9,23.9-8.5,44.5-14.5,64.8
				V318.9z M532.9,318h50.5c6-20.2,10.5-40.6,14.4-64.4l0.5-3h-48.6C546,273,541.9,295,532.9,318z"/>
		</g>
		<g>
			<path class="st17" d="M527.6,436.5h-65.7l1.1-0.8c10.2-7.5,17.7-16.2,25.9-27c8-10.5,12.2-17.3,14.3-22.9l0.1-0.3h58.1l-0.3,0.6
				c-0.1,0.1-6.2,14.6-15.9,29.3c-6.1,9.3-17.4,20.8-17.5,20.9L527.6,436.5z M464.6,435.6h62.6c1.3-1.3,11.6-12,17.3-20.6
				c8.4-12.9,14.2-25.6,15.5-28.5h-56.1c-2.2,5.6-6.5,12.4-14.3,22.8C481.6,419.7,474.3,428.2,464.6,435.6z"/>
		</g>
		<g>
			<g>
				<path class="st17" d="M705.2,59.8h-15.5c-0.3,0-0.5-0.1-0.7-0.3s-0.2-0.5-0.2-0.7v-0.1l4.7-6.4c0.1-0.3,0.4-0.6,0.8-0.6h15.6
					c0.3,0,0.5,0.1,0.7,0.3s0.2,0.5,0.2,0.7v0.1l-4.7,6.4C705.9,59.6,705.5,59.8,705.2,59.8z M689.8,58.9h15.4v-0.1l4.6-6.2h-15.4
					v0.1L689.8,58.9z"/>
			</g>
			<g>
				<path class="st17" d="M700,55.6c-0.1,0-0.3,0-0.4-0.1l-5.4-2.7c-0.2-0.1-0.3-0.4-0.2-0.6c0.1-0.2,0.4-0.3,0.6-0.2l5.4,2.7
					l9.8-2.8c0.2-0.1,0.5,0.1,0.6,0.3s-0.1,0.5-0.3,0.6l-9.8,2.8C700.2,55.6,700.1,55.6,700,55.6z"/>
			</g>
		</g>
		<g>
			<path class="st17" d="M723,57.2c-5.6,0-9.9,0-10.2,0c-0.2,0-0.4-0.2-0.4-0.5c0-0.2,0.2-0.4,0.5-0.4c0.7,0,24.4,0,36.8,0l0,0
				c0.3,0,0.5,0.2,0.5,0.5s-0.2,0.5-0.5,0.5C747.3,57.2,733.1,57.2,723,57.2z"/>
		</g>
		<g>
			<path class="st17" d="M812,57.2h-36.6c-0.3,0-0.5-0.2-0.5-0.5s0.2-0.5,0.5-0.5H812c0.3,0,0.5,0.2,0.5,0.5S812.3,57.2,812,57.2z"
				/>
		</g>
		<g>
			<g>
				<path class="st17" d="M767.1,61.4h-7.2c-0.3,0-0.6-0.1-0.8-0.4c-0.2-0.2-0.3-0.5-0.2-0.8v-0.1l4.5-9.1c0.1-0.5,0.5-0.8,1-0.8
					h7.2c0.3,0,0.6,0.1,0.8,0.4c0.2,0.2,0.3,0.5,0.2,0.8v0.1l-4.5,9.1C768,61.1,767.6,61.4,767.1,61.4z M759.8,60.4
					C759.8,60.4,759.8,60.5,759.8,60.4C759.9,60.5,759.9,60.5,759.8,60.4l7.3,0.1c0.1,0,0.1-0.1,0.1-0.1v-0.1l4.5-9.1v-0.1l-0.1-0.1
					h-7.2c-0.1,0-0.1,0.1-0.1,0.1v0.1L759.8,60.4z"/>
			</g>
			<g>
				<path class="st17" d="M764.4,59.9h-1.8c-0.3,0-0.5-0.2-0.5-0.5s0.2-0.5,0.5-0.5h1.8c0.3,0,0.5,0.2,0.5,0.5
					S764.7,59.9,764.4,59.9z"/>
			</g>
		</g>
		<g>
			<path class="st21" d="M762,217.2H541.9c-0.5,0-0.9-0.4-0.9-0.9s0.4-0.9,0.9-0.9H762c0.5,0,0.9,0.4,0.9,0.9S762.5,217.2,762,217.2
				z"/>
		</g>
		<g>
			<path class="st21" d="M751.6,353.1h-245c-0.5,0-0.9-0.4-0.9-0.9s0.4-0.9,0.9-0.9h244.9c0.5,0,0.9,0.4,0.9,0.9
				S752.1,353.1,751.6,353.1z"/>
		</g>
		<g>
			<path class="st21" d="M816.8,86.4H587.4c-0.5,0-0.9-0.4-0.9-0.9s0.4-0.9,0.9-0.9h229.3c0.5,0,0.9,0.4,0.9,0.9
				C817.7,86,817.3,86.4,816.8,86.4z"/>
		</g>
		<g>
			<path class="st15" d="M677.5,47c0,0.9-0.2,1.7-0.4,2.5c0,0.1-0.1,0.3-0.1,0.4c-0.3,1-0.7,1.6-0.7,1.6l-8,8.2h-48.5
				c0,0,1.5-3.4,3.6-5.6c2.1-2.2,4.6-4.4,4.6-4.4s2.6-1.4,5.2-2.7c0.1-0.1,0.3-0.1,0.4-0.2c0.8-0.4,1.5-0.8,2.2-1.1h41.6
				C677.5,45.9,677.5,46.4,677.5,47z"/>
		</g>
		<g>
			<g>
				<path class="st17" d="M683.5,45.6c-5,3.3-9.6,7.2-15.6,13.7h-47.7c3.1-5.9,9.1-10.4,14.3-13.7h-1.7c-5.2,3.4-10.9,8-13.7,13.9
					l-0.3,0.6h49.5l0.1-0.1c6.4-7,11.3-10.9,16.7-14.4H683.5z"/>
			</g>
		</g>
		<g>
			<path class="st30" d="M655.6,45.6c-0.9,0.4-1.6,0.8-2,1.2c-1.2,1.3-4,8.1-4.2,8.5c0.1-0.3,0.7-3.8,0.7-5.9c0-1.2-0.5-2.8-0.9-3.9
				h6.4V45.6z"/>
		</g>
		<g>
			<path class="st33" d="M774.5,130.1c-0.1,0-0.2,0-0.2,0c-0.4-0.1-0.6-0.4-0.7-0.8l-1.4-12.6c-0.1-0.5,0.3-0.9,0.8-1
				c0.5,0,0.9,0.3,1,0.8l1.1,10.1l14.2-21c0.3-0.4,0.8-0.5,1.3-0.2c0.4,0.3,0.5,0.8,0.2,1.3l-15.6,23
				C775.1,130,774.8,130.1,774.5,130.1z"/>
		</g>
	</g>
	<g>
		<g>
			<path class="st20" d="M315.6,263.3c-0.2,0-0.4-0.1-0.4-0.3l-5-15.5l1-4.5c0.1-0.2,0.3-0.4,0.5-0.3c0.2,0.1,0.4,0.3,0.3,0.5
				l-0.9,4.3l4.9,15.3c0.1,0.2-0.1,0.5-0.3,0.6C315.7,263.3,315.7,263.3,315.6,263.3z"/>
		</g>
		<g>
			<g>
				<path class="st19" d="M348.3,225c0,0,5.9,4.1,9.3,7.7c3.4,3.6-0.7,53.2,0.2,58c0.9,4.8,0.3,44.5,0.2,46.1
					c-0.1,1.6-13.1,2.9-13.1,2.9s-2.9-85-3.6-85.9s0.4-25.7,0.4-25.7L348.3,225z"/>
			</g>
			<g>
				<polygon class="st16" points="299.2,459.3 295.7,472.7 290.6,475.6 287.8,470.7 289.5,454 295,452.4 				"/>
			</g>
			<g>
				<path class="st30" d="M327.4,315.2c-0.2-3.2-0.6-6.5-3-8.9c-2.2-2.1-5.2-3.1-8.1-3.8c-5.9-1.5-22.8,3.1-23.2,4.2
					c-0.7,1.8-1,3.7-1.2,5.6c-1,8.8-3,48.9-4.4,58.6c-1.7,12.2-0.8,24.6-2.9,36.7c-2.7,15.3-2.1,24.4-5.4,39.7
					c-0.2,0.9-3,14.1-2.5,14.9c0.4,0.8,22.9,0.6,22.9,0.6s15.7-78,18.3-92.6c1.1-6.1,1.3-6.1,1.8-12.3c0,0,0.1,0,0.1-0.1
					C328.6,346.7,328.1,328.7,327.4,315.2z"/>
			</g>
			<g>
				<polygon class="st16" points="338.8,458.3 336.8,472 332.1,475.5 328.7,470.9 328.6,454.1 333.9,452 				"/>
			</g>
			<g>
				<path class="st30" d="M349,303.5L349,303.5c0-0.1,0-0.3,0-0.5l0,0c0-0.2,0.3-2.3,0.3-2.5c0-0.3-6.7,2-9.7,1.8
					c-2.9-0.2-5.9-0.5-8.8-0.4c-4.9,0.1-15.1-6.3-16.9-1.3c-0.9,2.6,4.2,13.6,4,16.3c-0.3,3.6-0.5,7.2-0.8,10.8
					c-0.5,6.8-1.3,16.4-1.3,23.2c0,3.3,0.3,6.6,1.1,9.8c0.8,3.5,2.3,28,1.9,36.7c-0.5,8.7-0.4,9.1-0.8,17.9
					c-0.2,4.2-0.4,8.4-0.4,12.6c0,3.9,1.1,8.5,0.1,12.3c-0.4,1.5-0.8,3-0.7,4.5c0.1,1.9,0.9,3.6,1.2,5.4c0.6,3.9-0.2,7.7-1,11.5l0,0
					c-0.1,0.4-0.4,1,0.2,1.1c0.3,0.1,0.6,0,1,0s0.8,0,1.3,0c0.1,0,0.1,0,0.1-0.1c5.8-0.1,18.8,0.1,18.8,0.1s7.2-73.3,7.7-79.2
					C348.4,359.9,350,317,349,303.5z"/>
			</g>
			<g>
				<path class="st28" d="M344.9,175.5c-0.2-1.1-0.8-2.1-1.5-2.9c-0.5-0.6-1-1-1.6-1.5c-2.8-1.9-5-3.1-8.2-2.7
					c-2.1,0.3-4.1,0.1-6.1-0.2c-1.6-0.2-4.4,0.6-6,0.9c-1.2,0.3-2.6,0.7-3.6,1.4s-1.7,1.9-2.7,2.6c-1.1,0.7-2,1.6-2.6,2.8
					c-0.6,1.3-0.5,2.5-0.5,3.9c0,1.5-0.3,3-0.5,4.4c-0.3,3.3,1.2,6,2,9.1c0.4,1.7,0.3,3.7,1.3,5.3c0.8,1.4,2.1,2.6,2.4,4.2
					c0.6,0,1.2-0.1,1.7-0.3c1.7-0.5,3.4-1.5,5-2.3c1.7-0.9,3.4-1.8,4.9-3c1.6-1.3,2.9-2.9,4.3-4.4c1.5-1.7,3.1-3.2,4.8-4.7
					c2.8-2.6,6.8-7.5,6.8-7.8C344.8,179.9,345.2,177.2,344.9,175.5z"/>
			</g>
			<g>
				<path class="st28" d="M313.4,307c0,0,10.8,0.8,20.4,0.6S350,307,350,307l-0.8-7.6c0,0-22.6,0.3-25.8,0
					c-3.2-0.3-10.4-2.2-10.6-0.7C312.7,300.1,313.4,307,313.4,307z"/>
			</g>
			<g>
				<path class="st28" d="M318.7,166.2c-1.9-1.1-4.3-1.4-6.4-1.9c-1-0.3-1.9,0.1-2.3,1c-0.6,1.4-0.5,3.2-0.7,4.7
					c-0.2,1.3-0.5,2.6,0.7,3.5c1,0.7,2,0.3,3-0.2c1.7-1,3.7-1.5,5.5-2.1c0.8-0.3,2.7-0.6,2.7-1.7
					C321.3,168.1,319.7,166.8,318.7,166.2z"/>
			</g>
			<g>
				<rect x="319.1" y="301.2" class="st30" width="2.3" height="8.4"/>
			</g>
			<g>
				<rect x="343.6" y="301.7" class="st30" width="2.3" height="8.4"/>
			</g>
			<g>
				<path class="st17" d="M335.8,308.2h-4.5c-1,0-1.7-0.8-1.7-1.7v-2.3c0-1,0.8-1.7,1.7-1.7h4.5c1,0,1.7,0.8,1.7,1.7v2.3
					C337.5,307.4,336.7,308.2,335.8,308.2z M331.3,303.4c-0.5,0-0.8,0.4-0.8,0.8v2.3c0,0.5,0.4,0.8,0.8,0.8h4.5
					c0.5,0,0.8-0.4,0.8-0.8v-2.3c0-0.5-0.4-0.8-0.8-0.8H331.3z"/>
			</g>
			<g>
				<path class="st16" d="M344.5,199c-0.3,2.5-0.8,5.4-2,7.8c-0.9,2-2.3,3.8-4.4,5s-5.5,0.7-8.9-0.5c-4.5-1.6-8.9-4.4-10.4-6.2
					c-2.6-3.3-6.5-25.3,2-30.5s23.9,2,23.9,2s0.1,2.1,0.2,7.7c0,0.7,0,1.3,0,2C344.9,191.4,344.8,196.6,344.5,199z"/>
			</g>
			<g>
				<polygon class="st16" points="317.3,197.1 313.9,219.1 322.2,228 331.5,223.1 333,210.1 				"/>
			</g>
			<g>
				<path class="st10" d="M344,189.5c-0.1-0.3-0.2-0.8-0.5-0.9c-1.7-0.5-1.1,4.1,0.2,2.9C344.1,191,344.1,190,344,189.5z"/>
			</g>
			<g>
				<path class="st10" d="M333.4,189.5c-0.1-0.3-0.2-0.8-0.5-0.9c-1.7-0.5-1.1,4.1,0.2,2.9C333.5,191,333.5,190,333.4,189.5z"/>
			</g>
			<g>
				<path class="st26" d="M339.5,199.2c-0.7,0-1.3-0.1-1.5-0.2c-0.2-0.1-0.4-0.3-0.3-0.5s0.3-0.4,0.5-0.3c0.6,0.1,2.4,0.4,2.8-0.4
					c0.3-0.5-0.2-3.3-0.9-5.6c-0.1-0.2,0.1-0.5,0.3-0.6c0.2-0.1,0.5,0.1,0.6,0.3c0.3,1.2,1.3,5.2,0.8,6.2
					C341.4,199,340.4,199.2,339.5,199.2z"/>
			</g>
			<g>
				<path class="st28" d="M335.9,185c-0.5-0.5-1.4-0.6-2.1-0.6c-1.3-0.1-2.7,0.2-3.9,0.8c-0.3,0.2-0.7,0.4-1,0.7
					c-0.2,0.2-0.5,0.8,0,0.8c0.7,0,1.5-0.2,2.2-0.2c0.8,0,1.6-0.1,2.3,0c0.7,0,1.5,0.2,2.2,0C336.3,186.1,336.4,185.5,335.9,185z"/>
			</g>
			<g>
				<path class="st28" d="M344.8,186.8h-0.3c-0.7,0-1.5,0.2-2.2-0.1c-0.6-0.3-0.8-0.9-0.3-1.4s1.4-0.6,2.1-0.6c0.2,0,0.4,0,0.6,0
					C344.8,185.5,344.8,186.2,344.8,186.8z"/>
			</g>
			<g>
				<path class="st28" d="M338.4,206.5c-0.1-0.4-0.1-1-0.1-1.4s0-1.3,0-1.3s-0.7-0.3-1.1-0.3v-0.1c0-0.3-0.4-0.4-0.4-0.1
					c0,0.1,0,0.2,0,0.4c0,0.1-0.1,1.2-0.2,1.7s-0.2,1-0.6,1.3c-0.4,0.4-1.1,0.2-1.7,0.1c-2.8-0.6-4.7-2.4-6.7-4.4
					c-1.5-1.5-1.8-4.7-1.9-6.7c-0.3-4.2-0.8-8.3-1.3-12.5c0-0.3-0.5-0.3-0.5,0c0.1,0.8,0.2,1.6,0.3,2.5c-0.9,0.3-1.2,1.3-1.2,1.3
					s0.4,4.6,0.5,6.5c0.2,3.6,0.3,7.2,0.7,10.8c0.1,1.3,0.6,2.9,1.3,4.1c0.6,1,1.4,2,2.3,2.7c1.4,1.1,3,1.9,4.8,2.2
					c1.7,0.3,3.7-0.4,5.3-1.2c2.1-1.2,3.5-3,4.4-5C341,207.4,338.7,207.9,338.4,206.5z"/>
			</g>
			<g>
				<path class="st28" d="M344.8,178.4c0.1-1.3,0.2-1.7-0.6-2.8c-1.1-1.3-2.8-1.3-4.3-1.6c-4.2-0.8-8.6-1.5-13-1.5
					c-3.4,0.1-7,1-9.2,3.6c-1.2,1.4-1.6,3-1.9,4.8c-0.4,2.1-0.6,4.3-0.6,6.4c0,2.4,0.3,4.9,0.3,7.3c0,2.3,1.2,6.4,1.2,6.4
					s3.3-7.7,3.2-12.1l0.1-0.1c0-0.9,0.2-1.7,0.6-2.4c0.5-0.8,2.5,0.3,2.5,0.3s0.2,0.6,1,0.6s0.8-0.1,0.8-0.1s-0.2-3.8,2.2-5.7
					c1.2-1,2.5-1.8,4.1-1.9c1.7-0.2,3.2,0.5,4.9,0.8c3,0.6,8.7-0.3,8.7-0.3S344.8,178.5,344.8,178.4z"/>
			</g>
			<g>
				<path class="st16" d="M323.1,186.9c0,0-2.4-4-4.4-1.7c-1.9,2.1-2,5.6-0.3,7.9c0.1,0.2,1.6,1.7,1.8,1.4c0,0,3.1-3.1,3.1-3.7
					S323.1,186.9,323.1,186.9z"/>
			</g>
			<g>
				<path class="st26" d="M341.4,202.3c0,0-2.5-0.1-4.7-0.4c-2.2-0.2-3.2-1.4-3.2-1.4s0.7,2.8,3.3,3.1
					C340.6,204.1,341.4,202.3,341.4,202.3z"/>
			</g>
			<g>
				<path class="st14" d="M315.3,210.2c0,0,10.7,7.4,12.1,7.5s5-2,5-2s15.7,11.6,19.1,15.6s0.2,26.9-0.5,32.8s-0.3,33.9-0.9,36.8
					s-18.1,2.1-27.4,1.8c-9.4-0.3-28.4,1.6-31.1-1.5s-0.4-40.2,0.9-51c1.3-10.8-0.6-21.7-0.5-24
					C292.1,223.8,315.3,210.2,315.3,210.2z"/>
			</g>
			<g>
				<path class="st10" d="M328.4,469.6c0.4,0,3.8,1.8,4.6,1.9c0.8,0.1,3.8-1.9,4.8-1.7c1,0.2,1.3,1.4,1.5,1.7
					c0.1,0.4,6.3,5.3,7.2,6.1c0.9,0.8,6.4,2.9,7.1,3.5c0.6,0.6,0,3.2,0,3.2s-26.4,0.3-26.7-0.4c-0.3-0.7,0.8-8.3,0.7-10.9
					C327.5,470.5,328,469.6,328.4,469.6z"/>
			</g>
			<g>
				<path class="st10" d="M287.5,470c0,0,0.3-1,2.4-1s6.1,1.2,6.6,2.2s-0.3,6.6-0.5,7.6c-0.1,1-0.3,5.6-0.8,6.2s-6.9,4.3-8.1,4.8
					s-6.9,0.4-8.4,0.2c-1.4-0.2-2.8-1-3-1.4s0.8-3.6,2.7-5.6c3.6-3.7,4.8-5.9,6.8-8.3C286.4,473.1,287.5,470,287.5,470z"/>
			</g>
			<g>
				<path class="st19" d="M307.7,214.8c0,0,9,22.6,9.5,35.9c0.5,13.3-0.9,48.2-2,57.1c-1,8.8-2.4,29.8-4.4,30.1
					c-2,0.3-31.7-10.3-32.3-11.2c-0.6-0.9,7.6-32,7.9-35s-5-58.7,2.1-66.8C292.1,221,307.7,214.8,307.7,214.8z"/>
			</g>
			<g>
				<path class="st19" d="M339.3,220.9c0,0,5.1,19.3,6.7,31.2c1.5,11.9,3.3,63.9,3.3,63.9l5.2-3.6v-49.7l-1.8-19.9
					c0,0-3.5-14.9-5.1-16.7C346.2,224.2,339.3,220.9,339.3,220.9z"/>
			</g>
			<g>
				<g>
					<path class="st16" d="M345.4,211c-1.9-1.6-5.8-2.3-7.6-2.4c-1.9-0.1-3.7-0.2-5.6-0.2c-1.2,0-2.4-0.3-3.6-0.1
						c-0.8,0.1-2.3,1.3-0.8,2c0.9,0.4,8.5,1.4,8.9,1.7s-0.8,2.4-0.5,3.9s0.3,1.3,1.6,4.2s5.6,3.8,8,3.9c2.4,0.1,3.4-7.5,3.4-7.5
						S347.3,212.6,345.4,211z"/>
				</g>
				<g>
					<path class="st16" d="M349.5,218.9c0,0,0.8-4.9-0.6-7.4s-2.6-4.8-2.7-5.7s0.1-2.9-1.1-2.6c-1,0.3-1.3,1.3-1.4,2.7
						s0.9,6.1,0.9,6.1s0.8,2.7,1.3,3.2C346.4,215.9,349.5,218.9,349.5,218.9z"/>
				</g>
			</g>
			<g>
				<polygon class="st16" points="342.8,221.5 351.2,259 360.1,262.1 365.3,255 349.2,215 				"/>
			</g>
			<g>
				<path class="st19" d="M345,237.9l12.7-5.2c0,0,4.1,5.2,5.3,8.5c1.2,3.3,7.3,13.2,7.3,26.4c0,4.7-5.3,8.3-11.2,7.8
					s-9.2-12.7-9.2-12.7L345,237.9z"/>
			</g>
			<g>
				<path class="st16" d="M344.7,276.9c0,0,4.3-4.9,6.8-5.8c2.6-1,8-1.1,9-1c1.1,0.1,2.2,1,0,1.8c-2.2,0.9-5.8,2.3-5.8,2.3
					s5.8,1.5,9.3,0.3s5.7-2.7,6.4-2.3c0.6,0.4,0.1,1-1,2.9c-1.1,2-7.6,7.7-10.5,8.3s-14.3-0.5-14.3-0.5v-6L344.7,276.9L344.7,276.9z
					"/>
			</g>
			<g>
				<polygon class="st16" points="351.3,283.3 345.9,283.6 341.8,283.8 308.2,285.8 303.1,278.7 308.9,271.2 341.6,274.6 345.8,275 
					347.2,275.2 				"/>
			</g>
			<g>
				<path class="st19" d="M309.1,257.7c0,0,4.1,8.8,6.1,10.1s17.6,2.9,17.9,4.1c0.2,1.2-0.9,16.4-0.9,16.4s-26.1,4.6-29,0.8
					c-2.9-3.8-9.1-22.1-9.1-23.1C294,265,309.1,257.7,309.1,257.7z"/>
			</g>
			<g>
				<path class="st26" d="M361.2,278.9c-0.2,0-0.4-0.1-0.4-0.3c-0.1-0.2,0-0.5,0.3-0.6l3.5-1.2c1.7-0.6,3.5-1.8,3.5-1.8
					c0.2-0.1,0.5-0.1,0.6,0.1s0.1,0.5-0.1,0.6c-0.1,0-1.9,1.2-3.7,1.9l-3.5,1.2C361.3,278.9,361.2,278.9,361.2,278.9z"/>
			</g>
			<g>
				<path class="st26" d="M339.3,215.4L339.3,215.4l-2.8-0.3c-0.2,0-0.4-0.2-0.4-0.5c0-0.2,0.2-0.4,0.5-0.4l2.7,0.3
					c0.2,0,0.4,0.2,0.4,0.5S339.5,215.4,339.3,215.4z"/>
			</g>
			<g>
				<path class="st26" d="M339.5,218.4h-2.1c-0.3,0-0.5-0.2-0.5-0.5s0.2-0.5,0.5-0.5h2.1c0.3,0,0.5,0.2,0.5,0.5
					C340,218.1,339.8,218.4,339.5,218.4z"/>
			</g>
			<g>
				<path class="st10" d="M345.9,283.6l-4.1,0.2c0.1-3.1,0-6.2-0.2-9.2l4.1,0.4C345.9,277.9,346,280.7,345.9,283.6z"/>
			</g>
			<g>
				<ellipse class="st15" cx="344" cy="280.7" rx="3.3" ry="3"/>
			</g>
			<g>
				<path class="st17" d="M322.1,223.4c-0.1,0-0.1,0-0.2,0c-1-0.3-7.9-8.1-10-10.5c-0.2-0.2-0.1-0.5,0-0.6c0.2-0.2,0.5-0.1,0.6,0
					c4.1,4.7,8.8,9.8,9.6,10.2c0.6-0.1,2.9-2.2,4.7-4.2c0.2-0.2,0.5-0.2,0.6,0c0.2,0.2,0.2,0.5,0,0.6
					C325.6,221,323.2,223.4,322.1,223.4z"/>
			</g>
			<g>
				<path class="st17" d="M332.9,223.9c-0.1,0-0.1,0-0.2,0c-1.1-0.3-3.9-3.9-4.7-5c-0.2-0.2-0.1-0.5,0.1-0.6
					c0.2-0.2,0.5-0.1,0.6,0.1c1.6,2.1,3.7,4.5,4.3,4.7l0,0c0.4,0,2-1.8,3.3-3.9c0.1-0.2,0.4-0.3,0.6-0.1c0.2,0.1,0.3,0.4,0.1,0.6
					C336,221.2,334.1,223.9,332.9,223.9z"/>
			</g>
			<g>
				<path class="st17" d="M336.2,272.4c-0.2,0-0.4-0.2-0.5-0.4c0,0-0.2-2.1-1.3-5.9c-0.6-2.1-0.5-4-0.4-6.4s0.3-5.3-0.2-9.5
					c-0.9-8.5-6.2-29.9-6.3-30.1c-0.1-0.2,0.1-0.5,0.3-0.5c0.2-0.1,0.5,0.1,0.5,0.3c0.1,0.2,5.4,21.7,6.3,30.2
					c0.5,4.3,0.3,7.3,0.2,9.7c-0.1,2.4-0.2,4.2,0.4,6.1c1.2,3.9,1.4,6.1,1.4,6.1C336.7,272.1,336.5,272.3,336.2,272.4L336.2,272.4z"
					/>
			</g>
			<g>
				<path class="st17" d="M336.2,302.2c-0.1,0-0.3-0.1-0.4-0.2c-0.2-0.2-0.1-0.5,0.1-0.6c0,0,1-0.9,1-2.7c0-2-0.4-13.4-0.4-13.5
					c0-0.3,0.2-0.5,0.4-0.5c0.2,0,0.5,0.2,0.5,0.4c0,0.5,0.4,11.5,0.4,13.5c0,2.3-1.3,3.3-1.4,3.4
					C336.4,302.1,336.3,302.2,336.2,302.2z"/>
			</g>
			<g>
				<path class="st31" d="M318.2,369.8h-0.1c-0.2-0.1-0.4-0.3-0.3-0.6l8.3-32.5l11-10.2c0.2-0.2,0.5-0.2,0.6,0
					c0.2,0.2,0.2,0.5,0,0.6l-10.8,10l-8.3,32.2C318.6,369.7,318.4,369.8,318.2,369.8z"/>
			</g>
			<g>
				<path class="st31" d="M327.8,338.4c-0.1,0-0.3-0.1-0.4-0.2c-0.1-0.2-0.1-0.5,0.1-0.6l7.2-5.3c0.2-0.1,0.5-0.1,0.6,0.1
					s0.1,0.5-0.1,0.6l-7.2,5.3C328,338.4,327.9,338.4,327.8,338.4z"/>
			</g>
			<g>
				<path class="st31" d="M320.5,457.6c-0.1,0-0.3-0.1-0.4-0.2c-0.1-0.2-0.1-0.5,0.1-0.6l0,0c0,0,2.1-1.5,5-6.4
					c3-4.9,4.4-7.1,4.4-7.1c0.1-0.2,0.4-0.3,0.6-0.1c0.2,0.1,0.3,0.4,0.1,0.6c0,0-1.4,2.2-4.4,7.1c-3,5-5.2,6.6-5.3,6.6
					C320.7,457.6,320.6,457.6,320.5,457.6z"/>
			</g>
			<g>
				<path class="st31" d="M325.3,446.1c-0.1,0-0.2,0-0.2-0.1c-0.2-0.1-0.3-0.4-0.1-0.6l7.4-11.5c0.1-0.2,0.4-0.3,0.6-0.1
					c0.2,0.1,0.3,0.4,0.1,0.6l-7.4,11.5C325.5,446,325.4,446.1,325.3,446.1z"/>
			</g>
			<g>
				<path class="st20" d="M297.9,270.1c-0.2,0-0.3-0.1-0.4-0.2c-0.1-0.2,0-0.5,0.2-0.6c0.1,0,1.5-0.8,6.1-1.9c4.6-1,11.2,0,11.5,0
					c0.2,0,0.4,0.3,0.4,0.5s-0.3,0.4-0.5,0.4c-0.1,0-6.8-1-11.2,0c-4.4,1-5.8,1.8-5.8,1.8C298,270.1,298,270.1,297.9,270.1z"/>
			</g>
			<g>
				<path class="st20" d="M309.6,267.8c-0.1,0-0.2,0-0.3-0.1c0,0-2.3-1.5-5.8-1.9c-3.5-0.3-9.4,0.6-9.4,0.6c-0.3,0-0.5-0.1-0.5-0.4
					c0-0.2,0.1-0.5,0.4-0.5c0.2,0,6-0.9,9.7-0.6s6.1,1.9,6.2,2c0.2,0.1,0.3,0.4,0.1,0.6C309.9,267.8,309.8,267.8,309.6,267.8z"/>
			</g>
			<g>
				<path class="st20" d="M313.9,290.4L313.9,290.4c-0.6,0-14.4-0.5-16.4-0.6c-6.2-0.5-8.8-16.4-8.9-17.1c0-0.2,0.1-0.5,0.4-0.5
					c0.2,0,0.5,0.1,0.5,0.4c0.7,4.4,3.6,15.9,8.1,16.3c2,0.2,16.2,0.6,16.3,0.6c0.3,0,0.4,0.2,0.4,0.5
					C314.4,290.2,314.2,290.4,313.9,290.4z"/>
			</g>
			<g>
				<path class="st20" d="M312.2,265.8c-0.2,0-0.4-0.1-0.4-0.3l-11.5-42.4c-0.1-0.2,0.1-0.5,0.3-0.6c0.2-0.1,0.5,0.1,0.6,0.3
					l11.5,42.4c0.1,0.2-0.1,0.5-0.3,0.6C312.3,265.8,312.2,265.8,312.2,265.8z"/>
			</g>
			<g>
				<path class="st20" d="M310.4,307.2l-18.1-5.1l1.3-5.8l17.5,5.7L310.4,307.2z M293.5,301.4l16.2,4.6l0.5-3.4l-15.8-5.2
					L293.5,301.4z"/>
			</g>
			<g>
				<path class="st20" d="M352,270.1c-0.2,0-0.4-0.1-0.4-0.3c0-0.1-2.4-6.2-3.5-10.7c-0.6-2.5-1.9-8.2-2.9-12.8
					c-0.8-3.5-1.5-6.8-1.6-7.1c-0.3-0.8,0.8-1.5,1.8-1.9c0.2-0.1,0.5,0,0.6,0.2s0,0.5-0.2,0.6c-0.6,0.3-1.1,0.7-1.3,0.9
					c0.1,0.5,0.6,2.6,1.6,7.2c1,4.6,2.3,10.3,2.9,12.7c1.1,4.5,3.4,10.5,3.5,10.6c0.1,0.2,0,0.5-0.3,0.6
					C352.1,270.1,352.1,270.1,352,270.1z"/>
			</g>
			<g>
				<path class="st20" d="M311.3,242.7c-1,0-1.9-0.1-2.4-0.3c-0.3-0.2-0.9-0.5-3.1-12.7c-1.1-5.9-2.1-11.8-2.1-11.9
					c0-0.2,0.1-0.5,0.4-0.5c0.2,0,0.5,0.1,0.5,0.4c1.4,8.7,3.9,22.7,4.8,23.9c0.8,0.3,3.8,0.2,5.7-0.1c0.3,0,0.5,0.1,0.5,0.4
					c0,0.2-0.1,0.5-0.4,0.5C314.7,242.5,312.9,242.7,311.3,242.7z M309.4,241.6L309.4,241.6L309.4,241.6z"/>
			</g>
			<g>
				<path class="st29" d="M317.5,171.7c-0.2,0-0.3-0.1-0.4-0.2c-0.1-0.2-0.1-0.5,0.1-0.6l2.7-1.7c0.2-0.1,0.5-0.1,0.6,0.1
					c0.1,0.2,0.1,0.5-0.1,0.6l-2.7,1.7C317.7,171.6,317.6,171.7,317.5,171.7z"/>
			</g>
			<g>
				<path class="st29" d="M341.8,179.4C341.8,179.4,341.7,179.4,341.8,179.4c-0.3-0.1-0.5-0.3-0.4-0.6c0,0,0.6-3-0.7-4.2
					c-0.9-0.8-3.3-2.6-7.2-3c-3.3-0.3-9.3-1.4-9.3-1.4c-0.2,0-0.4-0.3-0.4-0.5s0.3-0.4,0.5-0.4c0.1,0,6,1,9.3,1.4
					c3,0.3,5.8,1.5,7.7,3.2c1.8,1.6,1,4.9,1,5.1C342.2,179.3,342,179.4,341.8,179.4z"/>
			</g>
			<g>
				<path class="st29" d="M339.9,179.4c-0.2,0-0.4-0.2-0.5-0.4c0,0-0.2-2.1-1-3.4c-0.7-1.1-3.2-1.9-4.1-2.1
					c-0.2-0.1-0.4-0.3-0.3-0.5s0.3-0.4,0.5-0.3c0.4,0.1,3.7,0.9,4.6,2.5c1,1.6,1.1,3.7,1.1,3.8C340.3,179.2,340.1,179.4,339.9,179.4
					L339.9,179.4z"/>
			</g>
			<g>
				<path class="st29" d="M325.5,181.4C325.5,181.4,325.4,181.4,325.5,181.4c-0.3,0-5-0.8-7.3-2.6s-3.4-3.7-3.4-3.8
					c-0.1-0.2,0-0.5,0.2-0.6s0.5,0,0.6,0.2c0,0,1,1.8,3.2,3.5c2.1,1.7,6.8,2.4,6.8,2.4c0.2,0,0.4,0.3,0.4,0.5
					C325.9,181.2,325.7,181.4,325.5,181.4z"/>
			</g>
		</g>
	</g>
	<g>
		<g>
			<path class="st16" d="M776.3,226.3l-11,1.5l2.1-16.2l-6-1.6l0,0c-0.8-0.4-1.5-1.1-1.6-1.7c-0.1-1.1,0-3.3,0.2-5.5
				c0.1-0.7,0.1-1.3,0.2-2c0.3-2.6,0.6-5,0.7-6c0.1-0.9,0.9-3.7,1.7-6.7c0.2-0.7,0.4-1.4,0.6-2c1-3.3,1.9-6.3,2.4-6.8
				c1.1-1.4,2.4,1.3,3.9,0.3c1.4-1,8.3-3.8,10-3.7c0.3,0-5,3.5-5.3,3.4h-0.1c0.3,1.3,0.5,2.5,0.2,3.7c-0.4,1.5-1,2.9-1.5,4.4
				c-1,2.9,1.8,4.5,0.7,7.3c1.1,1.2,5.7,11,6.1,11.8C779.9,207.3,776.3,226.3,776.3,226.3z"/>
		</g>
		<g>
			<path class="st16" d="M761.9,191.9c0,0-3.4,3.5-3.6,4.7c-0.2,1.5,3,1.9,3,1.9s0.6-1,0.7-1.8C762.1,195.9,761.9,191.9,761.9,191.9
				z"/>
		</g>
		<g>
			<path class="st16" d="M764.9,381.1l-15,8.3l4.3,60.8h8.5c0,0,4.3-40,4.7-49.1C767.7,392,764.9,381.1,764.9,381.1z"/>
		</g>
		<g>
			<path class="st16" d="M795.3,380c0,0-15.8-2.1-13.3,11.3c1.8,9.5,19.5,58.3,19.5,58.3l8.3-2.1c0,0-6.2-41.4-8.1-50.3
				C799.9,388.4,795.3,380,795.3,380z"/>
		</g>
		<g>
			<path class="st16" d="M814,198.2c-1.4,3.3-2.5,5.5-2.5,5.5l-6.9-3.3l-1.6-12.7c0,0,3.4-8.3,3.4-9.1c0-0.6-5.9-29.6-7.9-39.6
				c-0.2-1.2-0.4-2.2-0.6-2.7c-0.1-0.3-0.1-0.5-0.1-0.5l0,0l0,0l6.1-2.9c0,0,0.2,0.6,0.6,1.5c0.3,0.7,0.6,1.6,1,2.6
				c3.8,10.1,13.2,35.4,14,41C820.2,182.6,816.6,192.1,814,198.2z"/>
		</g>
		<g>
			<path class="st16" d="M725.5,259.5l-3.2,5.3l-4.5,8c0,0-4.1,5.5,0,8.8c1.6,1.3,6.8-1.1,11-4.9c4-3.7,8.8-9.3,8.8-9.3L725.5,259.5
				z"/>
		</g>
		<g>
			<path class="st16" d="M717.2,280.9c0,0-2.5-3.8-4.7-8.8s-8.7-32.3-8.7-32.3l5.9-1.9c0,0,13.3,25.5,14.5,29.1
				c1.2,3.6-1.2,8.2-1.9,9.5C721.5,277.9,717.2,280.9,717.2,280.9z"/>
		</g>
		<g>
			<path class="st16" d="M711.2,230.4c-0.2-1.4-0.4-2.4-0.8-3.9c-0.2-0.8-0.4-3-1.7-2.4c-0.8,0.4-0.4,2-0.4,2.7
				c0.1,0.6,0.1,1.2,0.2,1.8c0,0.3,0.1,0.6,0.1,1c0,0.2,0,0.8,0.1,0.9c-0.1-0.1-0.2-0.3-0.4-0.4c-1.1-1.1-1.8-2.4-2.6-3.8
				c-0.9-1.5-1.7-3-2.6-4.5c-0.4-0.8-1-2.3-1.9-2.7c-0.4-0.2-1,0-1.2,0.4c-0.2,0.7,0.6,1.9,0.9,2.5c0.8,1.7,1.5,3.3,2.3,5
				c-0.7-1-1.4-2-2.1-3c-0.7-1-1.4-2-2.1-2.9c-0.4-0.5-1.2-1.5-1.9-1.4c-1.6,0.1-0.8,1.9-0.4,2.9c-1.2,0.5-0.4,3-0.1,4
				c0.7,1.8,1.4,3.6,2,5.5c-0.5-0.7-1.1-1.5-1.6-2.2c-0.3-0.4-2.3-2.3-2.7-1.2c-0.2,0.5,0.1,1.3,0.4,1.7c0.4,0.7,1,1.2,1.4,1.9
				c1.2,1.7,2.8,3,4.1,4.6c1,1.1,3,3.2,3.7,3.8c0.1,0.1,0.2,0.2,0.2,0.2s4-1.1,6-1c0.1,0.1,0.3,0.2,0.5,0c0,0,0,0,0-0.1
				C712.3,237.1,711.5,233.5,711.2,230.4z"/>
		</g>
		<g>
			<path class="st16" d="M797.9,135.9c0,0-3.3-5-2.8-6.5s1.1-3.8,1.8-5.3s-3.7-0.6-4.4-0.9s-2.9-1-0.5-2.3s7.4-2.8,10-1.9
				s2.8,8.6,2.6,10.1c-0.1,1.5-0.9,5-0.9,5L797.9,135.9z"/>
		</g>
		<g>
			<path class="st18" d="M788.4,211.7l14.6-24c0,0,7.4,6.1,9.9,9.1c6.6,7.9,6.6,16.3,6.6,16.3s-7.7,12.8-11.8,18.4
				c-4.1,5.6-7.9,14.4-7.9,14.4L788.4,211.7z"/>
		</g>
		<g>
			<path class="st22" d="M751.3,282.2l-1.6,10c0,0-5,9.1-5,28.3c0,12.5,5.2,68.9,5.2,68.9s50.5-1.8,51-3.4s0.6-23.8,0.9-32
				c0.3-8.2,2.4-32.8,0.9-41.6c-1.5-8.8-7.4-24.5-7.8-25.7c-0.5-1.2-0.6-4.5-0.6-4.5L751.3,282.2L751.3,282.2z"/>
		</g>
		<g>
			<path class="st18" d="M773.1,216.3c0,0-19.3,7.7-22.5,9.8s-8,7.4-7.9,8.2c0.2,0.8,4.8,26.3,5.3,37c0.5,10.7,0.2,9.7,1.4,12.7
				s43.4,1.5,45.8-1c1.2-1.3,10.9-55.7,9.2-61.1c-1.7-5.4-7.8-11.7-8.5-12.1S773.1,216.3,773.1,216.3z"/>
		</g>
		<g>
			<path class="st10" d="M796.3,207.3c0.6-4.2,1.2-8.4,1.1-12.6c-0.1-5-1.1-10.2-4.1-14.3c-3.2-4.3-8.5-6.8-13.8-6.5
				c-2.9,0.2-8.6-0.1-11.6,2.5c-1.6,1.4-3.9,3.5-2.7,5.9c0.4,0.8,1,1.5,1.6,2.1c0.4,0.5,0.8,0.9,1.1,1.5c0.4,0.7,0.3,1.4,0.4,2.2
				c0.2,1.2,1.2,1.9,2,2.7c1.8,0.6,2.4,2.7,2.4,4.5c0,1.1-0.2,2.2-0.6,3.2c-0.8,1.9-1.2,3.3-0.4,5.3c0.6,1.6,1.4,3,1.2,4.7
				c-0.2,1.4-0.7,2.8-1.4,4c-0.1,0.1-0.1,0.2-0.2,0.4c-0.4,1.2-0.9,2.5-1.2,3.8c-0.6,3-0.4,6.2-1.7,9c-1.4,2.9-4.2,4.8-5.2,8
				c-0.5,1.7-0.6,3.5-0.9,5.3c-0.3,1.5-0.9,2.9-1.6,4.2c-0.6,1.1-1.2,2.2-1.7,3.3c0.8,0,1.6,0,2.3,0.2c1,0.3,1.8,0.9,2.9,1.2
				c0.8,0.2,1.5,0.3,2.3,0.2c1.1,0,2,0.1,3,0.6c0.7,0.3,1.3,0.6,2.1,0.8c0.7,0.1,1.3,0,1.9-0.4c1.2-0.6,2.3-1,3.5,0
				c0.1,0.1,0.2,0,0.3-0.1c1.6-2.2,2.3-4.8,2.8-7.4c-0.2,1.3-0.1,2.8-0.1,4.1c0,0.9-0.6,3,0.1,3.6c-0.2-0.2,1.6-0.6,1.9-0.5
				c1,0,2.1,0.5,3.1,0.4c1.3-0.1,2.2-1.3,3.4-1.5s2.4,1.1,3.6,0.4c1.4-0.9,1.7-3.8,2-5.3c0.3-1.7,0.5-3.5,0.6-5.3
				c0-0.4,0.1-0.8,0.1-1.2c0.2-2,0.6-4.1,0.8-6.1c0.5-4.3,0-8.6,0-12.9c0-0.9,0-1.9,0.1-2.8C795.7,212,796,209.6,796.3,207.3z"/>
		</g>
		<g>
			<path class="st10" d="M763.6,458.6c-0.7,2.1-0.8,8.7-0.8,8.7h-1.5c0,0-0.2-6.2-0.5-6.3c-0.3-0.1-4.9,6-5.8,6.3
				c-0.6,0.2-10.5,0.1-11.1-0.1c-0.5-0.2-0.5-3.2,0-4c0.3-0.5,1.8-1.4,3.1-2.1c0.9-0.5,1.6-0.9,1.9-1.1l0,0c0.6-0.6,5.3-9.8,5.3-9.8
				s1.6-0.7,3.3-1.4c0.6-0.2,4.5-0.5,5.3-0.5c0.1,0,0.1,0,0.1,0s0.8,2.4,1.1,3.9C764.5,453.8,764.3,456.5,763.6,458.6z"/>
		</g>
		<g>
			<path class="st16" d="M762.8,448.3c-0.7,0.1-4.6,0.5-5.9,2.2c-1.4,1.9-4.1,9.9-6.6,10.7c-1.5,0.5-2.7,0.2-3.3-0.1
				c0.9-0.5,1.6-0.9,1.9-1.1l0,0c0.6-0.6,5.4-10,5.4-10s1.5-1.4,3.2-2.1C758,447.8,762.1,448.4,762.8,448.3z"/>
		</g>
		<g>
			<path class="st10" d="M812.6,455.6c-0.2,2.2,1.4,8.6,1.4,8.6l-1.5,0.4c0,0-1.7-6-2-6s-2.7,4.9-4.6,7c-1,1.2-7.8,4.5-9.7,3.8
				c-0.5-0.2-1.8-2.5-1.4-3.5c0.2-0.6,1.4-1.8,2.5-2.8c0.7-0.7,1.2-2.3,1.4-2.6l0,0c0.5-0.7,2.8-10.8,2.8-10.8s1.4-1.1,2.9-2.1
				c0.5-0.4,4.3-1.5,5-1.8c0.1,0,0.1,0,0.1,0s1.3,2.2,2.1,3.6C812.3,450.7,812.8,453.3,812.6,455.6z"/>
		</g>
		<g>
			<path class="st16" d="M809.4,445.8c-0.7,0.2-4.4,1.6-5.2,3.6c-0.9,2.1-1.3,10.2-3.7,12.3c-1.2,1.1-2.5,1.6-3.3,1.5
				c0.7-0.7,1.2-2.3,1.4-2.6l0,0c0.5-0.7,2.8-11,2.8-11s1-2,2.5-3.1C804.4,446.1,808.7,446,809.4,445.8z"/>
		</g>
		<g>
			<path class="st18" d="M744.7,231.5c0,0-3.6,2.3-5.6,6c-2,3.6-13.6,22.1-13.6,22.1l14.1,17.1l15.1-13.1L744.7,231.5z"/>
		</g>
		<g>
			<path class="st10" d="M808.8,117.4l-22.9,9.2l-1.4,1.3c-0.2,0.2-0.1,0.5,0.2,0.4l1.9-0.1l22.9-9.2c0.5-0.2,0.7-0.7,0.5-1.2l0,0
				C809.8,117.4,809.3,117.2,808.8,117.4z"/>
		</g>
		<g>
			<path class="st16" d="M796.9,134.3c0,0-3.5-4.4-3.9-5.9c-0.5-1.5,0.7-6.8,1.2-7.5c0.5-0.6,2.2-0.6,1.9,1.1s1.6,7.9,1.6,7.9
				L796.9,134.3z"/>
		</g>
		<g>
			<path class="st34" d="M805,122.6c-0.2,0-0.3-0.1-0.4-0.3c-0.1-0.2,0-0.5,0.2-0.6l4.4-1.8l-0.6-1.4c-0.1-0.2,0-0.5,0.2-0.6
				s0.5,0,0.6,0.2l1,2.2l-5.2,2.2C805.1,122.6,805,122.6,805,122.6z"/>
		</g>
		<g>
			<path class="st26" d="M702.1,231.2c-0.1,0-0.3-0.1-0.4-0.2l-4.9-7.7c-0.1-0.2-0.1-0.5,0.1-0.6c0.2-0.1,0.5-0.1,0.6,0.1l4.9,7.7
				c0.1,0.2,0.1,0.5-0.1,0.6C702.3,231.1,702.2,231.2,702.1,231.2z"/>
		</g>
		<g>
			<path class="st26" d="M797.2,128.8c-0.2,0-0.4-0.1-0.4-0.3l-0.7-2.7c-0.1-0.2,0.1-0.5,0.3-0.6s0.5,0.1,0.6,0.3l0.7,2.7
				c0.1,0.2-0.1,0.5-0.3,0.6C797.3,128.8,797.3,128.8,797.2,128.8z"/>
		</g>
		<g>
			<path class="st26" d="M793.5,123.3L793.5,123.3c-0.3,0-0.5-0.2-0.5-0.5c0-0.2,0.2-2.3,1.6-2.5c1.1-0.1,1.6,0.8,1.8,1.4
				c0.1,0.2-0.1,0.5-0.3,0.5c-0.2,0.1-0.5-0.1-0.5-0.3c0-0.1-0.2-0.8-0.8-0.7c-0.4,0-0.7,1.1-0.7,1.6
				C794,123.1,793.8,123.3,793.5,123.3z"/>
		</g>
		<g>
			<path class="st26" d="M721,267.9c-0.1,0-0.1,0-0.2,0c-0.2-0.1-0.3-0.4-0.2-0.6l1.3-2.7c0.1-0.2,0.4-0.3,0.6-0.2
				c0.2,0.1,0.3,0.4,0.2,0.6l-1.3,2.7C721.3,267.8,721.2,267.9,721,267.9z"/>
		</g>
		<g>
			<path class="st15" d="M704.9,246.8C704.8,246.8,704.8,246.8,704.9,246.8c-0.3,0-0.5-0.3-0.5-0.5s0.2-0.4,0.5-0.4
				c0.1,0,0.6-0.1,2.4-1.1c3-1.8,3.5-4.7,3.5-4.7c0-0.2,0.3-0.4,0.5-0.4s0.4,0.3,0.4,0.5c0,0.1-0.5,3.3-3.9,5.4
				C705.9,246.6,705.1,246.8,704.9,246.8z"/>
		</g>
		<g>
			<path class="st15" d="M704.5,244.9c-0.2,0-0.4-0.2-0.5-0.4c0-0.2,0.2-0.5,0.4-0.5c0,0,2.6-0.3,4.6-1.6c1.9-1.3,2.3-1.7,2.3-1.7
				c0.1-0.2,0.4-0.2,0.6-0.1c0.2,0.1,0.3,0.4,0.1,0.6c-0.1,0.1-0.5,0.6-2.5,1.9C707.3,244.6,704.6,244.9,704.5,244.9L704.5,244.9z"
				/>
		</g>
		<g>
			<path class="st15" d="M705.8,249.7c-0.1,0-0.2,0-0.3-0.1c-0.2-0.2-0.2-0.5,0-0.6l6.6-6.6c0.2-0.2,0.5-0.2,0.6,0
				c0.2,0.2,0.2,0.5,0,0.6l-6.6,6.6C706,249.7,705.9,249.7,705.8,249.7z"/>
		</g>
		<g>
			<path class="st35" d="M748.6,267.9L748.6,267.9c-0.3-0.1-0.5-0.3-0.4-0.5c0-0.1,1.7-9.3,0.8-16.4s-3.3-17.8-3.3-17.9
				c-0.1-0.2,0.1-0.5,0.3-0.5c0.2-0.1,0.5,0.1,0.5,0.3c0,0.1,2.4,10.8,3.3,18c0.9,7.2-0.8,16.6-0.8,16.7S748.8,267.9,748.6,267.9z"
				/>
		</g>
		<g>
			<path class="st35" d="M803.3,237.6C803.2,237.6,803.2,237.6,803.3,237.6c-0.3,0-0.5-0.3-0.5-0.5c0-0.1,0.6-5.6-1.3-12.3
				c-0.1-0.2,0.1-0.5,0.3-0.6s0.5,0.1,0.6,0.3c2,6.9,1.4,12.4,1.4,12.7C803.7,237.4,803.5,237.6,803.3,237.6z"/>
		</g>
		<g>
			<path class="st35" d="M803.9,227.3c-0.2,0-0.4-0.2-0.4-0.4c0-0.1-1.4-7.8-3.3-12.8c-0.1-0.2,0-0.5,0.3-0.6c0.2-0.1,0.5,0,0.6,0.3
				c1.9,5.1,3.3,12.9,3.3,13C804.4,227.1,804.3,227.3,803.9,227.3C804,227.3,804,227.3,803.9,227.3z"/>
		</g>
		<g>
			<path class="st35" d="M750.1,258.1L750.1,258.1c-0.3,0-0.5-0.3-0.4-0.5c0-0.1,1.1-7.7,1-13.1c-0.1-5.4-2-13.6-2-13.6
				c-0.1-0.2,0.1-0.5,0.3-0.5c0.2-0.1,0.5,0.1,0.5,0.3c0,0.1,1.9,8.4,2.1,13.8c0.1,5.5-1,13.2-1,13.3
				C750.5,257.9,750.3,258.1,750.1,258.1z"/>
		</g>
		<g>
			<path class="st35" d="M784.6,284.7c-0.1,0-0.3-0.1-0.4-0.2c-0.2-0.2-0.1-0.5,0.1-0.6c0,0,4.3-3.4,6.9-9.1
				c2.7-5.8,5.4-19,5.4-19.1c0.1-0.2,0.3-0.4,0.5-0.4c0.2,0.1,0.4,0.3,0.4,0.5c-0.1,0.5-2.8,13.4-5.5,19.3s-7,9.3-7.2,9.5
				C784.8,284.7,784.7,284.7,784.6,284.7z"/>
		</g>
		<g>
			<path class="st35" d="M779.9,283.9c-0.1,0-0.2,0-0.3-0.1c-0.2-0.2-0.2-0.4-0.1-0.6l5.9-6.9c0.2-0.2,0.4-0.2,0.6-0.1
				c0.2,0.2,0.2,0.4,0.1,0.6l-5.9,6.9C780.2,283.9,780,283.9,779.9,283.9z"/>
		</g>
		<g>
			<path class="st10" d="M805.7,138c-0.9,0.3-1.9,0.6-2.8,0.9c-1.4,0.4-2.8,0.7-4.1,1.2c-0.2-1.2-0.4-2.2-0.6-2.7
				c2.1-0.8,4.4-1.4,6.5-2C804.9,136,805.3,136.9,805.7,138z"/>
		</g>
		<g>
			<path class="st14" d="M805.7,136.8c0.3,1.3-0.4,2.5-1.5,2.8s-2.3-0.6-2.6-1.8c-0.3-1.3,0.4-2.5,1.5-2.8S805.4,135.5,805.7,136.8z
				"/>
		</g>
		<g>
			<path class="st10" d="M767,189C766.9,189,766.9,189,767,189c-0.8-1.4-2.3-2.4-3.7-2.9h-0.1c-0.2,0.7-0.4,1.4-0.6,2
				c0.4,0.1,0.8,0.1,1.2,0.2c0.5,0.1,1.1,0.3,1.6,0.6c0.4,0.1,1,0.6,1.4,0.6c0.1,0,0.2-0.1,0.2-0.2C767,189.1,767,189.1,767,189z"/>
		</g>
		<g>
			<path class="st10" d="M764.1,190.8c0.1-0.3,0.1-0.8-0.2-0.9c-1.3-1.1-2.4,3.2-0.8,2.6C763.6,192.2,764,191.3,764.1,190.8z"/>
		</g>
		<g>
			<path class="st14" d="M763.5,201.4c0,0-1,0.8-2.2,1.1c-0.5,0.1-1,0.2-1.4,0.2c0.1-0.7,0.1-1.3,0.2-2c0.7,0.2,1.6,0.5,2.3,0.5
				C763.7,201.2,763.5,201.4,763.5,201.4z"/>
		</g>
		<g>
			<path class="st36" d="M764.1,241.4L764.1,241.4c-0.3-0.1-0.5-0.3-0.4-0.5c0-0.2,1.1-5.4,2.1-7.5c0.4-0.8,1.2-1.7,2-2.7
				c1.3-1.5,2.7-3.2,3.4-5.2c0.4-1.3,0.5-2.5,0.7-3.7c0.2-1.8,0.4-3.9,1.7-7c2.2-5,0.6-12,0.6-12c-0.1-0.2,0.1-0.5,0.3-0.5
				c0.2-0.1,0.5,0.1,0.5,0.3c0.1,0.3,1.6,7.3-0.6,12.6c-1.3,3-1.5,4.9-1.6,6.7c-0.1,1.3-0.2,2.4-0.7,3.9c-0.7,2.2-2.2,3.9-3.6,5.5
				c-0.8,1-1.5,1.8-1.9,2.5c-1,2-2,7.2-2,7.3C764.5,241.3,764.3,241.4,764.1,241.4z"/>
		</g>
		<g>
			<path class="st36" d="M768,244.6c-0.2,0-0.4-0.2-0.5-0.4c0-0.3-0.6-6.4,1.8-9.1c2.3-2.7,3.7-5.7,4.3-7.5c0.6-1.9,1.2-5.9,1.2-5.9
				c0-0.2,0.3-0.4,0.5-0.4s0.4,0.3,0.4,0.5s-0.6,4.1-1.2,6c-0.6,1.9-2.1,5-4.4,7.8c-2.1,2.4-1.6,8.4-1.5,8.4
				C768.5,244.4,768.3,244.6,768,244.6L768,244.6z"/>
		</g>
		<g>
			<path class="st36" d="M793.9,220c-0.2,0-0.4-0.2-0.5-0.4c0-0.2-0.5-5.7-0.4-8.1c0.2-2.4,0.6-5.7,1.4-10.7c0.8-4.8,0-11.3,0-11.4
				c0-0.2,0.1-0.5,0.4-0.5c0.3,0,0.5,0.1,0.5,0.4c0,0.3,0.8,6.7,0,11.6c-0.8,5-1.3,8.2-1.4,10.6c-0.1,2.4,0.4,7.9,0.4,7.9
				C794.4,219.8,794.2,220,793.9,220C794,220,793.9,220,793.9,220z"/>
		</g>
		<g>
			<path class="st15" d="M772.2,199.2c-0.2-0.6-0.4-1.2-0.6-1.7c0,0,0-0.1-0.1-0.1c0-0.2-0.3-0.2-0.4,0c-0.9,1.8-2.2,4.1-1.1,6.1
				c0.7,1.2,1.9,0.6,2.3-0.5C772.7,201.7,772.5,200.4,772.2,199.2z M771.7,202.4c-0.2,0.5-0.9,0.7-1.2,0.2c-0.2-0.2-0.2-0.5-0.2-0.8
				c0-0.4,0-0.8,0.1-1.2c0-0.2,0.1-0.4,0.2-0.6c0.4-0.5,0.9-0.2,1.1,0.3c0,0.1,0,0.1,0.1,0.2C771.9,201.1,772,201.8,771.7,202.4z"/>
		</g>
	</g>
	<g>
		<path class="st23" d="M774,341.5c-0.1,0-0.2,0-0.3-0.1c-0.2-0.2-0.2-0.5,0-0.6c0.1-0.1,8.6-10,12.2-16.6
			c3.6-6.7,6.8-12.2,6.8-12.3c0.1-0.2,0.4-0.3,0.6-0.2c0.2,0.1,0.3,0.4,0.2,0.6c0,0.1-3.2,5.5-6.8,12.2s-12.2,16.7-12.3,16.8
			C774.2,341.5,774.1,341.5,774,341.5z"/>
	</g>
</g>
</svg>
