<?xml version="1.0" encoding="utf-8"?>
<!-- Generator: Adobe Illustrator 24.3.0, SVG Export Plug-In . SVG Version: 6.00 Build 0)  -->
<svg version="1.1" id="Layer_2" xmlns="http://www.w3.org/2000/svg" xmlns:xlink="http://www.w3.org/1999/xlink" x="0px" y="0px"
	 viewBox="0 0 977 490.4" style="enable-background:new 0 0 977 490.4;" xml:space="preserve">
<style type="text/css">
	.st0{fill:url(#SVGID_1_);}
	.st1{fill:url(#SVGID_2_);}
	.st2{fill:url(#SVGID_3_);}
	.st3{fill:url(#SVGID_4_);}
	.st4{fill:url(#SVGID_5_);}
	.st5{fill:url(#SVGID_6_);}
	.st6{fill:url(#SVGID_7_);}
	.st7{fill:url(#SVGID_8_);}
	.st8{fill:url(#SVGID_9_);}
	.st9{fill:#FEE9EE;}
	.st10{fill:#313440;}
	.st11{fill:#FFCB87;}
	.st12{fill:#EEAD59;}
	.st13{fill:#A3AEBC;}
	.st14{fill:#FFFFFF;}
	.st15{fill:#F9E3D0;}
	.st16{fill:#FF9776;}
	.st17{fill:#EDD8C8;}
	.st18{fill:#E86F61;}
	.st19{fill:#4E7291;}
	.st20{fill:#365C7D;}
	.st21{fill:#EFD3BD;}
	.st22{fill:#955E5B;}
	.st23{fill:#7D4845;}
	.st24{fill:#8495AB;}
	.st25{fill:#7B92BF;}
	.st26{fill:#F2764D;}
	.st27{fill:#A3C0D9;}
	.st28{fill:#7B4946;}
	.st29{fill:#613022;}
	.st30{fill:#DC8A63;}
	.st31{fill:#C7744C;}
	.st32{fill:#414457;}
	.st33{fill:#E85F4D;}
	.st34{fill:#381E13;}
	.st35{fill:#CC4E3D;}
	.st36{fill:#4C4E61;}
</style>
<g>
	<linearGradient id="SVGID_1_" gradientUnits="userSpaceOnUse" x1="-214.4807" y1="84.2245" x2="643.9462" y2="84.2245">
		<stop  offset="0" style="stop-color:#FFFFFF"/>
		<stop  offset="1" style="stop-color:#FDB6C8"/>
	</linearGradient>
	<path class="st0" d="M-26.1,148.7L102.8,19.8C45,44.5-1.4,90.9-26.1,148.7z"/>
	<linearGradient id="SVGID_2_" gradientUnits="userSpaceOnUse" x1="-214.4807" y1="125.9289" x2="643.9462" y2="125.9289">
		<stop  offset="0" style="stop-color:#FFFFFF"/>
		<stop  offset="0.9721" style="stop-color:#FDB6C8"/>
	</linearGradient>
	<path class="st1" d="M199.3,0c-8.1,0-16,0.4-23.9,1.2L-44.7,221.3c-0.8,7.9-1.2,15.8-1.2,23.9c0,2.2,0.1,4.4,0.2,6.6L206,0.2
		C203.7,0.1,201.5,0,199.3,0z"/>
	<linearGradient id="SVGID_3_" gradientUnits="userSpaceOnUse" x1="-214.4807" y1="164.5686" x2="643.9462" y2="164.5686">
		<stop  offset="0" style="stop-color:#FFFFFF"/>
		<stop  offset="0.9721" style="stop-color:#FDB6C8"/>
	</linearGradient>
	<path class="st2" d="M277,12.7c-7.5-2.5-15.2-4.7-23.1-6.5L-39.7,299.9c1.8,7.8,3.9,15.5,6.5,23.1L277,12.7z"/>
	<linearGradient id="SVGID_4_" gradientUnits="userSpaceOnUse" x1="-214.4807" y1="204.0777" x2="643.9462" y2="204.0777">
		<stop  offset="0" style="stop-color:#FFFFFF"/>
		<stop  offset="0.9721" style="stop-color:#FDB6C8"/>
	</linearGradient>
	<path class="st3" d="M333.4,39.9c-6-3.9-12.2-7.6-18.5-11L-17,360.7c3.4,6.4,7.1,12.5,11,18.5L333.4,39.9z"/>
	<linearGradient id="SVGID_5_" gradientUnits="userSpaceOnUse" x1="-214.4807" y1="244.0255" x2="643.9462" y2="244.0255">
		<stop  offset="0" style="stop-color:#FFFFFF"/>
		<stop  offset="0.9721" style="stop-color:#FDB6C8"/>
	</linearGradient>
	<path class="st4" d="M363.9,63.4L17.5,409.8c4.7,5.2,9.6,10.1,14.7,14.8L378.7,78.1C374,73,369,68.1,363.9,63.4z"/>
	<linearGradient id="SVGID_6_" gradientUnits="userSpaceOnUse" x1="-214.4807" y1="283.9919" x2="643.9462" y2="283.9919">
		<stop  offset="0" style="stop-color:#FFFFFF"/>
		<stop  offset="0.9721" style="stop-color:#FDB6C8"/>
	</linearGradient>
	<path class="st5" d="M413.9,126.5c-3.5-6.3-7.2-12.4-11.2-18.3L62.3,448.6c5.9,4,12.1,7.7,18.4,11.2L413.9,126.5z"/>
	<linearGradient id="SVGID_7_" gradientUnits="userSpaceOnUse" x1="-214.4807" y1="323.5703" x2="643.9462" y2="323.5703">
		<stop  offset="0" style="stop-color:#FFFFFF"/>
		<stop  offset="0.9721" style="stop-color:#FDB6C8"/>
	</linearGradient>
	<path class="st6" d="M437.4,186.6c-1.9-7.7-4.2-15.3-6.8-22.8L117.9,476.5c7.4,2.6,15,4.9,22.8,6.8L437.4,186.6z"/>
	<linearGradient id="SVGID_8_" gradientUnits="userSpaceOnUse" x1="-214.4807" y1="362.1115" x2="643.9462" y2="362.1115">
		<stop  offset="0" style="stop-color:#FFFFFF"/>
		<stop  offset="0.9721" style="stop-color:#FDB6C8"/>
	</linearGradient>
	<path class="st7" d="M444.5,245.2c0-3.8-0.1-7.6-0.3-11.4L187.9,490.1c3.8,0.2,7.6,0.3,11.4,0.3c6.3,0,12.5-0.3,18.6-0.8
		l225.8-225.8C444.2,257.7,444.5,251.5,444.5,245.2z"/>
	<linearGradient id="SVGID_9_" gradientUnits="userSpaceOnUse" x1="-214.4807" y1="403.756" x2="643.9462" y2="403.756">
		<stop  offset="0" style="stop-color:#FFFFFF"/>
		<stop  offset="0.9721" style="stop-color:#FDB6C8"/>
	</linearGradient>
	<path class="st8" d="M375.6,415.6c22.6-23.4,40.5-51.2,52.5-82L287.7,473.9c30.8-11.9,58.7-29.9,82-52.5L375.6,415.6z"/>
</g>
<g>
	<g>
		<path class="st9" d="M971.4,236.7c-10.9-27.8-37.3-45.9-64.8-55.2c-35.6-11.9-73.9-10.2-110.8-13.3c-38.1-3.2-75.9-10-112.5-21.1
			c-35.1-10.7-68-26-100.2-43.4c-29.7-16.1-59.1-33.3-90.7-45.4c-37.7-14.4-85.4-25-121.7-1.5c-13.2,8.5-25.4,21.6-31.7,36
			c-6.9,15.7-10.6,34.5-21.3,48.2c-10.7,13.6-29,19.8-44.6,25.7c-30.7,11.6-59.6,28.3-82.6,52c-59.1,60.8-55.9,173,9.5,228.3
			c11.5,9.7,25.5,15.6,40.1,18.6c33.3,6.8,68.5,0.7,101.8-3.8c78.3-10.5,156-25.9,232.5-46c38-10,76.3-24.1,116-24.9
			c35.7-0.7,70.3,11.1,101.1,28.4c1.2,0.7,2.4,1.3,3.6,2c-5.2,1-10.4,1.8-15.6,2.6c-0.3,0-0.2,0.5,0.1,0.4
			c5.4-0.7,10.8-1.6,16.1-2.7c13.7,8,26.8,17.1,39.3,26.9c0.2,0.2,0.6-0.1,0.3-0.3c-12.4-9.7-25.3-18.7-38.9-26.7
			c29.4-5.7,58-15.8,84.5-29.8c28.9-15.4,57.1-35.5,75.9-62.8C974.9,302.6,983.5,267.4,971.4,236.7z"/>
	</g>
	<g>
		<g>
			
				<rect x="446" y="161.4" transform="matrix(0.2081 -0.9781 0.9781 0.2081 193.9805 566.3991)" class="st10" width="1.5" height="4"/>
		</g>
		<g>
			<path class="st11" d="M454.9,170.8l0.5-2.5l-8.1-1.7l0.4-2c0.3-1.4,1.7-2.3,3.1-2l14,3c1.4,0.3,2.3,1.7,2,3.1l-45.3,212.8
				l-19.1-4.1l44.3-208.3L454.9,170.8z"/>
		</g>
		<g>
			<path class="st11" d="M455.1,169.9l0.2-0.7c0.1-0.5-0.2-1-0.7-1.1l-7.5-1.6c-0.5-0.1-0.8-0.6-0.7-1.1l0,0
				c0.6-2.6,3.1-4.3,5.7-3.7l12,2.5c2.6,0.6,4.3,3.1,3.7,5.7l-17,79.8c-0.1,0.5-0.6,0.8-1.1,0.7l-19.7-4.2c-0.5-0.1-0.8-0.6-0.7-1.1
				l16.1-75.5c0.1-0.5,0.6-0.8,1.1-0.7l7.5,1.6C454.5,170.7,455,170.4,455.1,169.9z"/>
		</g>
		<g>
			<path class="st10" d="M430.8,229l0.3,0.1l14.2-66.7l-1-0.2c-0.6-0.1-1.1,0.2-1.2,0.8l-13.6,64C429.3,227.9,429.9,228.8,430.8,229
				z"/>
		</g>
		<g>
			<path class="st10" d="M432.4,224.4l-0.3-0.1l-1,4.8l0.3,0.1c0.7,0.2,1.4-0.3,1.6-1l0.5-2.1C433.6,225.2,433.1,224.5,432.4,224.4z
				"/>
		</g>
		<g>
			<path class="st12" d="M447.7,250.4h-0.1l-16.4-3.5c-0.2-0.1-0.4-0.3-0.3-0.5s0.3-0.4,0.5-0.3l16.4,3.5c0.2,0.1,0.4,0.3,0.3,0.5
				C448.1,250.3,447.9,250.4,447.7,250.4z"/>
		</g>
		<g>
			<path class="st12" d="M465.6,172.2h-0.1l-9-1.9c-0.2-0.1-0.4-0.3-0.4-0.5c0.1-0.2,0.3-0.4,0.5-0.4l9,1.9c0.2,0.1,0.4,0.3,0.4,0.5
				C466,172.1,465.8,172.2,465.6,172.2z"/>
		</g>
	</g>
	<g>
		<g>
			<path class="st13" d="M384.2,292l16.1-144.3c0.1-1.2,1.2-2,2.3-1.9l31.9,2.8c1.2,0.1,2.1,1.2,1.9,2.4l-15.1,143.7L384.2,292z"/>
		</g>
		<g>
			<path class="st14" d="M433.9,152.9C433.8,152.9,433.8,152.9,433.9,152.9l-7.4-0.7c-0.2,0-0.4-0.2-0.4-0.5c0-0.2,0.2-0.4,0.5-0.4
				l7.4,0.7c0.2,0,0.4,0.2,0.4,0.5C434.3,152.8,434.1,152.9,433.9,152.9z"/>
		</g>
		<g>
			<path class="st14" d="M433,161.9L433,161.9l-3.4-0.3c-0.2,0-0.4-0.2-0.4-0.5c0-0.2,0.2-0.4,0.5-0.4l3.4,0.3
				c0.2,0,0.4,0.2,0.4,0.5C433.4,161.7,433.2,161.9,433,161.9z"/>
		</g>
		<g>
			<path class="st14" d="M432.5,170.9L432.5,170.9l-7.4-0.7c-0.2,0-0.4-0.2-0.4-0.5c0-0.2,0.2-0.4,0.5-0.4l7.4,0.7
				c0.2,0,0.4,0.2,0.4,0.5C432.9,170.7,432.7,170.9,432.5,170.9z"/>
		</g>
		<g>
			<path class="st14" d="M431.6,179.9L431.6,179.9l-3.4-0.3c-0.2,0-0.4-0.2-0.4-0.5c0-0.2,0.2-0.4,0.5-0.4l3.4,0.3
				c0.2,0,0.4,0.2,0.4,0.5C432.1,179.7,431.9,179.9,431.6,179.9z"/>
		</g>
		<g>
			<path class="st14" d="M430.3,188.8L430.3,188.8l-7.4-0.7c-0.2,0-0.4-0.2-0.4-0.5c0-0.2,0.2-0.4,0.5-0.4l7.4,0.7
				c0.2,0,0.4,0.2,0.4,0.5C430.8,188.7,430.6,188.8,430.3,188.8z"/>
		</g>
		<g>
			<path class="st14" d="M429.5,197.8L429.5,197.8l-3.4-0.3c-0.2,0-0.4-0.2-0.4-0.5c0-0.2,0.2-0.4,0.5-0.4l3.4,0.3
				c0.2,0,0.4,0.2,0.4,0.5C429.9,197.6,429.7,197.8,429.5,197.8z"/>
		</g>
		<g>
			<path class="st14" d="M429,206.8C429,206.8,428.9,206.8,429,206.8l-7.4-0.7c-0.2,0-0.4-0.2-0.4-0.5c0-0.2,0.2-0.4,0.5-0.4
				l7.4,0.7c0.2,0,0.4,0.2,0.4,0.5C429.4,206.6,429.2,206.8,429,206.8z"/>
		</g>
		<g>
			<path class="st14" d="M428.1,215.8L428.1,215.8l-3.4-0.3c-0.2,0-0.4-0.2-0.4-0.5c0-0.2,0.3-0.4,0.5-0.4l3.4,0.3
				c0.2,0,0.4,0.2,0.4,0.5C428.6,215.6,428.4,215.8,428.1,215.8z"/>
		</g>
		<g>
			<path class="st14" d="M427.3,224.8L427.3,224.8l-7.4-0.7c-0.2,0-0.4-0.2-0.4-0.5c0-0.2,0.2-0.4,0.5-0.4l7.4,0.7
				c0.2,0,0.4,0.2,0.4,0.5C427.7,224.6,427.5,224.8,427.3,224.8z"/>
		</g>
		<g>
			<path class="st14" d="M426.5,233.7L426.5,233.7l-3.4-0.3c-0.2,0-0.4-0.2-0.4-0.5c0-0.2,0.2-0.4,0.5-0.4l3.4,0.3
				c0.2,0,0.4,0.2,0.4,0.5C426.9,233.6,426.7,233.7,426.5,233.7z"/>
		</g>
		<g>
			<path class="st14" d="M425.9,242.7L425.9,242.7l-7.4-0.7c-0.2,0-0.4-0.2-0.4-0.5c0-0.2,0.2-0.4,0.5-0.4l7.4,0.7
				c0.2,0,0.4,0.2,0.4,0.5S426.2,242.7,425.9,242.7z"/>
		</g>
		<g>
			<path class="st14" d="M425.1,251.7L425.1,251.7l-3.4-0.3c-0.2,0-0.4-0.2-0.4-0.5c0-0.2,0.3-0.4,0.5-0.4l3.4,0.3
				c0.2,0,0.4,0.2,0.4,0.5C425.5,251.5,425.3,251.7,425.1,251.7z"/>
		</g>
		<g>
			<path class="st14" d="M423.8,260.7L423.8,260.7l-7.4-0.7c-0.2,0-0.4-0.2-0.4-0.5c0-0.2,0.3-0.4,0.5-0.4l7.4,0.7
				c0.2,0,0.4,0.2,0.4,0.5C424.2,260.5,424,260.7,423.8,260.7z"/>
		</g>
		<g>
			<path class="st14" d="M423,269.6C423,269.6,422.9,269.6,423,269.6l-3.4-0.3c-0.2,0-0.4-0.2-0.4-0.5c0-0.2,0.2-0.4,0.5-0.4
				l3.4,0.3c0.2,0,0.4,0.2,0.4,0.5C423.4,269.5,423.2,269.6,423,269.6z"/>
		</g>
		<g>
			<path class="st14" d="M422.4,278.6L422.4,278.6L415,278c-0.2,0-0.4-0.2-0.4-0.5c0-0.2,0.2-0.4,0.5-0.4l7.4,0.7
				c0.2,0,0.4,0.2,0.4,0.5C422.9,278.5,422.7,278.6,422.4,278.6z"/>
		</g>
	</g>
	<g>
		<g>
			<g>
				<path class="st14" d="M388.4,173.7l0.4,3.8l0.3,3.4l0.4,3.8l13,135.4l-14,1.3l-13-135.4l-0.4-3.7l-0.4-4.1l-0.3-3.1
					c-0.2-2,1.3-3.8,3.3-4l6.7-0.6C386.4,170.2,388.2,171.7,388.4,173.7z"/>
			</g>
		</g>
		<g>
			<path class="st15" d="M388.8,177.5l0.3,3.4l0.4,3.8l-14,1.3l-0.4-3.7l-0.4-4.1C379.7,177.8,385.7,177.6,388.8,177.5z"/>
		</g>
		<g>
			<path class="st16" d="M388.4,173.7l0.7,7.2c-4.6,0.5-9.9,1-14,1.4l-0.7-7.3c-0.2-2,1.3-3.8,3.3-4l6.7-0.6
				C386.4,170.2,388.2,171.7,388.4,173.7z"/>
		</g>
		<g>
			<path class="st17" d="M390.6,300.7c-0.2,0-0.4-0.2-0.5-0.4l-10.7-111.8c0-0.2,0.2-0.5,0.4-0.5c0.2,0,0.5,0.2,0.5,0.4L391,300.2
				C391.1,300.4,390.9,300.6,390.6,300.7C390.7,300.7,390.6,300.7,390.6,300.7z"/>
		</g>
		<g>
			<path class="st17" d="M396,300c-0.2,0-0.4-0.2-0.5-0.4l-10.7-111.8c0-0.2,0.2-0.5,0.4-0.5c0.3,0,0.5,0.2,0.5,0.4l10.7,111.8
				C396.4,299.8,396.3,300,396,300L396,300z"/>
		</g>
	</g>
	<g>
		<g>
			<polygon class="st14" points="322,370.4 311.5,428.6 358,430.3 359,370.4 			"/>
		</g>
		<g>
			<path class="st18" d="M377.5,373.1h-57.3c-1.6,0-2.9-1.3-2.9-2.9V369c0-1.6,1.3-2.9,2.9-2.9h57.3V373.1z"/>
		</g>
		<g>
			<path class="st18" d="M371.8,432.7h-63.1c-1.6,0-3-1.3-3-3v-1.2c0-1.6,1.3-3,3-3h63.1V432.7z"/>
		</g>
		<g>
			<path class="st17" d="M354.5,379.4h-31.7c-0.3,0-0.5-0.2-0.5-0.5s0.2-0.5,0.5-0.5h31.7c0.3,0,0.5,0.2,0.5,0.5
				C355,379.2,354.8,379.4,354.5,379.4z"/>
		</g>
		<g>
			<path class="st17" d="M354,385.2h-31.7c-0.3,0-0.5-0.2-0.5-0.5s0.2-0.5,0.5-0.5H354c0.3,0,0.5,0.2,0.5,0.5
				C354.4,385,354.2,385.2,354,385.2z"/>
		</g>
		<g>
			<path class="st17" d="M353.4,391.1h-31.7c-0.3,0-0.5-0.2-0.5-0.5s0.2-0.5,0.5-0.5h31.7c0.3,0,0.5,0.2,0.5,0.5
				S353.6,391.1,353.4,391.1z"/>
		</g>
		<g>
			<path class="st17" d="M352.8,397h-31.7c-0.3,0-0.5-0.2-0.5-0.5s0.2-0.5,0.5-0.5h31.7c0.3,0,0.5,0.2,0.5,0.5S353.1,397,352.8,397z
				"/>
		</g>
		<g>
			<path class="st17" d="M351.8,402.8h-31.7c-0.3,0-0.5-0.2-0.5-0.5s0.2-0.5,0.5-0.5h31.7c0.3,0,0.5,0.2,0.5,0.5
				S352.1,402.8,351.8,402.8z"/>
		</g>
		<g>
			<path class="st17" d="M350.8,408.7h-31.7c-0.3,0-0.5-0.2-0.5-0.5s0.2-0.5,0.5-0.5h31.7c0.3,0,0.5,0.2,0.5,0.5
				C351.2,408.5,351,408.7,350.8,408.7z"/>
		</g>
		<g>
			<path class="st17" d="M350.2,414.6h-31.7c-0.3,0-0.5-0.2-0.5-0.5s0.2-0.5,0.5-0.5h31.7c0.3,0,0.5,0.2,0.5,0.5
				S350.5,414.6,350.2,414.6z"/>
		</g>
		<g>
			<path class="st17" d="M348.7,420.4H317c-0.3,0-0.5-0.2-0.5-0.5s0.2-0.5,0.5-0.5h31.7c0.3,0,0.5,0.2,0.5,0.5
				S349,420.4,348.7,420.4z"/>
		</g>
	</g>
	<g>
		<g>
			<path class="st19" d="M830.2,194.7h89.2c1.7,0,2.9,1.5,2.7,3.1l-35.5,254.3c-0.2,1.3-1.3,2.3-2.7,2.3H716.1L830.2,194.7z"/>
		</g>
		<g>
			<path class="st20" d="M834.9,453.1L834.9,453.1c-0.3,0-0.5-0.3-0.4-0.5l37.3-254c0-0.2,0.3-0.4,0.5-0.4s0.4,0.3,0.4,0.5
				l-37.3,254C835.4,452.9,835.2,453.1,834.9,453.1z"/>
		</g>
		<g>
			<path class="st14" d="M912.7,213.6l-1.6,10.4l-14.7,105c-0.2,1.2-1.2,2-2.3,2h-28.4c-1.5,0-2.6-1.3-2.3-2.7L877.7,224l1.6-11.1
				c0.2-1.2,1.2-2,2.3-2h28.6C911.8,210.8,912.9,212.1,912.7,213.6z"/>
		</g>
		<g>
			<path class="st15" d="M912.7,213.6l-1.6,10.4h-33.4l1.6-11.1c0.2-1.2,1.2-2,2.3-2h28.6C911.8,210.8,912.9,212.1,912.7,213.6z"/>
		</g>
		<g>
			<path class="st17" d="M890.9,230.9h-9.3c-0.5,0-0.9-0.4-0.9-0.9s0.4-0.9,0.9-0.9h9.3c0.5,0,0.9,0.4,0.9,0.9
				C891.8,230.5,891.4,230.9,890.9,230.9z"/>
		</g>
		<g>
			<path class="st17" d="M906.9,230.9h-11.7c-0.5,0-0.9-0.4-0.9-0.9s0.4-0.9,0.9-0.9h11.7c0.5,0,0.9,0.4,0.9,0.9
				C907.8,230.5,907.4,230.9,906.9,230.9z"/>
		</g>
		<g>
			<path class="st17" d="M905,246.8h-25.5c-0.3,0-0.5-0.2-0.5-0.5s0.2-0.5,0.5-0.5H905c0.3,0,0.5,0.2,0.5,0.5S905.3,246.8,905,246.8
				z"/>
		</g>
		<g>
			<path class="st17" d="M904.1,252.7h-25.5c-0.3,0-0.5-0.2-0.5-0.5s0.2-0.5,0.5-0.5h25.5c0.3,0,0.5,0.2,0.5,0.5
				C904.6,252.4,904.4,252.7,904.1,252.7z"/>
		</g>
		<g>
			<path class="st17" d="M903.3,258.5h-25.5c-0.3,0-0.5-0.2-0.5-0.5s0.2-0.5,0.5-0.5h25.5c0.3,0,0.5,0.2,0.5,0.5
				C903.7,258.3,903.5,258.5,903.3,258.5z"/>
		</g>
		<g>
			<path class="st17" d="M902.4,264.4h-25.5c-0.3,0-0.5-0.2-0.5-0.5s0.2-0.5,0.5-0.5h25.5c0.3,0,0.5,0.2,0.5,0.5
				S902.7,264.4,902.4,264.4z"/>
		</g>
		<g>
			<path class="st17" d="M901.8,270h-25.5c-0.3,0-0.5-0.2-0.5-0.5s0.2-0.5,0.5-0.5h25.5c0.3,0,0.5,0.2,0.5,0.5S902,270,901.8,270z"
				/>
		</g>
		<g>
			<path class="st17" d="M890.9,275.3h-15.7c-0.3,0-0.5-0.2-0.5-0.5s0.2-0.5,0.5-0.5h15.7c0.3,0,0.5,0.2,0.5,0.5
				C891.4,275.1,891.2,275.3,890.9,275.3z"/>
		</g>
		<g>
			<path class="st17" d="M894.7,316.8h-25.5c-0.3,0-0.5-0.2-0.5-0.5s0.2-0.5,0.5-0.5h25.5c0.3,0,0.5,0.2,0.5,0.5
				C895.2,316.6,895,316.8,894.7,316.8z"/>
		</g>
		<g>
			<path class="st17" d="M894.1,323h-25.6c-0.3,0-0.5-0.2-0.5-0.5s0.2-0.5,0.5-0.5h25.6c0.3,0,0.5,0.2,0.5,0.5S894.4,323,894.1,323z
				"/>
		</g>
		<g>
			<g>
				
					<ellipse transform="matrix(0.1652 -0.9863 0.9863 0.1652 345.159 1186.7067)" class="st14" cx="873.6" cy="389.5" rx="19.8" ry="12.4"/>
			</g>
			<g>
				<path class="st21" d="M882.4,391c-1.4,8.5-6.6,14.8-11.5,14c-0.1,0-0.1,0-0.2,0c-0.1,0-0.3-0.1-0.4-0.1
					c-4.5-1.3-7.1-8.6-5.7-16.8c1.2-7.3,5.2-13,9.4-13.9c0.2,0,0.3-0.1,0.5-0.1c0.5-0.1,1.1-0.1,1.6,0
					C881,374.8,883.9,382.4,882.4,391z"/>
			</g>
			<g>
				<path class="st10" d="M879.7,390.9c-1.2,7.3-5.2,13-9.4,13.9c-4.5-1.3-7.1-8.6-5.7-16.8c1.2-7.3,5.2-13,9.4-13.9
					C878.6,375.4,881.1,382.7,879.7,390.9z"/>
			</g>
		</g>
	</g>
	<g>
		<g>
			<path class="st11" d="M767.6,183.8h93.3c1.7,0,2.9,1.5,2.7,3.1L824,452.1c-0.2,1.3-1.3,2.3-2.7,2.3H653.5L767.6,183.8z"/>
		</g>
		<g>
			<path class="st12" d="M772.3,453.1L772.3,453.1c-0.3,0-0.5-0.3-0.4-0.5l41.4-264.9c0-0.2,0.3-0.4,0.5-0.4s0.4,0.3,0.4,0.5
				l-41.4,264.9C772.7,452.9,772.5,453.1,772.3,453.1z"/>
		</g>
		<g>
			
				<ellipse transform="matrix(0.1652 -0.9863 0.9863 0.1652 295.0452 1123.4059)" class="st14" cx="811.1" cy="387.4" rx="19.8" ry="12.4"/>
		</g>
		<g>
			<path class="st21" d="M820,388.9c-1.4,8.5-6.6,14.8-11.5,14c-0.1,0-0.1,0-0.2,0c-0.1,0-0.3-0.1-0.4-0.1
				c-4.5-1.3-7.1-8.6-5.7-16.8c1.2-7.3,5.2-13,9.4-13.9c0.2,0,0.3-0.1,0.5-0.1c0.5-0.1,1.1-0.1,1.6,0
				C818.6,372.8,821.5,380.4,820,388.9z"/>
		</g>
		<g>
			<path class="st10" d="M817.3,388.8c-1.2,7.3-5.2,13-9.4,13.9c-4.5-1.3-7.1-8.6-5.7-16.8c1.2-7.3,5.2-13,9.4-13.9
				C816.2,373.4,818.7,380.6,817.3,388.8z"/>
		</g>
		<g>
			<path class="st14" d="M853.7,202.7l-1.6,10.4l-16.5,110c-0.2,1.2-1.2,2-2.3,2h-28.4c-1.5,0-2.6-1.3-2.3-2.7l16.2-109.3l1.6-11.1
				c0.2-1.2,1.2-2,2.3-2h28.6C852.8,199.9,853.9,201.2,853.7,202.7z"/>
		</g>
		<g>
			<path class="st15" d="M853.7,202.7l-1.6,10.4h-33.4l1.6-11.1c0.2-1.2,1.2-2,2.3-2h28.6C852.8,199.9,853.9,201.2,853.7,202.7z"/>
		</g>
		<g>
			<path class="st17" d="M847.1,220h-24.5c-0.5,0-0.9-0.4-0.9-0.9s0.4-0.9,0.9-0.9h24.5c0.5,0,0.9,0.4,0.9,0.9S847.6,220,847.1,220z
				"/>
		</g>
		<g>
			<path class="st17" d="M845.1,235.9h-25.5c-0.3,0-0.5-0.2-0.5-0.5s0.2-0.5,0.5-0.5h25.5c0.3,0,0.5,0.2,0.5,0.5
				S845.3,235.9,845.1,235.9z"/>
		</g>
		<g>
			<path class="st17" d="M844.2,241.8h-25.5c-0.3,0-0.5-0.2-0.5-0.5s0.2-0.5,0.5-0.5h25.5c0.3,0,0.5,0.2,0.5,0.5
				S844.5,241.8,844.2,241.8z"/>
		</g>
		<g>
			<path class="st17" d="M843.4,247.7h-25.5c-0.3,0-0.5-0.2-0.5-0.5s0.2-0.5,0.5-0.5h25.5c0.3,0,0.5,0.2,0.5,0.5
				C843.8,247.5,843.6,247.7,843.4,247.7z"/>
		</g>
		<g>
			<path class="st17" d="M842.5,253.6H817c-0.3,0-0.5-0.2-0.5-0.5s0.2-0.5,0.5-0.5h25.5c0.3,0,0.5,0.2,0.5,0.5
				C843,253.4,842.8,253.6,842.5,253.6z"/>
		</g>
		<g>
			<path class="st17" d="M833.9,310.9h-25.5c-0.3,0-0.5-0.2-0.5-0.5s0.2-0.5,0.5-0.5h25.5c0.3,0,0.5,0.2,0.5,0.5
				S834.2,310.9,833.9,310.9z"/>
		</g>
		<g>
			<path class="st17" d="M827.3,317.1h-19.6c-0.3,0-0.5-0.2-0.5-0.5s0.2-0.5,0.5-0.5h19.6c0.3,0,0.5,0.2,0.5,0.5
				S827.6,317.1,827.3,317.1z"/>
		</g>
	</g>
	<g>
		<g>
			<path class="st22" d="M460.6,267.4c0,0-3.6,10.9-9,27l-0.3,1c-1.2,3.5-2.4,7.2-3.7,11.2c-0.1,0.3-0.2,0.6-0.3,0.9
				c-1.3,3.9-2.7,8-4.1,12.1c-0.1,0.3-0.2,0.6-0.3,0.9c-1.6,4.8-3.3,9.7-5,14.7c-0.1,0.3-0.2,0.6-0.3,1c-1.8,5.4-3.7,10.9-5.5,16.3
				c-0.1,0.3-0.2,0.6-0.3,0.9c-12.7,37.4-25.2,73.1-26.9,74.7c-3.5,3.4-63,21.6-63,21.6l2.6-17.4l0.1-0.9l0.6-3.8l0.1-0.9l2.7-17.9
				l0.1-0.9l1-6.5l0.1-0.9l2-13.1l0.1-1l0.9-6.2l0.1-1l1.5-9.8l0.1-0.9l1.2-8.2l0.1-0.9l0.9-5.8l0.1-0.9l1-6.8l0.1-0.9l0.9-6.2
				l0.1-0.9l1.4-9.3l0.1-0.9l0.5-3.6l0.1-0.9l1.2-8.1l0.1-0.9l0.4-2.9l0.1-0.7l0.5-3.7l0.1-0.9l0.9-6.3l0.1-0.9l1.7-11.2l0.1-1
				l1.8-12.4l0.1-0.9l0.7-4.4c0.1-0.8,0.8-1.5,1.7-1.5L460.6,267.4L460.6,267.4z"/>
		</g>
		<g>
			<path class="st23" d="M450.4,283.3c-4.1-1.6-8.3-3.1-12.4-4.7c-4.7-1.7-8.8-2.2-13.8-1.3c-8.2,1.5-15.9,4.4-23.5,7.8
				c-3.5,1.5-7,3-10.8,3.5c-3.5,0.5-6.8-0.2-10.2-0.8c-4.6-0.8-9.2-0.9-13.8-0.3l0.1-1c3.8-0.5,7.6-0.5,11.4,0
				c4.6,0.6,9.1,1.8,13.8,0.9c4.2-0.8,8.1-2.8,12-4.5c7.2-3.2,14.8-5.7,22.6-6.8c8.7-1.2,16.9,3.3,24.8,6.3
				C451.2,282.7,451,283.5,450.4,283.3z"/>
		</g>
		<g>
			<path class="st23" d="M472.8,288.1c-6.5-1.5-12.9-2.8-19.6-1.9c-6.8,1-13.2,3.8-19.8,5.6c-13.8,3.8-28.5,3.2-42-1.4
				c-0.6-0.2-0.8,0.7-0.2,0.9c12.6,4.3,26.3,5.1,39.3,2.2c6.7-1.5,13.1-4.3,19.8-5.8c7.6-1.7,14.8-0.4,22.3,1.3
				C473.2,289.1,473.4,288.2,472.8,288.1z"/>
		</g>
		<g>
			<path class="st23" d="M440.1,281.3c-5.1-2.2-10.7-1.3-16-0.9c-2.6,0.2-5.3,0.4-7.7,1.5c-2.4,1-4.4,2.6-7,3.3
				c-0.6,0.2-0.3,1,0.2,0.9c1.9-0.5,3.5-1.4,5.2-2.4c2.7-1.5,5.4-2,8.4-2.3c5.4-0.4,11.3-1.5,16.4,0.7
				C440.2,282.4,440.7,281.6,440.1,281.3z"/>
		</g>
		<g>
			<path class="st23" d="M439.7,285.9c-11.7,4.4-24.3,5.2-36.5,2.3c-0.6-0.1-0.8,0.7-0.2,0.9c12.3,2.9,25.1,2.1,36.9-2.3
				C440.5,286.5,440.2,285.7,439.7,285.9z"/>
		</g>
		<g>
			<path class="st23" d="M432.6,284.1c-2.5,0.2-5.1,0.5-7.6,1c-0.6,0.1-0.3,1,0.2,0.9c2.4-0.4,4.9-0.7,7.3-0.9
				C433.2,285,433.2,284.1,432.6,284.1z"/>
		</g>
		<g>
			<path class="st23" d="M429.7,267.4c-2.9,0.6-5.8,1.4-8.5,2.5c-2.9,1.1-5.7,2.7-8.6,3.8c-3,1.1-6.1,1.6-9.2,1.9
				c-6.9,0.7-13.8,1.1-20.6,0.2c-5-0.7-9.8-1.2-14.8-1.5l0.1-0.9c4.2,0.2,8.5,0.6,12.7,1.3c7.3,1.1,14.4,0.8,21.7,0.2
				c3.6-0.3,7.2-0.9,10.6-2.2c2.9-1.2,5.7-2.7,8.7-3.8c1.4-0.5,2.8-0.9,4.2-1.3h3.7V267.4z"/>
		</g>
		<g>
			<path class="st23" d="M405.9,267.4c-9.1,1.9-18.6,2-27.8,0h5.3c5.7,0.7,11.4,0.7,17,0H405.9z"/>
		</g>
		<g>
			<path class="st23" d="M455.8,295.1c-1.5-0.1-3,0.1-4.5,0.3c-3,0.5-5.9,1.5-8.8,2.4c-3.8,1.3-7.5,2.6-11.1,4.1
				c-6.8,2.8-13.3,6-20.3,8.1c-6.4,2-13.1,3.2-19.8,3.7c-6.7,0.5-13.4,0.3-20.1-0.7c-3-0.4-5.9-1.2-8.8-1.9l0.1-0.7
				c3.6,0.9,7.2,1.6,10.8,2c14,1.7,28.5,0.1,41.7-4.7c6.9-2.5,13.5-5.8,20.4-8.4c5.1-1.9,10.6-4.3,16.1-5c1.4-0.2,2.8-0.3,4.2-0.2
				C456.3,294.2,456.3,295.1,455.8,295.1z"/>
		</g>
		<g>
			<path class="st23" d="M408.6,306c-8.7,3.5-18.1,4.4-27.5,3.7c-4.6-0.3-9.2-1-13.7-1.9c-1.4-0.3-2.9-0.6-4.3-0.9l0.1-0.9
				c1.7,0.4,3.5,0.7,5.3,1.1c4.4,0.9,8.9,1.5,13.5,1.8c8.5,0.6,17-0.2,25-3.2c-14-3.5-28.4-5.5-42.8-5.9l0.1-0.9
				c14.9,0.5,29.8,2.6,44.3,6.3C409,305.2,408.9,305.8,408.6,306z"/>
		</g>
		<g>
			<path class="st23" d="M359.8,328.5l0.1-0.9c1.4-0.1,2.9-0.1,4.3-0.1c7.1,0.2,14.1,1.5,21.1,2.1c7.8,0.6,15.2-0.2,22.3-3.7
				c6.2-3.1,12.1-5.8,19.1-6.8c5.4-0.7,10.9-0.6,16.3,0.5c1.4,0.3,2.8,0.6,4.2,1.1c0.6,0.2,0.3,1-0.2,0.9c-1.4-0.4-2.8-0.8-4.3-1.1
				c-6.7-1.3-13.5-1.3-20.2,0.3c-6.9,1.6-12.6,5.5-19.1,7.9c-6.3,2.3-13.1,2.3-19.8,1.7C376,329.7,367.7,328.1,359.8,328.5z"/>
		</g>
		<g>
			<path class="st23" d="M459.2,328.9c-6.7,3.7-14.1,6.2-21.7,7.3c-0.6,0.1-1.2,0.2-1.7,0.2c-3.9,0.5-7.8,0.6-11.7,0.3
				c-4-0.3-8-1.2-12-1.6c-8.8-0.9-17.3,1.4-25.7,3.6c-3.7,1-7.5,2.2-11.4,2.3c-3.9,0.1-7.9-0.7-11.7-1.3c-1.7-0.3-3.3-0.6-5-1
				l0.1-0.9c3.2,0.9,6.6,1.3,9.9,1.8c4.4,0.6,8.5,0.6,12.9-0.4c3.9-0.9,7.7-2.1,11.5-3c7.1-1.7,14.3-2.7,21.6-1.7
				c7.9,1.2,15.5,1.9,23.4,0.7h0.1c7.3-1.1,14.3-3.6,20.8-7.1C459.2,327.8,459.7,328.6,459.2,328.9z"/>
		</g>
		<g>
			<path class="st23" d="M446.8,327.2c-10.7,2-21.7,4-32.5,1.8c9.2-3.6,19.2-4.6,29-3c0.6,0.1,0.8-0.8,0.2-0.9
				c-10.5-1.7-21.1-0.5-30.9,3.6c-0.4,0.2-0.5,0.8,0,0.9c11.4,2.7,23.1,0.7,34.4-1.5C447.6,328,447.3,327.1,446.8,327.2z"/>
		</g>
		<g>
			<path class="st23" d="M451.2,307.4c-1.3,0-2.7,0.1-4,0.1c-7.4,0.3-14.8,0.7-22.2,1.9c-14.2,2.3-27.3,8.5-41.9,8.6
				c-6.9,0.1-13.8-0.9-20.4-2.7c-0.3-0.1-0.5-0.2-0.8-0.2l0.1-0.9c0.7,0.2,1.4,0.5,2.2,0.6c7.2,1.9,14.6,2.7,22,2.3
				c7.7-0.4,15-2.3,22.3-4.5c6.7-2,13.4-3.7,20.4-4.6c6.2-0.8,12.4-1.1,18.7-1.3c1.2,0,2.5-0.1,3.7-0.1
				C451.8,306.4,451.8,307.4,451.2,307.4z"/>
		</g>
		<g>
			<path class="st23" d="M404.2,323.8c-8,4.7-17.4,4.1-26.2,2.6c-5.5-0.9-10.9-2-16.5-2.3c-0.3,0-0.7,0-1,0l0.1-0.9
				c0.1,0,0.3,0,0.4,0c4.6,0.2,9.2,1,13.8,1.8c9.6,1.7,20,3.2,28.9-2C404.3,322.7,404.7,323.5,404.2,323.8z"/>
		</g>
		<g>
			<path class="st23" d="M383.3,333.6c-7.7,1.6-15.6,0-23.3-1.2c-0.6-0.1-0.8,0.8-0.2,0.9c7.9,1.2,15.9,2.9,23.8,1.2
				C384.2,334.4,383.9,333.5,383.3,333.6z"/>
		</g>
		<g>
			<path class="st23" d="M429.3,358.8c-9.1-2.2-16.6,4.6-23.6,9.3c-6.7,4.5-14.3,6.7-22.2,7.7c-10.1,1.4-21.4,1.3-31.4,4.4l0.1-1
				c0.3-0.1,0.5-0.2,0.8-0.2c13.5-3.9,28.1-2.1,41.5-6.4c6.9-2.2,12.2-6.6,18.2-10.5c5-3.2,10.7-5.5,16.7-4.1
				C430.1,358.1,429.8,358.9,429.3,358.8z"/>
		</g>
		<g>
			<path class="st23" d="M426.3,366.6c-7.4,3.1-14.8,6.2-22.3,9.3c-3.5,1.4-6.9,3-10.5,4.1s-7.3,1.7-10.9,2.2
				c-7.5,1.1-15,2.1-22.4,3.3c-3.1,0.5-6.2,1-9.2,2l0.1-1c2.2-0.6,4.4-1.1,6.6-1.5c7.6-1.3,15.3-2.3,22.9-3.4c3.7-0.5,7.4-1,11-2
				c3.9-1,7.6-2.7,11.3-4.2l23.1-9.6C426.6,365.5,426.9,366.4,426.3,366.6z"/>
		</g>
		<g>
			<path class="st23" d="M413,350.5c-3.6,0.9-7.3,1.8-10.8,3.2c-3.4,1.4-6.5,3.3-9.7,5c-6,3.1-12.4,5.5-18.9,7.3s-13.2,2.8-19.9,3.4
				l0.1-0.9c6.9-0.5,13.6-1.7,20.3-3.5c7-1.9,13.7-4.6,20-8.1c2.8-1.5,5.6-3.1,8.6-4.2c3.3-1.2,6.7-2.1,10-2.9
				C413.4,349.5,413.6,350.4,413,350.5z"/>
		</g>
		<g>
			<path class="st23" d="M433.2,354.5c-0.5-0.4-1-0.8-1.5-1.1c-3.1-2.2-6.6-3.8-10.4-4.5c-4.5-0.9-9-0.3-13.5,0.2
				c-4.7,0.6-9.4,1.2-14,2.7c-4.2,1.3-8.3,3.1-12.5,4.2c-8.5,2.2-17.3,2.9-25.9,4.2c-0.1,0-0.1,0-0.2,0l0.1-0.9
				c5.7-0.9,11.5-1.4,17.2-2.4c3.7-0.6,7.4-1.4,10.9-2.5c3.7-1.1,7.3-2.7,11-3.8c3.5-1.1,7.2-1.6,10.8-2.1c3.8-0.5,7.7-1.1,11.5-1
				c5.5,0.1,10.8,1.8,15.3,5c0.6,0.4,1.3,0.9,1.8,1.4C434.3,354.3,433.6,354.9,433.2,354.5z"/>
		</g>
		<g>
			<path class="st23" d="M373.8,360.3c-3.8,0.9-7.7,1.5-11.7,1.8c-0.6,0-0.6,0.9,0,0.9c4-0.3,8-0.9,11.9-1.8
				C374.6,361,374.4,360.2,373.8,360.3z"/>
		</g>
		<g>
			<path class="st23" d="M382.1,347.7c-7.5,2.3-15,4.5-22.8,5.5c-1.1,0.1-2.1,0.2-3.2,0.3l0.1-0.9c0.6,0,1.1-0.1,1.7-0.2
				c7.4-0.9,14.6-2.9,21.8-5c-7.5-0.8-15-1.6-22.5-1.6l0.1-0.9c8.2,0.1,16.4,1,24.6,1.9C382.5,346.8,382.6,347.5,382.1,347.7z"/>
		</g>
		<g>
			<path class="st23" d="M412.9,394.3c-4.8-3.6-10.8-5.4-16.8-5.1c-6.7,0.4-11.9,3.8-17.6,7c-9.1,5.1-19.4,6.1-29.6,5.2l0.1-0.9
				c5.3,0.5,10.7,0.5,15.9-0.5c6.7-1.2,12.1-4.2,18-7.5c5-2.8,10.2-4.6,15.9-4.3c5.2,0.3,10.3,2.1,14.5,5.2
				C413.8,393.8,413.4,394.6,412.9,394.3z"/>
		</g>
		<g>
			<path class="st23" d="M408.6,403.5c-8.4,2.8-17,5.6-25.9,3.7c-7.2-1.6-14.1-5.1-21.7-4.3c-0.6,0.1-0.6,1,0,0.9
				c8.3-0.9,15.7,3.6,23.7,4.7c8.3,1.2,16.4-1.5,24.1-4.1C409.4,404.2,409.1,403.3,408.6,403.5z"/>
		</g>
		<g>
			<path class="st23" d="M405,394c-2.8,0.1-5.5-0.9-8.3-0.7c-2.7,0.2-5.3,1.1-7.8,2c-3.9,1.4-7.8,2.9-10.3,6.3
				c-0.2,0.2,0,0.6,0.3,0.7c8.2,1.4,16.4,1.5,24.6,0.2c0.6-0.1,0.3-1-0.2-0.9c-7.8,1.2-15.6,1.2-23.4-0.1c2.7-3.2,7-4.6,10.9-5.9
				c2.4-0.8,4.8-1.5,7.3-1.4c2.4,0.1,4.7,0.8,7.1,0.7C405.6,394.9,405.6,394,405,394z"/>
		</g>
		<g>
			<path class="st23" d="M397.2,397.7c-2.8,0.3-5.6,0.5-8.4,0.8c-0.6,0.1-0.6,1,0,0.9c2.8-0.3,5.6-0.5,8.4-0.8
				C397.8,398.5,397.8,397.6,397.2,397.7z"/>
		</g>
		<g>
			<path class="st23" d="M391,412.3c-5,1.9-10.5,1.8-15.6,3.6c-5.1,1.9-9.7,5.1-14.7,7.3c-4.5,1.9-9.4,4-14.3,4.4
				c-0.5,0-0.9,0-1.4,0l0.1-0.9c0.3,0,0.6,0,0.8,0c5.6-0.3,11.5-3,16.6-5.3c4.5-2.1,8.7-5,13.4-6.6c4.8-1.6,10-1.6,14.8-3.4
				C391.3,411.2,391.6,412,391,412.3z"/>
		</g>
		<g>
			<path class="st23" d="M381.9,434.1c-12.5-1.3-25-1.9-37.6-1.8l0.1-0.9c12.5-0.1,25,0.5,37.4,1.8
				C382.4,433.2,382.5,434.2,381.9,434.1z"/>
		</g>
		<g>
			<path class="st23" d="M374.9,410.8c-7.9-3.2-16.5-3.1-24.9-2.2c-0.7,0.1-1.5,0.1-2.2,0.2l0.1-0.9c0.7-0.1,1.4-0.1,2.1-0.2
				c8.5-0.8,17.1-1,25.1,2.2C375.7,410.2,375.5,411,374.9,410.8z"/>
		</g>
	</g>
	<g>
		<g>
			<path class="st21" d="M852.9,45.6c0,0,23.4-0.1,39.4,30c14.1,26.4,4.2,57.7,1.6,64.9c-0.3,0.9-1.2,1.5-2.2,1.5H767.6l27.1-70.9
				l48.5-24.8L852.9,45.6z"/>
		</g>
		<g>
			<path class="st15" d="M853,45.6c0,0-58.1,5.5-77.1,103.1S751,347.5,716.3,404c-34.7,56.4-76.8,80.2-123.8,80.2
				c-46.9,0-359.7-14.3-359.7-14.3l-8.8-13.7c0,0,101.3,35.5,174.1-61.1s53.8-171.8,83.7-255.1c29.9-83.3,68.4-94.5,68.4-94.5
				L853,45.6L853,45.6z"/>
		</g>
		<g>
			<path class="st21" d="M592.5,484.3c0,0-24.4-1.5-42.8-6.7c-12.6-3.5-31.3-15.8-36.8-20.4c-4.1-3.5-3.6-3-8.2-2.9l-336.4-9
				c-1.2,0-1.8,1.5-0.8,2.3c6.6,5.2,23.8,17.5,44,22.9C250.1,480.9,592.5,484.3,592.5,484.3z"/>
		</g>
		<g>
			<g>
				<path class="st14" d="M731.9,194.5c1.1,0,2-0.7,2.2-1.8c2.6-11.9,6-27.5,8.7-38.7c5-20.8,12.6-40.7,15.7-47.9
					c0.7-1.7-0.5-3.6-2.4-3.6l-223.9-0.1c-2,0-4.2,0.5-5.4,2.1c-0.9,1.2-2.1,3.5-2.9,5.4c-3.6,8.3-8.7,19.6-13.9,34.9
					c-3.9,11.4-9.8,35.3-12,47.2c-0.3,1.4,0.8,2.7,2.2,2.7L731.9,194.5z"/>
			</g>
			<g>
				<path class="st14" d="M703.7,331.4c9.4-31.7,14.2-61.5,18.8-89.4c0.3-1.6,0.5-3.2,0.8-4.9H493c-1.5,0-2.8,1.1-3.1,2.6
					c-4.8,29.2-10.3,57.8-21.5,87.5c-0.8,2,0.7,4.2,2.9,4.2L703.7,331.4L703.7,331.4z"/>
			</g>
			<g>
				<path class="st14" d="M631.6,444.1c7.2,0,14.6,0.8,19.4-0.8c3.8-1.2,4.6-3.1,6.2-4.9c2.6-2.9,6.7-7.9,13.2-16.2
					c12.2-15.5,19.2-26.5,28.2-44.9c0.7-1.5-0.4-3.2-2.1-3.2H448.3c-1.5,0-2.8,0.8-3.6,2c-3.1,5.1-7,11.2-10.3,16.1
					c-18.4,27.3-33.7,40.9-45.9,48.6c-1.4,0.9-0.8,3.1,0.9,3.1L631.6,444.1z"/>
			</g>
			<g>
				<path class="st14" d="M818,45.6c-7.2,1.5-11.8,3.5-17.7,7.2c-5.7,3.6-10.3,7-15.8,12.6c-1.9,1.9-4.5,3-7.2,3H557.1
					c-1.8,0-2.9-2.1-1.9-3.6c5.6-8,10.8-14.7,17.7-19.3L818,45.6L818,45.6z"/>
			</g>
		</g>
		<g>
			<g>
				<path class="st10" d="M484.7,402.5c1.8-4.7,0.4-9.8-4.3-12.7c-2.8-1.7-5.3-1.7-8.4-0.8c-3.2,0.9-5.8,4.1-6.4,6.1
					c-0.1,0.3,0.5,0.8,0.7,0.5s0.4-0.5,0.6-0.8c1.3,1,1.8,0.6,3.2,1.4c1.9,1,3,2.3,4.5,3.9c1.4,1.5,3,2.8,4.5,4.1
					c0.1,0.1,0.2,0.2,0.4,0.3c-0.8,0.9-1.5,1.8-2.2,2.8c-0.5,0.6-1,1.3-1.4,1.9c-0.1,0-0.1,0-0.2,0c-0.2,0-0.2,0.3-0.1,0.4
					c-0.3,0.5-0.7,0.9-1,1.4c-0.7,1-1.5,2-1.3,3.3c0,0.2,0.2,0.3,0.4,0.2c1.9-0.8,3.3-2.3,4.7-3.7c1.9-1.9,4.2-4,5.5-6.4
					C484.1,403.9,484.4,403.2,484.7,402.5z"/>
			</g>
			<g>
				<path class="st22" d="M478.5,389.9c-7.5-2.4-11.9,3.6-14,8.6c-1.6,3.9-2.6,6.8-2.5,10.6c0.1,5.8,4.8,6.7,9.8,4.9
					c2.8-1,6-4.5,6-4.5s4.2-4.9,5.2-7.7C484.5,397.7,484.9,392,478.5,389.9z"/>
			</g>
			<g>
				<path class="st22" d="M465,404.5c0,0-4.3,9-5.3,10.9s-8,4-8,4l12,6.9l11.9-3c0,0-2.7-5.1-2-6.4s3.9-9.1,3.9-9.1L465,404.5z"/>
			</g>
			<g>
				<path class="st14" d="M477.5,435.8c3-3.4,6.6-8,5.3-9.2c-2.1-2-6-5.6-6-5.6l-3.2-4.1c0,0-9.5,3.8-9.9,3.8s-3.6-6.1-3.6-6.1
					l-4.4,3l-12.4,1.7l-13.2,16.6L477.5,435.8L477.5,435.8z"/>
			</g>
			<g>
				<path class="st10" d="M483.3,392.9c-0.2-0.3-0.3-0.6-0.5-0.8c-0.9-1.2-2.2-2-3.6-2.6c-2.1-0.9-4.3-0.3-6.5,0
					c-2.1,0.3-3.2,1.4-4.7,2.8c-1.9,1.8-3.3,4.3-3.5,6.9c0.9-2.2,1.3-3.1,3.2-4.5c0.7-0.5,1-1.3,1.8-1.5c1.3-0.3,2.3-0.5,3.5,0.1
					c2.6,1.2,6.4,1.5,7.8,4.4c0.6,1.3,0.4,2.8,0.1,4.2c-0.4,1.4-0.9,2.7-1,4.1c0,0.2,0,0.5,0.1,0.7s0.3,0.4,0.6,0.4
					c0.2,0,0.3-0.1,0.4-0.2c1.4-1.1,2.3-2.7,2.8-4.4c0.5-1.7,0.7-3.5,0.6-5.2C484.2,395.7,483.9,394.1,483.3,392.9z"/>
			</g>
			<g>
				<path class="st19" d="M459.8,435.8c0.4-1.9,0.9-4.8,1-5.5c0.1-1,0.6-2.2,0.9-3.1c0.3-1,1.1-3.1,1.1-3.1s-0.9-1.9-1-1.8s-1,1-1,1
					s-3.1,3.3-4.9,5c-1.5,1.4-4.6,5.8-4.6,5.8s0.1,0.8,0.2,1.7H459.8z"/>
			</g>
			<g>
				<path class="st22" d="M478.3,404.5c0.3-0.4,0.6-0.8,0.9-1.2c0.5-0.5,1.1-1.2,1.9-1.3c0.9-0.1,1.4,1,1.5,1.7
					c0.1,0.9-0.1,1.7-0.4,2.5c-0.4,0.9-1.1,1.7-2,2.1c-1.4,0.5-3.2,0.7-3.2,0.7L478.3,404.5z"/>
			</g>
			<g>
				<path class="st23" d="M467.8,415.8c-0.4,0-0.9,0-1.3-0.1c-3.6-0.7-4.2-2.7-4.3-2.8c-0.1-0.3,0.1-0.5,0.3-0.6
					c0.3-0.1,0.5,0.1,0.6,0.3c0,0.1,0.5,1.5,3.5,2.1c2.8,0.6,7.4-1.4,7.4-1.5c0.2-0.1,0.5,0,0.6,0.2s0,0.5-0.2,0.6
					C474.3,414.2,470.8,415.8,467.8,415.8z"/>
			</g>
			<g>
				<path class="st10" d="M481.9,398.1c-0.4-1-1.1-1.7-2.1-2.1c-0.1-0.1-0.2,0-0.3,0.1c-0.3-0.5-0.5-1.1-1-1.3
					c-0.3-0.1-0.5,0.4-0.1,0.5c0.3,0.1,0.8,1.2,1,1.5c0.6,1,0.6,2,0.4,3.1c-0.3,1.6-1.2,3.2-2.1,4.5c-0.1,0.2,0,0.4,0.2,0.4
					c1.1-0.1,1.5-1.1,2.2-1.9c0.3-0.3,0.6-0.6,0.9-0.8c0.4-0.2,0.9-0.3,1.2-0.6c0.1-0.1,0.2-0.2,0.3-0.3
					C482.9,400.6,482.2,398.7,481.9,398.1z"/>
			</g>
			<g>
				<path class="st23" d="M464.7,407.3c0,0,1.2,0.8,2.9,1.2c1.8,0.3,3.6,0.5,3.6,0.5s-2.2,1.8-4,1.4
					C465.3,409.9,464.7,407.3,464.7,407.3z"/>
			</g>
			<g>
				<path class="st13" d="M481.8,435.8c1.3-2.4,3.6-4.3,5.4-6.2c-0.3-0.7-0.6-1.4-1-1.9c-2-2.5-5-3.9-7.4-5.9
					c-0.6-0.5-6.8,3.5-11.2,7c-2.4,1.9-6.6,4.7-9.9,6.9h24.1V435.8z"/>
				<path class="st13" d="M452.5,435.8c-0.1-2.2-0.3-5.2-0.5-7.4c-0.4-4.1,0.6-10.5,0.6-10.5s-16.5,2.4-20.7,6.3
					c-3.2,3-7.6,7.4-13.2,11.6H452.5z"/>
			</g>
			<g>
				<path class="st17" d="M453.4,418.1c-0.2,0-0.4-0.1-0.5-0.4s0.1-0.5,0.4-0.6c1.4-0.4,3-0.8,3.3-1l2.6-1.6l0.5,0.8l-2.6,1.6
					c-0.5,0.3-3.1,1-3.6,1.1C453.5,418.1,453.5,418.1,453.4,418.1z"/>
			</g>
			<g>
				<path class="st17" d="M477.5,422.1c-0.1,0-0.2,0-0.3-0.1c0,0-0.7-0.7-1.3-1.3c-0.5-0.7-2.2-3.1-2.3-3.2
					c-0.2-0.2-0.1-0.5,0.1-0.7s0.5-0.1,0.7,0.1c0,0,1.8,2.5,2.3,3.2c0.5,0.6,1.1,1.2,1.1,1.2c0.2,0.2,0.2,0.5,0,0.7
					C477.7,422,477.6,422.1,477.5,422.1z"/>
			</g>
			<g>
				<path class="st19" d="M463.5,420.8c0,0-2,0.4-2.3,0.5c-0.3,0.2-0.9,1.8-0.8,2c0.1,0.3,2.4,1.2,2.7,1.1c0.2,0,1.2-1.7,1.3-1.9
					C464.4,422.3,463.5,420.8,463.5,420.8z"/>
			</g>
			<g>
				<path class="st24" d="M435,431.8c-0.2,1.2-0.6,2.7-0.9,4h1c0.3-1.3,0.6-2.7,0.8-3.8c0.6-3-0.3-8.5-0.4-8.8
					c0-0.3-0.3-0.4-0.6-0.4c-0.3,0-0.4,0.3-0.4,0.6C434.7,423.4,435.6,429,435,431.8z"/>
			</g>
			<g>
				<path class="st17" d="M458.6,423.8c-0.2,0-0.3-0.1-0.4-0.3l-2.6-5.2c-0.1-0.2,0-0.5,0.2-0.7c0.2-0.1,0.5,0,0.7,0.2l2.6,5.2
					c0.1,0.2,0,0.5-0.2,0.7C458.7,423.8,458.6,423.8,458.6,423.8z"/>
			</g>
			<g>
				<path class="st17" d="M463.7,425.5c-0.2,0-0.4-0.1-0.5-0.3c-0.1-0.3,0.1-0.5,0.3-0.6l11.5-3.4c0.3-0.1,0.5,0.1,0.6,0.3
					c0.1,0.3-0.1,0.5-0.3,0.6l-11.5,3.4C463.8,425.5,463.8,425.5,463.7,425.5z"/>
			</g>
		</g>
		<g>
			<path class="st25" d="M738.1,135.5l-23.1,0.1c-0.5,0-0.8-0.4-0.7-0.9l0,0c0-0.1,3.2-10.7,5.7-16.3c0.8-1.8,1.6-3.4,2.3-4.8
				c0.1-0.3,0.5-1.1,0.9-1.7c0.3-0.6,0.9-0.9,1.5-0.9l24-0.6c0.5,0,0.9,0.6,0.6,1c-1.3,2.3-5.1,10.9-5.3,11.3
				c-1.1,2.3-3.8,9.5-4.7,11.9C739.1,135.2,738.6,135.5,738.1,135.5z M716.9,134.3l20.3-0.1c0.5,0,1-0.3,1.2-0.8
				c1-2.7,3.3-8.9,4.4-11.2c0.2-0.5,2.7-6.2,4.2-9.4c0.2-0.5-0.1-1.1-0.6-1l-21.1,0.7c-0.5,0-0.9,0.3-1.1,0.7
				c-0.2,0.4-0.4,0.7-0.6,1.1c-0.7,1.5-1.5,3-2.3,4.8c-1.8,4.2-4,11.1-5,14.4C716.1,133.9,716.4,134.3,716.9,134.3z"/>
		</g>
		<g>
			<path class="st25" d="M674.7,402.3l-26.7-0.5c-0.6,0-0.9-0.7-0.5-1.1l0,0c0,0,4.1-4.5,7.3-10.4c0.4-0.8,0.8-1.5,1.2-2.2
				c1.3-2.5,2.9-5.9,3.6-7.7c0.3-0.7,0.9-1.1,1.7-1.1l26.7,0.5c0.5,0,0.8,0.5,0.6,1l0,0c-4.9,10.3-11.1,18.7-12.7,21
				C675.6,402.1,675.2,402.4,674.7,402.3z M650.5,400.5L673,401c1.1,0,2.1-0.5,2.7-1.4c3.9-5.6,7.8-11.2,10.5-17.1
				c0.3-0.6-0.1-1.3-0.8-1.3l-23.3-0.4c-0.7,0-1.4,0.4-1.7,1.1c-1.1,2.7-1.8,4-3.4,6.9c-0.3,0.6-0.7,1.3-1.2,2.2
				c-2,3.7-4.3,6.8-5.8,8.7C649.8,400,650.1,400.5,650.5,400.5z"/>
		</g>
		<g>
			<g>
				<g>
					<path class="st22" d="M558.4,142.6c0.5-2.4,1.2-5,1.1-7.5c-0.1-1.2-0.5-2.3-0.7-3.5c-0.1-1.1-0.2-2.1-0.8-3.1
						c-1.2-2.1-3.7-3.3-5.9-4.1c-4.9-1.6-11.9-1-15.6,3c-0.7,0.8-1.3,1.7-1.7,2.8c-0.5,1.3-0.4,2.7-0.9,3.9c-0.4,1-1,1.8-1.4,2.8
						c-0.7,1.4-1.4,2.9-1.8,4.4c-0.4,1.4-0.5,2.9-0.3,4.4c0.2,1.8,0.6,3.5,0.4,5.3c-0.2,2-1.6,3.6-2.3,5.4c-0.7,1.6-1,3.2-0.6,4.9
						c0,0.1,0.1,0.1,0.2,0.1c4.7-0.4,9.3,0.3,13.9,0.9c2.3,0.3,4.6,0.6,7,0.7c2,0.1,4.6-0.4,6.4,0.8c0.1,0,0.2,0,0.2-0.1
						c0.1-0.3,0.3-0.6,0.4-0.9c0.1,0,0.1,0,0.2-0.1c1.5-2.2,2.9-4.7,1.8-7.4c-0.4-0.9-0.7-1.7-0.8-2.6c-0.1-1,0.2-1.9,0.6-2.7
						c0.2-0.5,0.4-1,0.5-1.5c0-0.9-0.1-1.7-0.1-2.6c0-0.4,0-0.9,0-1.3C558.1,144.1,558.3,143.3,558.4,142.6z"/>
				</g>
				<g>
					<path class="st16" d="M549.1,125.2c-6.9-0.5-9.9,5.7-11,11c-0.8,3.7-0.7,7.3,0.1,10.9c1.3,5.6,6.5,6.1,10.4,3.1
						c4.7-3.6,6.4-9.3,6.8-14.7C555.8,131.3,554.9,125.6,549.1,125.2z"/>
				</g>
				<g>
					<path class="st16" d="M539.8,148.2c0,0-0.5,7-0.9,9.2c-0.5,2.2-13.8,4.9-13.8,4.9l15.2,13.5l17.6-9.9c0,0-7-7.3-7.4-8.6
						s0.9-9.9,0.9-9.9L539.8,148.2z"/>
				</g>
				<g>
					<path class="st26" d="M543.6,152.7c-0.2,0-0.4,0-0.6-0.1c-2-0.5-3.2-1.9-3.3-1.9c-0.2-0.2-0.1-0.5,0-0.6c0.2-0.2,0.5-0.1,0.6,0
						c0,0,1.1,1.2,2.8,1.6c1.4,0.4,5-1.6,6.2-2.3c0.2-0.1,0.5-0.1,0.6,0.1c0.1,0.2,0.1,0.5-0.1,0.6
						C549.5,150.5,545.8,152.7,543.6,152.7z"/>
				</g>
				<g>
					<path class="st27" d="M561.7,181.7c0,0,1.1-4.4,1.6-7.5c0.2-1.5,0.2-3.7-0.3-5.1c-1.2-3.5-4.5-5.1-7.6-6.7
						c-0.1,0-2.2-1.6-2.2-1.5c0,0-3,4.3-4.3,5.1c-1.6,1.1-3.2,2.1-4.9,3.2c-0.8,0.5-1.6,1-2.4,1.6c-0.7,0.5-2.3,1.7-2.3,1.7
						s-1.7-2.1-2.5-2.9c-0.4-0.5-0.7-1.1-1.1-1.6c-0.5-0.6-0.9-1-1.1-1.7c-0.3-0.8-0.6-1.6-1-2.3c-0.7-1.6-1.4-3.1-2.2-4.7
						c0-0.1-0.1-0.1-0.2-0.1c-0.5,0.2-1,0.3-1.4,0.5c-0.2-0.3-0.3-0.5-0.5-0.8c-0.1-0.2-0.4-0.1-0.3,0.1c0.1,0.3,0.2,1.2,0.4,1.4
						c-2,0.7-4,1.4-6,2.3c-3.1,1.3-5.8,3.7-7,7c-1,3-3.3,9.9-3.6,11.9L561.7,181.7z"/>
				</g>
				<g>
					<path class="st14" d="M539.3,172.4c0,0,4.7-3.9,6.3-5.1c1.1-0.8,4.8-4.2,6-5.1c1.2-0.9,1.3-1.8,1.9-1.6
						c0.6,0.2,0.9,2.9,1.9,3.7s2,3.6,1.6,3.7c-0.5,0.2-1.9-0.6-5,0.3c-3.1,0.9-9.6,3.9-11.1,4.6c-1.5,0.6-2.6,2.6-2.6,2.6
						s0.1-2.1-0.5-2.9c-0.6-0.8-4-4.2-4-4.2l-3.7-6.5c0,0,3.8,1.7,4.1,2.3C534.4,164.9,539.3,172.4,539.3,172.4z"/>
				</g>
				<g>
					<path class="st26" d="M541.3,146l6.1,0.3c0,0-2.1,1.6-3.9,1.2S541.3,146,541.3,146z"/>
				</g>
				<g>
					<path class="st22" d="M557,134.3c-0.2-1-0.8-1.9-1-2.9c-0.2-1.1,0.1-2.2-0.2-3.3c-0.3-0.8-0.9-1.5-1.4-2.2
						c-1.2-1.3-3.3-1.9-5.1-1.8c0-0.1,0-0.2-0.1-0.2c-2.3-0.8-4.9,0.3-7,1c-1,0.3-1.9,0.7-2.5,1.5s-1,1.7-1.2,2.7
						c-0.1,0.5-0.1,1-0.1,1.6c0,0.3,0,0.7,0,1.1c-0.3,0.7-0.6,1.4-1,2c-0.2,0.1-0.3,0.2-0.4,0.3c-0.2,0.2-0.3,0.5-0.5,0.7
						c-0.4,0.5-0.9,0.9-1.2,1.4c-1.1,1.5-1.7,3.2-1.8,5.1c-0.1,1,0,2.1,0.1,3.1c0.1,1.1,0.3,2.2,0.1,3.3c-0.2,0.9-0.7,1.7-1,2.6
						c-0.4,1.1-0.6,2.2-0.9,3.3c-0.1,0.2,0.3,0.3,0.3,0.1c0.3-1.1,0.6-2.1,0.9-3.2c0.3-0.9,0.9-1.8,1.1-2.7c0.4-1.9-0.2-4-0.2-5.9
						c0-2.1,0.6-4,1.9-5.6c0,0,0,0,0.1,0c0.1-0.1,0.2-0.2,0.3-0.2c-0.8,2.2-1.2,4.6-1.5,6.9c0,0.2,0.3,0.3,0.3,0.1
						c0.4-2.4,0.8-4.7,1.6-7c0-0.1,0.1-0.2,0.1-0.4c0.9-0.6,1.8-1.1,2.5-1.9c0.9-1,1.5-2.3,2.6-3c0.3-0.2,0.6-0.4,1-0.5
						c0.3,0,0.5,0,0.7,0c1-0.1,2,0,3-0.1c1.5-0.1,2.7-1.1,3.8-2c-0.1,0.8,0,1.6,0.3,2.3c0.4,1.1,1.3,1.5,2.2,2.1
						c0.7,0.6,1.1,1.3,1.1,2.3c0,0.5,0,1,0.3,1.5c0.2,0.4,0.4,0.6,0.5,1s0.1,0.9,0.1,1.3c0.1,0.8,0.1,1.6,0.2,2.4v0.1
						c0,0.2,0.2,0.3,0.3,0.1c0.1-0.1,0.7-0.3,0.9-0.4c0.3-0.2,0.4-0.5,0.6-0.8c0.4-0.9,0.3-1.9,0.4-2.8
						C557,136.5,557.2,135.4,557,134.3z"/>
				</g>
				<g>
					<path class="st16" d="M552.6,141.1c0,0,1.7-2.5,2.6-1.9c1.5,0.9,0.6,4.2-1.1,4.8c-1.1,0.4-2.5,0.6-2.5,0.6L552.6,141.1z"/>
				</g>
				<g>
					<path class="st23" d="M550.5,128.4c-0.1,0-0.2,0-0.2-0.1c-0.2-0.1-0.3-0.4-0.1-0.6l1.7-2.7c0.1-0.2,0.4-0.3,0.6-0.1
						c0.2,0.1,0.3,0.4,0.1,0.6l-1.7,2.7C550.8,128.4,550.6,128.4,550.5,128.4z"/>
				</g>
				<g>
					<path class="st15" d="M540.2,168.6c-0.2,0-0.4,0-0.6-0.1c-3.7-0.9-3.3-9-3.3-9.3c0-0.1,0.1-0.2,0.2-0.2c0.1,0,0.2,0.1,0.2,0.2
						c0,0.1-0.4,8,2.9,8.8c3.4,0.9,12.4-8.6,12.5-8.7c0.1-0.1,0.2-0.1,0.3,0s0.1,0.2,0,0.3C552.2,160,544.2,168.6,540.2,168.6z"/>
				</g>
				<g>
					<path class="st15" d="M540.2,169.3c-0.1,0.5-0.4,0.9-0.7,0.9s-0.6-0.5-0.5-1s0.4-0.9,0.7-0.9
						C540.1,168.3,540.3,168.8,540.2,169.3z"/>
				</g>
				<g>
					<path class="st22" d="M537.9,153.5c-0.1-2.8-0.5-3.1-0.6-5.8c0-0.2-0.3-0.2-0.3,0c0.1,2.5,0.1,5,0.2,7.5c0,0.3,0,0.5,0,0.8
						c-0.4-0.4-0.8-0.6-1.5-0.5c-1,0.2-2,0.8-2.9,1.4c-0.9,0.6-4.1,0-2.6-1.1c0.2-0.1,0-0.4-0.2-0.3c-1.4,1.1-2.1,2.7-2.3,4.5
						c-0.1,0.7-0.1,1.5-0.1,2.2c-0.1,0.8-0.4,1.4-0.7,2.1c-0.5,1.2-1.2,2.2-2,3.1c-0.7,0.9-1.5,1.7-1.8,2.9
						c-0.1,0.5-0.2,1.4,0.3,1.7c0.6,0.3,1-0.3,1.3-0.7s0.5-0.7,0.8-1.1c0,0.3,0,0.6,0,1s0.1,0.8,0.3,1.1c0.3,0.5,0.9,0.8,1.2,1.3
						c0.7,1-0.5,2.4,0.4,3.3c0.5,0.6,1.5,0.4,2.2,0.1c0.5-0.2,0.8-0.5,1.1-0.9c0.5-0.6,0.8-1,1.4-1.4c0.9-0.8,1.6-2,2.1-3.1
						c0.7-1.4,1-3.1,0.8-4.6c0-0.8-0.3-1.6-0.4-2.4c-0.3-1.4,0-2.4,1.1-3.4c0.6-0.6,2.9-2.7,3-3.6
						C538.9,155.5,537.9,154.6,537.9,153.5z"/>
				</g>
			</g>
			<g>
				<path class="st17" d="M563.1,182.1h-51.7l0.1-0.5c3.7-19.9,14.5-51.1,14.9-52.2c1.5-4.2,3.2-8.4,5.5-13.2l0.1-0.3l50.5,0.3
					l-0.3,0.6c-1,2-7.2,20.3-11.3,34.5c-2.4,8.2-5.6,20.7-7.7,30.5L563.1,182.1z M512.5,181.2h49.9c0,0,5.3-22.1,7.7-30.2
					c4.2-14.3,11-33.9,11-33.9l-48.5-0.3c0,0-4,8.7-5.4,12.9C516.1,163.1,512.5,181.2,512.5,181.2z"/>
			</g>
		</g>
		<g>
			<g>
				<g>
					<path class="st17" d="M621.6,118.2h-29.4c-0.5,0-0.9-0.4-0.9-0.9s0.4-0.9,0.9-0.9h29.4c0.5,0,0.9,0.4,0.9,0.9
						C622.5,117.8,622.1,118.2,621.6,118.2z"/>
				</g>
				<g>
					<path class="st17" d="M667.1,118.2h-36.6c-0.5,0-0.9-0.4-0.9-0.9s0.4-0.9,0.9-0.9h36.6c0.5,0,0.9,0.4,0.9,0.9
						C668,117.8,667.6,118.2,667.1,118.2z"/>
				</g>
			</g>
			<g>
				<path class="st17" d="M628.7,128.8h-40.2c-0.3,0-0.5-0.2-0.5-0.5s0.2-0.5,0.5-0.5h40.2c0.3,0,0.5,0.2,0.5,0.5
					S629,128.8,628.7,128.8z"/>
			</g>
			<g>
				<path class="st17" d="M693.1,128.8h-56.9c-0.3,0-0.5-0.2-0.5-0.5s0.2-0.5,0.5-0.5h56.9c0.3,0,0.5,0.2,0.5,0.5
					C693.5,128.6,693.3,128.8,693.1,128.8z"/>
			</g>
			<g>
				<path class="st17" d="M609.6,136.3h-23.7c-0.3,0-0.5-0.2-0.5-0.5s0.2-0.5,0.5-0.5h23.7c0.3,0,0.5,0.2,0.5,0.5
					C610,136.1,609.8,136.3,609.6,136.3z"/>
			</g>
			<g>
				<path class="st17" d="M706.9,136.3h-28.6c-0.3,0-0.5-0.2-0.5-0.5s0.2-0.5,0.5-0.5h28.6c0.3,0,0.5,0.2,0.5,0.5
					C707.3,136.1,707.1,136.3,706.9,136.3z"/>
			</g>
			<g>
				<path class="st17" d="M705.5,143.8h-48.2c-0.3,0-0.5-0.2-0.5-0.5s0.2-0.5,0.5-0.5h48.2c0.3,0,0.5,0.2,0.5,0.5
					C705.9,143.6,705.7,143.8,705.5,143.8z"/>
			</g>
			<g>
				<path class="st17" d="M672.7,136.3h-55.8c-0.3,0-0.5-0.2-0.5-0.5s0.2-0.5,0.5-0.5h55.8c0.3,0,0.5,0.2,0.5,0.5
					C673.1,136.1,672.9,136.3,672.7,136.3z"/>
			</g>
			<g>
				<path class="st17" d="M649.6,143.8h-66.2c-0.3,0-0.5-0.2-0.5-0.5s0.2-0.5,0.5-0.5h66.2c0.3,0,0.5,0.2,0.5,0.5
					C650,143.6,649.8,143.8,649.6,143.8z"/>
			</g>
			<g>
				<path class="st17" d="M626,151.9h-44.6c-0.3,0-0.5-0.2-0.5-0.5s0.2-0.5,0.5-0.5H626c0.3,0,0.5,0.2,0.5,0.5
					C626.4,151.7,626.2,151.9,626,151.9z"/>
			</g>
			<g>
				<path class="st17" d="M704.3,151.9h-71.7c-0.3,0-0.5-0.2-0.5-0.5s0.2-0.5,0.5-0.5h71.7c0.3,0,0.5,0.2,0.5,0.5
					C704.7,151.7,704.5,151.9,704.3,151.9z"/>
			</g>
			<g>
				<path class="st17" d="M629.8,159.4h-50.3c-0.3,0-0.5-0.2-0.5-0.5s0.2-0.5,0.5-0.5h50.3c0.3,0,0.5,0.2,0.5,0.5
					S630.1,159.4,629.8,159.4z"/>
			</g>
			<g>
				<g>
					<path class="st17" d="M594.1,182.4h-15.5c-0.3,0-0.5-0.1-0.7-0.3s-0.2-0.5-0.2-0.7l2-8.2c0.1-0.4,0.4-0.7,0.8-0.7H596
						c0.3,0,0.5,0.1,0.7,0.3s0.2,0.5,0.2,0.7l-2,8.2C594.9,182.1,594.5,182.4,594.1,182.4z M594.1,181.5L594.1,181.5L594.1,181.5z
						 M578.6,181.5H594l2-8.1h-15.4L578.6,181.5z M580.6,173.4L580.6,173.4L580.6,173.4z"/>
				</g>
				<g>
					<path class="st17" d="M587.6,177.2c-0.1,0-0.3,0-0.4-0.1l-7.2-3.8c-0.2-0.1-0.3-0.4-0.2-0.6c0.1-0.2,0.4-0.3,0.6-0.2l7.2,3.8
						l8.8-3.8c0.2-0.1,0.5,0,0.6,0.2s0,0.5-0.2,0.6l-8.9,3.8C587.8,177.2,587.7,177.2,587.6,177.2z"/>
				</g>
			</g>
			<g>
				<path class="st17" d="M612,177.9c-5.6,0-9.9,0-10.2,0c-0.2,0-0.4-0.2-0.4-0.5c0-0.2,0.2-0.4,0.5-0.4c0.7,0,24.4,0,36.8,0l0,0
					c0.3,0,0.5,0.2,0.5,0.5s-0.2,0.5-0.5,0.5C636.3,177.9,622,177.9,612,177.9z"/>
			</g>
			<g>
				<path class="st17" d="M700.8,177.2h-36.6c-0.3,0-0.5-0.2-0.5-0.5s0.2-0.5,0.5-0.5h36.6c0.3,0,0.5,0.2,0.5,0.5
					C701.2,177,701,177.2,700.8,177.2z"/>
			</g>
			<g>
				<g>
					<path class="st17" d="M655,184.2h-7.2c-0.3,0-0.6-0.1-0.8-0.4c-0.2-0.2-0.3-0.5-0.2-0.8l1.8-11.4c0.1-0.5,0.5-0.9,1-0.9h7.2
						c0.3,0,0.6,0.1,0.8,0.4c0.2,0.2,0.3,0.5,0.2,0.8l-1.8,11.4C656,183.9,655.6,184.2,655,184.2z M649.7,171.6
						c-0.1,0-0.1,0.1-0.1,0.1l-1.8,11.4c0,0.1,0,0.1,0,0.1l0.1,0.1h7.2c0.1,0,0.1-0.1,0.1-0.1l1.8-11.4c0-0.1,0-0.1,0-0.1l-0.1-0.1
						H649.7z"/>
				</g>
				<g>
					<path class="st17" d="M652.4,182.8h-1.8c-0.3,0-0.5-0.2-0.5-0.5s0.2-0.5,0.5-0.5h1.8c0.3,0,0.5,0.2,0.5,0.5
						C652.8,182.5,652.6,182.8,652.4,182.8z"/>
				</g>
			</g>
		</g>
		<g>
			<g>
				<g>
					<path class="st17" d="M604.4,252.4h-39.9c-0.5,0-0.9-0.4-0.9-0.9s0.4-0.9,0.9-0.9h39.9c0.5,0,0.9,0.4,0.9,0.9
						S604.9,252.4,604.4,252.4z"/>
				</g>
				<g>
					<path class="st17" d="M639.6,252.4h-26.1c-0.5,0-0.9-0.4-0.9-0.9s0.4-0.9,0.9-0.9h26.1c0.5,0,0.9,0.4,0.9,0.9
						S640.1,252.4,639.6,252.4z"/>
				</g>
			</g>
			<g>
				<path class="st17" d="M626.6,263h-64.3c-0.3,0-0.5-0.2-0.5-0.5s0.2-0.5,0.5-0.5h64.3c0.3,0,0.5,0.2,0.5,0.5S626.8,263,626.6,263
					z"/>
			</g>
			<g>
				<path class="st17" d="M666.8,263h-32.9c-0.3,0-0.5-0.2-0.5-0.5s0.2-0.5,0.5-0.5h32.9c0.3,0,0.5,0.2,0.5,0.5S667,263,666.8,263z"
					/>
			</g>
			<g>
				<path class="st17" d="M584.7,270.5H561c-0.3,0-0.5-0.2-0.5-0.5s0.2-0.5,0.5-0.5h23.7c0.3,0,0.5,0.2,0.5,0.5
					S585,270.5,584.7,270.5z"/>
			</g>
			<g>
				<path class="st17" d="M682.1,270.5h-28.6c-0.3,0-0.5-0.2-0.5-0.5s0.2-0.5,0.5-0.5h28.6c0.3,0,0.5,0.2,0.5,0.5
					S682.4,270.5,682.1,270.5z"/>
			</g>
			<g>
				<path class="st17" d="M680.7,278H651c-0.3,0-0.5-0.2-0.5-0.5s0.2-0.5,0.5-0.5h29.8c0.3,0,0.5,0.2,0.5,0.5
					C681.2,277.8,681,278,680.7,278z"/>
			</g>
			<g>
				<path class="st17" d="M654,270.5h-62.4c-0.3,0-0.5-0.2-0.5-0.5s0.2-0.5,0.5-0.5H654c0.3,0,0.5,0.2,0.5,0.5
					S654.3,270.5,654,270.5z"/>
			</g>
			<g>
				<path class="st17" d="M645.1,278h-27c-0.3,0-0.5-0.2-0.5-0.5s0.2-0.5,0.5-0.5h27c0.3,0,0.5,0.2,0.5,0.5S645.4,278,645.1,278z"/>
			</g>
			<g>
				<path class="st17" d="M610.8,278h-51.2c-0.3,0-0.5-0.2-0.5-0.5s0.2-0.5,0.5-0.5h51.2c0.3,0,0.5,0.2,0.5,0.5
					C611.2,277.8,611,278,610.8,278z"/>
			</g>
			<g>
				<path class="st17" d="M627.6,286.1h-69.7c-0.3,0-0.5-0.2-0.5-0.5s0.2-0.5,0.5-0.5h69.7c0.3,0,0.5,0.2,0.5,0.5
					C628,285.9,627.8,286.1,627.6,286.1z"/>
			</g>
			<g>
				<path class="st17" d="M679.5,286.1h-46.6c-0.3,0-0.5-0.2-0.5-0.5s0.2-0.5,0.5-0.5h46.6c0.3,0,0.5,0.2,0.5,0.5
					S679.8,286.1,679.5,286.1z"/>
			</g>
			<g>
				<path class="st17" d="M644.6,293.6H556c-0.3,0-0.5-0.2-0.5-0.5s0.2-0.5,0.5-0.5h88.7c0.3,0,0.5,0.2,0.5,0.5
					C645.1,293.4,644.9,293.6,644.6,293.6z"/>
			</g>
			<g>
				<g>
					<path class="st17" d="M568.9,316.6h-15.5c-0.3,0-0.5-0.1-0.7-0.3c-0.2-0.2-0.2-0.5-0.2-0.7l2.4-8.2c0.1-0.4,0.4-0.6,0.8-0.6
						h15.5c0.3,0,0.5,0.1,0.7,0.3c0.2,0.2,0.2,0.5,0.2,0.7l-2.4,8.2C569.6,316.3,569.3,316.6,568.9,316.6z M568.8,315.7L568.8,315.7
						L568.8,315.7z M555.8,307.6l-2.4,8.1h15.4l2.4-8.1H555.8z M555.8,307.6L555.8,307.6L555.8,307.6z"/>
				</g>
				<g>
					<path class="st17" d="M562.8,311.4c-0.1,0-0.3,0-0.4-0.1l-7.2-3.8c-0.2-0.1-0.3-0.4-0.2-0.6s0.4-0.3,0.6-0.2l7.2,3.8l8.8-3.8
						c0.2-0.1,0.5,0,0.6,0.2s0,0.5-0.2,0.6l-8.9,3.8C563,311.4,562.9,311.4,562.8,311.4z"/>
				</g>
			</g>
			<g>
				<path class="st17" d="M587.2,312.1c-5.6,0-9.9,0-10.2,0c-0.2,0-0.4-0.2-0.4-0.5c0-0.2,0.2-0.4,0.5-0.4c0.7,0,24.4,0,36.8,0l0,0
					c0.3,0,0.5,0.2,0.5,0.5s-0.2,0.5-0.5,0.5C611.5,312.1,597.3,312.1,587.2,312.1z"/>
			</g>
			<g>
				<path class="st17" d="M676,311.4h-36.6c-0.3,0-0.5-0.2-0.5-0.5s0.2-0.5,0.5-0.5H676c0.3,0,0.5,0.2,0.5,0.5
					S676.3,311.4,676,311.4z"/>
			</g>
			<g>
				<g>
					<path class="st17" d="M629.8,318.4h-7.2c-0.3,0-0.6-0.1-0.8-0.4c-0.2-0.2-0.3-0.5-0.2-0.8l2.3-11.4c0.1-0.5,0.5-0.9,1-0.9h7.2
						c0.3,0,0.6,0.1,0.8,0.4c0.2,0.2,0.3,0.5,0.2,0.8l-2.3,11.4C630.8,318.1,630.3,318.4,629.8,318.4z M624.9,305.8
						c-0.1,0-0.1,0.1-0.1,0.1l-2.3,11.4v0.1l0.1,0.1h7.2c0.1,0,0.1-0.1,0.1-0.1l2.3-11.4v-0.1l-0.1-0.1H624.9z"/>
				</g>
				<g>
					<path class="st17" d="M627.1,316.9h-1.8c-0.3,0-0.5-0.2-0.5-0.5s0.2-0.5,0.5-0.5h1.8c0.3,0,0.5,0.2,0.5,0.5
						C627.6,316.7,627.4,316.9,627.1,316.9z"/>
				</g>
			</g>
		</g>
		<g>
			<g>
				<g>
					<path class="st17" d="M560.5,388.3h-34.9c-0.5,0-0.9-0.4-0.9-0.9s0.4-0.9,0.9-0.9h34.9c0.5,0,0.9,0.4,0.9,0.9
						S561,388.3,560.5,388.3z"/>
				</g>
				<g>
					<path class="st17" d="M607.4,388.3h-37.9c-0.5,0-0.9-0.4-0.9-0.9s0.4-0.9,0.9-0.9h37.9c0.5,0,0.9,0.4,0.9,0.9
						S607.9,388.3,607.4,388.3z"/>
				</g>
			</g>
			<g>
				<path class="st17" d="M558.5,398.9h-38.8c-0.3,0-0.5-0.2-0.5-0.5s0.2-0.5,0.5-0.5h38.8c0.3,0,0.5,0.2,0.5,0.5
					S558.8,398.9,558.5,398.9z"/>
			</g>
			<g>
				<path class="st17" d="M622.8,398.9h-58.4c-0.3,0-0.5-0.2-0.5-0.5s0.2-0.5,0.5-0.5h58.4c0.3,0,0.5,0.2,0.5,0.5
					S623.1,398.9,622.8,398.9z"/>
			</g>
			<g>
				<path class="st17" d="M597,406h-80c-0.3,0-0.5-0.2-0.5-0.5s0.2-0.5,0.5-0.5h80c0.3,0,0.5,0.2,0.5,0.5
					C597.4,405.8,597.2,406,597,406z"/>
			</g>
			<g>
				<path class="st17" d="M636.7,406h-28.6c-0.3,0-0.5-0.2-0.5-0.5s0.2-0.5,0.5-0.5h28.6c0.3,0,0.5,0.2,0.5,0.5S637,406,636.7,406z"
					/>
			</g>
			<g>
				<path class="st17" d="M609.1,406h-6.2c-0.3,0-0.5-0.2-0.5-0.5s0.2-0.5,0.5-0.5h6.2c0.3,0,0.5,0.2,0.5,0.5S609.4,406,609.1,406z"
					/>
			</g>
			<g>
				<path class="st17" d="M536.9,413.3h-24.3c-0.3,0-0.5-0.2-0.5-0.5s0.2-0.5,0.5-0.5h24.3c0.3,0,0.5,0.2,0.5,0.5
					C537.3,413.1,537.1,413.3,536.9,413.3z"/>
			</g>
			<g>
				<path class="st17" d="M581.8,413.3h-38.6c-0.3,0-0.5-0.2-0.5-0.5s0.2-0.5,0.5-0.5h38.6c0.3,0,0.5,0.2,0.5,0.5
					C582.3,413.1,582.1,413.3,581.8,413.3z"/>
			</g>
			<g>
				<path class="st17" d="M634.6,413.3H588c-0.3,0-0.5-0.2-0.5-0.5s0.2-0.5,0.5-0.5h46.6c0.3,0,0.5,0.2,0.5,0.5
					C635.1,413.1,634.9,413.3,634.6,413.3z"/>
			</g>
			<g>
				<path class="st17" d="M559.8,420.1h-51.3c-0.3,0-0.5-0.2-0.5-0.5s0.2-0.5,0.5-0.5h51.3c0.3,0,0.5,0.2,0.5,0.5
					S560,420.1,559.8,420.1z"/>
			</g>
			<g>
				<g>
					<path class="st17" d="M517.8,437h-15.5c-0.3,0-0.5-0.1-0.7-0.3c-0.2-0.2-0.2-0.5-0.2-0.7v-0.1l4.7-6.4c0.1-0.3,0.4-0.6,0.8-0.6
						h15.5c0.3,0,0.5,0.1,0.7,0.3c0.2,0.2,0.2,0.5,0.2,0.7v0.1l-4.7,6.4C518.5,436.7,518.2,437,517.8,437z M502.4,436.1h15.4V436
						l4.6-6.2H507v0.1L502.4,436.1z"/>
				</g>
				<g>
					<path class="st17" d="M512.6,432.7c-0.1,0-0.3,0-0.4-0.1l-5.8-2.9c-0.2-0.1-0.3-0.4-0.2-0.6s0.4-0.3,0.6-0.2l5.8,2.9l10.3-2.9
						c0.2-0.1,0.5,0.1,0.6,0.3c0.1,0.2-0.1,0.5-0.3,0.6l-10.2,2.9C512.8,432.7,512.7,432.7,512.6,432.7z"/>
				</g>
			</g>
			<g>
				<path class="st17" d="M535.7,434.3c-5.6,0-9.9,0-10.2,0c-0.2,0-0.4-0.2-0.4-0.5c0-0.2,0.2-0.4,0.5-0.4c0.7,0,24.4,0,36.8,0l0,0
					c0.3,0,0.5,0.2,0.5,0.5s-0.2,0.5-0.5,0.5C560,434.3,545.7,434.3,535.7,434.3z"/>
			</g>
			<g>
				<path class="st17" d="M624.7,434.3H588c-0.3,0-0.5-0.2-0.5-0.5s0.2-0.5,0.5-0.5h36.6c0.3,0,0.5,0.2,0.5,0.5
					S624.9,434.3,624.7,434.3z"/>
			</g>
			<g>
				<g>
					<path class="st17" d="M579.7,438.6h-7.2c-0.3,0-0.6-0.1-0.8-0.4c-0.2-0.2-0.3-0.5-0.2-0.8v-0.1l4.1-9.1c0.1-0.5,0.5-0.8,1-0.8
						h7.2c0.3,0,0.6,0.1,0.8,0.4c0.2,0.2,0.3,0.5,0.2,0.8v0.1l-4.1,9.1C580.6,438.2,580.2,438.6,579.7,438.6z M572.4,437.5
						C572.4,437.6,572.4,437.6,572.4,437.5c0.1,0.1,0.1,0.1,0.1,0.1h7.2c0.1,0,0.1-0.1,0.1-0.1v-0.1l4-9.1v-0.1l-0.1-0.1h-7.2
						c-0.1,0-0.1,0.1-0.1,0.1v0.1L572.4,437.5z"/>
				</g>
				<g>
					<path class="st17" d="M577,437.1h-1.8c-0.3,0-0.5-0.2-0.5-0.5s0.2-0.5,0.5-0.5h1.8c0.3,0,0.5,0.2,0.5,0.5
						S577.3,437.1,577,437.1z"/>
				</g>
			</g>
		</g>
		<g>
			<g>
				<path class="st28" d="M536.5,264.7c0.3-0.6,0.5-1.3,0.2-2c-0.6-1.8-2.5-2.8-4.2-3.6c-1.8-0.8-3.2-2.3-5-3.1
					c-1.1-0.5-2.3-0.7-3.5-0.5c-2.1,0.2-4.4,1-6.2,2.1c-0.7,0.4-1.6,1-2,1.8c-0.3,0.7-0.3,1.6-0.3,2.4c-1,0.1-2.1,0.2-2.9,0.6
					c-0.7,0.4-0.7,1.4-0.8,2.1c-0.2,1.6-0.2,3.2-0.2,4.7c0,0.8,0.4,4.7,0.4,4.7s2.3-4.1,2.6-4.6c1.2-2.2,2-4.6,2.3-7.1
					c1.3,0.7,2.1,2,3,3.2s2,2.3,3.1,3.4c2.2,2.3,4.3,4.9,6.8,6.9c-0.4,1-0.8,2.1-1.2,3.1c-0.8,2.4-1.7,9.5-1.7,9.5s0.6-1.4,0.7-1.6
					c1.4-2.9,2.8-5.8,4.1-8.8c1-2.3,1.8-4.6,2.6-7c0.1-0.1,0.2-0.2,0.3-0.4c0.2-0.2,0.5-0.4,0.7-0.6c0.4-0.4,0.6-0.7,0.8-1.2
					C536.8,267.3,536.4,266,536.5,264.7z"/>
			</g>
			<g>
				<path class="st16" d="M525.3,257.9c-8.1-0.6-12.2,6.7-12.9,12.9c-0.6,4.9-0.8,8.5,0.2,12.8c1.5,6.6,7.6,7.1,12.2,3.7
					c2.5-1.9,4.8-6.9,4.8-6.9s3-6.8,3.2-10.3C533.1,265.1,532.1,258.5,525.3,257.9z"/>
			</g>
			<g>
				<path class="st16" d="M514.4,284.1c0,0-0.5,7.4-1.1,9.9s-16.2,9.6-16.2,9.6l17.8,12l20.7-11.6c0,0-8.2-8.6-8.7-10.1
					s1.1-10.7,1.1-10.7L514.4,284.1z"/>
			</g>
			<g>
				<path class="st16" d="M529.3,276.6c0.3-0.4,0.5-0.7,0.9-1.1c0.4-0.5,1-1.1,1.7-1.2c0.8-0.1,1.3,0.9,1.4,1.6
					c0.1,0.8-0.1,1.6-0.4,2.3c-0.4,0.8-1,1.5-1.8,1.9c-1.3,0.5-2.9,0.7-2.9,0.7L529.3,276.6z"/>
			</g>
			<g>
				<path class="st14" d="M494.8,318.3h36.8c3.8-6.1,9.1-14.8,9.1-14.8s-2.3-3.1-5.7-4.5s-5.5-3.5-5.5-3.5c-0.9-1.5-1.8-2.9-2.2-3.7
					c-0.7,1-1.5,1.9-2.6,2.6s-1.4,1.6-1.9,2.7c-0.4,0.9-1.1,1.7-1.7,2.5c-1.2,1.7-2.9,3.5-3.5,5.5c-0.4,1.3-0.2,2.9-1.2,4
					c-0.2,0.2-0.4,0-0.4-0.2c-0.2-1.8,0-2.5,0-4.3c0-1.4-1.3-4.2-1-5.6c0.6-3.1,0.1-4.9-1.3-7.4l-3,3.1c-4.1,1.2-14.9,6.4-14.9,6.4
					s-0.8,9.3-0.7,12.7C495,314.8,494.9,316.6,494.8,318.3z"/>
			</g>
			<g>
				<path class="st14" d="M515.9,280c0,0,2.6,0.8,3.9,0.8c1.3,0,4.1-0.2,4.1-0.2s-1.3,2-4.2,1.8C516.9,282.3,515.9,280,515.9,280z"
					/>
			</g>
			<g>
				<path class="st28" d="M532.9,262.6c-1.4-3.1-4.2-5-7.5-5.4c-5.7-0.7-10.6,4.4-12.4,9.4c-0.1,0.3-0.2,0.6-0.3,1
					c-0.1,0.5-0.2,1-0.2,1.4c0,0.1-0.5,3.5-0.4,3.6c0,0,0.5-2,0.6-2.1c0.5-2.1,0.7-3.3,2.3-4.9c1.1-1.2,2.3-1.2,3.5-0.6
					c0.6,0.3,1.2,0.7,1.7,1.1c0.8,0.6,1.7,0.8,2.7,0.7c2,0,4.1-0.8,6.1-0.3c2.1,0.5,2,2.8,2,3.1c0,0.6-0.6,3.2-0.6,3.2
					s0.5,0.2,0.5,1.4c0,0.2,0,0.9,0,0.9s0.5-0.7,1.5-0.6c0.1,0,0.4-0.5,0.5-0.7C533.7,270.4,534.4,265.9,532.9,262.6z"/>
			</g>
			<g>
				<path class="st28" d="M531.6,270.2c0-0.3,0.1-0.6,0.1-0.9s-0.7,1-0.7,1s-1.2,4.9-1.5,5.8c-0.2,0.8-0.4,1.6-0.6,2.4
					c-0.2,0.8-0.5,1.6-0.7,2.4c-0.1,0.4-0.3,0.8-0.4,1.2c-0.2,0.7-0.5,1.2-0.9,1.8c-0.4,0.5-0.9,1.1-1.4,1.5c-1,0.9-2.2,1.5-3.5,1.8
					c-0.7,0.2-1.4,0.2-2.1,0.2c-1.5-0.1-3.1,0-4.4-0.7c-1.4-0.8-3-3-3-3s0.2,1.6,0.2,1.7c1.6,5.9,8.7,5.9,12.4,3.5
					c1.4-0.9,2.6-2.9,3.1-4.7c0.6-1.6,1.1-3.1,1.5-4.8c0.6-2.2,1-5,2.2-7c0.1-0.2-0.1-0.4-0.2-0.4c0.1-0.6,0.2-1.1,0.4-1.7
					C532.2,270,531.7,269.9,531.6,270.2z"/>
			</g>
			<g>
				<path class="st28" d="M519.7,278.8c-0.2-0.3-0.6-0.3-0.9-0.3c-0.5,0-0.9,0.1-1.4,0.1c-0.6,0.1-1.2,0.2-1.7,0.5s-0.8,0.9-0.1,1.1
					c1,0.3,2.8,0.2,3.8-0.3c0.3-0.2,0.6-0.6,0.4-0.9C519.7,278.9,519.7,278.8,519.7,278.8z"/>
			</g>
			<g>
				<path class="st28" d="M519.6,278.9c-0.2,0.4,0,0.8,0.3,1c0.9,0.6,2.7,0.9,3.7,0.7c0.7-0.1,0.5-0.8,0.1-1.1
					c-0.5-0.4-1-0.6-1.6-0.7c-0.5-0.1-1.1-0.3-1.7-0.3C520.1,278.5,519.8,278.6,519.6,278.9z"/>
			</g>
			<g>
				<path class="st29" d="M516,264.4c-0.2,0-0.5-0.2-0.5-0.4l-0.3-1.7c0-0.3,0.1-0.5,0.4-0.6c0.3,0,0.5,0.1,0.6,0.4l0.3,1.7
					C516.5,264.1,516.3,264.4,516,264.4L516,264.4z"/>
			</g>
			<g>
				<path class="st29" d="M517.9,263.6c-0.1,0-0.1,0-0.2,0c-0.3-0.1-0.4-0.4-0.3-0.6c0-0.1,1.1-2.9,3.8-3.9c2.6-1,5.6-0.3,5.7-0.3
					c0.3,0.1,0.4,0.3,0.4,0.6c-0.1,0.3-0.3,0.4-0.6,0.4c0,0-2.8-0.6-5.1,0.2c-2.3,0.8-3.2,3.2-3.2,3.3
					C518.3,263.4,518.1,263.6,517.9,263.6z"/>
			</g>
			<g>
				<path class="st30" d="M510.6,294.6l-18.1,6.1c-0.6,1.7-1.3,3.4-1.9,5.1c0,0.1,0,0.2,0,0.3c-0.9,3-1.7,6.1-2.7,9.1
					c-0.3,1-0.7,2.1-1.1,3h21.9c-0.6-5-1.3-11.6-1.3-12.6C507.4,304.1,510.6,294.6,510.6,294.6z"/>
			</g>
			<g>
				<path class="st30" d="M538.1,318.3c0.6-2.4,1.2-4.8,1.9-7.2c0.8-2.6,2-5.4,2.1-8.1c-4.1-2.7-12.7-7.4-12.7-7.4s-1.1,6.7-2.2,9.7
					c-0.7,1.8-4.4,8.3-7.4,13.1h18.3V318.3z"/>
			</g>
			<g>
				<path class="st31" d="M491.7,302.7c-0.3,0.7-0.5,1.3-0.8,2c0.4,3.3,0.8,7.1,0.8,7.4s-0.6,3.2-1.2,6.2h1c0.6-2.8,1.1-5.9,1.1-6.2
					C492.8,311.7,491.9,304.2,491.7,302.7z"/>
			</g>
			<g>
				<path class="st31" d="M538.1,318.3c0.6-2.4,1.2-4.8,1.9-7.2c0-0.1,0.1-0.2,0.1-0.2c-0.7,1.2-1.2,2.1-1.2,2.4
					c0,0.4-0.6,2.7-1.3,5.1L538.1,318.3L538.1,318.3z"/>
			</g>
			<g>
				<path class="st31" d="M506.2,307.4C506.1,307.4,506.1,307.4,506.2,307.4c-1.3-0.2-4.4-0.7-4.9-1.1c-0.4-0.3-0.9-0.6,4.5-9.8
					c0.1-0.2,0.4-0.3,0.7-0.2c0.2,0.1,0.3,0.4,0.2,0.7c-2.1,3.5-4.2,7.4-4.6,8.5c0.7,0.2,2.6,0.6,4.2,0.8c0.3,0,0.5,0.3,0.4,0.6
					C506.6,307.2,506.4,307.4,506.2,307.4z"/>
			</g>
			<g>
				<path class="st31" d="M504.5,318.3c-1.2-3.6-2.5-7.4-2.5-7.9c0.1-0.4,1.2-1.9,2.2-3.2c0.2-0.2,0.1-0.5-0.1-0.7s-0.5-0.1-0.7,0.1
					c-0.9,1.1-2.4,3-2.5,3.7c0,0.5,1.3,4.5,2.5,8H504.5z"/>
			</g>
			<g>
				<path class="st31" d="M531.2,309.1c-0.9,0-2.4-0.1-5-0.5c-0.3,0-0.5-0.3-0.4-0.6c0-0.3,0.3-0.5,0.6-0.4c2.1,0.3,4.5,0.6,5.3,0.5
					c0-1.8,0-9.4,0-10.3c0-0.3,0.2-0.5,0.5-0.5l0,0c0.3,0,0.5,0.2,0.5,0.5c0,4,0,10.2,0,10.6c0,0.2,0,0.4-0.2,0.5
					C532.4,308.9,532.2,309.1,531.2,309.1z"/>
			</g>
			<g>
				<path class="st31" d="M530.2,312.8c-0.3,0.5-2.6,3-4.9,5.5h1.4c4.4-4.7,4.5-5.1,4.5-5.2c0.1-0.6-0.7-2.8-1.4-4.6
					c-0.1-0.3-0.4-0.4-0.6-0.3c-0.3,0.1-0.4,0.4-0.3,0.6C529.4,310.4,530.1,312.4,530.2,312.8z"/>
			</g>
			<g>
				<g>
					<g>
						<path class="st32" d="M515.7,276.1c-1.1,0-2.2-0.2-2.7-0.6c-0.1-0.1-0.4-0.3-0.5-3.5v-0.2l0.2-0.1c0.1,0,1.5-0.4,3.6-0.2
							c2.1,0.1,3.1,0.7,3.1,0.7l0.2,0.1l-0.1,0.2c-0.1,0.3-1,2.6-1.7,3.1C517.3,275.9,516.5,276.1,515.7,276.1z M513,272.2
							c0.1,1.3,0.2,2.7,0.3,2.9c0.5,0.4,3.2,0.7,4.2,0.1c0.4-0.3,1.1-1.7,1.4-2.6c-0.4-0.2-1.3-0.5-2.7-0.6
							C514.6,271.9,513.4,272.1,513,272.2z"/>
						<path class="st32" d="M515.7,276.2c-1.2,0-2.3-0.2-2.8-0.6c-0.1-0.1-0.4-0.3-0.6-3.6v-0.2c0-0.1,0-0.1,0.1-0.2l0.2-0.1
							c0.1,0,1.5-0.4,3.6-0.2c2.1,0.1,3.2,0.7,3.2,0.8l0.2,0.1c0.1,0,0.1,0.1,0.1,0.2l-0.1,0.2c-0.2,0.4-1,2.7-1.8,3.2
							C517.2,276.2,516.2,276.2,515.7,276.2z M512.6,271.9L512.6,271.9c0.1,2.9,0.4,3.4,0.5,3.4c0.4,0.3,1.5,0.5,2.6,0.5
							c0.9,0,1.6-0.1,2-0.4c0.6-0.4,1.3-2.1,1.6-3v-0.1h-0.1c0,0-1-0.6-3.1-0.7C514.2,271.5,512.8,271.9,512.6,271.9L512.6,271.9z
							 M515.7,275.7c-1,0-2.1-0.2-2.5-0.5l0,0c-0.2-0.4-0.4-2.9-0.4-3s0.1-0.1,0.1-0.2c0.4-0.1,1.7-0.3,3.2-0.2
							c1.5,0.1,2.4,0.4,2.8,0.6c0.1,0,0.1,0.1,0.1,0.2c-0.1,0.2-0.9,2.3-1.5,2.7C517.2,275.6,516.4,275.7,515.7,275.7z M513.5,275
							c0.6,0.4,3.1,0.6,3.9,0.1c0.3-0.2,0.9-1.3,1.3-2.4c-0.4-0.2-1.2-0.4-2.5-0.5c-1.4-0.1-2.5,0.1-3,0.1
							C513.2,273.7,513.4,274.8,513.5,275z"/>
					</g>
				</g>
				<g>
					<g>
						<path class="st32" d="M525.2,276.7c-1.1,0-2.5-0.3-3.1-0.8c-0.7-0.6-1.2-3-1.2-3.3v-0.2l0.2-0.1c0.1,0,1.5-0.4,3.5-0.2
							c2.1,0.2,3.5,0.9,3.5,0.9l0.2,0.1l-0.1,0.2c-0.5,1.3-1.1,3-1.4,3.2C526.5,276.7,525.9,276.7,525.2,276.7z M521.4,272.8
							c0.2,1,0.7,2.4,1,2.8c0.9,0.8,3.5,0.8,4.2,0.5c0.2-0.1,0.7-1.5,1.1-2.7c-0.4-0.2-1.6-0.6-3.2-0.8
							C523,272.5,521.8,272.7,521.4,272.8z"/>
						<path class="st32" d="M525.2,276.9c-1,0-2.5-0.2-3.2-0.8c-0.7-0.6-1.2-2.9-1.3-3.4v-0.2c0-0.1,0-0.2,0.1-0.2l0.2-0.1
							c0.1,0,1.5-0.4,3.6-0.2c2.1,0.2,3.5,0.9,3.6,0.9l0.2,0.1c0.1,0,0.1,0.1,0.1,0.2l-0.1,0.2c-1,3-1.4,3.2-1.5,3.2
							C526.5,276.8,525.9,276.9,525.2,276.9z M521,272.5L521,272.5c0.2,1.1,0.7,2.8,1.2,3.3c0.6,0.5,2,0.8,3,0.8
							c0.7,0,1.2-0.1,1.5-0.2c0.1,0,0.4-0.3,1.3-3.1v-0.1h-0.1c-0.1,0-1.4-0.7-3.5-0.9C522.5,272.1,521.1,272.5,521,272.5L521,272.5
							z M525.2,276.4c-1,0-2.3-0.2-2.9-0.7c-0.5-0.5-1-2.6-1.1-2.9v-0.1l0.1-0.1c0.4-0.1,1.6-0.3,3.2-0.2c1.6,0.1,2.8,0.6,3.2,0.8
							c0.1,0,0.1,0.1,0.1,0.2c-0.2,0.7-0.9,2.5-1.1,2.7l0,0C526.4,276.3,525.8,276.4,525.2,276.4z M521.6,272.9
							c0.3,1.1,0.7,2.3,0.9,2.5c0.8,0.7,3.3,0.8,4,0.5c0.1-0.2,0.6-1.2,1-2.5c-0.5-0.2-1.6-0.6-3-0.7
							C523.1,272.7,522.1,272.8,521.6,272.9z"/>
					</g>
				</g>
				<g>
					<g>
						<path class="st32" d="M520.2,273L520.2,273c-0.5,0-1-0.3-1.1-0.3l0.2-0.5c0.1,0.1,0.6,0.2,0.8,0.3c0.2,0,0.7-0.1,0.9-0.1
							l0.1,0.5C521.1,272.9,520.6,273,520.2,273z"/>
						<path class="st32" d="M520.2,273.2L520.2,273.2c-0.5,0-1-0.2-1.1-0.3c0,0-0.1,0-0.1-0.1v-0.1l0.2-0.5c0,0,0-0.1,0.1-0.1h0.1
							c0.2,0.1,0.6,0.2,0.8,0.2s0.6-0.1,0.8-0.1c0.1,0,0.2,0,0.2,0.1l0.1,0.5c0,0.1,0,0.2-0.1,0.2
							C521.1,273,520.6,273.2,520.2,273.2z M519.3,272.6c0.3,0.1,0.6,0.2,0.8,0.2c0.3,0,0.6-0.1,0.8-0.1v-0.2
							c-0.2,0-0.6,0.1-0.8,0.1s-0.5-0.1-0.7-0.2L519.3,272.6z"/>
					</g>
				</g>
				<g>
					<g>
						<path class="st32" d="M512.9,271.7c0,0-1.2,0.1-1.2,0.2s0,0.8,0.1,0.8s0.9,0.3,0.9,0.3L512.9,271.7z"/>
						<path class="st32" d="M512.8,273.2C512.8,273.2,512.7,273.2,512.8,273.2c-0.2-0.1-0.9-0.3-1-0.4c-0.2-0.1-0.2-1-0.2-1
							c0-0.1,0-0.2,1.3-0.3h0.1c0,0,0.1,0.1,0,0.1l-0.1,1.3C512.9,273.2,512.9,273.2,512.8,273.2L512.8,273.2z M512,272.6
							c0.1,0,0.4,0.2,0.7,0.2l0.1-0.9c-0.3,0-0.7,0.1-0.8,0.1C511.9,272.2,511.9,272.5,512,272.6z"/>
					</g>
				</g>
				<g>
					<g>
						<path class="st32" d="M527.9,272.9l1.1,0.4c0,0.1-0.2,0.8-0.3,0.8s-1,0.1-1,0.1L527.9,272.9z"/>
						<path class="st32" d="M527.7,274.4L527.7,274.4c-0.1,0-0.2-0.1-0.1-0.1l0.2-1.3c0,0,0-0.1,0.1-0.1h0.1
							c1.2,0.4,1.2,0.5,1.2,0.6c0,0-0.2,0.9-0.4,0.9C528.6,274.3,527.9,274.4,527.7,274.4L527.7,274.4z M528,273.2l-0.1,0.9
							c0.3,0,0.6-0.1,0.7-0.1c0.1-0.1,0.2-0.4,0.2-0.6C528.7,273.4,528.3,273.3,528,273.2z"/>
					</g>
				</g>
				<g>
					<g>
						<path class="st32" d="M513.1,273.5c0,0,0-1,0.2-1.3c0.3-0.2,1.9-0.3,1.9-0.3l-2.6,0.1L513.1,273.5z"/>
						<path class="st32" d="M513.1,273.7c-0.1,0-0.1,0-0.2-0.1l-0.5-1.5V272l0.1-0.1l2.6-0.1c0.1,0,0.2,0.1,0.2,0.2
							s-0.1,0.2-0.2,0.2c-0.8,0-1.7,0.1-1.8,0.3c-0.1,0.1-0.2,0.7-0.2,1.1C513.2,273.6,513.2,273.6,513.1,273.7L513.1,273.7z
							 M512.8,272.1l0.1,0.5c0-0.2,0.1-0.4,0.2-0.5H512.8z"/>
					</g>
				</g>
				<g>
					<g>
						<path class="st32" d="M519.2,272.5l-1.5-0.3c0.1,0,0.6,0.1,0.8,0.5c0.2,0.5-0.1,1.3-0.1,1.3L519.2,272.5z"/>
						<path class="st32" d="M518.3,274.2L518.3,274.2c-0.1-0.1-0.2-0.1-0.1-0.2c0.1-0.2,0.3-0.8,0.2-1.2c-0.2-0.3-0.5-0.4-0.6-0.4
							h-0.1c-0.1,0-0.1-0.1-0.1-0.2s0.1-0.1,0.2-0.1l1.5,0.3c0.1,0,0.1,0,0.1,0.1v0.1l-0.8,1.6C518.4,274.2,518.4,274.2,518.3,274.2
							z M518.5,272.5c0,0,0.1,0.1,0.1,0.2s0.1,0.2,0.1,0.3l0.2-0.4L518.5,272.5z"/>
					</g>
				</g>
				<g>
					<g>
						<path class="st32" d="M527.2,274.6c0,0,0.4-1,0.2-1.2c-0.2-0.3-1.9-0.7-1.9-0.7s2.5,0.2,2.6,0.7
							C528.4,273.8,527.2,274.6,527.2,274.6z"/>
						<path class="st32" d="M527.2,274.8L527.2,274.8c-0.2,0-0.2-0.1-0.1-0.2c0.2-0.4,0.3-1,0.2-1.1s-1-0.4-1.8-0.6
							c-0.1,0-0.1-0.1-0.1-0.2s0.1-0.1,0.2-0.1c0.8,0.1,2.6,0.3,2.8,0.8C528.5,273.9,527.5,274.6,527.2,274.8
							C527.3,274.8,527.2,274.8,527.2,274.8z M527.3,273.1c0.1,0.1,0.2,0.1,0.3,0.2c0.1,0.2,0.1,0.5,0,0.9c0.3-0.3,0.5-0.6,0.5-0.7
							C528,273.3,527.7,273.2,527.3,273.1z"/>
					</g>
				</g>
				<g>
					<g>
						<path class="st32" d="M521.1,272.6l1.5-0.1c-0.1,0-0.6,0-0.8,0.4c-0.3,0.4,0,1.3,0,1.3L521.1,272.6z"/>
						<path class="st32" d="M521.7,274.4c-0.1,0-0.1,0-0.1-0.1l-0.6-1.7v-0.1l0.1-0.1l1.5-0.1c0.1,0,0.2,0.1,0.2,0.1
							c0,0.1,0,0.2-0.1,0.2c0,0,0,0-0.1,0s-0.5,0-0.7,0.4c-0.2,0.3-0.1,1,0,1.2C521.9,274.3,521.9,274.4,521.7,274.4
							C521.8,274.4,521.7,274.4,521.7,274.4z M521.3,272.8l0.2,0.4c0-0.1,0.1-0.2,0.1-0.3c0-0.1,0.1-0.1,0.1-0.1H521.3z"/>
					</g>
				</g>
				<g>
					<g>
						<path class="st32" d="M519.1,273.3c0,0,0.5-0.2,1-0.2c0.6,0,1,0.3,1,0.3v-0.7l-1.2,0.1l-0.8-0.2V273.3z"/>
						<path class="st32" d="M521.1,273.6L521.1,273.6c-0.1,0-0.5-0.3-1-0.3s-1,0.2-1,0.2c-0.1,0-0.1,0-0.2,0l-0.1-0.1l0.1-0.7
							c0,0,0-0.1,0.1-0.1h0.1l0.7,0.2l1.2-0.1h0.1l0.1,0.1L521.1,273.6C521.3,273.5,521.3,273.5,521.1,273.6
							C521.2,273.6,521.2,273.6,521.1,273.6z M520.1,272.9L520.1,272.9c0.4,0,0.7,0.1,0.9,0.2v-0.3L520.1,272.9L520.1,272.9
							l-0.7-0.1v0.3C519.5,273,519.7,272.9,520.1,272.9z"/>
					</g>
				</g>
			</g>
			<g>
				<g>
					<path class="st32" d="M531.3,274.7l-3.6-1l-0.2,0.8l3.3,0.7C531,274.8,531.2,274.7,531.3,274.7z"/>
				</g>
			</g>
			<g>
				<path class="st17" d="M515.4,309.9c-0.2,0-0.3-0.1-0.4-0.3c-0.1-0.1-1.7-3.1-2.1-4.7c-0.2-0.8-0.3-2-0.3-3.1s-0.1-2.2-0.3-2.8
					c-0.4-1.2-2.1-4.2-2.1-4.2l-0.2-0.3l2.7-2.9c0.2-0.2,0.5-0.2,0.7,0s0.2,0.5,0,0.7l-2.2,2.3c0.5,0.8,1.7,3,2,4.1
					c0.2,0.7,0.3,1.8,0.3,3c0,1.1,0.1,2.2,0.3,2.9c0.4,1.5,2,4.5,2,4.5c0.1,0.2,0,0.5-0.2,0.7C515.6,309.9,515.5,309.9,515.4,309.9z
					"/>
			</g>
			<g>
				<path class="st17" d="M516.9,310.1c-0.1,0-0.3-0.1-0.4-0.2c-0.2-0.2-0.1-0.5,0.1-0.7c0,0,3.6-3,4.9-4.8c0.6-0.8,0.8-1.4,1-2
					c0.2-0.7,0.5-1.4,1.3-2.4c1.5-1.7,4.8-4.5,4.9-4.6c0.2-0.2,0.5-0.2,0.7,0.1c0.2,0.2,0.2,0.5-0.1,0.7c0,0-3.4,2.9-4.8,4.5
					c-0.7,0.8-0.9,1.4-1.1,2.1c-0.2,0.6-0.4,1.3-1.1,2.2c-1.3,1.8-4.9,4.8-5,5C517.1,310.1,517,310.1,516.9,310.1z"/>
			</g>
			<g>
				<path class="st17" d="M529,296.3c-0.2,0-0.4-0.1-0.4-0.3l-1.8-3.5c-0.1-0.2,0-0.5,0.2-0.7c0.2-0.1,0.5,0,0.7,0.2l1.8,3.5
					c0.1,0.2,0,0.5-0.2,0.7C529.1,296.3,529.1,296.3,529,296.3z"/>
			</g>
			<g>
				<path class="st17" d="M514.8,318.3c0.2-1.3,0.4-2.8,0.4-3.9c0-2.2,1.1-3.9,1.1-3.9c0.1-0.2,0.1-0.5-0.1-0.7
					c-0.2-0.1-0.5-0.1-0.7,0.1c0,0.1-1.2,1.9-1.2,4.4c0,1.1-0.2,2.7-0.5,3.9h1V318.3z"/>
			</g>
			<g>
				<path class="st15" d="M528.4,316.8c0,0,7.6,0.7,7.6,0.1c-0.1-0.6-1.7-3.1-2.1-3.4S528.4,316.8,528.4,316.8z"/>
			</g>
		</g>
		<g>
			<path class="st17" d="M538.1,318.9h-52.5l0.2-0.6c9.2-23.3,13.3-45.5,17-68.2l0.1-0.4h50.4l-0.7,4c-3.9,23.9-8.5,44.5-14.5,64.8
				V318.9z M487,318h50.5c6-20.2,10.5-40.6,14.4-64.4l0.5-3h-48.6C500.1,273,496,295,487,318z"/>
		</g>
		<g>
			<path class="st17" d="M481.7,436.5H416l1.1-0.8c10.2-7.5,17.7-16.2,25.9-27c8-10.5,12.2-17.3,14.3-22.9l0.1-0.3h58.1l-0.3,0.6
				c-0.1,0.1-6.2,14.6-15.9,29.3c-6.1,9.3-17.4,20.8-17.5,20.9L481.7,436.5z M418.7,435.6h62.6c1.3-1.3,11.6-12,17.3-20.6
				c8.4-12.9,14.2-25.6,15.5-28.5H458c-2.2,5.6-6.5,12.4-14.3,22.8C435.7,419.7,428.4,428.2,418.7,435.6z"/>
		</g>
		<g>
			<g>
				<path class="st17" d="M659.3,59.8h-15.5c-0.3,0-0.5-0.1-0.7-0.3s-0.2-0.5-0.2-0.7v-0.1l4.7-6.4c0.1-0.3,0.4-0.6,0.8-0.6H664
					c0.3,0,0.5,0.1,0.7,0.3s0.2,0.5,0.2,0.7v0.1l-4.7,6.4C660,59.6,659.6,59.8,659.3,59.8z M643.9,58.9h15.4v-0.1l4.6-6.2h-15.4v0.1
					L643.9,58.9z"/>
			</g>
			<g>
				<path class="st17" d="M654.1,55.6c-0.1,0-0.3,0-0.4-0.1l-5.4-2.7c-0.2-0.1-0.3-0.4-0.2-0.6c0.1-0.2,0.4-0.3,0.6-0.2l5.4,2.7
					l9.8-2.8c0.2-0.1,0.5,0.1,0.6,0.3s-0.1,0.5-0.3,0.6l-9.8,2.8C654.3,55.6,654.2,55.6,654.1,55.6z"/>
			</g>
		</g>
		<g>
			<path class="st17" d="M677.1,57.2c-5.6,0-9.9,0-10.2,0c-0.2,0-0.4-0.2-0.4-0.5c0-0.2,0.2-0.4,0.5-0.4c0.7,0,24.4,0,36.8,0l0,0
				c0.3,0,0.5,0.2,0.5,0.5s-0.2,0.5-0.5,0.5C701.4,57.2,687.2,57.2,677.1,57.2z"/>
		</g>
		<g>
			<path class="st17" d="M766.1,57.2h-36.6c-0.3,0-0.5-0.2-0.5-0.5s0.2-0.5,0.5-0.5h36.6c0.3,0,0.5,0.2,0.5,0.5
				S766.4,57.2,766.1,57.2z"/>
		</g>
		<g>
			<g>
				<path class="st17" d="M721.2,61.4H714c-0.3,0-0.6-0.1-0.8-0.4c-0.2-0.2-0.3-0.5-0.2-0.8v-0.1l4.5-9.1c0.1-0.5,0.5-0.8,1-0.8h7.2
					c0.3,0,0.6,0.1,0.8,0.4c0.2,0.2,0.3,0.5,0.2,0.8v0.1l-4.5,9.1C722.1,61.1,721.7,61.4,721.2,61.4z M713.9,60.4
					C713.9,60.4,713.9,60.5,713.9,60.4C714,60.5,714,60.5,713.9,60.4l7.3,0.1c0.1,0,0.1-0.1,0.1-0.1v-0.1l4.5-9.1v-0.1l-0.1-0.1
					h-7.2c-0.1,0-0.1,0.1-0.1,0.1v0.1L713.9,60.4z"/>
			</g>
			<g>
				<path class="st17" d="M718.5,59.9h-1.8c-0.3,0-0.5-0.2-0.5-0.5s0.2-0.5,0.5-0.5h1.8c0.3,0,0.5,0.2,0.5,0.5
					S718.8,59.9,718.5,59.9z"/>
			</g>
		</g>
		<g>
			<path class="st21" d="M716.1,217.2H496c-0.5,0-0.9-0.4-0.9-0.9s0.4-0.9,0.9-0.9h220.1c0.5,0,0.9,0.4,0.9,0.9
				S716.6,217.2,716.1,217.2z"/>
		</g>
		<g>
			<path class="st21" d="M705.7,353.1h-245c-0.5,0-0.9-0.4-0.9-0.9s0.4-0.9,0.9-0.9h244.9c0.5,0,0.9,0.4,0.9,0.9
				S706.2,353.1,705.7,353.1z"/>
		</g>
		<g>
			<path class="st21" d="M770.9,86.4H541.5c-0.5,0-0.9-0.4-0.9-0.9s0.4-0.9,0.9-0.9h229.3c0.5,0,0.9,0.4,0.9,0.9
				C771.8,86,771.4,86.4,770.9,86.4z"/>
		</g>
		<g>
			<path class="st15" d="M631.6,47c0,0.9-0.2,1.7-0.4,2.5c0,0.1-0.1,0.3-0.1,0.4c-0.3,1-0.7,1.6-0.7,1.6l-8,8.2h-48.5
				c0,0,1.5-3.4,3.6-5.6c2.1-2.2,4.6-4.4,4.6-4.4s2.6-1.4,5.2-2.7c0.1-0.1,0.3-0.1,0.4-0.2c0.8-0.4,1.5-0.8,2.2-1.1h41.6
				C631.6,45.9,631.6,46.4,631.6,47z"/>
		</g>
		<g>
			<g>
				<path class="st17" d="M637.6,45.6c-5,3.3-9.6,7.2-15.6,13.7h-47.7c3.1-5.9,9.1-10.4,14.3-13.7h-1.7c-5.2,3.4-10.9,8-13.7,13.9
					l-0.3,0.6h49.5l0.1-0.1c6.4-7,11.3-10.9,16.7-14.4H637.6z"/>
			</g>
		</g>
		<g>
			<path class="st30" d="M609.7,45.6c-0.9,0.4-1.6,0.8-2,1.2c-1.2,1.3-4,8.1-4.2,8.5c0.1-0.3,0.7-3.8,0.7-5.9c0-1.2-0.5-2.8-0.9-3.9
				h6.4V45.6z"/>
		</g>
		<g>
			<path class="st33" d="M728.6,130.1c-0.1,0-0.2,0-0.2,0c-0.4-0.1-0.6-0.4-0.7-0.8l-1.4-12.6c-0.1-0.5,0.3-0.9,0.8-1
				c0.5,0,0.9,0.3,1,0.8l1.1,10.1l14.2-21c0.3-0.4,0.8-0.5,1.3-0.2c0.4,0.3,0.5,0.8,0.2,1.3l-15.6,23
				C729.2,130,728.9,130.1,728.6,130.1z"/>
		</g>
	</g>
	<g>
		<g>
			<path class="st20" d="M269.7,263.3c-0.2,0-0.4-0.1-0.4-0.3l-5-15.5l1-4.5c0.1-0.2,0.3-0.4,0.5-0.3c0.2,0.1,0.4,0.3,0.3,0.5
				l-0.9,4.3l4.9,15.3c0.1,0.2-0.1,0.5-0.3,0.6C269.8,263.3,269.8,263.3,269.7,263.3z"/>
		</g>
		<g>
			<g>
				<path class="st19" d="M302.4,225c0,0,5.9,4.1,9.3,7.7c3.4,3.6-0.7,53.2,0.2,58c0.9,4.8,0.3,44.5,0.2,46.1
					c-0.1,1.6-13.1,2.9-13.1,2.9s-2.9-85-3.6-85.9s0.4-25.7,0.4-25.7L302.4,225z"/>
			</g>
			<g>
				<polygon class="st16" points="253.3,459.3 249.8,472.7 244.7,475.6 241.9,470.7 243.6,454 249.1,452.4 				"/>
			</g>
			<g>
				<path class="st30" d="M281.5,315.2c-0.2-3.2-0.6-6.5-3-8.9c-2.2-2.1-5.2-3.1-8.1-3.8c-5.9-1.5-22.8,3.1-23.2,4.2
					c-0.7,1.8-1,3.7-1.2,5.6c-1,8.8-3,48.9-4.4,58.6c-1.7,12.2-0.8,24.6-2.9,36.7c-2.7,15.3-2.1,24.4-5.4,39.7
					c-0.2,0.9-3,14.1-2.5,14.9c0.4,0.8,22.9,0.6,22.9,0.6s15.7-78,18.3-92.6c1.1-6.1,1.3-6.1,1.8-12.3c0,0,0.1,0,0.1-0.1
					C282.7,346.7,282.2,328.7,281.5,315.2z"/>
			</g>
			<g>
				<polygon class="st16" points="292.9,458.3 290.9,472 286.2,475.5 282.8,470.9 282.7,454.1 288,452 				"/>
			</g>
			<g>
				<path class="st30" d="M303.1,303.5L303.1,303.5c0-0.1,0-0.3,0-0.5l0,0c0-0.2,0.3-2.3,0.3-2.5c0-0.3-6.7,2-9.7,1.8
					c-2.9-0.2-5.9-0.5-8.8-0.4c-4.9,0.1-15.1-6.3-16.9-1.3c-0.9,2.6,4.2,13.6,4,16.3c-0.3,3.6-0.5,7.2-0.8,10.8
					c-0.5,6.8-1.3,16.4-1.3,23.2c0,3.3,0.3,6.6,1.1,9.8c0.8,3.5,2.3,28,1.9,36.7c-0.5,8.7-0.4,9.1-0.8,17.9
					c-0.2,4.2-0.4,8.4-0.4,12.6c0,3.9,1.1,8.5,0.1,12.3c-0.4,1.5-0.8,3-0.7,4.5c0.1,1.9,0.9,3.6,1.2,5.4c0.6,3.9-0.2,7.7-1,11.5l0,0
					c-0.1,0.4-0.4,1,0.2,1.1c0.3,0.1,0.6,0,1,0s0.8,0,1.3,0c0.1,0,0.1,0,0.1-0.1c5.8-0.1,18.8,0.1,18.8,0.1s7.2-73.3,7.7-79.2
					C302.5,359.9,304.1,317,303.1,303.5z"/>
			</g>
			<g>
				<path class="st28" d="M299,175.5c-0.2-1.1-0.8-2.1-1.5-2.9c-0.5-0.6-1-1-1.6-1.5c-2.8-1.9-5-3.1-8.2-2.7
					c-2.1,0.3-4.1,0.1-6.1-0.2c-1.6-0.2-4.4,0.6-6,0.9c-1.2,0.3-2.6,0.7-3.6,1.4s-1.7,1.9-2.7,2.6c-1.1,0.7-2,1.6-2.6,2.8
					c-0.6,1.3-0.5,2.5-0.5,3.9c0,1.5-0.3,3-0.5,4.4c-0.3,3.3,1.2,6,2,9.1c0.4,1.7,0.3,3.7,1.3,5.3c0.8,1.4,2.1,2.6,2.4,4.2
					c0.6,0,1.2-0.1,1.7-0.3c1.7-0.5,3.4-1.5,5-2.3c1.7-0.9,3.4-1.8,4.9-3c1.6-1.3,2.9-2.9,4.3-4.4c1.5-1.7,3.1-3.2,4.8-4.7
					c2.8-2.6,6.8-7.5,6.8-7.8C298.9,179.9,299.3,177.2,299,175.5z"/>
			</g>
			<g>
				<path class="st28" d="M267.5,307c0,0,10.8,0.8,20.4,0.6s16.2-0.6,16.2-0.6l-0.8-7.6c0,0-22.6,0.3-25.8,0
					c-3.2-0.3-10.4-2.2-10.6-0.7C266.8,300.1,267.5,307,267.5,307z"/>
			</g>
			<g>
				<path class="st28" d="M272.8,166.2c-1.9-1.1-4.3-1.4-6.4-1.9c-1-0.3-1.9,0.1-2.3,1c-0.6,1.4-0.5,3.2-0.7,4.7
					c-0.2,1.3-0.5,2.6,0.7,3.5c1,0.7,2,0.3,3-0.2c1.7-1,3.7-1.5,5.5-2.1c0.8-0.3,2.7-0.6,2.7-1.7
					C275.4,168.1,273.8,166.8,272.8,166.2z"/>
			</g>
			<g>
				<rect x="273.2" y="301.2" class="st30" width="2.3" height="8.4"/>
			</g>
			<g>
				<rect x="297.7" y="301.7" class="st30" width="2.3" height="8.4"/>
			</g>
			<g>
				<path class="st17" d="M289.9,308.2h-4.5c-1,0-1.7-0.8-1.7-1.7v-2.3c0-1,0.8-1.7,1.7-1.7h4.5c1,0,1.7,0.8,1.7,1.7v2.3
					C291.6,307.4,290.8,308.2,289.9,308.2z M285.4,303.4c-0.5,0-0.8,0.4-0.8,0.8v2.3c0,0.5,0.4,0.8,0.8,0.8h4.5
					c0.5,0,0.8-0.4,0.8-0.8v-2.3c0-0.5-0.4-0.8-0.8-0.8H285.4z"/>
			</g>
			<g>
				<path class="st16" d="M298.6,199c-0.3,2.5-0.8,5.4-2,7.8c-0.9,2-2.3,3.8-4.4,5s-5.5,0.7-8.9-0.5c-4.5-1.6-8.9-4.4-10.4-6.2
					c-2.6-3.3-6.5-25.3,2-30.5s23.9,2,23.9,2s0.1,2.1,0.2,7.7c0,0.7,0,1.3,0,2C299,191.4,298.9,196.6,298.6,199z"/>
			</g>
			<g>
				<polygon class="st16" points="271.4,197.1 268,219.1 276.3,228 285.6,223.1 287.1,210.1 				"/>
			</g>
			<g>
				<path class="st10" d="M298.1,189.5c-0.1-0.3-0.2-0.8-0.5-0.9c-1.7-0.5-1.1,4.1,0.2,2.9C298.2,191,298.2,190,298.1,189.5z"/>
			</g>
			<g>
				<path class="st10" d="M287.5,189.5c-0.1-0.3-0.2-0.8-0.5-0.9c-1.7-0.5-1.1,4.1,0.2,2.9C287.6,191,287.6,190,287.5,189.5z"/>
			</g>
			<g>
				<path class="st26" d="M293.6,199.2c-0.7,0-1.3-0.1-1.5-0.2c-0.2-0.1-0.4-0.3-0.3-0.5s0.3-0.4,0.5-0.3c0.6,0.1,2.4,0.4,2.8-0.4
					c0.3-0.5-0.2-3.3-0.9-5.6c-0.1-0.2,0.1-0.5,0.3-0.6c0.2-0.1,0.5,0.1,0.6,0.3c0.3,1.2,1.3,5.2,0.8,6.2
					C295.5,199,294.5,199.2,293.6,199.2z"/>
			</g>
			<g>
				<path class="st28" d="M290,185c-0.5-0.5-1.4-0.6-2.1-0.6c-1.3-0.1-2.7,0.2-3.9,0.8c-0.3,0.2-0.7,0.4-1,0.7
					c-0.2,0.2-0.5,0.8,0,0.8c0.7,0,1.5-0.2,2.2-0.2c0.8,0,1.6-0.1,2.3,0c0.7,0,1.5,0.2,2.2,0C290.4,186.1,290.5,185.5,290,185z"/>
			</g>
			<g>
				<path class="st28" d="M298.9,186.8h-0.3c-0.7,0-1.5,0.2-2.2-0.1c-0.6-0.3-0.8-0.9-0.3-1.4s1.4-0.6,2.1-0.6c0.2,0,0.4,0,0.6,0
					C298.9,185.5,298.9,186.2,298.9,186.8z"/>
			</g>
			<g>
				<path class="st28" d="M292.5,206.5c-0.1-0.4-0.1-1-0.1-1.4s0-1.3,0-1.3s-0.7-0.3-1.1-0.3v-0.1c0-0.3-0.4-0.4-0.4-0.1
					c0,0.1,0,0.2,0,0.4c0,0.1-0.1,1.2-0.2,1.7s-0.2,1-0.6,1.3c-0.4,0.4-1.1,0.2-1.7,0.1c-2.8-0.6-4.7-2.4-6.7-4.4
					c-1.5-1.5-1.8-4.7-1.9-6.7c-0.3-4.2-0.8-8.3-1.3-12.5c0-0.3-0.5-0.3-0.5,0c0.1,0.8,0.2,1.6,0.3,2.5c-0.9,0.3-1.2,1.3-1.2,1.3
					s0.4,4.6,0.5,6.5c0.2,3.6,0.3,7.2,0.7,10.8c0.1,1.3,0.6,2.9,1.3,4.1c0.6,1,1.4,2,2.3,2.7c1.4,1.1,3,1.9,4.8,2.2
					c1.7,0.3,3.7-0.4,5.3-1.2c2.1-1.2,3.5-3,4.4-5C295.1,207.4,292.8,207.9,292.5,206.5z"/>
			</g>
			<g>
				<path class="st28" d="M298.9,178.4c0.1-1.3,0.2-1.7-0.6-2.8c-1.1-1.3-2.8-1.3-4.3-1.6c-4.2-0.8-8.6-1.5-13-1.5
					c-3.4,0.1-7,1-9.2,3.6c-1.2,1.4-1.6,3-1.9,4.8c-0.4,2.1-0.6,4.3-0.6,6.4c0,2.4,0.3,4.9,0.3,7.3c0,2.3,1.2,6.4,1.2,6.4
					s3.3-7.7,3.2-12.1l0.1-0.1c0-0.9,0.2-1.7,0.6-2.4c0.5-0.8,2.5,0.3,2.5,0.3s0.2,0.6,1,0.6s0.8-0.1,0.8-0.1s-0.2-3.8,2.2-5.7
					c1.2-1,2.5-1.8,4.1-1.9c1.7-0.2,3.2,0.5,4.9,0.8c3,0.6,8.7-0.3,8.7-0.3S298.9,178.5,298.9,178.4z"/>
			</g>
			<g>
				<path class="st16" d="M277.2,186.9c0,0-2.4-4-4.4-1.7c-1.9,2.1-2,5.6-0.3,7.9c0.1,0.2,1.6,1.7,1.8,1.4c0,0,3.1-3.1,3.1-3.7
					S277.2,186.9,277.2,186.9z"/>
			</g>
			<g>
				<path class="st26" d="M295.5,202.3c0,0-2.5-0.1-4.7-0.4c-2.2-0.2-3.2-1.4-3.2-1.4s0.7,2.8,3.3,3.1
					C294.7,204.1,295.5,202.3,295.5,202.3z"/>
			</g>
			<g>
				<path class="st14" d="M269.4,210.2c0,0,10.7,7.4,12.1,7.5s5-2,5-2s15.7,11.6,19.1,15.6s0.2,26.9-0.5,32.8s-0.3,33.9-0.9,36.8
					s-18.1,2.1-27.4,1.8c-9.4-0.3-28.4,1.6-31.1-1.5c-2.7-3.1-0.4-40.2,0.9-51c1.3-10.8-0.6-21.7-0.5-24
					C246.2,223.8,269.4,210.2,269.4,210.2z"/>
			</g>
			<g>
				<path class="st10" d="M282.5,469.6c0.4,0,3.8,1.8,4.6,1.9c0.8,0.1,3.8-1.9,4.8-1.7c1,0.2,1.3,1.4,1.5,1.7
					c0.1,0.4,6.3,5.3,7.2,6.1c0.9,0.8,6.4,2.9,7.1,3.5c0.6,0.6,0,3.2,0,3.2s-26.4,0.3-26.7-0.4c-0.3-0.7,0.8-8.3,0.7-10.9
					C281.6,470.5,282.1,469.6,282.5,469.6z"/>
			</g>
			<g>
				<path class="st10" d="M241.6,470c0,0,0.3-1,2.4-1c2.1,0,6.1,1.2,6.6,2.2s-0.3,6.6-0.5,7.6c-0.1,1-0.3,5.6-0.8,6.2
					s-6.9,4.3-8.1,4.8c-1.2,0.5-6.9,0.4-8.4,0.2c-1.4-0.2-2.8-1-3-1.4s0.8-3.6,2.7-5.6c3.6-3.7,4.8-5.9,6.8-8.3
					C240.5,473.1,241.6,470,241.6,470z"/>
			</g>
			<g>
				<path class="st19" d="M261.8,214.8c0,0,9,22.6,9.5,35.9c0.5,13.3-0.9,48.2-2,57.1c-1,8.8-2.4,29.8-4.4,30.1
					c-2,0.3-31.7-10.3-32.3-11.2c-0.6-0.9,7.6-32,7.9-35c0.3-3-5-58.7,2.1-66.8C246.2,221,261.8,214.8,261.8,214.8z"/>
			</g>
			<g>
				<path class="st19" d="M293.4,220.9c0,0,5.1,19.3,6.7,31.2c1.5,11.9,3.3,63.9,3.3,63.9l5.2-3.6v-49.7l-1.8-19.9
					c0,0-3.5-14.9-5.1-16.7C300.3,224.2,293.4,220.9,293.4,220.9z"/>
			</g>
			<g>
				<g>
					<path class="st16" d="M299.5,211c-1.9-1.6-5.8-2.3-7.6-2.4c-1.9-0.1-3.7-0.2-5.6-0.2c-1.2,0-2.4-0.3-3.6-0.1
						c-0.8,0.1-2.3,1.3-0.8,2c0.9,0.4,8.5,1.4,8.9,1.7s-0.8,2.4-0.5,3.9s0.3,1.3,1.6,4.2s5.6,3.8,8,3.9c2.4,0.1,3.4-7.5,3.4-7.5
						S301.4,212.6,299.5,211z"/>
				</g>
				<g>
					<path class="st16" d="M303.6,218.9c0,0,0.8-4.9-0.6-7.4s-2.6-4.8-2.7-5.7s0.1-2.9-1.1-2.6c-1,0.3-1.3,1.3-1.4,2.7
						s0.9,6.1,0.9,6.1s0.8,2.7,1.3,3.2C300.5,215.9,303.6,218.9,303.6,218.9z"/>
				</g>
			</g>
			<g>
				<polygon class="st16" points="296.9,221.5 305.3,259 314.2,262.1 319.4,255 303.3,215 				"/>
			</g>
			<g>
				<path class="st19" d="M299.1,237.9l12.7-5.2c0,0,4.1,5.2,5.3,8.5c1.2,3.3,7.3,13.2,7.3,26.4c0,4.7-5.3,8.3-11.2,7.8
					s-9.2-12.7-9.2-12.7L299.1,237.9z"/>
			</g>
			<g>
				<path class="st16" d="M298.8,276.9c0,0,4.3-4.9,6.8-5.8c2.6-1,8-1.1,9-1c1.1,0.1,2.2,1,0,1.8c-2.2,0.9-5.8,2.3-5.8,2.3
					s5.8,1.5,9.3,0.3s5.7-2.7,6.4-2.3c0.6,0.4,0.1,1-1,2.9c-1.1,2-7.6,7.7-10.5,8.3s-14.3-0.5-14.3-0.5v-6H298.8z"/>
			</g>
			<g>
				<polygon class="st16" points="305.4,283.3 300,283.6 295.9,283.8 262.3,285.8 257.2,278.7 263,271.2 295.7,274.6 299.9,275 
					301.3,275.2 				"/>
			</g>
			<g>
				<path class="st19" d="M263.2,257.7c0,0,4.1,8.8,6.1,10.1s17.6,2.9,17.9,4.1c0.2,1.2-0.9,16.4-0.9,16.4s-26.1,4.6-29,0.8
					c-2.9-3.8-9.1-22.1-9.1-23.1C248.1,265,263.2,257.7,263.2,257.7z"/>
			</g>
			<g>
				<path class="st26" d="M315.3,278.9c-0.2,0-0.4-0.1-0.4-0.3c-0.1-0.2,0-0.5,0.3-0.6l3.5-1.2c1.7-0.6,3.5-1.8,3.5-1.8
					c0.2-0.1,0.5-0.1,0.6,0.1s0.1,0.5-0.1,0.6c-0.1,0-1.9,1.2-3.7,1.9l-3.5,1.2C315.4,278.9,315.3,278.9,315.3,278.9z"/>
			</g>
			<g>
				<path class="st26" d="M293.4,215.4L293.4,215.4l-2.8-0.3c-0.2,0-0.4-0.2-0.4-0.5c0-0.2,0.2-0.4,0.5-0.4l2.7,0.3
					c0.2,0,0.4,0.2,0.4,0.5C293.8,215.3,293.6,215.4,293.4,215.4z"/>
			</g>
			<g>
				<path class="st26" d="M293.6,218.4h-2.1c-0.3,0-0.5-0.2-0.5-0.5s0.2-0.5,0.5-0.5h2.1c0.3,0,0.5,0.2,0.5,0.5
					C294.1,218.1,293.9,218.4,293.6,218.4z"/>
			</g>
			<g>
				<path class="st10" d="M300,283.6l-4.1,0.2c0.1-3.1,0-6.2-0.2-9.2l4.1,0.4C300,277.9,300.1,280.7,300,283.6z"/>
			</g>
			<g>
				<ellipse class="st15" cx="298.1" cy="280.7" rx="3.3" ry="3"/>
			</g>
			<g>
				<path class="st17" d="M276.2,223.4c-0.1,0-0.1,0-0.2,0c-1-0.3-7.9-8.1-10-10.5c-0.2-0.2-0.1-0.5,0-0.6c0.2-0.2,0.5-0.1,0.6,0
					c4.1,4.7,8.8,9.8,9.6,10.2c0.6-0.1,2.9-2.2,4.7-4.2c0.2-0.2,0.5-0.2,0.6,0c0.2,0.2,0.2,0.5,0,0.6
					C279.7,221,277.3,223.4,276.2,223.4z"/>
			</g>
			<g>
				<path class="st17" d="M287,223.9c-0.1,0-0.1,0-0.2,0c-1.1-0.3-3.9-3.9-4.7-5c-0.2-0.2-0.1-0.5,0.1-0.6c0.2-0.2,0.5-0.1,0.6,0.1
					c1.6,2.1,3.7,4.5,4.3,4.7l0,0c0.4,0,2-1.8,3.3-3.9c0.1-0.2,0.4-0.3,0.6-0.1c0.2,0.1,0.3,0.4,0.1,0.6
					C290.1,221.2,288.2,223.9,287,223.9z"/>
			</g>
			<g>
				<path class="st17" d="M290.3,272.4c-0.2,0-0.4-0.2-0.5-0.4c0,0-0.2-2.1-1.3-5.9c-0.6-2.1-0.5-4-0.4-6.4s0.3-5.3-0.2-9.5
					c-0.9-8.5-6.2-29.9-6.3-30.1c-0.1-0.2,0.1-0.5,0.3-0.5c0.2-0.1,0.5,0.1,0.5,0.3c0.1,0.2,5.4,21.7,6.3,30.2
					c0.5,4.3,0.3,7.3,0.2,9.7c-0.1,2.4-0.2,4.2,0.4,6.1c1.2,3.9,1.4,6.1,1.4,6.1C290.8,272.1,290.6,272.3,290.3,272.4L290.3,272.4z"
					/>
			</g>
			<g>
				<path class="st17" d="M290.3,302.2c-0.1,0-0.3-0.1-0.4-0.2c-0.2-0.2-0.1-0.5,0.1-0.6c0,0,1-0.9,1-2.7c0-2-0.4-13.4-0.4-13.5
					c0-0.3,0.2-0.5,0.4-0.5c0.2,0,0.5,0.2,0.5,0.4c0,0.5,0.4,11.5,0.4,13.5c0,2.3-1.3,3.3-1.4,3.4
					C290.5,302.1,290.4,302.2,290.3,302.2z"/>
			</g>
			<g>
				<path class="st31" d="M272.3,369.8h-0.1c-0.2-0.1-0.4-0.3-0.3-0.6l8.3-32.5l11-10.2c0.2-0.2,0.5-0.2,0.6,0
					c0.2,0.2,0.2,0.5,0,0.6l-10.8,10l-8.3,32.2C272.7,369.7,272.5,369.8,272.3,369.8z"/>
			</g>
			<g>
				<path class="st31" d="M281.9,338.4c-0.1,0-0.3-0.1-0.4-0.2c-0.1-0.2-0.1-0.5,0.1-0.6l7.2-5.3c0.2-0.1,0.5-0.1,0.6,0.1
					s0.1,0.5-0.1,0.6l-7.2,5.3C282.1,338.4,282,338.4,281.9,338.4z"/>
			</g>
			<g>
				<path class="st31" d="M274.6,457.6c-0.1,0-0.3-0.1-0.4-0.2c-0.1-0.2-0.1-0.5,0.1-0.6l0,0c0,0,2.1-1.5,5-6.4
					c3-4.9,4.4-7.1,4.4-7.1c0.1-0.2,0.4-0.3,0.6-0.1c0.2,0.1,0.3,0.4,0.1,0.6c0,0-1.4,2.2-4.4,7.1c-3,5-5.2,6.6-5.3,6.6
					C274.8,457.6,274.7,457.6,274.6,457.6z"/>
			</g>
			<g>
				<path class="st31" d="M279.4,446.1c-0.1,0-0.2,0-0.2-0.1c-0.2-0.1-0.3-0.4-0.1-0.6l7.4-11.5c0.1-0.2,0.4-0.3,0.6-0.1
					c0.2,0.1,0.3,0.4,0.1,0.6l-7.4,11.5C279.6,446,279.5,446.1,279.4,446.1z"/>
			</g>
			<g>
				<path class="st20" d="M252,270.1c-0.2,0-0.3-0.1-0.4-0.2c-0.1-0.2,0-0.5,0.2-0.6c0.1,0,1.5-0.8,6.1-1.9c4.6-1,11.2,0,11.5,0
					c0.2,0,0.4,0.3,0.4,0.5s-0.3,0.4-0.5,0.4c-0.1,0-6.8-1-11.2,0c-4.4,1-5.8,1.8-5.8,1.8C252.1,270.1,252.1,270.1,252,270.1z"/>
			</g>
			<g>
				<path class="st20" d="M263.7,267.8c-0.1,0-0.2,0-0.3-0.1c0,0-2.3-1.5-5.8-1.9c-3.5-0.3-9.4,0.6-9.4,0.6c-0.3,0-0.5-0.1-0.5-0.4
					c0-0.2,0.1-0.5,0.4-0.5c0.2,0,6-0.9,9.7-0.6s6.1,1.9,6.2,2c0.2,0.1,0.3,0.4,0.1,0.6C264,267.8,263.9,267.8,263.7,267.8z"/>
			</g>
			<g>
				<path class="st20" d="M268,290.4L268,290.4c-0.6,0-14.4-0.5-16.4-0.6c-6.2-0.5-8.8-16.4-8.9-17.1c0-0.2,0.1-0.5,0.4-0.5
					c0.2,0,0.5,0.1,0.5,0.4c0.7,4.4,3.6,15.9,8.1,16.3c2,0.2,16.2,0.6,16.3,0.6c0.3,0,0.4,0.2,0.4,0.5
					C268.5,290.2,268.3,290.4,268,290.4z"/>
			</g>
			<g>
				<path class="st20" d="M266.3,265.8c-0.2,0-0.4-0.1-0.4-0.3l-11.5-42.4c-0.1-0.2,0.1-0.5,0.3-0.6s0.5,0.1,0.6,0.3l11.5,42.4
					c0.1,0.2-0.1,0.5-0.3,0.6C266.4,265.8,266.3,265.8,266.3,265.8z"/>
			</g>
			<g>
				<path class="st20" d="M264.5,307.2l-18.1-5.1l1.3-5.8l17.5,5.7L264.5,307.2z M247.6,301.4l16.2,4.6l0.5-3.4l-15.8-5.2
					L247.6,301.4z"/>
			</g>
			<g>
				<path class="st20" d="M306.1,270.1c-0.2,0-0.4-0.1-0.4-0.3c0-0.1-2.4-6.2-3.5-10.7c-0.6-2.5-1.9-8.2-2.9-12.8
					c-0.8-3.5-1.5-6.8-1.6-7.1c-0.3-0.8,0.8-1.5,1.8-1.9c0.2-0.1,0.5,0,0.6,0.2s0,0.5-0.2,0.6c-0.6,0.3-1.1,0.7-1.3,0.9
					c0.1,0.5,0.6,2.6,1.6,7.2c1,4.6,2.3,10.3,2.9,12.7c1.1,4.5,3.4,10.5,3.5,10.6c0.1,0.2,0,0.5-0.3,0.6
					C306.2,270.1,306.2,270.1,306.1,270.1z"/>
			</g>
			<g>
				<path class="st20" d="M265.4,242.7c-1,0-1.9-0.1-2.4-0.3c-0.3-0.2-0.9-0.5-3.1-12.7c-1.1-5.9-2.1-11.8-2.1-11.9
					c0-0.2,0.1-0.5,0.4-0.5c0.2,0,0.5,0.1,0.5,0.4c1.4,8.7,3.9,22.7,4.8,23.9c0.8,0.3,3.8,0.2,5.7-0.1c0.3,0,0.5,0.1,0.5,0.4
					c0,0.2-0.1,0.5-0.4,0.5C268.8,242.5,267,242.7,265.4,242.7z M263.5,241.6L263.5,241.6L263.5,241.6z"/>
			</g>
			<g>
				<path class="st29" d="M271.6,171.7c-0.2,0-0.3-0.1-0.4-0.2c-0.1-0.2-0.1-0.5,0.1-0.6l2.7-1.7c0.2-0.1,0.5-0.1,0.6,0.1
					c0.1,0.2,0.1,0.5-0.1,0.6l-2.7,1.7C271.8,171.6,271.7,171.7,271.6,171.7z"/>
			</g>
			<g>
				<path class="st29" d="M295.9,179.4C295.9,179.4,295.8,179.4,295.9,179.4c-0.3-0.1-0.5-0.3-0.4-0.6c0,0,0.6-3-0.7-4.2
					c-0.9-0.8-3.3-2.6-7.2-3c-3.3-0.3-9.3-1.4-9.3-1.4c-0.2,0-0.4-0.3-0.4-0.5s0.3-0.4,0.5-0.4c0.1,0,6,1,9.3,1.4
					c3,0.3,5.8,1.5,7.7,3.2c1.8,1.6,1,4.9,1,5.1C296.3,179.3,296.1,179.4,295.9,179.4z"/>
			</g>
			<g>
				<path class="st29" d="M294,179.4c-0.2,0-0.4-0.2-0.5-0.4c0,0-0.2-2.1-1-3.4c-0.7-1.1-3.2-1.9-4.1-2.1c-0.2-0.1-0.4-0.3-0.3-0.5
					s0.3-0.4,0.5-0.3c0.4,0.1,3.7,0.9,4.6,2.5c1,1.6,1.1,3.7,1.1,3.8C294.4,179.2,294.2,179.4,294,179.4L294,179.4z"/>
			</g>
			<g>
				<path class="st29" d="M279.6,181.4C279.6,181.4,279.5,181.4,279.6,181.4c-0.3,0-5-0.8-7.3-2.6s-3.4-3.7-3.4-3.8
					c-0.1-0.2,0-0.5,0.2-0.6s0.5,0,0.6,0.2c0,0,1,1.8,3.2,3.5c2.1,1.7,6.8,2.4,6.8,2.4c0.2,0,0.4,0.3,0.4,0.5
					C280,181.2,279.8,181.4,279.6,181.4z"/>
			</g>
		</g>
	</g>
	<g>
		<g>
			<path class="st16" d="M730.4,226.3l-11,1.5l2.1-16.2l-6-1.6l0,0c-0.8-0.4-1.5-1.1-1.6-1.7c-0.1-1.1,0-3.3,0.2-5.5
				c0.1-0.7,0.1-1.3,0.2-2c0.3-2.6,0.6-5,0.7-6c0.1-0.9,0.9-3.7,1.7-6.7c0.2-0.7,0.4-1.4,0.6-2c1-3.3,1.9-6.3,2.4-6.8
				c1.1-1.4,2.4,1.3,3.9,0.3c1.4-1,8.3-3.8,10-3.7c0.3,0-5,3.5-5.3,3.4h-0.1c0.3,1.3,0.5,2.5,0.2,3.7c-0.4,1.5-1,2.9-1.5,4.4
				c-1,2.9,1.8,4.5,0.7,7.3c1.1,1.2,5.7,11,6.1,11.8C734,207.3,730.4,226.3,730.4,226.3z"/>
		</g>
		<g>
			<path class="st16" d="M716,191.9c0,0-3.4,3.5-3.6,4.7c-0.2,1.5,3,1.9,3,1.9s0.6-1,0.7-1.8C716.2,195.9,716,191.9,716,191.9z"/>
		</g>
		<g>
			<path class="st16" d="M719,381.1l-15,8.3l4.3,60.8h8.5c0,0,4.3-40,4.7-49.1C721.8,392,719,381.1,719,381.1z"/>
		</g>
		<g>
			<path class="st16" d="M749.4,380c0,0-15.8-2.1-13.3,11.3c1.8,9.5,19.5,58.3,19.5,58.3l8.3-2.1c0,0-6.2-41.4-8.1-50.3
				C754,388.4,749.4,380,749.4,380z"/>
		</g>
		<g>
			<path class="st16" d="M768.1,198.2c-1.4,3.3-2.5,5.5-2.5,5.5l-6.9-3.3l-1.6-12.7c0,0,3.4-8.3,3.4-9.1c0-0.6-5.9-29.6-7.9-39.6
				c-0.2-1.2-0.4-2.2-0.6-2.7c-0.1-0.3-0.1-0.5-0.1-0.5l0,0l0,0l6.1-2.9c0,0,0.2,0.6,0.6,1.5c0.3,0.7,0.6,1.6,1,2.6
				c3.8,10.1,13.2,35.4,14,41C774.3,182.6,770.7,192.1,768.1,198.2z"/>
		</g>
		<g>
			<path class="st16" d="M679.6,259.5l-3.2,5.3l-4.5,8c0,0-4.1,5.5,0,8.8c1.6,1.3,6.8-1.1,11-4.9c4-3.7,8.8-9.3,8.8-9.3L679.6,259.5
				z"/>
		</g>
		<g>
			<path class="st16" d="M671.3,280.9c0,0-2.5-3.8-4.7-8.8s-8.7-32.3-8.7-32.3l5.9-1.9c0,0,13.3,25.5,14.5,29.1
				c1.2,3.6-1.2,8.2-1.9,9.5C675.6,277.9,671.3,280.9,671.3,280.9z"/>
		</g>
		<g>
			<path class="st16" d="M665.3,230.4c-0.2-1.4-0.4-2.4-0.8-3.9c-0.2-0.8-0.4-3-1.7-2.4c-0.8,0.4-0.4,2-0.4,2.7
				c0.1,0.6,0.1,1.2,0.2,1.8c0,0.3,0.1,0.6,0.1,1c0,0.2,0,0.8,0.1,0.9c-0.1-0.1-0.2-0.3-0.4-0.4c-1.1-1.1-1.8-2.4-2.6-3.8
				c-0.9-1.5-1.7-3-2.6-4.5c-0.4-0.8-1-2.3-1.9-2.7c-0.4-0.2-1,0-1.2,0.4c-0.2,0.7,0.6,1.9,0.9,2.5c0.8,1.7,1.5,3.3,2.3,5
				c-0.7-1-1.4-2-2.1-3c-0.7-1-1.4-2-2.1-2.9c-0.4-0.5-1.2-1.5-1.9-1.4c-1.6,0.1-0.8,1.9-0.4,2.9c-1.2,0.5-0.4,3-0.1,4
				c0.7,1.8,1.4,3.6,2,5.5c-0.5-0.7-1.1-1.5-1.6-2.2c-0.3-0.4-2.3-2.3-2.7-1.2c-0.2,0.5,0.1,1.3,0.4,1.7c0.4,0.7,1,1.2,1.4,1.9
				c1.2,1.7,2.8,3,4.1,4.6c1,1.1,3,3.2,3.7,3.8c0.1,0.1,0.2,0.2,0.2,0.2s4-1.1,6-1c0.1,0.1,0.3,0.2,0.5,0c0,0,0,0,0-0.1
				C666.4,237.1,665.6,233.5,665.3,230.4z"/>
		</g>
		<g>
			<path class="st16" d="M752,135.9c0,0-3.3-5-2.8-6.5s1.1-3.8,1.8-5.3s-3.7-0.6-4.4-0.9s-2.9-1-0.5-2.3s7.4-2.8,10-1.9
				s2.8,8.6,2.6,10.1c-0.1,1.5-0.9,5-0.9,5L752,135.9z"/>
		</g>
		<g>
			<path class="st18" d="M742.5,211.7l14.6-24c0,0,7.4,6.1,9.9,9.1c6.6,7.9,6.6,16.3,6.6,16.3s-7.7,12.8-11.8,18.4
				c-4.1,5.6-7.9,14.4-7.9,14.4L742.5,211.7z"/>
		</g>
		<g>
			<path class="st22" d="M705.4,282.2l-1.6,10c0,0-5,9.1-5,28.3c0,12.5,5.2,68.9,5.2,68.9s50.5-1.8,51-3.4s0.6-23.8,0.9-32
				c0.3-8.2,2.4-32.8,0.9-41.6c-1.5-8.8-7.4-24.5-7.8-25.7c-0.5-1.2-0.6-4.5-0.6-4.5L705.4,282.2L705.4,282.2z"/>
		</g>
		<g>
			<path class="st18" d="M727.2,216.3c0,0-19.3,7.7-22.5,9.8s-8,7.4-7.9,8.2c0.2,0.8,4.8,26.3,5.3,37c0.5,10.7,0.2,9.7,1.4,12.7
				s43.4,1.5,45.8-1c1.2-1.3,10.9-55.7,9.2-61.1c-1.7-5.4-7.8-11.7-8.5-12.1S727.2,216.3,727.2,216.3z"/>
		</g>
		<g>
			<path class="st10" d="M750.4,207.3c0.6-4.2,1.2-8.4,1.1-12.6c-0.1-5-1.1-10.2-4.1-14.3c-3.2-4.3-8.5-6.8-13.8-6.5
				c-2.9,0.2-8.6-0.1-11.6,2.5c-1.6,1.4-3.9,3.5-2.7,5.9c0.4,0.8,1,1.5,1.6,2.1c0.4,0.5,0.8,0.9,1.1,1.5c0.4,0.7,0.3,1.4,0.4,2.2
				c0.2,1.2,1.2,1.9,2,2.7c1.8,0.6,2.4,2.7,2.4,4.5c0,1.1-0.2,2.2-0.6,3.2c-0.8,1.9-1.2,3.3-0.4,5.3c0.6,1.6,1.4,3,1.2,4.7
				c-0.2,1.4-0.7,2.8-1.4,4c-0.1,0.1-0.1,0.2-0.2,0.4c-0.4,1.2-0.9,2.5-1.2,3.8c-0.6,3-0.4,6.2-1.7,9c-1.4,2.9-4.2,4.8-5.2,8
				c-0.5,1.7-0.6,3.5-0.9,5.3c-0.3,1.5-0.9,2.9-1.6,4.2c-0.6,1.1-1.2,2.2-1.7,3.3c0.8,0,1.6,0,2.3,0.2c1,0.3,1.8,0.9,2.9,1.2
				c0.8,0.2,1.5,0.3,2.3,0.2c1.1,0,2,0.1,3,0.6c0.7,0.3,1.3,0.6,2.1,0.8c0.7,0.1,1.3,0,1.9-0.4c1.2-0.6,2.3-1,3.5,0
				c0.1,0.1,0.2,0,0.3-0.1c1.6-2.2,2.3-4.8,2.8-7.4c-0.2,1.3-0.1,2.8-0.1,4.1c0,0.9-0.6,3,0.1,3.6c-0.2-0.2,1.6-0.6,1.9-0.5
				c1,0,2.1,0.5,3.1,0.4c1.3-0.1,2.2-1.3,3.4-1.5s2.4,1.1,3.6,0.4c1.4-0.9,1.7-3.8,2-5.3c0.3-1.7,0.5-3.5,0.6-5.3
				c0-0.4,0.1-0.8,0.1-1.2c0.2-2,0.6-4.1,0.8-6.1c0.5-4.3,0-8.6,0-12.9c0-0.9,0-1.9,0.1-2.8C749.8,212,750.1,209.6,750.4,207.3z"/>
		</g>
		<g>
			<path class="st10" d="M717.7,458.6c-0.7,2.1-0.8,8.7-0.8,8.7h-1.5c0,0-0.2-6.2-0.5-6.3c-0.3-0.1-4.9,6-5.8,6.3
				c-0.6,0.2-10.5,0.1-11.1-0.1c-0.5-0.2-0.5-3.2,0-4c0.3-0.5,1.8-1.4,3.1-2.1c0.9-0.5,1.6-0.9,1.9-1.1l0,0c0.6-0.6,5.3-9.8,5.3-9.8
				s1.6-0.7,3.3-1.4c0.6-0.2,4.5-0.5,5.3-0.5c0.1,0,0.1,0,0.1,0s0.8,2.4,1.1,3.9C718.6,453.8,718.4,456.5,717.7,458.6z"/>
		</g>
		<g>
			<path class="st16" d="M716.9,448.3c-0.7,0.1-4.6,0.5-5.9,2.2c-1.4,1.9-4.1,9.9-6.6,10.7c-1.5,0.5-2.7,0.2-3.3-0.1
				c0.9-0.5,1.6-0.9,1.9-1.1l0,0c0.6-0.6,5.4-10,5.4-10s1.5-1.4,3.2-2.1C712.1,447.8,716.2,448.4,716.9,448.3z"/>
		</g>
		<g>
			<path class="st10" d="M766.7,455.6c-0.2,2.2,1.4,8.6,1.4,8.6l-1.5,0.4c0,0-1.7-6-2-6s-2.7,4.9-4.6,7c-1,1.2-7.8,4.5-9.7,3.8
				c-0.5-0.2-1.8-2.5-1.4-3.5c0.2-0.6,1.4-1.8,2.5-2.8c0.7-0.7,1.2-2.3,1.4-2.6l0,0c0.5-0.7,2.8-10.8,2.8-10.8s1.4-1.1,2.9-2.1
				c0.5-0.4,4.3-1.5,5-1.8c0.1,0,0.1,0,0.1,0s1.3,2.2,2.1,3.6C766.4,450.7,766.9,453.3,766.7,455.6z"/>
		</g>
		<g>
			<path class="st16" d="M763.5,445.8c-0.7,0.2-4.4,1.6-5.2,3.6c-0.9,2.1-1.3,10.2-3.7,12.3c-1.2,1.1-2.5,1.6-3.3,1.5
				c0.7-0.7,1.2-2.3,1.4-2.6l0,0c0.5-0.7,2.8-11,2.8-11s1-2,2.5-3.1C758.5,446.1,762.8,446,763.5,445.8z"/>
		</g>
		<g>
			<path class="st18" d="M698.8,231.5c0,0-3.6,2.3-5.6,6c-2,3.6-13.6,22.1-13.6,22.1l14.1,17.1l15.1-13.1L698.8,231.5z"/>
		</g>
		<g>
			<path class="st10" d="M762.9,117.4l-22.9,9.2l-1.4,1.3c-0.2,0.2-0.1,0.5,0.2,0.4l1.9-0.1l22.9-9.2c0.5-0.2,0.7-0.7,0.5-1.2l0,0
				C763.9,117.4,763.4,117.2,762.9,117.4z"/>
		</g>
		<g>
			<path class="st16" d="M751,134.3c0,0-3.5-4.4-3.9-5.9c-0.5-1.5,0.7-6.8,1.2-7.5c0.5-0.6,2.2-0.6,1.9,1.1s1.6,7.9,1.6,7.9
				L751,134.3z"/>
		</g>
		<g>
			<path class="st34" d="M759.1,122.6c-0.2,0-0.3-0.1-0.4-0.3c-0.1-0.2,0-0.5,0.2-0.6l4.4-1.8l-0.6-1.4c-0.1-0.2,0-0.5,0.2-0.6
				s0.5,0,0.6,0.2l1,2.2l-5.2,2.2C759.2,122.6,759.1,122.6,759.1,122.6z"/>
		</g>
		<g>
			<path class="st26" d="M656.2,231.2c-0.1,0-0.3-0.1-0.4-0.2l-4.9-7.7c-0.1-0.2-0.1-0.5,0.1-0.6c0.2-0.1,0.5-0.1,0.6,0.1l4.9,7.7
				c0.1,0.2,0.1,0.5-0.1,0.6C656.4,231.1,656.3,231.2,656.2,231.2z"/>
		</g>
		<g>
			<path class="st26" d="M751.3,128.8c-0.2,0-0.4-0.1-0.4-0.3l-0.7-2.7c-0.1-0.2,0.1-0.5,0.3-0.6s0.5,0.1,0.6,0.3l0.7,2.7
				c0.1,0.2-0.1,0.5-0.3,0.6C751.4,128.8,751.4,128.8,751.3,128.8z"/>
		</g>
		<g>
			<path class="st26" d="M747.6,123.3L747.6,123.3c-0.3,0-0.5-0.2-0.5-0.5c0-0.2,0.2-2.3,1.6-2.5c1.1-0.1,1.6,0.8,1.8,1.4
				c0.1,0.2-0.1,0.5-0.3,0.5c-0.2,0.1-0.5-0.1-0.5-0.3c0-0.1-0.2-0.8-0.8-0.7c-0.4,0-0.7,1.1-0.7,1.6
				C748.1,123.1,747.9,123.3,747.6,123.3z"/>
		</g>
		<g>
			<path class="st26" d="M675.1,267.9c-0.1,0-0.1,0-0.2,0c-0.2-0.1-0.3-0.4-0.2-0.6l1.3-2.7c0.1-0.2,0.4-0.3,0.6-0.2
				c0.2,0.1,0.3,0.4,0.2,0.6l-1.3,2.7C675.4,267.8,675.3,267.9,675.1,267.9z"/>
		</g>
		<g>
			<path class="st15" d="M659,246.8C658.9,246.8,658.9,246.8,659,246.8c-0.3,0-0.5-0.3-0.5-0.5s0.2-0.4,0.5-0.4
				c0.1,0,0.6-0.1,2.4-1.1c3-1.8,3.5-4.7,3.5-4.7c0-0.2,0.3-0.4,0.5-0.4s0.4,0.3,0.4,0.5c0,0.1-0.5,3.3-3.9,5.4
				C660,246.6,659.2,246.8,659,246.8z"/>
		</g>
		<g>
			<path class="st15" d="M658.6,244.9c-0.2,0-0.4-0.2-0.5-0.4c0-0.2,0.2-0.5,0.4-0.5c0,0,2.6-0.3,4.6-1.6c1.9-1.3,2.3-1.7,2.3-1.7
				c0.1-0.2,0.4-0.2,0.6-0.1c0.2,0.1,0.3,0.4,0.1,0.6c-0.1,0.1-0.5,0.6-2.5,1.9C661.4,244.6,658.7,244.9,658.6,244.9L658.6,244.9z"
				/>
		</g>
		<g>
			<path class="st15" d="M659.9,249.7c-0.1,0-0.2,0-0.3-0.1c-0.2-0.2-0.2-0.5,0-0.6l6.6-6.6c0.2-0.2,0.5-0.2,0.6,0
				c0.2,0.2,0.2,0.5,0,0.6l-6.6,6.6C660.1,249.7,660,249.7,659.9,249.7z"/>
		</g>
		<g>
			<path class="st35" d="M702.7,267.9L702.7,267.9c-0.3-0.1-0.5-0.3-0.4-0.5c0-0.1,1.7-9.3,0.8-16.4s-3.3-17.8-3.3-17.9
				c-0.1-0.2,0.1-0.5,0.3-0.5c0.2-0.1,0.5,0.1,0.5,0.3c0,0.1,2.4,10.8,3.3,18c0.9,7.2-0.8,16.6-0.8,16.7S702.9,267.9,702.7,267.9z"
				/>
		</g>
		<g>
			<path class="st35" d="M757.4,237.6C757.3,237.6,757.3,237.6,757.4,237.6c-0.3,0-0.5-0.3-0.5-0.5c0-0.1,0.6-5.6-1.3-12.3
				c-0.1-0.2,0.1-0.5,0.3-0.6s0.5,0.1,0.6,0.3c2,6.9,1.4,12.4,1.4,12.7C757.8,237.4,757.6,237.6,757.4,237.6z"/>
		</g>
		<g>
			<path class="st35" d="M758,227.3c-0.2,0-0.4-0.2-0.4-0.4c0-0.1-1.4-7.8-3.3-12.8c-0.1-0.2,0-0.5,0.3-0.6c0.2-0.1,0.5,0,0.6,0.3
				c1.9,5.1,3.3,12.9,3.3,13C758.5,227.1,758.4,227.3,758,227.3C758.1,227.3,758.1,227.3,758,227.3z"/>
		</g>
		<g>
			<path class="st35" d="M704.2,258.1L704.2,258.1c-0.3,0-0.5-0.3-0.4-0.5c0-0.1,1.1-7.7,1-13.1c-0.1-5.4-2-13.6-2-13.6
				c-0.1-0.2,0.1-0.5,0.3-0.5c0.2-0.1,0.5,0.1,0.5,0.3c0,0.1,1.9,8.4,2.1,13.8c0.1,5.5-1,13.2-1,13.3
				C704.6,257.9,704.4,258.1,704.2,258.1z"/>
		</g>
		<g>
			<path class="st35" d="M738.7,284.7c-0.1,0-0.3-0.1-0.4-0.2c-0.2-0.2-0.1-0.5,0.1-0.6c0,0,4.3-3.4,6.9-9.1
				c2.7-5.8,5.4-19,5.4-19.1c0.1-0.2,0.3-0.4,0.5-0.4c0.2,0.1,0.4,0.3,0.4,0.5c-0.1,0.5-2.8,13.4-5.5,19.3s-7,9.3-7.2,9.5
				C738.9,284.7,738.8,284.7,738.7,284.7z"/>
		</g>
		<g>
			<path class="st35" d="M734,283.9c-0.1,0-0.2,0-0.3-0.1c-0.2-0.2-0.2-0.4-0.1-0.6l5.9-6.9c0.2-0.2,0.4-0.2,0.6-0.1
				c0.2,0.2,0.2,0.4,0.1,0.6l-5.9,6.9C734.3,283.9,734.1,283.9,734,283.9z"/>
		</g>
		<g>
			<path class="st10" d="M759.8,138c-0.9,0.3-1.9,0.6-2.8,0.9c-1.4,0.4-2.8,0.7-4.1,1.2c-0.2-1.2-0.4-2.2-0.6-2.7
				c2.1-0.8,4.4-1.4,6.5-2C759,136,759.4,136.9,759.8,138z"/>
		</g>
		<g>
			<path class="st14" d="M759.8,136.8c0.3,1.3-0.4,2.5-1.5,2.8s-2.3-0.6-2.6-1.8c-0.3-1.3,0.4-2.5,1.5-2.8S759.5,135.5,759.8,136.8z
				"/>
		</g>
		<g>
			<path class="st10" d="M721.1,189C721,189,721,189,721.1,189c-0.8-1.4-2.3-2.4-3.7-2.9h-0.1c-0.2,0.7-0.4,1.4-0.6,2
				c0.4,0.1,0.8,0.1,1.2,0.2c0.5,0.1,1.1,0.3,1.6,0.6c0.4,0.1,1,0.6,1.4,0.6c0.1,0,0.2-0.1,0.2-0.2
				C721.1,189.1,721.1,189.1,721.1,189z"/>
		</g>
		<g>
			<path class="st10" d="M718.2,190.8c0.1-0.3,0.1-0.8-0.2-0.9c-1.3-1.1-2.4,3.2-0.8,2.6C717.7,192.2,718.1,191.3,718.2,190.8z"/>
		</g>
		<g>
			<path class="st14" d="M717.6,201.4c0,0-1,0.8-2.2,1.1c-0.5,0.1-1,0.2-1.4,0.2c0.1-0.7,0.1-1.3,0.2-2c0.7,0.2,1.6,0.5,2.3,0.5
				C717.8,201.2,717.6,201.4,717.6,201.4z"/>
		</g>
		<g>
			<path class="st36" d="M718.2,241.4L718.2,241.4c-0.3-0.1-0.5-0.3-0.4-0.5c0-0.2,1.1-5.4,2.1-7.5c0.4-0.8,1.2-1.7,2-2.7
				c1.3-1.5,2.7-3.2,3.4-5.2c0.4-1.3,0.5-2.5,0.7-3.7c0.2-1.8,0.4-3.9,1.7-7c2.2-5,0.6-12,0.6-12c-0.1-0.2,0.1-0.5,0.3-0.5
				c0.2-0.1,0.5,0.1,0.5,0.3c0.1,0.3,1.6,7.3-0.6,12.6c-1.3,3-1.5,4.9-1.6,6.7c-0.1,1.3-0.2,2.4-0.7,3.9c-0.7,2.2-2.2,3.9-3.6,5.5
				c-0.8,1-1.5,1.8-1.9,2.5c-1,2-2,7.2-2,7.3C718.6,241.3,718.4,241.4,718.2,241.4z"/>
		</g>
		<g>
			<path class="st36" d="M722.1,244.6c-0.2,0-0.4-0.2-0.5-0.4c0-0.3-0.6-6.4,1.8-9.1c2.3-2.7,3.7-5.7,4.3-7.5
				c0.6-1.9,1.2-5.9,1.2-5.9c0-0.2,0.3-0.4,0.5-0.4s0.4,0.3,0.4,0.5s-0.6,4.1-1.2,6c-0.6,1.9-2.1,5-4.4,7.8
				c-2.1,2.4-1.6,8.4-1.5,8.4C722.6,244.4,722.4,244.6,722.1,244.6L722.1,244.6z"/>
		</g>
		<g>
			<path class="st36" d="M748,220c-0.2,0-0.4-0.2-0.5-0.4c0-0.2-0.5-5.7-0.4-8.1c0.2-2.4,0.6-5.7,1.4-10.7c0.8-4.8,0-11.3,0-11.4
				c0-0.2,0.1-0.5,0.4-0.5c0.3,0,0.5,0.1,0.5,0.4c0,0.3,0.8,6.7,0,11.6c-0.8,5-1.3,8.2-1.4,10.6c-0.1,2.4,0.4,7.9,0.4,7.9
				C748.5,219.8,748.3,220,748,220C748.1,220,748,220,748,220z"/>
		</g>
		<g>
			<path class="st15" d="M726.3,199.2c-0.2-0.6-0.4-1.2-0.6-1.7c0,0,0-0.1-0.1-0.1c0-0.2-0.3-0.2-0.4,0c-0.9,1.8-2.2,4.1-1.1,6.1
				c0.7,1.2,1.9,0.6,2.3-0.5C726.8,201.7,726.6,200.4,726.3,199.2z M725.8,202.4c-0.2,0.5-0.9,0.7-1.2,0.2c-0.2-0.2-0.2-0.5-0.2-0.8
				c0-0.4,0-0.8,0.1-1.2c0-0.2,0.1-0.4,0.2-0.6c0.4-0.5,0.9-0.2,1.1,0.3c0,0.1,0,0.1,0.1,0.2C726,201.1,726.1,201.8,725.8,202.4z"/>
		</g>
	</g>
	<g>
		<path class="st23" d="M728.1,341.5c-0.1,0-0.2,0-0.3-0.1c-0.2-0.2-0.2-0.5,0-0.6c0.1-0.1,8.6-10,12.2-16.6
			c3.6-6.7,6.8-12.2,6.8-12.3c0.1-0.2,0.4-0.3,0.6-0.2c0.2,0.1,0.3,0.4,0.2,0.6c0,0.1-3.2,5.5-6.8,12.2s-12.2,16.7-12.3,16.8
			C728.3,341.5,728.2,341.5,728.1,341.5z"/>
	</g>
</g>
</svg>
