<?xml version="1.0" encoding="utf-8"?>
<!-- Generator: Adobe Illustrator 24.3.0, SVG Export Plug-In . SVG Version: 6.00 Build 0)  -->
<svg version="1.1" id="Layer_5" xmlns="http://www.w3.org/2000/svg" xmlns:xlink="http://www.w3.org/1999/xlink" x="0px" y="0px"
	 viewBox="0 0 145.5 154.7" style="enable-background:new 0 0 145.5 154.7;" xml:space="preserve">
<style type="text/css">
	.st0{fill:url(#SVGID_1_);}
	.st1{fill:url(#SVGID_2_);}
	.st2{fill:url(#SVGID_3_);}
	.st3{fill:url(#SVGID_4_);}
</style>
<g>
	<linearGradient id="SVGID_1_" gradientUnits="userSpaceOnUse" x1="-18.5813" y1="100.7762" x2="179.5234" y2="100.7762">
		<stop  offset="0" style="stop-color:#FFFFFF"/>
		<stop  offset="1" style="stop-color:#FDB6C8"/>
	</linearGradient>
	<path class="st0" d="M53.9,46.9C24.1,46.9,0,71,0,100.8c0,29.8,24.1,53.9,53.9,53.9c29.8,0,53.9-24.1,53.9-53.9
		C107.8,71,83.6,46.9,53.9,46.9z M53.9,122.7c-12.1,0-21.9-9.8-21.9-21.9c0-12.1,9.8-21.9,21.9-21.9c12.1,0,21.9,9.8,21.9,21.9
		C75.8,112.9,66,122.7,53.9,122.7z"/>
	<g>
		<linearGradient id="SVGID_2_" gradientUnits="userSpaceOnUse" x1="50.7914" y1="15.9155" x2="110.2178" y2="15.9155">
			<stop  offset="0" style="stop-color:#FFFFFF"/>
			<stop  offset="1" style="stop-color:#FDB6C8"/>
		</linearGradient>
		<path class="st1" d="M82.3,30.2c-7.9,0-14.2-6.4-14.2-14.2c0-7.9,6.4-14.2,14.2-14.2c7.9,0,14.3,6.4,14.3,14.2
			C96.5,23.8,90.1,30.2,82.3,30.2z M82.3,4.2c-6.5,0-11.7,5.3-11.7,11.7c0,6.5,5.3,11.7,11.7,11.7c6.5,0,11.7-5.3,11.7-11.7
			C94,9.5,88.7,4.2,82.3,4.2z"/>
	</g>
	<linearGradient id="SVGID_3_" gradientUnits="userSpaceOnUse" x1="99.4747" y1="30.5742" x2="148.1823" y2="30.5742">
		<stop  offset="0" style="stop-color:#FFFFFF"/>
		<stop  offset="1" style="stop-color:#FDB6C8"/>
	</linearGradient>
	<path class="st2" d="M139.2,30.6c0,7.2-5.8,13-13,13c-7.2,0-13-5.8-13-13c0-7.2,5.8-13,13-13C133.4,17.6,139.2,23.4,139.2,30.6z"/>
	<linearGradient id="SVGID_4_" gradientUnits="userSpaceOnUse" x1="123.372" y1="4.6068" x2="132.5864" y2="4.6068">
		<stop  offset="0" style="stop-color:#FFFFFF"/>
		<stop  offset="1" style="stop-color:#FDB6C8"/>
	</linearGradient>
	<path class="st3" d="M145.5,4.6c0,2.5-2.1,4.6-4.6,4.6c-2.5,0-4.6-2.1-4.6-4.6c0-2.5,2.1-4.6,4.6-4.6C143.4,0,145.5,2.1,145.5,4.6z
		"/>
</g>
</svg>
